<svg width="1920" height="1080" viewBox="0 0 1920 1080" fill="none" xmlns="http://www.w3.org/2000/svg">
<g style="mix-blend-mode:lighten">
<g style="mix-blend-mode:lighten" opacity="0.1">
<path d="M126.418 889.523C189.458 1061.02 433.127 1129.25 670.69 1042.04C908.253 954.697 1049.86 744.973 986.822 573.477C923.781 401.981 680.113 333.755 442.549 420.963C204.986 508.303 63.377 718.027 126.418 889.523Z" fill="url(#paint0_radial_222_3994)"/>
<path d="M90.1858 723.868C105.05 764.352 256.613 745.902 428.614 682.719C600.615 619.537 728.024 535.382 713.159 495.03C698.295 454.545 546.732 472.996 374.731 536.178C202.73 599.361 75.3215 683.383 90.1858 723.868Z" fill="url(#paint1_radial_222_3994)"/>
<path d="M54.8831 1028.37C69.7474 1068.85 274.397 1030.89 511.96 943.547C749.524 856.339 930.152 752.672 915.287 712.187C900.423 671.702 695.774 709.665 458.21 797.006C220.514 884.346 40.0188 987.881 54.8831 1028.37Z" fill="url(#paint2_radial_222_3994)"/>
<path d="M56.7411 904.522C71.6054 945.007 276.255 907.044 513.819 819.704C751.382 732.363 932.01 628.828 917.145 588.344C902.281 547.859 697.632 585.822 460.068 673.162C222.505 760.503 41.8768 864.038 56.7411 904.522Z" fill="url(#paint3_radial_222_3994)"/>
<path d="M303.729 739.133C313.55 765.946 514.218 716.966 751.782 629.625C989.345 542.285 1173.95 449.767 1164.13 422.955C1154.31 396.142 953.644 445.122 716.081 532.462C478.517 619.803 293.775 712.32 303.729 739.133Z" fill="url(#paint4_radial_222_3994)"/>
<path d="M15.7316 784.528C21.7039 800.722 265.638 725.991 560.535 617.678C855.432 509.365 1089.81 408.22 1083.84 392.026C1077.87 375.832 833.932 450.563 539.035 558.876C244.138 667.189 9.75932 768.334 15.7316 784.528Z" fill="url(#paint5_radial_222_3994)"/>
<path d="M224.761 1026.77C230.733 1042.97 474.667 968.236 769.564 859.923C1064.46 751.61 1298.84 650.597 1292.87 634.403C1286.9 618.209 1042.96 692.94 748.064 801.253C453.167 909.566 218.789 1010.58 224.761 1026.77Z" fill="url(#paint6_radial_222_3994)"/>
<path d="M1.13272 866.825C4.98151 877.311 142.742 836.296 308.771 775.37C474.8 714.443 606.322 656.438 602.473 645.951C598.625 635.465 460.864 676.481 294.835 737.407C128.806 798.333 -2.71608 856.339 1.13272 866.825Z" fill="url(#paint7_radial_222_3994)"/>
<path d="M674.54 835.5C678.389 845.986 776.733 819.439 894.187 776.299C1011.64 733.16 1103.75 689.622 1099.9 679.136C1096.05 668.65 997.706 695.197 880.252 738.337C762.797 781.476 670.692 825.014 674.54 835.5Z" fill="url(#paint8_radial_222_3994)"/>
<path d="M235.245 608.918C239.094 619.404 337.438 592.857 454.892 549.717C572.347 506.578 664.452 463.04 660.604 452.554C656.755 442.068 558.411 468.615 440.957 511.755C323.502 554.894 231.397 598.432 235.245 608.918Z" fill="url(#paint9_radial_222_3994)"/>
<path d="M542.222 964.918C546.07 975.404 644.414 948.857 761.868 905.718C879.323 862.578 971.428 819.041 967.58 808.554C963.731 798.068 865.388 824.615 747.933 867.755C630.478 910.894 538.373 954.432 542.222 964.918Z" fill="url(#paint10_radial_222_3994)"/>
<path d="M740.899 726.258C744.748 736.744 843.091 710.197 960.546 667.057C1078 623.918 1170.11 580.38 1166.26 569.894C1162.41 559.408 1064.06 585.955 946.61 629.094C829.156 672.234 737.05 715.772 740.899 726.258Z" fill="url(#paint11_radial_222_3994)"/>
<path d="M476.925 566.045C480.774 576.531 579.117 549.983 696.571 506.844C814.026 463.705 906.132 420.167 902.283 409.681C898.434 399.195 800.091 425.742 682.636 468.881C565.182 512.021 473.076 555.558 476.925 566.045Z" fill="url(#paint12_radial_222_3994)"/>
<path d="M227.017 756.786C230.866 767.273 329.209 740.725 446.664 697.586C564.118 654.446 656.224 610.909 652.375 600.423C648.526 589.936 550.183 616.484 432.728 659.623C315.274 702.763 223.168 746.3 227.017 756.786Z" fill="url(#paint13_radial_222_3994)"/>
<path d="M195.032 1070.97C198.881 1081.46 297.224 1054.91 414.679 1011.77C532.133 968.634 624.239 925.096 620.39 914.61C616.541 904.124 518.198 930.671 400.744 973.811C283.289 1016.95 191.183 1060.49 195.032 1070.97Z" fill="url(#paint14_radial_222_3994)"/>
<path d="M409.637 566.443C413.486 576.929 511.829 550.382 629.284 507.242C746.739 464.103 838.844 420.565 834.995 410.079C831.147 399.593 732.803 426.14 615.349 469.28C497.894 512.419 405.789 555.957 409.637 566.443Z" fill="url(#paint15_radial_222_3994)"/>
<path d="M372.742 791.697C376.591 802.183 474.934 775.636 592.389 732.496C709.843 689.357 801.949 645.819 798.1 635.333C794.251 624.847 695.908 651.394 578.453 694.534C460.999 737.673 368.893 781.211 372.742 791.697Z" fill="url(#paint16_radial_222_3994)"/>
<path d="M406.585 852.225C410.434 862.711 508.777 836.163 626.232 793.024C743.686 749.885 835.792 706.347 831.943 695.861C828.094 685.375 729.751 711.922 612.296 755.061C494.709 798.334 402.736 841.738 406.585 852.225Z" fill="url(#paint17_radial_222_3994)"/>
<path d="M124.958 933.061C128.806 943.547 227.15 916.999 344.604 873.86C462.059 830.721 554.164 787.183 550.316 776.697C546.467 766.211 448.124 792.758 330.669 835.897C213.214 879.037 121.109 922.574 124.958 933.061Z" fill="url(#paint18_radial_222_3994)"/>
</g>
<g style="mix-blend-mode:lighten" opacity="0.1">
<path d="M1040.5 381.6C1088 510.8 1271.6 562.2 1450.6 496.5C1629.6 430.7 1736.3 272.7 1688.8 143.5C1641.3 14.3001 1457.7 -37.0999 1278.7 28.6001C1099.7 94.4001 993 252.4 1040.5 381.6Z" fill="url(#paint19_radial_222_3994)"/>
<path d="M1013.2 256.8C1024.4 287.3 1138.6 273.4 1268.2 225.8C1397.8 178.2 1493.8 114.8 1482.6 84.4001C1471.4 53.9001 1357.2 67.8001 1227.6 115.4C1098 163 1002 226.3 1013.2 256.8Z" fill="url(#paint20_radial_222_3994)"/>
<path d="M986.6 486.2C997.8 516.7 1152 488.1 1331 422.3C1510 356.6 1646.1 278.5 1634.9 248C1623.7 217.5 1469.5 246.1 1290.5 311.9C1111.4 377.7 975.4 455.7 986.6 486.2Z" fill="url(#paint21_radial_222_3994)"/>
<path d="M988 392.9C999.2 423.4 1153.4 394.8 1332.4 329C1511.4 263.2 1647.5 185.2 1636.3 154.7C1625.1 124.2 1470.9 152.8 1291.9 218.6C1112.9 284.4 976.8 362.4 988 392.9Z" fill="url(#paint22_radial_222_3994)"/>
<path d="M1174.1 268.3C1181.5 288.5 1332.7 251.6 1511.7 185.8C1690.7 120 1829.8 50.3001 1822.4 30.1001C1815 9.90007 1663.8 46.8001 1484.8 112.6C1305.8 178.4 1166.6 248.1 1174.1 268.3Z" fill="url(#paint23_radial_222_3994)"/>
<path d="M957.1 302.5C961.6 314.7 1145.4 258.4 1367.6 176.8C1589.8 95.2001 1766.4 19.0001 1761.9 6.80005C1757.4 -5.39995 1573.6 50.9001 1351.4 132.5C1129.2 214.1 952.6 290.3 957.1 302.5Z" fill="url(#paint24_radial_222_3994)"/>
<path d="M1114.6 485C1119.1 497.2 1302.9 440.9 1525.1 359.3C1747.3 277.7 1923.9 201.6 1919.4 189.4C1914.9 177.2 1731.1 233.5 1508.9 315.1C1286.7 396.7 1110.1 472.8 1114.6 485Z" fill="url(#paint25_radial_222_3994)"/>
<path d="M946.1 364.5C949 372.4 1052.8 341.5 1177.9 295.6C1303 249.7 1402.1 206 1399.2 198.1C1396.3 190.2 1292.5 221.1 1167.4 267C1042.3 312.9 943.2 356.6 946.1 364.5Z" fill="url(#paint26_radial_222_3994)"/>
<path d="M1453.5 340.9C1456.4 348.8 1530.5 328.8 1619 296.3C1707.5 263.8 1776.9 231 1774 223.1C1771.1 215.2 1697 235.2 1608.5 267.7C1520 300.2 1450.6 333 1453.5 340.9Z" fill="url(#paint27_radial_222_3994)"/>
<path d="M1122.5 170.2C1125.4 178.1 1199.5 158.1 1288 125.6C1376.5 93.1001 1445.9 60.3001 1443 52.4001C1440.1 44.5001 1366 64.5001 1277.5 97.0001C1189 129.5 1119.6 162.3 1122.5 170.2Z" fill="url(#paint28_radial_222_3994)"/>
<path d="M1353.8 438.4C1356.7 446.3 1430.8 426.3 1519.3 393.8C1607.8 361.3 1677.2 328.5 1674.3 320.6C1671.4 312.7 1597.3 332.7 1508.8 365.2C1420.3 397.7 1350.9 430.5 1353.8 438.4Z" fill="url(#paint29_radial_222_3994)"/>
<path d="M1503.5 258.6C1506.4 266.5 1580.5 246.5 1669 214C1757.5 181.5 1826.9 148.7 1824 140.8C1821.1 132.9 1747 152.9 1658.5 185.4C1570 217.9 1500.6 250.7 1503.5 258.6Z" fill="url(#paint30_radial_222_3994)"/>
<path d="M1304.6 137.9C1307.5 145.8 1381.6 125.8 1470.1 93.3001C1558.6 60.8001 1628 28.0001 1625.1 20.1001C1622.2 12.2001 1548.1 32.2001 1459.6 64.7001C1371.1 97.2001 1301.7 130 1304.6 137.9Z" fill="url(#paint31_radial_222_3994)"/>
<path d="M1116.3 281.6C1119.2 289.5 1193.3 269.5 1281.8 237C1370.3 204.5 1439.7 171.7 1436.8 163.8C1433.9 155.9 1359.8 175.9 1271.3 208.4C1182.8 240.9 1113.4 273.7 1116.3 281.6Z" fill="url(#paint32_radial_222_3994)"/>
<path d="M1092.2 518.3C1095.1 526.2 1169.2 506.2 1257.7 473.7C1346.2 441.2 1415.6 408.4 1412.7 400.5C1409.8 392.6 1335.7 412.6 1247.2 445.1C1158.7 477.6 1089.3 510.4 1092.2 518.3Z" fill="url(#paint33_radial_222_3994)"/>
<path d="M1253.9 138.2C1256.8 146.1 1330.9 126.1 1419.4 93.6001C1507.9 61.1001 1577.3 28.3001 1574.4 20.4001C1571.5 12.5001 1497.4 32.5001 1408.9 65.0001C1320.4 97.5001 1251 130.3 1253.9 138.2Z" fill="url(#paint34_radial_222_3994)"/>
<path d="M1226.1 307.9C1229 315.8 1303.1 295.8 1391.6 263.3C1480.1 230.8 1549.5 198 1546.6 190.1C1543.7 182.2 1469.6 202.2 1381.1 234.7C1292.6 267.2 1223.2 300 1226.1 307.9Z" fill="url(#paint35_radial_222_3994)"/>
<path d="M1251.6 353.5C1254.5 361.4 1328.6 341.4 1417.1 308.9C1505.6 276.4 1575 243.6 1572.1 235.7C1569.2 227.8 1495.1 247.8 1406.6 280.3C1318 312.9 1248.7 345.6 1251.6 353.5Z" fill="url(#paint36_radial_222_3994)"/>
<path d="M1039.4 414.4C1042.3 422.3 1116.4 402.3 1204.9 369.8C1293.4 337.3 1362.8 304.5 1359.9 296.6C1357 288.7 1282.9 308.7 1194.4 341.2C1105.9 373.7 1036.5 406.5 1039.4 414.4Z" fill="url(#paint37_radial_222_3994)"/>
</g>
</g>
<path d="M355.195 959.158C347.983 967.922 337.229 973 325.88 973H125.935C120.297 973 115.727 968.43 115.727 962.793C115.727 960.401 116.567 958.086 118.1 956.25L135.54 935.365C142.753 926.728 153.426 921.736 164.679 921.736H365.171C370.599 921.736 375 926.136 375 931.564C375 933.843 374.208 936.05 372.761 937.809L355.195 959.158Z" fill="url(#paint38_linear_222_3994)"/>
<path d="M349.467 955.422C342.256 964.186 331.502 969.264 320.152 969.264H120.207C114.57 969.264 110 964.694 110 959.057C110 956.666 110.84 954.35 112.373 952.514L129.813 931.63C137.026 922.992 147.699 918 158.952 918H359.444C364.872 918 369.272 922.4 369.272 927.829C369.272 930.107 368.481 932.314 367.033 934.074L349.467 955.422Z" fill="url(#paint39_linear_222_3994)"/>
<path d="M163.89 951.565V934.096H177.763C178.427 934.096 179.027 934.258 179.561 934.582C180.112 934.906 180.549 935.343 180.873 935.894C181.213 936.445 181.383 937.044 181.383 937.692V942.211C181.383 942.859 181.213 943.458 180.873 944.009C180.549 944.56 180.112 944.997 179.561 945.321C179.027 945.645 178.427 945.807 177.763 945.807L167.656 945.831V951.565H163.89ZM167.656 942.017H177.569V937.862H167.656V942.017ZM196.69 951.565L191.613 945.515H196.545L200.578 950.277V951.565H196.69ZM183.109 951.565V934.096H196.982C197.646 934.096 198.245 934.258 198.78 934.582C199.331 934.906 199.768 935.343 200.092 935.894C200.432 936.445 200.602 937.044 200.602 937.692V942.211C200.602 942.859 200.432 943.458 200.092 944.009C199.768 944.56 199.331 944.997 198.78 945.321C198.245 945.645 197.646 945.807 196.982 945.807L186.875 945.831V951.565H183.109ZM186.875 942.017H196.788V937.862H186.875V942.017ZM203.207 951.565V934.072H219.364V937.862H207.021V940.923H216.958V944.714H207.021V947.775H219.364V951.565H203.207ZM231.381 951.565L221.25 934.072H225.623L232.96 946.779L240.298 934.072H244.647L234.515 951.565H231.381ZM245.52 951.565V934.072H249.237V951.565H245.52ZM254.871 951.565C254.223 951.565 253.624 951.403 253.073 951.079C252.522 950.755 252.085 950.318 251.761 949.767C251.437 949.217 251.275 948.617 251.275 947.969V937.668C251.275 937.004 251.437 936.404 251.761 935.87C252.085 935.319 252.522 934.882 253.073 934.558C253.624 934.234 254.223 934.072 254.871 934.072H265.172C265.82 934.072 266.411 934.234 266.946 934.558C267.497 934.882 267.934 935.319 268.258 935.87C268.598 936.404 268.768 937.004 268.768 937.668V947.969C268.768 948.617 268.598 949.217 268.258 949.767C267.934 950.318 267.497 950.755 266.946 951.079C266.411 951.403 265.82 951.565 265.172 951.565H254.871ZM255.041 947.775H264.954V937.862H255.041V947.775ZM274.991 951.565C274.343 951.565 273.744 951.403 273.193 951.079C272.642 950.755 272.205 950.318 271.881 949.767C271.557 949.217 271.395 948.617 271.395 947.969V934.072H275.161V947.775H285.074V934.072H288.889V947.969C288.889 948.617 288.719 949.217 288.378 949.767C288.054 950.318 287.617 950.755 287.066 951.079C286.532 951.403 285.941 951.565 285.293 951.565H274.991ZM295.111 951.565C294.464 951.565 293.864 951.403 293.314 951.079C292.763 950.755 292.326 950.318 292.002 949.767C291.678 949.217 291.516 948.617 291.516 947.969V946.341H295.282V947.775H305.194V944.714H295.111C294.464 944.714 293.864 944.552 293.314 944.228C292.763 943.904 292.326 943.475 292.002 942.94C291.678 942.389 291.516 941.782 291.516 941.118V937.668C291.516 937.004 291.678 936.404 292.002 935.87C292.326 935.319 292.763 934.882 293.314 934.558C293.864 934.234 294.464 934.072 295.111 934.072H305.413C306.061 934.072 306.652 934.234 307.187 934.558C307.737 934.882 308.175 935.319 308.499 935.87C308.839 936.404 309.009 937.004 309.009 937.668V939.296H305.194V937.862H295.282V940.923H305.413C306.061 940.923 306.652 941.085 307.187 941.409C307.737 941.733 308.175 942.171 308.499 942.721C308.839 943.256 309.009 943.855 309.009 944.519V947.969C309.009 948.617 308.839 949.217 308.499 949.767C308.175 950.318 307.737 950.755 307.187 951.079C306.652 951.403 306.061 951.565 305.413 951.565H295.111Z" fill="white"/>
<path d="M163.89 951.565H163.51V951.945H163.89V951.565ZM163.89 934.096V933.717H163.51V934.096H163.89ZM179.561 934.582L179.364 934.907L179.369 934.909L179.561 934.582ZM180.873 935.894L180.546 936.087L180.55 936.094L180.873 935.894ZM180.873 944.009L180.55 943.809L180.546 943.817L180.873 944.009ZM179.561 945.321L179.369 944.994L179.364 944.996L179.561 945.321ZM177.763 945.807V945.427L177.762 945.427L177.763 945.807ZM167.656 945.831L167.655 945.452L167.276 945.453V945.831H167.656ZM167.656 951.565V951.945H168.036V951.565H167.656ZM167.656 942.017H167.276V942.396H167.656V942.017ZM177.569 942.017V942.396H177.949V942.017H177.569ZM177.569 937.862H177.949V937.482H177.569V937.862ZM167.656 937.862V937.482H167.276V937.862H167.656ZM164.27 951.565V934.096H163.51V951.565H164.27ZM163.89 934.476H177.763V933.717H163.89V934.476ZM177.763 934.476C178.362 934.476 178.893 934.621 179.364 934.907L179.758 934.257C179.16 933.895 178.492 933.717 177.763 933.717V934.476ZM179.369 934.909C179.864 935.201 180.255 935.591 180.546 936.087L181.2 935.702C180.844 935.095 180.36 934.612 179.754 934.255L179.369 934.909ZM180.55 936.094C180.853 936.584 181.004 937.114 181.004 937.692H181.763C181.763 936.974 181.573 936.305 181.196 935.695L180.55 936.094ZM181.004 937.692V942.211H181.763V937.692H181.004ZM181.004 942.211C181.004 942.789 180.853 943.319 180.55 943.81L181.196 944.209C181.573 943.598 181.763 942.929 181.763 942.211H181.004ZM180.546 943.817C180.255 944.312 179.864 944.703 179.369 944.994L179.754 945.648C180.36 945.292 180.844 944.808 181.2 944.202L180.546 943.817ZM179.364 944.996C178.893 945.282 178.362 945.427 177.763 945.427V946.187C178.492 946.187 179.16 946.008 179.758 945.646L179.364 944.996ZM177.762 945.427L167.655 945.452L167.657 946.211L177.764 946.187L177.762 945.427ZM167.276 945.831V951.565H168.036V945.831H167.276ZM167.656 951.186H163.89V951.945H167.656V951.186ZM167.656 942.396H177.569V941.637H167.656V942.396ZM177.949 942.017V937.862H177.189V942.017H177.949ZM177.569 937.482H167.656V938.242H177.569V937.482ZM167.276 937.862V942.017H168.036V937.862H167.276ZM196.69 951.565L196.4 951.809L196.513 951.945H196.69V951.565ZM191.613 945.515V945.136H190.798L191.322 945.759L191.613 945.515ZM196.545 945.515L196.834 945.27L196.721 945.136H196.545V945.515ZM200.578 950.277H200.957V950.138L200.868 950.032L200.578 950.277ZM200.578 951.565V951.945H200.957V951.565H200.578ZM183.109 951.565H182.729V951.945H183.109V951.565ZM183.109 934.096V933.717H182.729V934.096H183.109ZM198.78 934.582L198.583 934.907L198.587 934.909L198.78 934.582ZM200.092 935.894L199.765 936.087L199.769 936.094L200.092 935.894ZM200.092 944.009L199.769 943.809L199.765 943.817L200.092 944.009ZM198.78 945.321L198.587 944.994L198.583 944.996L198.78 945.321ZM196.982 945.807V945.427L196.981 945.427L196.982 945.807ZM186.875 945.831L186.874 945.452L186.495 945.453V945.831H186.875ZM186.875 951.565V951.945H187.254V951.565H186.875ZM186.875 942.017H186.495V942.396H186.875V942.017ZM196.788 942.017V942.396H197.167V942.017H196.788ZM196.788 937.862H197.167V937.482H196.788V937.862ZM186.875 937.862V937.482H186.495V937.862H186.875ZM196.981 951.321L191.903 945.271L191.322 945.759L196.4 951.809L196.981 951.321ZM191.613 945.895H196.545V945.136H191.613V945.895ZM196.255 945.761L200.288 950.523L200.868 950.032L196.834 945.27L196.255 945.761ZM200.198 950.277V951.565H200.957V950.277H200.198ZM200.578 951.186H196.69V951.945H200.578V951.186ZM183.488 951.565V934.096H182.729V951.565H183.488ZM183.109 934.476H196.982V933.717H183.109V934.476ZM196.982 934.476C197.581 934.476 198.112 934.621 198.583 934.907L198.977 934.257C198.379 933.895 197.711 933.717 196.982 933.717V934.476ZM198.587 934.909C199.083 935.201 199.473 935.591 199.765 936.087L200.419 935.702C200.062 935.095 199.579 934.612 198.972 934.255L198.587 934.909ZM199.769 936.094C200.072 936.584 200.223 937.114 200.223 937.692H200.982C200.982 936.974 200.792 936.305 200.415 935.695L199.769 936.094ZM200.223 937.692V942.211H200.982V937.692H200.223ZM200.223 942.211C200.223 942.789 200.072 943.319 199.769 943.81L200.415 944.209C200.792 943.598 200.982 942.929 200.982 942.211H200.223ZM199.765 943.817C199.473 944.312 199.083 944.703 198.587 944.994L198.972 945.648C199.579 945.292 200.062 944.808 200.419 944.202L199.765 943.817ZM198.583 944.996C198.112 945.282 197.581 945.427 196.982 945.427V946.187C197.711 946.187 198.379 946.008 198.977 945.646L198.583 944.996ZM196.981 945.427L186.874 945.452L186.876 946.211L196.983 946.187L196.981 945.427ZM186.495 945.831V951.565H187.254V945.831H186.495ZM186.875 951.186H183.109V951.945H186.875V951.186ZM186.875 942.396H196.788V941.637H186.875V942.396ZM197.167 942.017V937.862H196.408V942.017H197.167ZM196.788 937.482H186.875V938.242H196.788V937.482ZM186.495 937.862V942.017H187.254V937.862H186.495ZM203.207 951.565H202.827V951.945H203.207V951.565ZM203.207 934.072V933.692H202.827V934.072H203.207ZM219.364 934.072H219.743V933.692H219.364V934.072ZM219.364 937.862V938.242H219.743V937.862H219.364ZM207.021 937.862V937.482H206.641V937.862H207.021ZM207.021 940.923H206.641V941.303H207.021V940.923ZM216.958 940.923H217.338V940.544H216.958V940.923ZM216.958 944.714V945.093H217.338V944.714H216.958ZM207.021 944.714V944.334H206.641V944.714H207.021ZM207.021 947.775H206.641V948.155H207.021V947.775ZM219.364 947.775H219.743V947.395H219.364V947.775ZM219.364 951.565V951.945H219.743V951.565H219.364ZM203.586 951.565V934.072H202.827V951.565H203.586ZM203.207 934.451H219.364V933.692H203.207V934.451ZM218.984 934.072V937.862H219.743V934.072H218.984ZM219.364 937.482H207.021V938.242H219.364V937.482ZM206.641 937.862V940.923H207.401V937.862H206.641ZM207.021 941.303H216.958V940.544H207.021V941.303ZM216.579 940.923V944.714H217.338V940.923H216.579ZM216.958 944.334H207.021V945.093H216.958V944.334ZM206.641 944.714V947.775H207.401V944.714H206.641ZM207.021 948.155H219.364V947.395H207.021V948.155ZM218.984 947.775V951.565H219.743V947.775H218.984ZM219.364 951.186H203.207V951.945H219.364V951.186ZM231.381 951.565L231.053 951.755L231.162 951.945H231.381V951.565ZM221.25 934.072V933.692H220.591L220.921 934.262L221.25 934.072ZM225.623 934.072L225.952 933.882L225.842 933.692H225.623V934.072ZM232.96 946.779L232.632 946.969L232.96 947.538L233.289 946.969L232.96 946.779ZM240.298 934.072V933.692H240.079L239.969 933.882L240.298 934.072ZM244.647 934.072L244.975 934.262L245.306 933.692H244.647V934.072ZM234.515 951.565V951.945H234.734L234.844 951.755L234.515 951.565ZM231.71 951.375L221.578 933.882L220.921 934.262L231.053 951.755L231.71 951.375ZM221.25 934.451H225.623V933.692H221.25V934.451ZM225.294 934.262L232.632 946.969L233.289 946.589L225.952 933.882L225.294 934.262ZM233.289 946.969L240.627 934.262L239.969 933.882L232.632 946.589L233.289 946.969ZM240.298 934.451H244.647V933.692H240.298V934.451ZM244.318 933.882L234.187 951.375L234.844 951.755L244.975 934.262L244.318 933.882ZM234.515 951.186H231.381V951.945H234.515V951.186ZM245.52 951.565H245.14V951.945H245.52V951.565ZM245.52 934.072V933.692H245.14V934.072H245.52ZM249.237 934.072H249.617V933.692H249.237V934.072ZM249.237 951.565V951.945H249.617V951.565H249.237ZM245.9 951.565V934.072H245.14V951.565H245.9ZM245.52 934.451H249.237V933.692H245.52V934.451ZM248.858 934.072V951.565H249.617V934.072H248.858ZM249.237 951.186H245.52V951.945H249.237V951.186ZM253.073 951.079L253.265 950.752L253.265 950.752L253.073 951.079ZM251.761 949.767L251.434 949.96L251.434 949.96L251.761 949.767ZM251.761 935.87L252.086 936.067L252.088 936.062L251.761 935.87ZM253.073 934.558L252.88 934.231L252.88 934.231L253.073 934.558ZM266.946 934.558L266.749 934.882L266.754 934.885L266.946 934.558ZM268.258 935.87L267.931 936.062L267.938 936.074L268.258 935.87ZM268.258 949.767L267.935 949.568L267.931 949.575L268.258 949.767ZM266.946 951.079L266.754 950.752L266.749 950.755L266.946 951.079ZM255.041 947.775H254.661V948.155H255.041V947.775ZM264.954 947.775V948.155H265.333V947.775H264.954ZM264.954 937.862H265.333V937.482H264.954V937.862ZM255.041 937.862V937.482H254.661V937.862H255.041ZM254.871 951.186C254.29 951.186 253.757 951.041 253.265 950.752L252.88 951.406C253.49 951.765 254.156 951.945 254.871 951.945V951.186ZM253.265 950.752C252.77 950.461 252.379 950.07 252.088 949.575L251.434 949.96C251.79 950.566 252.274 951.05 252.88 951.406L253.265 950.752ZM252.088 949.575C251.799 949.083 251.655 948.551 251.655 947.969H250.895C250.895 948.684 251.075 949.35 251.434 949.96L252.088 949.575ZM251.655 947.969V937.668H250.895V947.969H251.655ZM251.655 937.668C251.655 937.068 251.8 936.538 252.085 936.067L251.436 935.673C251.074 936.271 250.895 936.939 250.895 937.668H251.655ZM252.088 936.062C252.379 935.567 252.77 935.176 253.265 934.885L252.88 934.231C252.274 934.587 251.79 935.071 251.434 935.677L252.088 936.062ZM253.265 934.885C253.757 934.596 254.29 934.451 254.871 934.451V933.692C254.156 933.692 253.49 933.872 252.88 934.231L253.265 934.885ZM254.871 934.451H265.172V933.692H254.871V934.451ZM265.172 934.451C265.754 934.451 266.276 934.596 266.749 934.882L267.143 934.233C266.547 933.872 265.887 933.692 265.172 933.692V934.451ZM266.754 934.885C267.249 935.176 267.64 935.567 267.931 936.062L268.585 935.677C268.229 935.071 267.745 934.587 267.138 934.231L266.754 934.885ZM267.938 936.074C268.237 936.544 268.389 937.072 268.389 937.668H269.148C269.148 936.935 268.959 936.264 268.578 935.666L267.938 936.074ZM268.389 937.668V947.969H269.148V937.668H268.389ZM268.389 947.969C268.389 948.547 268.238 949.077 267.935 949.568L268.581 949.967C268.958 949.356 269.148 948.688 269.148 947.969H268.389ZM267.931 949.575C267.64 950.07 267.249 950.461 266.754 950.752L267.138 951.406C267.745 951.05 268.229 950.566 268.585 949.96L267.931 949.575ZM266.749 950.755C266.276 951.041 265.754 951.186 265.172 951.186V951.945C265.887 951.945 266.547 951.765 267.143 951.404L266.749 950.755ZM265.172 951.186H254.871V951.945H265.172V951.186ZM255.041 948.155H264.954V947.395H255.041V948.155ZM265.333 947.775V937.862H264.574V947.775H265.333ZM264.954 937.482H255.041V938.242H264.954V937.482ZM254.661 937.862V947.775H255.42V937.862H254.661ZM273.193 951.079L273.386 950.752L273.386 950.752L273.193 951.079ZM271.881 949.767L271.554 949.96L271.554 949.96L271.881 949.767ZM271.395 934.072V933.692H271.016V934.072H271.395ZM275.161 934.072H275.541V933.692H275.161V934.072ZM275.161 947.775H274.782V948.155H275.161V947.775ZM285.074 947.775V948.155H285.454V947.775H285.074ZM285.074 934.072V933.692H284.694V934.072H285.074ZM288.889 934.072H289.268V933.692H288.889V934.072ZM288.378 949.767L288.055 949.568L288.051 949.575L288.378 949.767ZM287.066 951.079L286.874 950.752L286.87 950.755L287.066 951.079ZM274.991 951.186C274.41 951.186 273.877 951.041 273.386 950.752L273.001 951.406C273.611 951.765 274.277 951.945 274.991 951.945V951.186ZM273.386 950.752C272.891 950.461 272.5 950.07 272.208 949.575L271.554 949.96C271.911 950.566 272.394 951.05 273.001 951.406L273.386 950.752ZM272.208 949.575C271.919 949.083 271.775 948.551 271.775 947.969H271.016C271.016 948.684 271.195 949.35 271.554 949.96L272.208 949.575ZM271.775 947.969V934.072H271.016V947.969H271.775ZM271.395 934.451H275.161V933.692H271.395V934.451ZM274.782 934.072V947.775H275.541V934.072H274.782ZM275.161 948.155H285.074V947.395H275.161V948.155ZM285.454 947.775V934.072H284.694V947.775H285.454ZM285.074 934.451H288.889V933.692H285.074V934.451ZM288.509 934.072V947.969H289.268V934.072H288.509ZM288.509 947.969C288.509 948.547 288.358 949.077 288.055 949.568L288.701 949.967C289.079 949.356 289.268 948.688 289.268 947.969H288.509ZM288.051 949.575C287.76 950.07 287.369 950.461 286.874 950.752L287.259 951.406C287.865 951.05 288.349 950.566 288.706 949.96L288.051 949.575ZM286.87 950.755C286.397 951.041 285.874 951.186 285.293 951.186V951.945C286.007 951.945 286.667 951.765 287.263 951.404L286.87 950.755ZM285.293 951.186H274.991V951.945H285.293V951.186ZM293.314 951.079L293.506 950.752L293.506 950.752L293.314 951.079ZM292.002 949.767L291.674 949.96L291.674 949.96L292.002 949.767ZM291.516 946.341V945.962H291.136V946.341H291.516ZM295.282 946.341H295.661V945.962H295.282V946.341ZM295.282 947.775H294.902V948.155H295.282V947.775ZM305.194 947.775V948.155H305.574V947.775H305.194ZM305.194 944.714H305.574V944.334H305.194V944.714ZM293.314 944.228L293.506 943.9L293.506 943.9L293.314 944.228ZM292.002 942.94L291.674 943.132L291.677 943.137L292.002 942.94ZM292.002 935.87L292.326 936.067L292.329 936.062L292.002 935.87ZM293.314 934.558L293.121 934.231L293.121 934.231L293.314 934.558ZM307.187 934.558L306.99 934.882L306.994 934.885L307.187 934.558ZM308.499 935.87L308.171 936.062L308.178 936.074L308.499 935.87ZM309.009 939.296V939.675H309.389V939.296H309.009ZM305.194 939.296H304.815V939.675H305.194V939.296ZM305.194 937.862H305.574V937.482H305.194V937.862ZM295.282 937.862V937.482H294.902V937.862H295.282ZM295.282 940.923H294.902V941.303H295.282V940.923ZM307.187 941.409L306.99 941.734L306.994 941.737L307.187 941.409ZM308.499 942.721L308.171 942.914L308.178 942.925L308.499 942.721ZM308.499 949.767L308.176 949.568L308.172 949.575L308.499 949.767ZM307.187 951.079L306.994 950.752L306.99 950.755L307.187 951.079ZM295.111 951.186C294.53 951.186 293.998 951.041 293.506 950.752L293.121 951.406C293.731 951.765 294.397 951.945 295.111 951.945V951.186ZM293.506 950.752C293.011 950.461 292.62 950.07 292.329 949.575L291.674 949.96C292.031 950.566 292.515 951.05 293.121 951.406L293.506 950.752ZM292.329 949.575C292.04 949.083 291.895 948.551 291.895 947.969H291.136C291.136 948.684 291.316 949.35 291.674 949.96L292.329 949.575ZM291.895 947.969V946.341H291.136V947.969H291.895ZM291.516 946.721H295.282V945.962H291.516V946.721ZM294.902 946.341V947.775H295.661V946.341H294.902ZM295.282 948.155H305.194V947.395H295.282V948.155ZM305.574 947.775V944.714H304.815V947.775H305.574ZM305.194 944.334H295.111V945.093H305.194V944.334ZM295.111 944.334C294.53 944.334 293.998 944.19 293.506 943.9L293.121 944.555C293.731 944.914 294.397 945.093 295.111 945.093V944.334ZM293.506 943.9C293.008 943.608 292.617 943.223 292.326 942.743L291.677 943.137C292.034 943.726 292.517 944.2 293.121 944.555L293.506 943.9ZM292.329 942.748C292.041 942.257 291.895 941.717 291.895 941.118H291.136C291.136 941.847 291.315 942.521 291.674 943.132L292.329 942.748ZM291.895 941.118V937.668H291.136V941.118H291.895ZM291.895 937.668C291.895 937.068 292.041 936.538 292.326 936.067L291.677 935.673C291.315 936.271 291.136 936.939 291.136 937.668H291.895ZM292.329 936.062C292.62 935.567 293.011 935.176 293.506 934.885L293.121 934.231C292.515 934.587 292.031 935.071 291.674 935.677L292.329 936.062ZM293.506 934.885C293.998 934.596 294.53 934.451 295.111 934.451V933.692C294.397 933.692 293.731 933.872 293.121 934.231L293.506 934.885ZM295.111 934.451H305.413V933.692H295.111V934.451ZM305.413 934.451C305.994 934.451 306.517 934.596 306.99 934.882L307.384 934.233C306.787 933.872 306.128 933.692 305.413 933.692V934.451ZM306.994 934.885C307.489 935.176 307.88 935.567 308.172 936.062L308.826 935.677C308.469 935.071 307.986 934.587 307.379 934.231L306.994 934.885ZM308.178 936.074C308.478 936.544 308.629 937.072 308.629 937.668H309.389C309.389 936.935 309.2 936.264 308.819 935.666L308.178 936.074ZM308.629 937.668V939.296H309.389V937.668H308.629ZM309.009 938.916H305.194V939.675H309.009V938.916ZM305.574 939.296V937.862H304.815V939.296H305.574ZM305.194 937.482H295.282V938.242H305.194V937.482ZM294.902 937.862V940.923H295.661V937.862H294.902ZM295.282 941.303H305.413V940.544H295.282V941.303ZM305.413 941.303C305.994 941.303 306.517 941.447 306.99 941.734L307.384 941.085C306.787 940.723 306.128 940.544 305.413 940.544V941.303ZM306.994 941.737C307.489 942.028 307.88 942.419 308.172 942.914L308.826 942.529C308.469 941.923 307.986 941.439 307.379 941.082L306.994 941.737ZM308.178 942.925C308.478 943.396 308.629 943.924 308.629 944.519H309.389C309.389 943.787 309.2 943.116 308.819 942.518L308.178 942.925ZM308.629 944.519V947.969H309.389V944.519H308.629ZM308.629 947.969C308.629 948.547 308.479 949.077 308.176 949.568L308.822 949.967C309.199 949.356 309.389 948.688 309.389 947.969H308.629ZM308.172 949.575C307.88 950.07 307.489 950.461 306.994 950.752L307.379 951.406C307.986 951.05 308.469 950.566 308.826 949.96L308.172 949.575ZM306.99 950.755C306.517 951.041 305.994 951.186 305.413 951.186V951.945C306.128 951.945 306.787 951.765 307.384 951.404L306.99 950.755ZM305.413 951.186H295.111V951.945H305.413V951.186Z" fill="white"/>
<path d="M1790.19 959.158C1782.98 967.922 1772.23 973 1760.88 973H1560.93C1555.3 973 1550.73 968.43 1550.73 962.793C1550.73 960.401 1551.57 958.086 1553.1 956.25L1570.54 935.365C1577.75 926.728 1588.43 921.736 1599.68 921.736H1800.17C1805.6 921.736 1810 926.136 1810 931.564C1810 933.843 1809.21 936.05 1807.76 937.809L1790.19 959.158Z" fill="url(#paint40_linear_222_3994)"/>
<path d="M1784.47 955.422C1777.26 964.186 1766.5 969.264 1755.15 969.264H1555.21C1549.57 969.264 1545 964.694 1545 959.057C1545 956.666 1545.84 954.35 1547.37 952.514L1564.81 931.63C1572.03 922.992 1582.7 918 1593.95 918H1794.44C1799.87 918 1804.27 922.4 1804.27 927.829C1804.27 930.107 1803.48 932.314 1802.03 934.074L1784.47 955.422Z" fill="url(#paint41_linear_222_3994)"/>
<path d="M1639.89 951.565V934.072H1643.78L1653.57 945.734V934.072H1657.38V951.565H1653.5L1643.66 939.854V951.565H1639.89ZM1660.15 951.565V934.072H1676.31V937.862H1663.97V940.923H1673.91V944.714H1663.97V947.775H1676.31V951.565H1660.15ZM1678.46 951.565V950.277L1684.71 942.819L1678.46 935.36V934.072H1682.38L1687.24 939.83L1692.05 934.072H1695.96V935.36L1689.69 942.819L1695.96 950.253V951.565H1692.05L1687.19 945.831L1682.38 951.565H1678.46ZM1704.4 951.565V937.862H1697.55V934.072H1715.04V937.862H1708.19V951.565H1704.4Z" fill="white"/>
<path d="M1639.89 951.565H1639.51V951.945H1639.89V951.565ZM1639.89 934.072V933.692H1639.51V934.072H1639.89ZM1643.78 934.072L1644.07 933.828L1643.95 933.692H1643.78V934.072ZM1653.57 945.734L1653.28 945.978L1653.95 946.777V945.734H1653.57ZM1653.57 934.072V933.692H1653.19V934.072H1653.57ZM1657.38 934.072H1657.76V933.692H1657.38V934.072ZM1657.38 951.565V951.945H1657.76V951.565H1657.38ZM1653.5 951.565L1653.21 951.809L1653.32 951.945H1653.5V951.565ZM1643.66 939.854L1643.95 939.61L1643.28 938.812V939.854H1643.66ZM1643.66 951.565V951.945H1644.04V951.565H1643.66ZM1640.27 951.565V934.072H1639.51V951.565H1640.27ZM1639.89 934.451H1643.78V933.692H1639.89V934.451ZM1643.49 934.316L1653.28 945.978L1653.86 945.49L1644.07 933.828L1643.49 934.316ZM1653.95 945.734V934.072H1653.19V945.734H1653.95ZM1653.57 934.451H1657.38V933.692H1653.57V934.451ZM1657 934.072V951.565H1657.76V934.072H1657ZM1657.38 951.186H1653.5V951.945H1657.38V951.186ZM1653.79 951.321L1643.95 939.61L1643.37 940.099L1653.21 951.809L1653.79 951.321ZM1643.28 939.854V951.565H1644.04V939.854H1643.28ZM1643.66 951.186H1639.89V951.945H1643.66V951.186ZM1660.15 951.565H1659.77V951.945H1660.15V951.565ZM1660.15 934.072V933.692H1659.77V934.072H1660.15ZM1676.31 934.072H1676.69V933.692H1676.31V934.072ZM1676.31 937.862V938.242H1676.69V937.862H1676.31ZM1663.97 937.862V937.482H1663.59V937.862H1663.97ZM1663.97 940.923H1663.59V941.303H1663.97V940.923ZM1673.91 940.923H1674.29V940.544H1673.91V940.923ZM1673.91 944.714V945.093H1674.29V944.714H1673.91ZM1663.97 944.714V944.334H1663.59V944.714H1663.97ZM1663.97 947.775H1663.59V948.155H1663.97V947.775ZM1676.31 947.775H1676.69V947.395H1676.31V947.775ZM1676.31 951.565V951.945H1676.69V951.565H1676.31ZM1660.53 951.565V934.072H1659.77V951.565H1660.53ZM1660.15 934.451H1676.31V933.692H1660.15V934.451ZM1675.93 934.072V937.862H1676.69V934.072H1675.93ZM1676.31 937.482H1663.97V938.242H1676.31V937.482ZM1663.59 937.862V940.923H1664.35V937.862H1663.59ZM1663.97 941.303H1673.91V940.544H1663.97V941.303ZM1673.53 940.923V944.714H1674.29V940.923H1673.53ZM1673.91 944.334H1663.97V945.093H1673.91V944.334ZM1663.59 944.714V947.775H1664.35V944.714H1663.59ZM1663.97 948.155H1676.31V947.395H1663.97V948.155ZM1675.93 947.775V951.565H1676.69V947.775H1675.93ZM1676.31 951.186H1660.15V951.945H1676.31V951.186ZM1678.46 951.565H1678.08V951.945H1678.46V951.565ZM1678.46 950.277L1678.17 950.034L1678.08 950.14V950.277H1678.46ZM1684.71 942.819L1685 943.062L1685.2 942.819L1685 942.575L1684.71 942.819ZM1678.46 935.36H1678.08V935.497L1678.17 935.603L1678.46 935.36ZM1678.46 934.072V933.692H1678.08V934.072H1678.46ZM1682.38 934.072L1682.67 933.827L1682.55 933.692H1682.38V934.072ZM1687.24 939.83L1686.95 940.075L1687.24 940.42L1687.53 940.073L1687.24 939.83ZM1692.05 934.072V933.692H1691.87L1691.75 933.828L1692.05 934.072ZM1695.96 934.072H1696.34V933.692H1695.96V934.072ZM1695.96 935.36L1696.25 935.604L1696.34 935.498V935.36H1695.96ZM1689.69 942.819L1689.4 942.574L1689.19 942.819L1689.4 943.063L1689.69 942.819ZM1695.96 950.253H1696.34V950.115L1696.25 950.008L1695.96 950.253ZM1695.96 951.565V951.945H1696.34V951.565H1695.96ZM1692.05 951.565L1691.76 951.811L1691.87 951.945H1692.05V951.565ZM1687.19 945.831L1687.48 945.586L1687.19 945.242L1686.9 945.587L1687.19 945.831ZM1682.38 951.565V951.945H1682.55L1682.67 951.809L1682.38 951.565ZM1678.84 951.565V950.277H1678.08V951.565H1678.84ZM1678.76 950.521L1685 943.062L1684.42 942.575L1678.17 950.034L1678.76 950.521ZM1685 942.575L1678.76 935.116L1678.17 935.603L1684.42 943.062L1685 942.575ZM1678.84 935.36V934.072H1678.08V935.36H1678.84ZM1678.46 934.451H1682.38V933.692H1678.46V934.451ZM1682.09 934.317L1686.95 940.075L1687.53 939.585L1682.67 933.827L1682.09 934.317ZM1687.53 940.073L1692.34 934.315L1691.75 933.828L1686.94 939.587L1687.53 940.073ZM1692.05 934.451H1695.96V933.692H1692.05V934.451ZM1695.58 934.072V935.36H1696.34V934.072H1695.58ZM1695.67 935.115L1689.4 942.574L1689.98 943.063L1696.25 935.604L1695.67 935.115ZM1689.4 943.063L1695.67 950.498L1696.25 950.008L1689.98 942.574L1689.4 943.063ZM1695.58 950.253V951.565H1696.34V950.253H1695.58ZM1695.96 951.186H1692.05V951.945H1695.96V951.186ZM1692.34 951.32L1687.48 945.586L1686.9 946.077L1691.76 951.811L1692.34 951.32ZM1686.9 945.587L1682.09 951.321L1682.67 951.809L1687.48 946.075L1686.9 945.587ZM1682.38 951.186H1678.46V951.945H1682.38V951.186ZM1704.4 951.565H1704.02V951.945H1704.4V951.565ZM1704.4 937.862H1704.78V937.482H1704.4V937.862ZM1697.55 937.862H1697.17V938.242H1697.55V937.862ZM1697.55 934.072V933.692H1697.17V934.072H1697.55ZM1715.04 934.072H1715.42V933.692H1715.04V934.072ZM1715.04 937.862V938.242H1715.42V937.862H1715.04ZM1708.19 937.862V937.482H1707.81V937.862H1708.19ZM1708.19 951.565V951.945H1708.57V951.565H1708.19ZM1704.78 951.565V937.862H1704.02V951.565H1704.78ZM1704.4 937.482H1697.55V938.242H1704.4V937.482ZM1697.93 937.862V934.072H1697.17V937.862H1697.93ZM1697.55 934.451H1715.04V933.692H1697.55V934.451ZM1714.66 934.072V937.862H1715.42V934.072H1714.66ZM1715.04 937.482H1708.19V938.242H1715.04V937.482ZM1707.81 937.862V951.565H1708.57V937.862H1707.81ZM1708.19 951.186H1704.4V951.945H1708.19V951.186Z" fill="white"/>
<defs>
<radialGradient id="paint0_radial_222_3994" cx="0" cy="0" r="1" gradientUnits="userSpaceOnUse" gradientTransform="translate(556.6 731.575) rotate(159.828) scale(458.318 330.796)">
<stop stop-color="#570707"/>
<stop offset="0.1728" stop-color="#390505"/>
<stop offset="0.359" stop-color="#200303"/>
<stop offset="0.5537" stop-color="#0E0101"/>
<stop offset="0.7606" stop-color="#030000"/>
<stop offset="1"/>
</radialGradient>
<radialGradient id="paint1_radial_222_3994" cx="0" cy="0" r="1" gradientUnits="userSpaceOnUse" gradientTransform="translate(401.534 609.027) rotate(159.828) scale(331.948 78.0586)">
<stop stop-color="#6BBAFF"/>
<stop offset="0.096353" stop-color="#5CA0DB"/>
<stop offset="0.2863" stop-color="#407099"/>
<stop offset="0.4672" stop-color="#294863"/>
<stop offset="0.6339" stop-color="#172938"/>
<stop offset="0.7835" stop-color="#0B1219"/>
<stop offset="0.9105" stop-color="#030507"/>
<stop offset="1"/>
</radialGradient>
<radialGradient id="paint2_radial_222_3994" cx="0" cy="0" r="1" gradientUnits="userSpaceOnUse" gradientTransform="translate(484.884 869.871) rotate(159.828) scale(458.409 78.0573)">
<stop stop-color="#6BBAFF"/>
<stop offset="0.096353" stop-color="#5CA0DB"/>
<stop offset="0.2863" stop-color="#407099"/>
<stop offset="0.4672" stop-color="#294863"/>
<stop offset="0.6339" stop-color="#172938"/>
<stop offset="0.7835" stop-color="#0B1219"/>
<stop offset="0.9105" stop-color="#030507"/>
<stop offset="1"/>
</radialGradient>
<radialGradient id="paint3_radial_222_3994" cx="0" cy="0" r="1" gradientUnits="userSpaceOnUse" gradientTransform="translate(486.812 746.09) rotate(159.828) scale(458.409 78.0573)">
<stop stop-color="#FFD06B"/>
<stop offset="0.096353" stop-color="#DBB25C"/>
<stop offset="0.2863" stop-color="#997D40"/>
<stop offset="0.4672" stop-color="#635029"/>
<stop offset="0.6339" stop-color="#382E17"/>
<stop offset="0.7835" stop-color="#19150B"/>
<stop offset="0.9105" stop-color="#070503"/>
<stop offset="1"/>
</radialGradient>
<radialGradient id="paint4_radial_222_3994" cx="0" cy="0" r="1" gradientUnits="userSpaceOnUse" gradientTransform="translate(735.057 581.108) rotate(159.828) scale(458.372 51.7381)">
<stop stop-color="#C9F2FF"/>
<stop offset="0.0197251" stop-color="#BCEBFA"/>
<stop offset="0.0905168" stop-color="#92D4EB"/>
<stop offset="0.1545" stop-color="#73C3DF"/>
<stop offset="0.2089" stop-color="#61B9D8"/>
<stop offset="0.2473" stop-color="#5AB5D6"/>
<stop offset="0.3984" stop-color="#408199"/>
<stop offset="0.5497" stop-color="#295363"/>
<stop offset="0.6906" stop-color="#182F38"/>
<stop offset="0.817" stop-color="#0B1519"/>
<stop offset="0.9244" stop-color="#030607"/>
<stop offset="1"/>
</radialGradient>
<radialGradient id="paint5_radial_222_3994" cx="0" cy="0" r="1" gradientUnits="userSpaceOnUse" gradientTransform="translate(549.788 585.896) rotate(159.828) scale(568.9 31.2263)">
<stop stop-color="#FFBF6B"/>
<stop offset="0.096353" stop-color="#DBA45C"/>
<stop offset="0.2863" stop-color="#997340"/>
<stop offset="0.4672" stop-color="#634A29"/>
<stop offset="0.6339" stop-color="#382A17"/>
<stop offset="0.7835" stop-color="#19130B"/>
<stop offset="0.9105" stop-color="#070503"/>
<stop offset="1"/>
</radialGradient>
<radialGradient id="paint6_radial_222_3994" cx="0" cy="0" r="1" gradientUnits="userSpaceOnUse" gradientTransform="translate(758.816 828.086) rotate(159.828) scale(568.9 31.2263)">
<stop stop-color="#FFB36B"/>
<stop offset="0.096353" stop-color="#DB9A5C"/>
<stop offset="0.2863" stop-color="#996C40"/>
<stop offset="0.4672" stop-color="#634529"/>
<stop offset="0.6339" stop-color="#382717"/>
<stop offset="0.7835" stop-color="#19120B"/>
<stop offset="0.9105" stop-color="#070503"/>
<stop offset="1"/>
</radialGradient>
<radialGradient id="paint7_radial_222_3994" cx="0" cy="0" r="1" gradientUnits="userSpaceOnUse" gradientTransform="translate(301.821 754.451) rotate(159.829) scale(320.115 20.2322)">
<stop stop-color="#FFE4CF"/>
<stop offset="0.096353" stop-color="#DBC4B2"/>
<stop offset="0.2863" stop-color="#99897C"/>
<stop offset="0.4672" stop-color="#635850"/>
<stop offset="0.6339" stop-color="#38322D"/>
<stop offset="0.7835" stop-color="#191715"/>
<stop offset="0.9105" stop-color="#070605"/>
<stop offset="1"/>
</radialGradient>
<radialGradient id="paint8_radial_222_3994" cx="0" cy="0" r="1" gradientUnits="userSpaceOnUse" gradientTransform="translate(887.231 755.342) rotate(159.828) scale(226.417 20.2318)">
<stop stop-color="#6BDCFF"/>
<stop offset="0.096353" stop-color="#5CBDDB"/>
<stop offset="0.2863" stop-color="#408499"/>
<stop offset="0.4672" stop-color="#295563"/>
<stop offset="0.6339" stop-color="#173038"/>
<stop offset="0.7835" stop-color="#0B1619"/>
<stop offset="0.9105" stop-color="#030607"/>
<stop offset="1"/>
</radialGradient>
<radialGradient id="paint9_radial_222_3994" cx="0" cy="0" r="1" gradientUnits="userSpaceOnUse" gradientTransform="translate(447.95 528.845) rotate(159.828) scale(226.417 20.2318)">
<stop stop-color="#6BDCFF"/>
<stop offset="0.096353" stop-color="#5CBDDB"/>
<stop offset="0.2863" stop-color="#408499"/>
<stop offset="0.4672" stop-color="#295563"/>
<stop offset="0.6339" stop-color="#173038"/>
<stop offset="0.7835" stop-color="#0B1619"/>
<stop offset="0.9105" stop-color="#030607"/>
<stop offset="1"/>
</radialGradient>
<radialGradient id="paint10_radial_222_3994" cx="0" cy="0" r="1" gradientUnits="userSpaceOnUse" gradientTransform="translate(754.948 884.755) rotate(159.828) scale(226.417 20.2318)">
<stop stop-color="#6BDCFF"/>
<stop offset="0.096353" stop-color="#5CBDDB"/>
<stop offset="0.2863" stop-color="#408499"/>
<stop offset="0.4672" stop-color="#295563"/>
<stop offset="0.6339" stop-color="#173038"/>
<stop offset="0.7835" stop-color="#0B1619"/>
<stop offset="0.9105" stop-color="#030607"/>
<stop offset="1"/>
</radialGradient>
<radialGradient id="paint11_radial_222_3994" cx="0" cy="0" r="1" gradientUnits="userSpaceOnUse" gradientTransform="translate(953.582 646.089) rotate(159.828) scale(226.417 20.2318)">
<stop stop-color="#6BDCFF"/>
<stop offset="0.096353" stop-color="#5CBDDB"/>
<stop offset="0.2863" stop-color="#408499"/>
<stop offset="0.4672" stop-color="#295563"/>
<stop offset="0.6339" stop-color="#173038"/>
<stop offset="0.7835" stop-color="#0B1619"/>
<stop offset="0.9105" stop-color="#030607"/>
<stop offset="1"/>
</radialGradient>
<radialGradient id="paint12_radial_222_3994" cx="0" cy="0" r="1" gradientUnits="userSpaceOnUse" gradientTransform="translate(689.614 485.981) rotate(159.828) scale(226.417 20.2318)">
<stop stop-color="#6BDCFF"/>
<stop offset="0.096353" stop-color="#5CBDDB"/>
<stop offset="0.2863" stop-color="#408499"/>
<stop offset="0.4672" stop-color="#295563"/>
<stop offset="0.6339" stop-color="#173038"/>
<stop offset="0.7835" stop-color="#0B1619"/>
<stop offset="0.9105" stop-color="#030607"/>
<stop offset="1"/>
</radialGradient>
<radialGradient id="paint13_radial_222_3994" cx="0" cy="0" r="1" gradientUnits="userSpaceOnUse" gradientTransform="translate(439.759 676.645) rotate(159.828) scale(226.417 20.2318)">
<stop stop-color="#6BDCFF"/>
<stop offset="0.096353" stop-color="#5CBDDB"/>
<stop offset="0.2863" stop-color="#408499"/>
<stop offset="0.4672" stop-color="#295563"/>
<stop offset="0.6339" stop-color="#173038"/>
<stop offset="0.7835" stop-color="#0B1619"/>
<stop offset="0.9105" stop-color="#030607"/>
<stop offset="1"/>
</radialGradient>
<radialGradient id="paint14_radial_222_3994" cx="0" cy="0" r="1" gradientUnits="userSpaceOnUse" gradientTransform="translate(407.741 990.766) rotate(159.828) scale(226.417 20.2318)">
<stop stop-color="#FFB36B"/>
<stop offset="0.096353" stop-color="#DB9A5C"/>
<stop offset="0.2863" stop-color="#996C40"/>
<stop offset="0.4672" stop-color="#634529"/>
<stop offset="0.6339" stop-color="#382717"/>
<stop offset="0.7835" stop-color="#19120B"/>
<stop offset="0.9105" stop-color="#070503"/>
<stop offset="1"/>
</radialGradient>
<radialGradient id="paint15_radial_222_3994" cx="0" cy="0" r="1" gradientUnits="userSpaceOnUse" gradientTransform="translate(622.386 486.302) rotate(159.828) scale(226.417 20.2318)">
<stop stop-color="#FFB36B"/>
<stop offset="0.096353" stop-color="#DB9A5C"/>
<stop offset="0.2863" stop-color="#996C40"/>
<stop offset="0.4672" stop-color="#634529"/>
<stop offset="0.6339" stop-color="#382717"/>
<stop offset="0.7835" stop-color="#19120B"/>
<stop offset="0.9105" stop-color="#070503"/>
<stop offset="1"/>
</radialGradient>
<radialGradient id="paint16_radial_222_3994" cx="0" cy="0" r="1" gradientUnits="userSpaceOnUse" gradientTransform="translate(585.433 711.533) rotate(159.828) scale(226.417 20.2318)">
<stop stop-color="#FFB36B"/>
<stop offset="0.096353" stop-color="#DB9A5C"/>
<stop offset="0.2863" stop-color="#996C40"/>
<stop offset="0.4672" stop-color="#634529"/>
<stop offset="0.6339" stop-color="#382717"/>
<stop offset="0.7835" stop-color="#19120B"/>
<stop offset="0.9105" stop-color="#070503"/>
<stop offset="1"/>
</radialGradient>
<radialGradient id="paint17_radial_222_3994" cx="0" cy="0" r="1" gradientUnits="userSpaceOnUse" gradientTransform="translate(619.236 772.15) rotate(159.828) scale(226.415 20.2316)">
<stop stop-color="#6BDCFF"/>
<stop offset="0.096353" stop-color="#5CBDDB"/>
<stop offset="0.2863" stop-color="#408499"/>
<stop offset="0.4672" stop-color="#295563"/>
<stop offset="0.6339" stop-color="#173038"/>
<stop offset="0.7835" stop-color="#0B1619"/>
<stop offset="0.9105" stop-color="#030607"/>
<stop offset="1"/>
</radialGradient>
<radialGradient id="paint18_radial_222_3994" cx="0" cy="0" r="1" gradientUnits="userSpaceOnUse" gradientTransform="translate(337.676 852.963) rotate(159.828) scale(226.415 20.2316)">
<stop stop-color="#6BDCFF"/>
<stop offset="0.096353" stop-color="#5CBDDB"/>
<stop offset="0.2863" stop-color="#408499"/>
<stop offset="0.4672" stop-color="#295563"/>
<stop offset="0.6339" stop-color="#173038"/>
<stop offset="0.7835" stop-color="#0B1619"/>
<stop offset="0.9105" stop-color="#030607"/>
<stop offset="1"/>
</radialGradient>
<radialGradient id="paint19_radial_222_3994" cx="0" cy="0" r="1" gradientUnits="userSpaceOnUse" gradientTransform="translate(1364.64 262.607) rotate(159.83) scale(345.329 249.216)">
<stop stop-color="#570707"/>
<stop offset="0.1728" stop-color="#390505"/>
<stop offset="0.359" stop-color="#200303"/>
<stop offset="0.5537" stop-color="#0E0101"/>
<stop offset="0.7606" stop-color="#030000"/>
<stop offset="1"/>
</radialGradient>
<radialGradient id="paint20_radial_222_3994" cx="0" cy="0" r="1" gradientUnits="userSpaceOnUse" gradientTransform="translate(1247.8 170.282) rotate(159.831) scale(250.113 58.8082)">
<stop stop-color="#6BBAFF"/>
<stop offset="0.096353" stop-color="#5CA0DB"/>
<stop offset="0.2863" stop-color="#407099"/>
<stop offset="0.4672" stop-color="#294863"/>
<stop offset="0.6339" stop-color="#172938"/>
<stop offset="0.7835" stop-color="#0B1219"/>
<stop offset="0.9105" stop-color="#030507"/>
<stop offset="1"/>
</radialGradient>
<radialGradient id="paint21_radial_222_3994" cx="0" cy="0" r="1" gradientUnits="userSpaceOnUse" gradientTransform="translate(1310.6 366.795) rotate(159.83) scale(345.397 58.8072)">
<stop stop-color="#6BBAFF"/>
<stop offset="0.096353" stop-color="#5CA0DB"/>
<stop offset="0.2863" stop-color="#407099"/>
<stop offset="0.4672" stop-color="#294863"/>
<stop offset="0.6339" stop-color="#172938"/>
<stop offset="0.7835" stop-color="#0B1219"/>
<stop offset="0.9105" stop-color="#030507"/>
<stop offset="1"/>
</radialGradient>
<radialGradient id="paint22_radial_222_3994" cx="0" cy="0" r="1" gradientUnits="userSpaceOnUse" gradientTransform="translate(1312.05 273.542) rotate(159.83) scale(345.397 58.8072)">
<stop stop-color="#FFD06B"/>
<stop offset="0.096353" stop-color="#DBB25C"/>
<stop offset="0.2863" stop-color="#997D40"/>
<stop offset="0.4672" stop-color="#635029"/>
<stop offset="0.6339" stop-color="#382E17"/>
<stop offset="0.7835" stop-color="#19150B"/>
<stop offset="0.9105" stop-color="#070503"/>
<stop offset="1"/>
</radialGradient>
<radialGradient id="paint23_radial_222_3994" cx="0" cy="0" r="1" gradientUnits="userSpaceOnUse" gradientTransform="translate(1499.1 149.249) rotate(159.83) scale(345.37 38.9787)">
<stop stop-color="#C9F2FF"/>
<stop offset="0.0197251" stop-color="#BCEBFA"/>
<stop offset="0.0905168" stop-color="#92D4EB"/>
<stop offset="0.1545" stop-color="#73C3DF"/>
<stop offset="0.2089" stop-color="#61B9D8"/>
<stop offset="0.2473" stop-color="#5AB5D6"/>
<stop offset="0.3984" stop-color="#408199"/>
<stop offset="0.5497" stop-color="#295363"/>
<stop offset="0.6906" stop-color="#182F38"/>
<stop offset="0.817" stop-color="#0B1519"/>
<stop offset="0.9244" stop-color="#030607"/>
<stop offset="1"/>
</radialGradient>
<radialGradient id="paint24_radial_222_3994" cx="0" cy="0" r="1" gradientUnits="userSpaceOnUse" gradientTransform="translate(1359.5 152.856) rotate(159.831) scale(428.649 23.5254)">
<stop stop-color="#FFBF6B"/>
<stop offset="0.096353" stop-color="#DBA45C"/>
<stop offset="0.2863" stop-color="#997340"/>
<stop offset="0.4672" stop-color="#634A29"/>
<stop offset="0.6339" stop-color="#382A17"/>
<stop offset="0.7835" stop-color="#19130B"/>
<stop offset="0.9105" stop-color="#070503"/>
<stop offset="1"/>
</radialGradient>
<radialGradient id="paint25_radial_222_3994" cx="0" cy="0" r="1" gradientUnits="userSpaceOnUse" gradientTransform="translate(1517 335.315) rotate(159.831) scale(428.649 23.5254)">
<stop stop-color="#FFB36B"/>
<stop offset="0.096353" stop-color="#DB9A5C"/>
<stop offset="0.2863" stop-color="#996C40"/>
<stop offset="0.4672" stop-color="#634529"/>
<stop offset="0.6339" stop-color="#382717"/>
<stop offset="0.7835" stop-color="#19120B"/>
<stop offset="0.9105" stop-color="#070503"/>
<stop offset="1"/>
</radialGradient>
<radialGradient id="paint26_radial_222_3994" cx="0" cy="0" r="1" gradientUnits="userSpaceOnUse" gradientTransform="translate(1172.66 279.84) rotate(159.831) scale(241.197 15.2427)">
<stop stop-color="#FFE4CF"/>
<stop offset="0.096353" stop-color="#DBC4B2"/>
<stop offset="0.2863" stop-color="#99897C"/>
<stop offset="0.4672" stop-color="#635850"/>
<stop offset="0.6339" stop-color="#38322D"/>
<stop offset="0.7835" stop-color="#191715"/>
<stop offset="0.9105" stop-color="#070605"/>
<stop offset="1"/>
</radialGradient>
<radialGradient id="paint27_radial_222_3994" cx="0" cy="0" r="1" gradientUnits="userSpaceOnUse" gradientTransform="translate(1613.76 280.512) rotate(159.831) scale(170.598 15.2423)">
<stop stop-color="#6BDCFF"/>
<stop offset="0.096353" stop-color="#5CBDDB"/>
<stop offset="0.2863" stop-color="#408499"/>
<stop offset="0.4672" stop-color="#295563"/>
<stop offset="0.6339" stop-color="#173038"/>
<stop offset="0.7835" stop-color="#0B1619"/>
<stop offset="0.9105" stop-color="#030607"/>
<stop offset="1"/>
</radialGradient>
<radialGradient id="paint28_radial_222_3994" cx="0" cy="0" r="1" gradientUnits="userSpaceOnUse" gradientTransform="translate(1282.77 109.875) rotate(159.831) scale(170.598 15.2423)">
<stop stop-color="#6BDCFF"/>
<stop offset="0.096353" stop-color="#5CBDDB"/>
<stop offset="0.2863" stop-color="#408499"/>
<stop offset="0.4672" stop-color="#295563"/>
<stop offset="0.6339" stop-color="#173038"/>
<stop offset="0.7835" stop-color="#0B1619"/>
<stop offset="0.9105" stop-color="#030607"/>
<stop offset="1"/>
</radialGradient>
<radialGradient id="paint29_radial_222_3994" cx="0" cy="0" r="1" gradientUnits="userSpaceOnUse" gradientTransform="translate(1514.09 378.007) rotate(159.831) scale(170.598 15.2423)">
<stop stop-color="#6BDCFF"/>
<stop offset="0.096353" stop-color="#5CBDDB"/>
<stop offset="0.2863" stop-color="#408499"/>
<stop offset="0.4672" stop-color="#295563"/>
<stop offset="0.6339" stop-color="#173038"/>
<stop offset="0.7835" stop-color="#0B1619"/>
<stop offset="0.9105" stop-color="#030607"/>
<stop offset="1"/>
</radialGradient>
<radialGradient id="paint30_radial_222_3994" cx="0" cy="0" r="1" gradientUnits="userSpaceOnUse" gradientTransform="translate(1663.75 198.204) rotate(159.831) scale(170.598 15.2423)">
<stop stop-color="#6BDCFF"/>
<stop offset="0.096353" stop-color="#5CBDDB"/>
<stop offset="0.2863" stop-color="#408499"/>
<stop offset="0.4672" stop-color="#295563"/>
<stop offset="0.6339" stop-color="#173038"/>
<stop offset="0.7835" stop-color="#0B1619"/>
<stop offset="0.9105" stop-color="#030607"/>
<stop offset="1"/>
</radialGradient>
<radialGradient id="paint31_radial_222_3994" cx="0" cy="0" r="1" gradientUnits="userSpaceOnUse" gradientTransform="translate(1464.86 77.5825) rotate(159.831) scale(170.598 15.2423)">
<stop stop-color="#6BDCFF"/>
<stop offset="0.096353" stop-color="#5CBDDB"/>
<stop offset="0.2863" stop-color="#408499"/>
<stop offset="0.4672" stop-color="#295563"/>
<stop offset="0.6339" stop-color="#173038"/>
<stop offset="0.7835" stop-color="#0B1619"/>
<stop offset="0.9105" stop-color="#030607"/>
<stop offset="1"/>
</radialGradient>
<radialGradient id="paint32_radial_222_3994" cx="0" cy="0" r="1" gradientUnits="userSpaceOnUse" gradientTransform="translate(1276.6 221.224) rotate(159.831) scale(170.598 15.2423)">
<stop stop-color="#6BDCFF"/>
<stop offset="0.096353" stop-color="#5CBDDB"/>
<stop offset="0.2863" stop-color="#408499"/>
<stop offset="0.4672" stop-color="#295563"/>
<stop offset="0.6339" stop-color="#173038"/>
<stop offset="0.7835" stop-color="#0B1619"/>
<stop offset="0.9105" stop-color="#030607"/>
<stop offset="1"/>
</radialGradient>
<radialGradient id="paint33_radial_222_3994" cx="0" cy="0" r="1" gradientUnits="userSpaceOnUse" gradientTransform="translate(1252.47 457.874) rotate(159.831) scale(170.598 15.2423)">
<stop stop-color="#FFB36B"/>
<stop offset="0.096353" stop-color="#DB9A5C"/>
<stop offset="0.2863" stop-color="#996C40"/>
<stop offset="0.4672" stop-color="#634529"/>
<stop offset="0.6339" stop-color="#382717"/>
<stop offset="0.7835" stop-color="#19120B"/>
<stop offset="0.9105" stop-color="#070503"/>
<stop offset="1"/>
</radialGradient>
<radialGradient id="paint34_radial_222_3994" cx="0" cy="0" r="1" gradientUnits="userSpaceOnUse" gradientTransform="translate(1414.2 77.8245) rotate(159.831) scale(170.598 15.2423)">
<stop stop-color="#FFB36B"/>
<stop offset="0.096353" stop-color="#DB9A5C"/>
<stop offset="0.2863" stop-color="#996C40"/>
<stop offset="0.4672" stop-color="#634529"/>
<stop offset="0.6339" stop-color="#382717"/>
<stop offset="0.7835" stop-color="#19120B"/>
<stop offset="0.9105" stop-color="#070503"/>
<stop offset="1"/>
</radialGradient>
<radialGradient id="paint35_radial_222_3994" cx="0" cy="0" r="1" gradientUnits="userSpaceOnUse" gradientTransform="translate(1386.36 247.507) rotate(159.831) scale(170.598 15.2423)">
<stop stop-color="#FFB36B"/>
<stop offset="0.096353" stop-color="#DB9A5C"/>
<stop offset="0.2863" stop-color="#996C40"/>
<stop offset="0.4672" stop-color="#634529"/>
<stop offset="0.6339" stop-color="#382717"/>
<stop offset="0.7835" stop-color="#19120B"/>
<stop offset="0.9105" stop-color="#070503"/>
<stop offset="1"/>
</radialGradient>
<radialGradient id="paint36_radial_222_3994" cx="0" cy="0" r="1" gradientUnits="userSpaceOnUse" gradientTransform="translate(1411.83 293.174) rotate(159.831) scale(170.597 15.2422)">
<stop stop-color="#6BDCFF"/>
<stop offset="0.096353" stop-color="#5CBDDB"/>
<stop offset="0.2863" stop-color="#408499"/>
<stop offset="0.4672" stop-color="#295563"/>
<stop offset="0.6339" stop-color="#173038"/>
<stop offset="0.7835" stop-color="#0B1619"/>
<stop offset="0.9105" stop-color="#030607"/>
<stop offset="1"/>
</radialGradient>
<radialGradient id="paint37_radial_222_3994" cx="0" cy="0" r="1" gradientUnits="userSpaceOnUse" gradientTransform="translate(1199.68 354.057) rotate(159.831) scale(170.597 15.2422)">
<stop stop-color="#6BDCFF"/>
<stop offset="0.096353" stop-color="#5CBDDB"/>
<stop offset="0.2863" stop-color="#408499"/>
<stop offset="0.4672" stop-color="#295563"/>
<stop offset="0.6339" stop-color="#173038"/>
<stop offset="0.7835" stop-color="#0B1619"/>
<stop offset="0.9105" stop-color="#030607"/>
<stop offset="1"/>
</radialGradient>
<linearGradient id="paint38_linear_222_3994" x1="133.095" y1="960.184" x2="164.522" y2="868.418" gradientUnits="userSpaceOnUse">
<stop stop-color="#B33DEB"/>
<stop offset="1" stop-color="#DE8FFF"/>
</linearGradient>
<linearGradient id="paint39_linear_222_3994" x1="304.454" y1="921.434" x2="297.784" y2="979.868" gradientUnits="userSpaceOnUse">
<stop stop-color="#F3A6FF"/>
<stop offset="1" stop-color="#B380F5"/>
</linearGradient>
<linearGradient id="paint40_linear_222_3994" x1="1568.1" y1="960.184" x2="1599.52" y2="868.418" gradientUnits="userSpaceOnUse">
<stop stop-color="#B33DEB"/>
<stop offset="1" stop-color="#DE8FFF"/>
</linearGradient>
<linearGradient id="paint41_linear_222_3994" x1="1739.45" y1="921.434" x2="1732.78" y2="979.868" gradientUnits="userSpaceOnUse">
<stop stop-color="#F3A6FF"/>
<stop offset="1" stop-color="#B380F5"/>
</linearGradient>
</defs>
</svg>
