<svg width="1920" height="1080" viewBox="0 0 1920 1080" fill="none" xmlns="http://www.w3.org/2000/svg">
<g style="mix-blend-mode:lighten" opacity="0.1">
<path d="M125.469 889.54C188.561 1061.04 432.429 1129.27 670.186 1042.06C907.943 954.716 1049.67 744.984 986.576 573.482C923.484 401.979 679.617 333.75 441.859 420.961C204.102 508.305 62.3772 718.038 125.469 889.54Z" fill="url(#paint0_radial_77_7964)"/>
<path d="M89.208 723.879C104.084 764.365 255.771 745.914 427.913 682.729C600.054 619.544 727.567 535.385 712.69 495.032C697.814 454.545 546.127 472.997 373.986 536.182C201.844 599.367 74.3315 683.392 89.208 723.879Z" fill="url(#paint1_radial_77_7964)"/>
<path d="M53.8765 1028.39C68.7529 1068.87 273.57 1030.91 511.327 943.566C749.084 856.355 929.86 752.683 914.983 712.197C900.107 671.711 695.29 709.675 457.533 797.019C219.643 884.363 39 987.902 53.8765 1028.39Z" fill="url(#paint2_radial_77_7964)"/>
<path d="M55.736 904.54C70.6125 945.027 275.429 907.063 513.187 819.718C750.944 732.374 931.719 628.836 916.843 588.349C901.966 547.863 697.15 585.827 459.392 673.171C221.635 760.515 40.8596 864.054 55.736 904.54Z" fill="url(#paint3_radial_77_7964)"/>
<path d="M302.927 739.145C312.756 765.959 513.588 716.977 751.345 629.633C989.103 542.289 1173.86 449.767 1164.03 422.954C1154.2 396.14 953.373 445.122 715.615 532.466C477.858 619.81 292.965 712.331 302.927 739.145Z" fill="url(#paint4_radial_77_7964)"/>
<path d="M14.693 784.541C20.6702 800.735 264.803 726.001 559.941 617.684C855.079 509.367 1089.65 408.217 1083.67 392.023C1077.69 375.828 833.561 450.562 538.423 558.879C243.285 667.197 8.7159 768.346 14.693 784.541Z" fill="url(#paint5_radial_77_7964)"/>
<path d="M223.893 1026.79C229.87 1042.99 474.003 968.255 769.141 859.938C1064.28 751.621 1298.85 650.604 1292.87 634.41C1286.89 618.215 1042.76 692.949 747.623 801.266C452.485 909.584 217.916 1010.6 223.893 1026.79Z" fill="url(#paint6_radial_77_7964)"/>
<path d="M0.0821851 866.841C3.93412 877.328 141.807 836.311 307.971 775.382C474.136 714.453 605.766 656.445 601.914 645.959C598.062 635.472 460.189 676.489 294.025 737.418C127.86 798.346 -3.76975 856.355 0.0821851 866.841Z" fill="url(#paint7_radial_77_7964)"/>
<path d="M674.041 835.515C677.893 846.002 776.316 819.453 893.867 776.312C1011.42 733.171 1103.6 689.632 1099.75 679.145C1095.89 668.659 997.47 695.207 879.92 738.348C762.37 781.489 670.189 825.028 674.041 835.515Z" fill="url(#paint8_radial_77_7964)"/>
<path d="M234.386 608.924C238.238 619.411 336.662 592.862 454.212 549.721C571.763 506.58 663.943 463.041 660.091 452.554C656.239 442.068 557.816 468.616 440.265 511.757C322.715 554.898 230.534 598.438 234.386 608.924Z" fill="url(#paint9_radial_77_7964)"/>
<path d="M541.614 964.939C545.466 975.426 643.889 948.877 761.44 905.736C878.99 862.595 971.171 819.056 967.319 808.569C963.467 798.082 865.044 824.631 747.493 867.772C629.943 910.913 537.762 954.452 541.614 964.939Z" fill="url(#paint10_radial_77_7964)"/>
<path d="M740.453 726.268C744.305 736.755 842.729 710.206 960.279 667.065C1077.83 623.924 1170.01 580.385 1166.16 569.898C1162.31 559.411 1063.88 585.96 946.333 629.101C828.782 672.242 736.602 715.781 740.453 726.268Z" fill="url(#paint11_radial_77_7964)"/>
<path d="M476.264 566.049C480.116 576.536 578.539 549.987 696.09 506.846C813.64 463.705 905.821 420.166 901.969 409.679C898.117 399.193 799.693 425.741 682.143 468.882C564.593 512.023 472.412 555.563 476.264 566.049Z" fill="url(#paint12_radial_77_7964)"/>
<path d="M226.151 756.798C230.003 767.285 328.427 740.737 445.977 697.595C563.527 654.454 655.708 610.915 651.856 600.428C648.004 589.942 549.581 616.49 432.03 659.631C314.48 702.772 222.299 746.312 226.151 756.798Z" fill="url(#paint13_radial_77_7964)"/>
<path d="M194.14 1071C197.992 1081.49 296.416 1054.94 413.966 1011.8C531.516 968.655 623.697 925.115 619.845 914.629C615.993 904.142 517.57 930.69 400.019 973.831C282.469 1016.97 190.288 1060.51 194.14 1071Z" fill="url(#paint14_radial_77_7964)"/>
<path d="M408.921 566.448C412.773 576.934 511.197 550.386 628.747 507.245C746.298 464.104 838.479 420.564 834.627 410.078C830.775 399.591 732.351 426.14 614.801 469.281C497.25 512.422 405.069 555.961 408.921 566.448Z" fill="url(#paint15_radial_77_7964)"/>
<path d="M371.996 791.71C375.848 802.197 474.271 775.649 591.822 732.507C709.372 689.366 801.553 645.827 797.701 635.34C793.849 624.854 695.426 651.402 577.875 694.543C460.325 737.684 368.144 781.224 371.996 791.71Z" fill="url(#paint16_radial_77_7964)"/>
<path d="M405.866 852.241C409.718 862.727 508.142 836.179 625.692 793.038C743.243 749.897 835.424 706.357 831.572 695.871C827.72 685.384 729.296 711.932 611.746 755.074C494.062 798.347 402.014 841.754 405.866 852.241Z" fill="url(#paint17_radial_77_7964)"/>
<path d="M124.008 933.08C127.86 943.566 226.284 917.018 343.834 873.877C461.385 830.736 553.565 787.196 549.714 776.71C545.862 766.223 447.438 792.771 329.888 835.912C212.337 879.054 120.156 922.593 124.008 933.08Z" fill="url(#paint18_radial_77_7964)"/>
</g>
<g style="mix-blend-mode:lighten" opacity="0.1">
<path d="M1040.3 381.597C1087.84 510.802 1271.59 562.204 1450.73 496.501C1629.88 430.699 1736.67 272.692 1689.13 143.487C1641.59 14.2821 1457.84 -37.1199 1278.69 28.5827C1099.55 94.3853 992.759 252.392 1040.3 381.597Z" fill="url(#paint19_radial_77_7964)"/>
<path d="M1012.98 256.792C1024.18 287.293 1138.48 273.393 1268.18 225.791C1397.89 178.189 1493.97 114.786 1482.76 84.3853C1471.55 53.8841 1357.26 67.7846 1227.55 115.387C1097.85 162.988 1001.77 226.291 1012.98 256.792Z" fill="url(#paint20_radial_77_7964)"/>
<path d="M986.354 486.202C997.563 516.703 1151.89 488.102 1331.04 422.299C1510.18 356.596 1646.39 278.493 1635.18 247.992C1623.97 217.491 1469.65 246.092 1290.5 311.895C1111.26 377.697 975.145 455.7 986.354 486.202Z" fill="url(#paint21_radial_77_7964)"/>
<path d="M987.755 392.897C998.964 423.398 1153.29 394.797 1332.44 328.994C1511.58 263.192 1647.79 185.189 1636.58 154.687C1625.38 124.186 1471.05 152.787 1291.9 218.59C1112.76 284.393 976.546 362.396 987.755 392.897Z" fill="url(#paint22_radial_77_7964)"/>
<path d="M1174.01 268.292C1181.41 288.493 1332.74 251.592 1511.88 185.789C1691.03 119.986 1830.24 50.2835 1822.84 30.0827C1815.43 9.88191 1664.11 46.7834 1484.96 112.586C1305.81 178.389 1166.5 248.091 1174.01 268.292Z" fill="url(#paint23_radial_77_7964)"/>
<path d="M956.83 302.493C961.334 314.694 1145.28 258.392 1367.67 176.788C1590.05 95.1852 1766.79 18.9822 1762.29 6.78169C1757.78 -5.4188 1573.83 50.8834 1351.45 132.487C1129.07 214.09 952.326 290.293 956.83 302.493Z" fill="url(#paint24_radial_77_7964)"/>
<path d="M1114.46 485.001C1118.96 497.201 1302.91 440.899 1525.29 359.296C1747.68 277.693 1924.42 201.59 1919.92 189.389C1915.41 177.189 1731.46 233.491 1509.08 315.094C1286.7 396.697 1109.95 472.8 1114.46 485.001Z" fill="url(#paint25_radial_77_7964)"/>
<path d="M945.821 364.496C948.723 372.396 1052.61 341.495 1177.81 295.593C1303.01 249.691 1402.19 205.99 1399.29 198.089C1396.39 190.189 1292.5 221.09 1167.3 266.992C1042.1 312.894 942.919 356.596 945.821 364.496Z" fill="url(#paint26_radial_77_7964)"/>
<path d="M1453.64 340.895C1456.54 348.795 1530.7 328.795 1619.27 296.293C1707.84 263.792 1777.3 230.991 1774.4 223.09C1771.49 215.19 1697.33 235.191 1608.76 267.692C1520.19 300.194 1450.73 332.995 1453.64 340.895Z" fill="url(#paint27_radial_77_7964)"/>
<path d="M1122.37 170.188C1125.27 178.088 1199.43 158.088 1288 125.586C1376.57 93.085 1446.03 60.2837 1443.13 52.3834C1440.22 44.4831 1366.06 64.4839 1277.49 96.9852C1188.92 129.486 1119.46 162.288 1122.37 170.188Z" fill="url(#paint28_radial_77_7964)"/>
<path d="M1353.85 438.399C1356.76 446.299 1430.92 426.299 1519.49 393.797C1608.06 361.296 1677.52 328.495 1674.62 320.594C1671.71 312.694 1597.55 332.695 1508.98 365.196C1420.41 397.697 1350.95 430.499 1353.85 438.399Z" fill="url(#paint29_radial_77_7964)"/>
<path d="M1503.68 258.591C1506.58 266.492 1580.74 246.491 1669.31 213.99C1757.88 181.488 1827.34 148.687 1824.44 140.787C1821.54 132.886 1747.38 152.887 1658.8 185.389C1570.23 217.89 1500.77 250.691 1503.68 258.591Z" fill="url(#paint30_radial_77_7964)"/>
<path d="M1304.61 137.887C1307.52 145.788 1381.68 125.787 1470.25 93.2855C1558.82 60.7843 1628.28 27.983 1625.38 20.0826C1622.47 12.1823 1548.31 32.1831 1459.74 64.6844C1371.17 97.1857 1301.71 129.987 1304.61 137.887Z" fill="url(#paint31_radial_77_7964)"/>
<path d="M1116.16 281.592C1119.06 289.493 1193.22 269.492 1281.8 236.991C1370.37 204.489 1439.82 171.688 1436.92 163.788C1434.02 155.887 1359.86 175.888 1271.29 208.389C1182.71 240.891 1113.26 273.692 1116.16 281.592Z" fill="url(#paint32_radial_77_7964)"/>
<path d="M1092.04 518.302C1094.94 526.203 1169.1 506.202 1257.68 473.701C1346.25 441.199 1415.7 408.398 1412.8 400.498C1409.9 392.597 1335.74 412.598 1247.17 445.099C1158.59 477.601 1089.14 510.402 1092.04 518.302Z" fill="url(#paint33_radial_77_7964)"/>
<path d="M1253.87 138.187C1256.77 146.087 1330.94 126.087 1419.51 93.5854C1508.08 61.0841 1577.54 28.2828 1574.63 20.3824C1571.73 12.4821 1497.57 32.4829 1409 64.9842C1320.43 97.4855 1250.97 130.287 1253.87 138.187Z" fill="url(#paint34_radial_77_7964)"/>
<path d="M1226.05 307.894C1228.95 315.794 1303.11 295.794 1391.68 263.292C1480.26 230.791 1549.71 197.99 1546.81 190.089C1543.91 182.189 1469.75 202.19 1381.18 234.691C1292.6 267.193 1223.15 299.994 1226.05 307.894Z" fill="url(#paint35_radial_77_7964)"/>
<path d="M1251.57 353.496C1254.47 361.396 1328.63 341.395 1417.21 308.894C1505.78 276.393 1575.23 243.591 1572.33 235.691C1569.43 227.791 1495.27 247.792 1406.7 280.293C1318.02 312.894 1248.67 345.595 1251.57 353.496Z" fill="url(#paint36_radial_77_7964)"/>
<path d="M1039.2 414.398C1042.1 422.298 1116.26 402.298 1204.83 369.796C1293.4 337.295 1362.86 304.494 1359.96 296.593C1357.06 288.693 1282.9 308.694 1194.32 341.195C1105.75 373.696 1036.29 406.498 1039.2 414.398Z" fill="url(#paint37_radial_77_7964)"/>
</g>
<defs>
<radialGradient id="paint0_radial_77_7964" cx="0" cy="0" r="1" gradientUnits="userSpaceOnUse" gradientTransform="translate(556.003 731.586) rotate(159.842) scale(458.65 330.839)">
<stop stop-color="#570707"/>
<stop offset="0.1728" stop-color="#390505"/>
<stop offset="0.359" stop-color="#200303"/>
<stop offset="0.5537" stop-color="#0E0101"/>
<stop offset="0.7606" stop-color="#030000"/>
<stop offset="1"/>
</radialGradient>
<radialGradient id="paint1_radial_77_7964" cx="0" cy="0" r="1" gradientUnits="userSpaceOnUse" gradientTransform="translate(400.81 609.033) rotate(159.842) scale(332.188 78.0689)">
<stop stop-color="#6BBAFF"/>
<stop offset="0.096353" stop-color="#5CA0DB"/>
<stop offset="0.2863" stop-color="#407099"/>
<stop offset="0.4672" stop-color="#294863"/>
<stop offset="0.6339" stop-color="#172938"/>
<stop offset="0.7835" stop-color="#0B1219"/>
<stop offset="0.9105" stop-color="#030507"/>
<stop offset="1"/>
</radialGradient>
<radialGradient id="paint2_radial_77_7964" cx="0" cy="0" r="1" gradientUnits="userSpaceOnUse" gradientTransform="translate(484.228 869.888) rotate(159.842) scale(458.741 78.0676)">
<stop stop-color="#6BBAFF"/>
<stop offset="0.096353" stop-color="#5CA0DB"/>
<stop offset="0.2863" stop-color="#407099"/>
<stop offset="0.4672" stop-color="#294863"/>
<stop offset="0.6339" stop-color="#172938"/>
<stop offset="0.7835" stop-color="#0B1219"/>
<stop offset="0.9105" stop-color="#030507"/>
<stop offset="1"/>
</radialGradient>
<radialGradient id="paint3_radial_77_7964" cx="0" cy="0" r="1" gradientUnits="userSpaceOnUse" gradientTransform="translate(486.158 746.102) rotate(159.842) scale(458.741 78.0676)">
<stop stop-color="#FFD06B"/>
<stop offset="0.096353" stop-color="#DBB25C"/>
<stop offset="0.2863" stop-color="#997D40"/>
<stop offset="0.4672" stop-color="#635029"/>
<stop offset="0.6339" stop-color="#382E17"/>
<stop offset="0.7835" stop-color="#19150B"/>
<stop offset="0.9105" stop-color="#070503"/>
<stop offset="1"/>
</radialGradient>
<radialGradient id="paint4_radial_77_7964" cx="0" cy="0" r="1" gradientUnits="userSpaceOnUse" gradientTransform="translate(734.606 581.114) rotate(159.842) scale(458.704 51.7449)">
<stop stop-color="#C9F2FF"/>
<stop offset="0.0197251" stop-color="#BCEBFA"/>
<stop offset="0.0905168" stop-color="#92D4EB"/>
<stop offset="0.1545" stop-color="#73C3DF"/>
<stop offset="0.2089" stop-color="#61B9D8"/>
<stop offset="0.2473" stop-color="#5AB5D6"/>
<stop offset="0.3984" stop-color="#408199"/>
<stop offset="0.5497" stop-color="#295363"/>
<stop offset="0.6906" stop-color="#182F38"/>
<stop offset="0.817" stop-color="#0B1519"/>
<stop offset="0.9244" stop-color="#030607"/>
<stop offset="1"/>
</radialGradient>
<radialGradient id="paint5_radial_77_7964" cx="0" cy="0" r="1" gradientUnits="userSpaceOnUse" gradientTransform="translate(549.185 585.901) rotate(159.843) scale(569.312 31.2304)">
<stop stop-color="#FFBF6B"/>
<stop offset="0.096353" stop-color="#DBA45C"/>
<stop offset="0.2863" stop-color="#997340"/>
<stop offset="0.4672" stop-color="#634A29"/>
<stop offset="0.6339" stop-color="#382A17"/>
<stop offset="0.7835" stop-color="#19130B"/>
<stop offset="0.9105" stop-color="#070503"/>
<stop offset="1"/>
</radialGradient>
<radialGradient id="paint6_radial_77_7964" cx="0" cy="0" r="1" gradientUnits="userSpaceOnUse" gradientTransform="translate(758.384 828.1) rotate(159.843) scale(569.312 31.2304)">
<stop stop-color="#FFB36B"/>
<stop offset="0.096353" stop-color="#DB9A5C"/>
<stop offset="0.2863" stop-color="#996C40"/>
<stop offset="0.4672" stop-color="#634529"/>
<stop offset="0.6339" stop-color="#382717"/>
<stop offset="0.7835" stop-color="#19120B"/>
<stop offset="0.9105" stop-color="#070503"/>
<stop offset="1"/>
</radialGradient>
<radialGradient id="paint7_radial_77_7964" cx="0" cy="0" r="1" gradientUnits="userSpaceOnUse" gradientTransform="translate(301.016 754.462) rotate(159.843) scale(320.347 20.2349)">
<stop stop-color="#FFE4CF"/>
<stop offset="0.096353" stop-color="#DBC4B2"/>
<stop offset="0.2863" stop-color="#99897C"/>
<stop offset="0.4672" stop-color="#635850"/>
<stop offset="0.6339" stop-color="#38322D"/>
<stop offset="0.7835" stop-color="#191715"/>
<stop offset="0.9105" stop-color="#070605"/>
<stop offset="1"/>
</radialGradient>
<radialGradient id="paint8_radial_77_7964" cx="0" cy="0" r="1" gradientUnits="userSpaceOnUse" gradientTransform="translate(886.905 755.354) rotate(159.843) scale(226.581 20.2345)">
<stop stop-color="#6BDCFF"/>
<stop offset="0.096353" stop-color="#5CBDDB"/>
<stop offset="0.2863" stop-color="#408499"/>
<stop offset="0.4672" stop-color="#295563"/>
<stop offset="0.6339" stop-color="#173038"/>
<stop offset="0.7835" stop-color="#0B1619"/>
<stop offset="0.9105" stop-color="#030607"/>
<stop offset="1"/>
</radialGradient>
<radialGradient id="paint9_radial_77_7964" cx="0" cy="0" r="1" gradientUnits="userSpaceOnUse" gradientTransform="translate(447.264 528.848) rotate(159.843) scale(226.581 20.2345)">
<stop stop-color="#6BDCFF"/>
<stop offset="0.096353" stop-color="#5CBDDB"/>
<stop offset="0.2863" stop-color="#408499"/>
<stop offset="0.4672" stop-color="#295563"/>
<stop offset="0.6339" stop-color="#173038"/>
<stop offset="0.7835" stop-color="#0B1619"/>
<stop offset="0.9105" stop-color="#030607"/>
<stop offset="1"/>
</radialGradient>
<radialGradient id="paint10_radial_77_7964" cx="0" cy="0" r="1" gradientUnits="userSpaceOnUse" gradientTransform="translate(754.513 884.772) rotate(159.843) scale(226.581 20.2345)">
<stop stop-color="#6BDCFF"/>
<stop offset="0.096353" stop-color="#5CBDDB"/>
<stop offset="0.2863" stop-color="#408499"/>
<stop offset="0.4672" stop-color="#295563"/>
<stop offset="0.6339" stop-color="#173038"/>
<stop offset="0.7835" stop-color="#0B1619"/>
<stop offset="0.9105" stop-color="#030607"/>
<stop offset="1"/>
</radialGradient>
<radialGradient id="paint11_radial_77_7964" cx="0" cy="0" r="1" gradientUnits="userSpaceOnUse" gradientTransform="translate(953.31 646.097) rotate(159.843) scale(226.581 20.2345)">
<stop stop-color="#6BDCFF"/>
<stop offset="0.096353" stop-color="#5CBDDB"/>
<stop offset="0.2863" stop-color="#408499"/>
<stop offset="0.4672" stop-color="#295563"/>
<stop offset="0.6339" stop-color="#173038"/>
<stop offset="0.7835" stop-color="#0B1619"/>
<stop offset="0.9105" stop-color="#030607"/>
<stop offset="1"/>
</radialGradient>
<radialGradient id="paint12_radial_77_7964" cx="0" cy="0" r="1" gradientUnits="userSpaceOnUse" gradientTransform="translate(689.126 485.982) rotate(159.843) scale(226.581 20.2344)">
<stop stop-color="#6BDCFF"/>
<stop offset="0.096353" stop-color="#5CBDDB"/>
<stop offset="0.2863" stop-color="#408499"/>
<stop offset="0.4672" stop-color="#295563"/>
<stop offset="0.6339" stop-color="#173038"/>
<stop offset="0.7835" stop-color="#0B1619"/>
<stop offset="0.9105" stop-color="#030607"/>
<stop offset="1"/>
</radialGradient>
<radialGradient id="paint13_radial_77_7964" cx="0" cy="0" r="1" gradientUnits="userSpaceOnUse" gradientTransform="translate(439.067 676.654) rotate(159.843) scale(226.581 20.2345)">
<stop stop-color="#6BDCFF"/>
<stop offset="0.096353" stop-color="#5CBDDB"/>
<stop offset="0.2863" stop-color="#408499"/>
<stop offset="0.4672" stop-color="#295563"/>
<stop offset="0.6339" stop-color="#173038"/>
<stop offset="0.7835" stop-color="#0B1619"/>
<stop offset="0.9105" stop-color="#030607"/>
<stop offset="1"/>
</radialGradient>
<radialGradient id="paint14_radial_77_7964" cx="0" cy="0" r="1" gradientUnits="userSpaceOnUse" gradientTransform="translate(407.023 990.788) rotate(159.843) scale(226.581 20.2345)">
<stop stop-color="#FFB36B"/>
<stop offset="0.096353" stop-color="#DB9A5C"/>
<stop offset="0.2863" stop-color="#996C40"/>
<stop offset="0.4672" stop-color="#634529"/>
<stop offset="0.6339" stop-color="#382717"/>
<stop offset="0.7835" stop-color="#19120B"/>
<stop offset="0.9105" stop-color="#070503"/>
<stop offset="1"/>
</radialGradient>
<radialGradient id="paint15_radial_77_7964" cx="0" cy="0" r="1" gradientUnits="userSpaceOnUse" gradientTransform="translate(621.844 486.304) rotate(159.843) scale(226.581 20.2345)">
<stop stop-color="#FFB36B"/>
<stop offset="0.096353" stop-color="#DB9A5C"/>
<stop offset="0.2863" stop-color="#996C40"/>
<stop offset="0.4672" stop-color="#634529"/>
<stop offset="0.6339" stop-color="#382717"/>
<stop offset="0.7835" stop-color="#19120B"/>
<stop offset="0.9105" stop-color="#070503"/>
<stop offset="1"/>
</radialGradient>
<radialGradient id="paint16_radial_77_7964" cx="0" cy="0" r="1" gradientUnits="userSpaceOnUse" gradientTransform="translate(584.861 711.543) rotate(159.843) scale(226.581 20.2344)">
<stop stop-color="#FFB36B"/>
<stop offset="0.096353" stop-color="#DB9A5C"/>
<stop offset="0.2863" stop-color="#996C40"/>
<stop offset="0.4672" stop-color="#634529"/>
<stop offset="0.6339" stop-color="#382717"/>
<stop offset="0.7835" stop-color="#19120B"/>
<stop offset="0.9105" stop-color="#070503"/>
<stop offset="1"/>
</radialGradient>
<radialGradient id="paint17_radial_77_7964" cx="0" cy="0" r="1" gradientUnits="userSpaceOnUse" gradientTransform="translate(618.691 772.162) rotate(159.843) scale(226.579 20.2343)">
<stop stop-color="#6BDCFF"/>
<stop offset="0.096353" stop-color="#5CBDDB"/>
<stop offset="0.2863" stop-color="#408499"/>
<stop offset="0.4672" stop-color="#295563"/>
<stop offset="0.6339" stop-color="#173038"/>
<stop offset="0.7835" stop-color="#0B1619"/>
<stop offset="0.9105" stop-color="#030607"/>
<stop offset="1"/>
</radialGradient>
<radialGradient id="paint18_radial_77_7964" cx="0" cy="0" r="1" gradientUnits="userSpaceOnUse" gradientTransform="translate(336.9 852.978) rotate(159.843) scale(226.579 20.2343)">
<stop stop-color="#6BDCFF"/>
<stop offset="0.096353" stop-color="#5CBDDB"/>
<stop offset="0.2863" stop-color="#408499"/>
<stop offset="0.4672" stop-color="#295563"/>
<stop offset="0.6339" stop-color="#173038"/>
<stop offset="0.7835" stop-color="#0B1619"/>
<stop offset="0.9105" stop-color="#030607"/>
<stop offset="1"/>
</radialGradient>
<radialGradient id="paint19_radial_77_7964" cx="0" cy="0" r="1" gradientUnits="userSpaceOnUse" gradientTransform="translate(1364.7 262.599) rotate(159.845) scale(345.579 249.249)">
<stop stop-color="#570707"/>
<stop offset="0.1728" stop-color="#390505"/>
<stop offset="0.359" stop-color="#200303"/>
<stop offset="0.5537" stop-color="#0E0101"/>
<stop offset="0.7606" stop-color="#030000"/>
<stop offset="1"/>
</radialGradient>
<radialGradient id="paint20_radial_77_7964" cx="0" cy="0" r="1" gradientUnits="userSpaceOnUse" gradientTransform="translate(1247.76 170.271) rotate(159.845) scale(250.294 58.8159)">
<stop stop-color="#6BBAFF"/>
<stop offset="0.096353" stop-color="#5CA0DB"/>
<stop offset="0.2863" stop-color="#407099"/>
<stop offset="0.4672" stop-color="#294863"/>
<stop offset="0.6339" stop-color="#172938"/>
<stop offset="0.7835" stop-color="#0B1219"/>
<stop offset="0.9105" stop-color="#030507"/>
<stop offset="1"/>
</radialGradient>
<radialGradient id="paint21_radial_77_7964" cx="0" cy="0" r="1" gradientUnits="userSpaceOnUse" gradientTransform="translate(1310.62 366.792) rotate(159.845) scale(345.648 58.8149)">
<stop stop-color="#6BBAFF"/>
<stop offset="0.096353" stop-color="#5CA0DB"/>
<stop offset="0.2863" stop-color="#407099"/>
<stop offset="0.4672" stop-color="#294863"/>
<stop offset="0.6339" stop-color="#172938"/>
<stop offset="0.7835" stop-color="#0B1219"/>
<stop offset="0.9105" stop-color="#030507"/>
<stop offset="1"/>
</radialGradient>
<radialGradient id="paint22_radial_77_7964" cx="0" cy="0" r="1" gradientUnits="userSpaceOnUse" gradientTransform="translate(1312.07 273.534) rotate(159.845) scale(345.648 58.8149)">
<stop stop-color="#FFD06B"/>
<stop offset="0.096353" stop-color="#DBB25C"/>
<stop offset="0.2863" stop-color="#997D40"/>
<stop offset="0.4672" stop-color="#635029"/>
<stop offset="0.6339" stop-color="#382E17"/>
<stop offset="0.7835" stop-color="#19150B"/>
<stop offset="0.9105" stop-color="#070503"/>
<stop offset="1"/>
</radialGradient>
<radialGradient id="paint23_radial_77_7964" cx="0" cy="0" r="1" gradientUnits="userSpaceOnUse" gradientTransform="translate(1499.27 149.236) rotate(159.845) scale(345.62 38.9838)">
<stop stop-color="#C9F2FF"/>
<stop offset="0.0197251" stop-color="#BCEBFA"/>
<stop offset="0.0905168" stop-color="#92D4EB"/>
<stop offset="0.1545" stop-color="#73C3DF"/>
<stop offset="0.2089" stop-color="#61B9D8"/>
<stop offset="0.2473" stop-color="#5AB5D6"/>
<stop offset="0.3984" stop-color="#408199"/>
<stop offset="0.5497" stop-color="#295363"/>
<stop offset="0.6906" stop-color="#182F38"/>
<stop offset="0.817" stop-color="#0B1519"/>
<stop offset="0.9244" stop-color="#030607"/>
<stop offset="1"/>
</radialGradient>
<radialGradient id="paint24_radial_77_7964" cx="0" cy="0" r="1" gradientUnits="userSpaceOnUse" gradientTransform="translate(1359.56 152.844) rotate(159.845) scale(428.959 23.5285)">
<stop stop-color="#FFBF6B"/>
<stop offset="0.096353" stop-color="#DBA45C"/>
<stop offset="0.2863" stop-color="#997340"/>
<stop offset="0.4672" stop-color="#634A29"/>
<stop offset="0.6339" stop-color="#382A17"/>
<stop offset="0.7835" stop-color="#19130B"/>
<stop offset="0.9105" stop-color="#070503"/>
<stop offset="1"/>
</radialGradient>
<radialGradient id="paint25_radial_77_7964" cx="0" cy="0" r="1" gradientUnits="userSpaceOnUse" gradientTransform="translate(1517.19 335.31) rotate(159.845) scale(428.959 23.5285)">
<stop stop-color="#FFB36B"/>
<stop offset="0.096353" stop-color="#DB9A5C"/>
<stop offset="0.2863" stop-color="#996C40"/>
<stop offset="0.4672" stop-color="#634529"/>
<stop offset="0.6339" stop-color="#382717"/>
<stop offset="0.7835" stop-color="#19120B"/>
<stop offset="0.9105" stop-color="#070503"/>
<stop offset="1"/>
</radialGradient>
<radialGradient id="paint26_radial_77_7964" cx="0" cy="0" r="1" gradientUnits="userSpaceOnUse" gradientTransform="translate(1172.57 279.833) rotate(159.846) scale(241.372 15.2447)">
<stop stop-color="#FFE4CF"/>
<stop offset="0.096353" stop-color="#DBC4B2"/>
<stop offset="0.2863" stop-color="#99897C"/>
<stop offset="0.4672" stop-color="#635850"/>
<stop offset="0.6339" stop-color="#38322D"/>
<stop offset="0.7835" stop-color="#191715"/>
<stop offset="0.9105" stop-color="#070605"/>
<stop offset="1"/>
</radialGradient>
<radialGradient id="paint27_radial_77_7964" cx="0" cy="0" r="1" gradientUnits="userSpaceOnUse" gradientTransform="translate(1614.03 280.504) rotate(159.846) scale(170.722 15.2443)">
<stop stop-color="#6BDCFF"/>
<stop offset="0.096353" stop-color="#5CBDDB"/>
<stop offset="0.2863" stop-color="#408499"/>
<stop offset="0.4672" stop-color="#295563"/>
<stop offset="0.6339" stop-color="#173038"/>
<stop offset="0.7835" stop-color="#0B1619"/>
<stop offset="0.9105" stop-color="#030607"/>
<stop offset="1"/>
</radialGradient>
<radialGradient id="paint28_radial_77_7964" cx="0" cy="0" r="1" gradientUnits="userSpaceOnUse" gradientTransform="translate(1282.76 109.861) rotate(159.846) scale(170.722 15.2443)">
<stop stop-color="#6BDCFF"/>
<stop offset="0.096353" stop-color="#5CBDDB"/>
<stop offset="0.2863" stop-color="#408499"/>
<stop offset="0.4672" stop-color="#295563"/>
<stop offset="0.6339" stop-color="#173038"/>
<stop offset="0.7835" stop-color="#0B1619"/>
<stop offset="0.9105" stop-color="#030607"/>
<stop offset="1"/>
</radialGradient>
<radialGradient id="paint29_radial_77_7964" cx="0" cy="0" r="1" gradientUnits="userSpaceOnUse" gradientTransform="translate(1514.27 378.004) rotate(159.846) scale(170.722 15.2443)">
<stop stop-color="#6BDCFF"/>
<stop offset="0.096353" stop-color="#5CBDDB"/>
<stop offset="0.2863" stop-color="#408499"/>
<stop offset="0.4672" stop-color="#295563"/>
<stop offset="0.6339" stop-color="#173038"/>
<stop offset="0.7835" stop-color="#0B1619"/>
<stop offset="0.9105" stop-color="#030607"/>
<stop offset="1"/>
</radialGradient>
<radialGradient id="paint30_radial_77_7964" cx="0" cy="0" r="1" gradientUnits="userSpaceOnUse" gradientTransform="translate(1664.06 198.192) rotate(159.846) scale(170.722 15.2443)">
<stop stop-color="#6BDCFF"/>
<stop offset="0.096353" stop-color="#5CBDDB"/>
<stop offset="0.2863" stop-color="#408499"/>
<stop offset="0.4672" stop-color="#295563"/>
<stop offset="0.6339" stop-color="#173038"/>
<stop offset="0.7835" stop-color="#0B1619"/>
<stop offset="0.9105" stop-color="#030607"/>
<stop offset="1"/>
</radialGradient>
<radialGradient id="paint31_radial_77_7964" cx="0" cy="0" r="1" gradientUnits="userSpaceOnUse" gradientTransform="translate(1465 77.5672) rotate(159.846) scale(170.722 15.2443)">
<stop stop-color="#6BDCFF"/>
<stop offset="0.096353" stop-color="#5CBDDB"/>
<stop offset="0.2863" stop-color="#408499"/>
<stop offset="0.4672" stop-color="#295563"/>
<stop offset="0.6339" stop-color="#173038"/>
<stop offset="0.7835" stop-color="#0B1619"/>
<stop offset="0.9105" stop-color="#030607"/>
<stop offset="1"/>
</radialGradient>
<radialGradient id="paint32_radial_77_7964" cx="0" cy="0" r="1" gradientUnits="userSpaceOnUse" gradientTransform="translate(1276.59 221.214) rotate(159.846) scale(170.722 15.2443)">
<stop stop-color="#6BDCFF"/>
<stop offset="0.096353" stop-color="#5CBDDB"/>
<stop offset="0.2863" stop-color="#408499"/>
<stop offset="0.4672" stop-color="#295563"/>
<stop offset="0.6339" stop-color="#173038"/>
<stop offset="0.7835" stop-color="#0B1619"/>
<stop offset="0.9105" stop-color="#030607"/>
<stop offset="1"/>
</radialGradient>
<radialGradient id="paint33_radial_77_7964" cx="0" cy="0" r="1" gradientUnits="userSpaceOnUse" gradientTransform="translate(1252.44 457.874) rotate(159.846) scale(170.722 15.2443)">
<stop stop-color="#FFB36B"/>
<stop offset="0.096353" stop-color="#DB9A5C"/>
<stop offset="0.2863" stop-color="#996C40"/>
<stop offset="0.4672" stop-color="#634529"/>
<stop offset="0.6339" stop-color="#382717"/>
<stop offset="0.7835" stop-color="#19120B"/>
<stop offset="0.9105" stop-color="#070503"/>
<stop offset="1"/>
</radialGradient>
<radialGradient id="paint34_radial_77_7964" cx="0" cy="0" r="1" gradientUnits="userSpaceOnUse" gradientTransform="translate(1414.31 77.8092) rotate(159.846) scale(170.722 15.2443)">
<stop stop-color="#FFB36B"/>
<stop offset="0.096353" stop-color="#DB9A5C"/>
<stop offset="0.2863" stop-color="#996C40"/>
<stop offset="0.4672" stop-color="#634529"/>
<stop offset="0.6339" stop-color="#382717"/>
<stop offset="0.7835" stop-color="#19120B"/>
<stop offset="0.9105" stop-color="#070503"/>
<stop offset="1"/>
</radialGradient>
<radialGradient id="paint35_radial_77_7964" cx="0" cy="0" r="1" gradientUnits="userSpaceOnUse" gradientTransform="translate(1386.44 247.498) rotate(159.846) scale(170.722 15.2443)">
<stop stop-color="#FFB36B"/>
<stop offset="0.096353" stop-color="#DB9A5C"/>
<stop offset="0.2863" stop-color="#996C40"/>
<stop offset="0.4672" stop-color="#634529"/>
<stop offset="0.6339" stop-color="#382717"/>
<stop offset="0.7835" stop-color="#19120B"/>
<stop offset="0.9105" stop-color="#070503"/>
<stop offset="1"/>
</radialGradient>
<radialGradient id="paint36_radial_77_7964" cx="0" cy="0" r="1" gradientUnits="userSpaceOnUse" gradientTransform="translate(1411.93 293.167) rotate(159.846) scale(170.72 15.2442)">
<stop stop-color="#6BDCFF"/>
<stop offset="0.096353" stop-color="#5CBDDB"/>
<stop offset="0.2863" stop-color="#408499"/>
<stop offset="0.4672" stop-color="#295563"/>
<stop offset="0.6339" stop-color="#173038"/>
<stop offset="0.7835" stop-color="#0B1619"/>
<stop offset="0.9105" stop-color="#030607"/>
<stop offset="1"/>
</radialGradient>
<radialGradient id="paint37_radial_77_7964" cx="0" cy="0" r="1" gradientUnits="userSpaceOnUse" gradientTransform="translate(1199.61 354.052) rotate(159.846) scale(170.72 15.2442)">
<stop stop-color="#6BDCFF"/>
<stop offset="0.096353" stop-color="#5CBDDB"/>
<stop offset="0.2863" stop-color="#408499"/>
<stop offset="0.4672" stop-color="#295563"/>
<stop offset="0.6339" stop-color="#173038"/>
<stop offset="0.7835" stop-color="#0B1619"/>
<stop offset="0.9105" stop-color="#030607"/>
<stop offset="1"/>
</radialGradient>
</defs>
</svg>
