<svg width="257" height="53" viewBox="0 0 257 53" fill="none" xmlns="http://www.w3.org/2000/svg">
<path d="M237.986 38.7843C230.773 47.4067 220.11 52.3889 208.868 52.3889H15.4214C10.0698 52.3889 5.73145 48.0505 5.73145 42.6989C5.73145 40.4015 6.54772 38.1788 8.03461 36.4275L24.5699 16.9513C31.7829 8.45546 42.3648 3.55823 53.5096 3.55823H247.484C252.637 3.55823 256.814 7.73567 256.814 12.8888C256.814 15.0776 256.045 17.1968 254.641 18.8756L237.986 38.7843Z" fill="url(#paint0_linear_323_11317)"/>
<path d="M232.44 35.2261C225.227 43.8485 214.563 48.8307 203.322 48.8307H9.87505C4.52341 48.8307 0.185059 44.4923 0.185059 39.1407C0.185059 36.8433 1.00133 34.6206 2.48823 32.8693L19.0235 13.3931C26.2365 4.89723 36.8184 0 47.9632 0H241.938C247.091 0 251.268 4.17744 251.268 9.33058C251.268 11.5194 250.499 13.6386 249.094 15.3174L232.44 35.2261Z" fill="url(#paint1_linear_323_11317)"/>
<path d="M51.6724 33V15.5067H64.8895C65.5374 15.5067 66.1287 15.6686 66.6632 15.9926C67.2139 16.3165 67.6512 16.7539 67.9752 17.3046C68.3153 17.8391 68.4854 18.4384 68.4854 19.1025V22.3825C68.4854 22.5931 68.4692 22.7956 68.4368 22.9899C68.4206 23.1681 68.3801 23.3382 68.3153 23.5001C68.5583 23.8079 68.7608 24.1642 68.9227 24.5692C69.0847 24.9741 69.1657 25.3791 69.1657 25.784V29.4041C69.1657 30.052 68.9956 30.6514 68.6555 31.2021C68.3315 31.7528 67.8942 32.1901 67.3435 32.5141C66.809 32.838 66.2096 33 65.5455 33H51.6724ZM55.4383 29.2098H65.3512V26.0027H55.4383V29.2098ZM55.4383 22.2124H64.6709V19.2969H55.4383V22.2124ZM75.362 33C74.7141 33 74.1148 32.838 73.5641 32.5141C73.0134 32.1901 72.576 31.7528 72.2521 31.2021C71.9281 30.6514 71.7662 30.052 71.7662 29.4041V15.5067H75.5321V29.2098H85.445V15.5067H89.2595V29.4041C89.2595 30.052 89.0894 30.6514 88.7493 31.2021C88.4253 31.7528 87.988 32.1901 87.4373 32.5141C86.9027 32.838 86.3115 33 85.6636 33H75.362ZM98.4465 33V26.4643L90.3559 15.5067H94.8507L100.342 22.4068L105.808 15.5067H110.352L102.237 26.4886V33H98.4465ZM118.732 33V15.5067H122.45V33H118.732ZM128.132 33C127.468 33 126.86 32.838 126.309 32.5141C125.775 32.1901 125.346 31.7609 125.022 31.2264C124.698 30.6757 124.536 30.0682 124.536 29.4041V19.1025C124.536 18.4384 124.698 17.8391 125.022 17.3046C125.346 16.7539 125.775 16.3165 126.309 15.9926C126.86 15.6686 127.468 15.5067 128.132 15.5067H141.981V19.2969H129.104C128.844 19.2969 128.642 19.3617 128.496 19.4913C128.367 19.6208 128.302 19.8233 128.302 20.0987V28.408C128.302 28.6672 128.367 28.8696 128.496 29.0154C128.642 29.145 128.844 29.2098 129.104 29.2098H141.981V33H128.132ZM148.11 33C147.446 33 146.838 32.838 146.287 32.5141C145.753 32.1901 145.324 31.7609 145 31.2264C144.676 30.6757 144.514 30.0682 144.514 29.4041V19.1025C144.514 18.4384 144.676 17.8391 145 17.3046C145.324 16.7539 145.753 16.3165 146.287 15.9926C146.838 15.6686 147.446 15.5067 148.11 15.5067H161.959V19.2969H149.082C148.822 19.2969 148.62 19.3617 148.474 19.4913C148.345 19.6208 148.28 19.8233 148.28 20.0987V28.408C148.28 28.6672 148.345 28.8696 148.474 29.0154C148.62 29.145 148.822 29.2098 149.082 29.2098H161.959V33H148.11Z" fill="white"/>
<path d="M51.6724 33H50.6724C50.6724 33.5523 51.1201 34 51.6724 34V33ZM51.6724 15.5067V14.5067C51.1201 14.5067 50.6724 14.9544 50.6724 15.5067H51.6724ZM66.6632 15.9926L66.1448 16.8479L66.1562 16.8545L66.6632 15.9926ZM67.9752 17.3046L67.1132 17.8116C67.1192 17.8217 67.1252 17.8316 67.1315 17.8415L67.9752 17.3046ZM68.4368 22.9899L67.4504 22.8255C67.4463 22.85 67.4432 22.8747 67.4409 22.8994L68.4368 22.9899ZM68.3153 23.5001L67.3868 23.1288C67.254 23.461 67.3087 23.8389 67.5304 24.1198L68.3153 23.5001ZM68.9227 24.5692L67.9943 24.9406V24.9406L68.9227 24.5692ZM68.6555 31.2021L67.8047 30.6766C67.8009 30.6827 67.7972 30.6889 67.7935 30.6951L68.6555 31.2021ZM67.3435 32.5141L66.8364 31.6521L66.8252 31.6589L67.3435 32.5141ZM55.4383 29.2098H54.4383C54.4383 29.7621 54.886 30.2098 55.4383 30.2098V29.2098ZM65.3512 29.2098V30.2098C65.9035 30.2098 66.3512 29.7621 66.3512 29.2098H65.3512ZM65.3512 26.0027H66.3512C66.3512 25.4504 65.9035 25.0027 65.3512 25.0027V26.0027ZM55.4383 26.0027V25.0027C54.886 25.0027 54.4383 25.4504 54.4383 26.0027H55.4383ZM55.4383 22.2124H54.4383C54.4383 22.7647 54.886 23.2124 55.4383 23.2124V22.2124ZM64.6709 22.2124V23.2124C65.2232 23.2124 65.6709 22.7647 65.6709 22.2124H64.6709ZM64.6709 19.2969H65.6709C65.6709 18.7446 65.2232 18.2969 64.6709 18.2969V19.2969ZM55.4383 19.2969V18.2969C54.886 18.2969 54.4383 18.7446 54.4383 19.2969H55.4383ZM52.6724 33V15.5067H50.6724V33H52.6724ZM51.6724 16.5067H64.8895V14.5067H51.6724V16.5067ZM64.8895 16.5067C65.3617 16.5067 65.7725 16.6221 66.1449 16.8478L67.1815 15.1374C66.4848 14.7152 65.7132 14.5067 64.8895 14.5067V16.5067ZM66.1562 16.8545C66.5603 17.0923 66.8755 17.4075 67.1132 17.8116L68.8371 16.7976C68.427 16.1003 67.8675 15.5408 67.1702 15.1307L66.1562 16.8545ZM67.1315 17.8415C67.3645 18.2076 67.4854 18.619 67.4854 19.1025H69.4854C69.4854 18.2579 69.2661 17.4706 68.8188 16.7677L67.1315 17.8415ZM67.4854 19.1025V22.3825H69.4854V19.1025H67.4854ZM67.4854 22.3825C67.4854 22.5417 67.4732 22.689 67.4504 22.8255L69.4232 23.1543C69.4652 22.9021 69.4854 22.6444 69.4854 22.3825H67.4854ZM67.4409 22.8994C67.4333 22.9837 67.4148 23.0589 67.3868 23.1288L69.2438 23.8715C69.3455 23.6174 69.408 23.3525 69.4327 23.0805L67.4409 22.8994ZM67.5304 24.1198C67.7076 24.3442 67.864 24.615 67.9943 24.9406L69.8512 24.1978C69.6575 23.7135 69.409 23.2716 69.1002 22.8805L67.5304 24.1198ZM67.9943 24.9406C68.1127 25.2366 68.1657 25.5158 68.1657 25.784H70.1657C70.1657 25.2423 70.0568 24.7117 69.8512 24.1978L67.9943 24.9406ZM68.1657 25.784V29.4041H70.1657V25.784H68.1657ZM68.1657 29.4041C68.1657 29.8666 68.0472 30.2839 67.8047 30.6766L69.5063 31.7276C69.9441 31.0188 70.1657 30.2375 70.1657 29.4041H68.1657ZM67.7935 30.6951C67.5558 31.0992 67.2406 31.4144 66.8365 31.6521L67.8505 33.376C68.5478 32.9658 69.1072 32.4064 69.5174 31.7091L67.7935 30.6951ZM66.8252 31.6589C66.4568 31.8821 66.0388 32 65.5455 32V34C66.3805 34 67.1611 33.7939 67.8618 33.3693L66.8252 31.6589ZM65.5455 32H51.6724V34H65.5455V32ZM55.4383 30.2098H65.3512V28.2098H55.4383V30.2098ZM66.3512 29.2098V26.0027H64.3512V29.2098H66.3512ZM65.3512 25.0027H55.4383V27.0027H65.3512V25.0027ZM54.4383 26.0027V29.2098H56.4383V26.0027H54.4383ZM55.4383 23.2124H64.6709V21.2124H55.4383V23.2124ZM65.6709 22.2124V19.2969H63.6709V22.2124H65.6709ZM64.6709 18.2969H55.4383V20.2969H64.6709V18.2969ZM54.4383 19.2969V22.2124H56.4383V19.2969H54.4383ZM73.5641 32.5141L74.0711 31.6521L73.5641 32.5141ZM72.2521 31.2021L71.3901 31.7091L72.2521 31.2021ZM71.7662 15.5067V14.5067C71.2139 14.5067 70.7662 14.9544 70.7662 15.5067H71.7662ZM75.5321 15.5067H76.5321C76.5321 14.9544 76.0844 14.5067 75.5321 14.5067V15.5067ZM75.5321 29.2098H74.5321C74.5321 29.7621 74.9798 30.2098 75.5321 30.2098V29.2098ZM85.445 29.2098V30.2098C85.9973 30.2098 86.445 29.7621 86.445 29.2098H85.445ZM85.445 15.5067V14.5067C84.8927 14.5067 84.445 14.9544 84.445 15.5067H85.445ZM89.2595 15.5067H90.2595C90.2595 14.9544 89.8118 14.5067 89.2595 14.5067V15.5067ZM88.7493 31.2021L87.8985 30.6766C87.8947 30.6827 87.891 30.6889 87.8873 30.6951L88.7493 31.2021ZM87.4373 32.5141L86.9302 31.6521L86.919 31.6589L87.4373 32.5141ZM75.362 32C74.8898 32 74.4659 31.8844 74.0711 31.6521L73.0571 33.376C73.7637 33.7917 74.5384 34 75.362 34V32ZM74.0711 31.6521C73.6669 31.4144 73.3518 31.0992 73.114 30.6951L71.3901 31.7091C71.8003 32.4064 72.3598 32.9658 73.0571 33.376L74.0711 31.6521ZM73.114 30.6951C72.8818 30.3003 72.7662 29.8764 72.7662 29.4041H70.7662C70.7662 30.2277 70.9745 31.0024 71.3901 31.7091L73.114 30.6951ZM72.7662 29.4041V15.5067H70.7662V29.4041H72.7662ZM71.7662 16.5067H75.5321V14.5067H71.7662V16.5067ZM74.5321 15.5067V29.2098H76.5321V15.5067H74.5321ZM75.5321 30.2098H85.445V28.2098H75.5321V30.2098ZM86.445 29.2098V15.5067H84.445V29.2098H86.445ZM85.445 16.5067H89.2595V14.5067H85.445V16.5067ZM88.2595 15.5067V29.4041H90.2595V15.5067H88.2595ZM88.2595 29.4041C88.2595 29.8666 88.141 30.2839 87.8985 30.6766L89.6001 31.7276C90.0379 31.0188 90.2595 30.2375 90.2595 29.4041H88.2595ZM87.8873 30.6951C87.6496 31.0992 87.3344 31.4144 86.9302 31.6521L87.9443 33.376C88.6416 32.9658 89.201 32.4064 89.6112 31.7091L87.8873 30.6951ZM86.919 31.6589C86.5466 31.8845 86.1358 32 85.6636 32V34C86.4873 34 87.2589 33.7915 87.9556 33.3693L86.919 31.6589ZM85.6636 32H75.362V34H85.6636V32ZM98.4465 33H97.4465C97.4465 33.5523 97.8942 34 98.4465 34V33ZM98.4465 26.4643H99.4465C99.4465 26.2505 99.378 26.0423 99.251 25.8703L98.4465 26.4643ZM90.3559 15.5067V14.5067C89.9784 14.5067 89.6332 14.7192 89.4631 15.0561C89.2931 15.393 89.3272 15.797 89.5514 16.1007L90.3559 15.5067ZM94.8507 15.5067L95.6332 14.884C95.4434 14.6456 95.1554 14.5067 94.8507 14.5067V15.5067ZM100.342 22.4068L99.5592 23.0295C99.7491 23.2682 100.038 23.4071 100.343 23.4068C100.648 23.4065 100.936 23.2669 101.125 23.0278L100.342 22.4068ZM105.808 15.5067V14.5067C105.503 14.5067 105.214 14.6463 105.024 14.8857L105.808 15.5067ZM110.352 15.5067L111.156 16.101C111.38 15.7974 111.415 15.3933 111.245 15.0563C111.075 14.7192 110.729 14.5067 110.352 14.5067V15.5067ZM102.237 26.4886L101.432 25.8943C101.305 26.0664 101.237 26.2747 101.237 26.4886H102.237ZM102.237 33V34C102.789 34 103.237 33.5523 103.237 33H102.237ZM99.4465 33V26.4643H97.4465V33H99.4465ZM99.251 25.8703L91.1603 14.9127L89.5514 16.1007L97.6421 27.0583L99.251 25.8703ZM90.3559 16.5067H94.8507V14.5067H90.3559V16.5067ZM94.0682 16.1293L99.5592 23.0295L101.124 21.7841L95.6332 14.884L94.0682 16.1293ZM101.125 23.0278L106.592 16.1277L105.024 14.8857L99.5578 21.7858L101.125 23.0278ZM105.808 16.5067H110.352V14.5067H105.808V16.5067ZM109.547 14.9124L101.432 25.8943L103.041 27.0829L111.156 16.101L109.547 14.9124ZM101.237 26.4886V33H103.237V26.4886H101.237ZM102.237 32H98.4465V34H102.237V32ZM118.732 33H117.732C117.732 33.5523 118.18 34 118.732 34V33ZM118.732 15.5067V14.5067C118.18 14.5067 117.732 14.9544 117.732 15.5067H118.732ZM122.45 15.5067H123.45C123.45 14.9544 123.002 14.5067 122.45 14.5067V15.5067ZM122.45 33V34C123.002 34 123.45 33.5523 123.45 33H122.45ZM119.732 33V15.5067H117.732V33H119.732ZM118.732 16.5067H122.45V14.5067H118.732V16.5067ZM121.45 15.5067V33H123.45V15.5067H121.45ZM122.45 32H118.732V34H122.45V32ZM126.309 32.5141L125.791 33.3693L125.802 33.376L126.309 32.5141ZM125.022 31.2264L124.16 31.7334L124.167 31.7447L125.022 31.2264ZM125.022 17.3046L125.877 17.8229L125.884 17.8116L125.022 17.3046ZM126.309 15.9926L125.802 15.1306L125.791 15.1374L126.309 15.9926ZM141.981 15.5067H142.981C142.981 14.9544 142.533 14.5067 141.981 14.5067V15.5067ZM141.981 19.2969V20.2969C142.533 20.2969 142.981 19.8492 142.981 19.2969H141.981ZM128.496 19.4913L127.832 18.7438C127.817 18.7569 127.803 18.7703 127.789 18.7842L128.496 19.4913ZM128.496 29.0154L127.749 29.6798C127.775 29.7091 127.802 29.7368 127.832 29.7628L128.496 29.0154ZM141.981 29.2098H142.981C142.981 28.6575 142.533 28.2098 141.981 28.2098V29.2098ZM141.981 33V34C142.533 34 142.981 33.5523 142.981 33H141.981ZM128.132 32C127.639 32 127.207 31.882 126.816 31.6521L125.802 33.376C126.513 33.794 127.297 34 128.132 34V32ZM126.828 31.6589C126.431 31.4184 126.117 31.1048 125.877 30.7081L124.167 31.7447C124.574 32.417 125.119 32.9618 125.791 33.3693L126.828 31.6589ZM125.884 30.7194C125.654 30.3285 125.536 29.8973 125.536 29.4041H123.536C123.536 30.2392 123.742 31.0228 124.16 31.7334L125.884 30.7194ZM125.536 29.4041V19.1025H123.536V29.4041H125.536ZM125.536 19.1025C125.536 18.6093 125.654 18.1912 125.877 17.8229L124.167 16.7863C123.742 17.487 123.536 18.2676 123.536 19.1025H125.536ZM125.884 17.8116C126.126 17.4003 126.438 17.084 126.828 16.8478L125.791 15.1374C125.112 15.5491 124.566 16.1074 124.16 16.7976L125.884 17.8116ZM126.816 16.8545C127.207 16.6246 127.639 16.5067 128.132 16.5067V14.5067C127.297 14.5067 126.513 14.7127 125.802 15.1307L126.816 16.8545ZM128.132 16.5067H141.981V14.5067H128.132V16.5067ZM140.981 15.5067V19.2969H142.981V15.5067H140.981ZM141.981 18.2969H129.104V20.2969H141.981V18.2969ZM129.104 18.2969C128.681 18.2969 128.214 18.4044 127.832 18.7438L129.16 20.2387C129.141 20.2556 129.122 20.2691 129.103 20.2794C129.085 20.2896 129.071 20.2952 129.062 20.2979C129.046 20.3031 129.056 20.2969 129.104 20.2969V18.2969ZM127.789 18.7842C127.396 19.1774 127.302 19.6897 127.302 20.0987H129.302C129.302 20.0356 129.31 20.0236 129.303 20.0451C129.294 20.0712 129.268 20.1337 129.203 20.1984L127.789 18.7842ZM127.302 20.0987V28.408H129.302V20.0987H127.302ZM127.302 28.408C127.302 28.8302 127.409 29.2978 127.749 29.6798L129.244 28.351C129.26 28.3701 129.274 28.3896 129.284 28.4081C129.294 28.4263 129.3 28.4409 129.303 28.4494C129.308 28.4656 129.302 28.456 129.302 28.408H127.302ZM127.832 29.7628C128.214 30.1023 128.681 30.2098 129.104 30.2098V28.2098C129.056 28.2098 129.046 28.2036 129.062 28.2088C129.071 28.2115 129.085 28.2171 129.103 28.2272C129.122 28.2375 129.141 28.2511 129.16 28.268L127.832 29.7628ZM129.104 30.2098H141.981V28.2098H129.104V30.2098ZM140.981 29.2098V33H142.981V29.2098H140.981ZM141.981 32H128.132V34H141.981V32ZM146.287 32.5141L145.769 33.3693L145.78 33.376L146.287 32.5141ZM145 31.2264L144.138 31.7334L144.145 31.7447L145 31.2264ZM145 17.3046L145.855 17.8229L145.862 17.8116L145 17.3046ZM146.287 15.9926L145.78 15.1306L145.769 15.1374L146.287 15.9926ZM161.959 15.5067H162.959C162.959 14.9544 162.511 14.5067 161.959 14.5067V15.5067ZM161.959 19.2969V20.2969C162.511 20.2969 162.959 19.8492 162.959 19.2969H161.959ZM148.474 19.4913L147.81 18.7438C147.795 18.7569 147.781 18.7703 147.767 18.7842L148.474 19.4913ZM148.474 29.0154L147.727 29.6798C147.753 29.7091 147.78 29.7368 147.81 29.7628L148.474 29.0154ZM161.959 29.2098H162.959C162.959 28.6575 162.511 28.2098 161.959 28.2098V29.2098ZM161.959 33V34C162.511 34 162.959 33.5523 162.959 33H161.959ZM148.11 32C147.617 32 147.185 31.882 146.794 31.6521L145.78 33.376C146.491 33.794 147.275 34 148.11 34V32ZM146.806 31.6589C146.409 31.4184 146.095 31.1048 145.855 30.7081L144.145 31.7447C144.552 32.417 145.097 32.9618 145.769 33.3693L146.806 31.6589ZM145.862 30.7194C145.632 30.3285 145.514 29.8973 145.514 29.4041H143.514C143.514 30.2392 143.72 31.0228 144.138 31.7334L145.862 30.7194ZM145.514 29.4041V19.1025H143.514V29.4041H145.514ZM145.514 19.1025C145.514 18.6093 145.632 18.1912 145.855 17.8229L144.145 16.7863C143.72 17.487 143.514 18.2676 143.514 19.1025H145.514ZM145.862 17.8116C146.104 17.4003 146.416 17.084 146.806 16.8478L145.769 15.1374C145.09 15.5491 144.544 16.1074 144.138 16.7976L145.862 17.8116ZM146.794 16.8545C147.185 16.6246 147.617 16.5067 148.11 16.5067V14.5067C147.275 14.5067 146.491 14.7127 145.78 15.1307L146.794 16.8545ZM148.11 16.5067H161.959V14.5067H148.11V16.5067ZM160.959 15.5067V19.2969H162.959V15.5067H160.959ZM161.959 18.2969H149.082V20.2969H161.959V18.2969ZM149.082 18.2969C148.659 18.2969 148.192 18.4044 147.81 18.7438L149.138 20.2387C149.119 20.2556 149.1 20.2691 149.081 20.2794C149.063 20.2896 149.049 20.2952 149.04 20.2979C149.024 20.3031 149.034 20.2969 149.082 20.2969V18.2969ZM147.767 18.7842C147.374 19.1774 147.28 19.6897 147.28 20.0987H149.28C149.28 20.0356 149.288 20.0236 149.281 20.0451C149.272 20.0712 149.246 20.1337 149.181 20.1984L147.767 18.7842ZM147.28 20.0987V28.408H149.28V20.0987H147.28ZM147.28 28.408C147.28 28.8302 147.387 29.2978 147.727 29.6798L149.222 28.351C149.238 28.3701 149.252 28.3896 149.262 28.4081C149.272 28.4263 149.278 28.4409 149.281 28.4494C149.286 28.4656 149.28 28.456 149.28 28.408H147.28ZM147.81 29.7628C148.192 30.1023 148.659 30.2098 149.082 30.2098V28.2098C149.034 28.2098 149.024 28.2036 149.04 28.2088C149.049 28.2115 149.063 28.2171 149.081 28.2272C149.1 28.2375 149.119 28.2511 149.138 28.268L147.81 29.7628ZM149.082 30.2098H161.959V28.2098H149.082V30.2098ZM160.959 29.2098V33H162.959V29.2098H160.959ZM161.959 32H148.11V34H161.959V32Z" fill="white" fill-opacity="0.3"/>
<path d="M174.185 21.75C172.942 21.75 171.935 22.7574 171.935 24C171.935 25.2426 172.942 26.25 174.185 26.25L174.185 21.75ZM205.776 25.591C206.655 24.7123 206.655 23.2877 205.776 22.409L191.457 8.0901C190.578 7.21142 189.154 7.21142 188.275 8.0901C187.396 8.96878 187.396 10.3934 188.275 11.2721L201.003 24L188.275 36.7279C187.396 37.6066 187.396 39.0312 188.275 39.9099C189.154 40.7886 190.578 40.7886 191.457 39.9099L205.776 25.591ZM174.185 26.25L204.185 26.25L204.185 21.75L174.185 21.75L174.185 26.25Z" fill="white"/>
<defs>
<linearGradient id="paint0_linear_323_11317" x1="22.5508" y1="40.1812" x2="52.0956" y2="-47.528" gradientUnits="userSpaceOnUse">
<stop stop-color="#B33DEB"/>
<stop offset="1" stop-color="#DE8FFF"/>
</linearGradient>
<linearGradient id="paint1_linear_323_11317" x1="188.497" y1="3.27104" x2="182.245" y2="58.9538" gradientUnits="userSpaceOnUse">
<stop stop-color="#F3A6FF"/>
<stop offset="1" stop-color="#B380F5"/>
</linearGradient>
</defs>
</svg>
