<svg width="338" height="69" viewBox="0 0 338 69" fill="none" xmlns="http://www.w3.org/2000/svg">
<path d="M313.201 51.0818C303.701 62.4381 289.657 69 274.851 69H20.0676C13.0191 69 7.30518 63.286 7.30518 56.2375C7.30518 53.2117 8.38027 50.2843 10.3386 47.9776L32.1168 22.3261C41.6168 11.1364 55.554 4.6864 70.2325 4.6864H325.711C332.498 4.6864 338 10.1884 338 16.9755C338 19.8583 336.986 22.6494 335.137 24.8605L313.201 51.0818Z" fill="url(#paint0_linear_222_12004)"/>
<path d="M305.896 46.3954C296.396 57.7517 282.352 64.3136 267.546 64.3136H12.7624C5.71394 64.3136 0 58.5996 0 51.5511C0 48.5253 1.07509 45.5979 3.03344 43.2912L24.8116 17.6397C34.3117 6.45001 48.2488 0 62.9274 0H318.406C325.193 0 330.695 5.502 330.695 12.2891C330.695 15.1719 329.681 17.963 327.831 20.1741L305.896 46.3954Z" fill="url(#paint1_linear_222_12004)"/>
<path d="M43.0286 44V20.96H60.4366C61.29 20.96 62.0686 21.1733 62.7726 21.6C63.498 22.0267 64.074 22.6027 64.5006 23.328C64.9486 24.032 65.1726 24.8213 65.1726 25.696V30.016C65.1726 30.2933 65.1513 30.56 65.1086 30.816C65.0873 31.0507 65.034 31.2747 64.9486 31.488C65.2686 31.8933 65.5353 32.3627 65.7486 32.896C65.962 33.4293 66.0686 33.9627 66.0686 34.496V39.264C66.0686 40.1173 65.8446 40.9067 65.3966 41.632C64.97 42.3573 64.394 42.9333 63.6686 43.36C62.9646 43.7867 62.1753 44 61.3006 44H43.0286ZM47.9886 39.008H61.0446V34.784H47.9886V39.008ZM47.9886 29.792H60.1486V25.952H47.9886V29.792ZM74.2296 44C73.3763 44 72.587 43.7867 71.8616 43.36C71.1363 42.9333 70.5603 42.3573 70.1336 41.632C69.707 40.9067 69.4936 40.1173 69.4936 39.264V20.96H74.4536V39.008H87.5096V20.96H92.5336V39.264C92.5336 40.1173 92.3096 40.9067 91.8616 41.632C91.435 42.3573 90.859 42.9333 90.1336 43.36C89.4296 43.7867 88.651 44 87.7976 44H74.2296ZM104.634 44V35.392L93.9776 20.96H99.8976L107.13 30.048L114.33 20.96H120.314L109.626 35.424V44H104.634ZM131.351 44V20.96H136.247V44H131.351ZM143.731 44C142.856 44 142.056 43.7867 141.331 43.36C140.627 42.9333 140.062 42.368 139.635 41.664C139.208 40.9387 138.995 40.1387 138.995 39.264V25.696C138.995 24.8213 139.208 24.032 139.635 23.328C140.062 22.6027 140.627 22.0267 141.331 21.6C142.056 21.1733 142.856 20.96 143.731 20.96H161.971V25.952H145.011C144.67 25.952 144.403 26.0373 144.211 26.208C144.04 26.3787 143.955 26.6453 143.955 27.008V37.952C143.955 38.2933 144.04 38.56 144.211 38.752C144.403 38.9227 144.67 39.008 145.011 39.008H161.971V44H143.731ZM170.044 44C169.169 44 168.369 43.7867 167.644 43.36C166.94 42.9333 166.374 42.368 165.948 41.664C165.521 40.9387 165.308 40.1387 165.308 39.264V25.696C165.308 24.8213 165.521 24.032 165.948 23.328C166.374 22.6027 166.94 22.0267 167.644 21.6C168.369 21.1733 169.169 20.96 170.044 20.96H188.284V25.952H171.324C170.982 25.952 170.716 26.0373 170.524 26.208C170.353 26.3787 170.268 26.6453 170.268 27.008V37.952C170.268 38.2933 170.353 38.56 170.524 38.752C170.716 38.9227 170.982 39.008 171.324 39.008H188.284V44H170.044ZM201.933 44V20.96H207.053L219.949 36.32V20.96H224.973V44H219.853L206.893 28.576V44H201.933ZM233.23 44C232.376 44 231.587 43.7867 230.862 43.36C230.136 42.9333 229.56 42.3573 229.134 41.632C228.707 40.9067 228.494 40.1173 228.494 39.264V25.696C228.494 24.8213 228.707 24.032 229.134 23.328C229.56 22.6027 230.136 22.0267 230.862 21.6C231.587 21.1733 232.376 20.96 233.23 20.96H246.798C247.651 20.96 248.43 21.1733 249.134 21.6C249.859 22.0267 250.435 22.6027 250.862 23.328C251.31 24.032 251.534 24.8213 251.534 25.696V39.264C251.534 40.1173 251.31 40.9067 250.862 41.632C250.435 42.3573 249.859 42.9333 249.134 43.36C248.43 43.7867 247.651 44 246.798 44H233.23ZM233.454 39.008H246.51V25.952H233.454V39.008ZM261.645 44L253.261 20.96H258.541L263.565 34.688L268.589 20.96H273.165L278.221 34.688L283.245 20.96H288.493L280.109 44H276.301L270.861 29.184L265.453 44H261.645Z" fill="white"/>
<path d="M43.0286 44H42.5286V44.5H43.0286V44ZM43.0286 20.96V20.46H42.5286V20.96H43.0286ZM62.7726 21.6L62.5135 22.0276L62.5191 22.031L62.7726 21.6ZM64.5006 23.328L64.0697 23.5815L64.0741 23.5891L64.0788 23.5964L64.5006 23.328ZM65.1086 30.816L64.6154 30.7338L64.6124 30.7522L64.6107 30.7707L65.1086 30.816ZM64.9486 31.488L64.4844 31.3023L64.377 31.5708L64.5562 31.7978L64.9486 31.488ZM65.7486 32.896L65.2844 33.0817L65.7486 32.896ZM65.3966 41.632L64.9711 41.3692L64.9657 41.3785L65.3966 41.632ZM63.6686 43.36L63.4151 42.929L63.4095 42.9324L63.6686 43.36ZM47.9886 39.008H47.4886V39.508H47.9886V39.008ZM61.0446 39.008V39.508H61.5446V39.008H61.0446ZM61.0446 34.784H61.5446V34.284H61.0446V34.784ZM47.9886 34.784V34.284H47.4886V34.784H47.9886ZM47.9886 29.792H47.4886V30.292H47.9886V29.792ZM60.1486 29.792V30.292H60.6486V29.792H60.1486ZM60.1486 25.952H60.6486V25.452H60.1486V25.952ZM47.9886 25.952V25.452H47.4886V25.952H47.9886ZM43.5286 44V20.96H42.5286V44H43.5286ZM43.0286 21.46H60.4366V20.46H43.0286V21.46ZM60.4366 21.46C61.2021 21.46 61.8906 21.6501 62.5135 22.0276L63.0318 21.1724C62.2467 20.6966 61.3778 20.46 60.4366 20.46V21.46ZM62.5191 22.031C63.1712 22.4145 63.6861 22.9295 64.0697 23.5815L64.9316 23.0745C64.4618 22.2759 63.8247 21.6388 63.0261 21.169L62.5191 22.031ZM64.0788 23.5964C64.4732 24.2162 64.6726 24.9116 64.6726 25.696H65.6726C65.6726 24.7311 65.424 23.8478 64.9225 23.0596L64.0788 23.5964ZM64.6726 25.696V30.016H65.6726V25.696H64.6726ZM64.6726 30.016C64.6726 30.2677 64.6533 30.5067 64.6154 30.7338L65.6018 30.8982C65.6493 30.6133 65.6726 30.319 65.6726 30.016H64.6726ZM64.6107 30.7707C64.5936 30.9584 64.5513 31.135 64.4844 31.3023L65.4129 31.6737C65.5166 31.4143 65.581 31.1429 65.6066 30.8613L64.6107 30.7707ZM64.5562 31.7978C64.8433 32.1615 65.0869 32.588 65.2844 33.0817L66.2129 32.7103C65.9837 32.1373 65.694 31.6252 65.3411 31.1782L64.5562 31.7978ZM65.2844 33.0817C65.4759 33.5606 65.5686 34.031 65.5686 34.496H66.5686C66.5686 33.8943 66.448 33.2981 66.2129 32.7103L65.2844 33.0817ZM65.5686 34.496V39.264H66.5686V34.496H65.5686ZM65.5686 39.264C65.5686 40.0246 65.3704 40.723 64.9712 41.3693L65.822 41.8947C66.3188 41.0904 66.5686 40.21 66.5686 39.264H65.5686ZM64.9657 41.3785C64.5821 42.0305 64.0672 42.5455 63.4151 42.929L63.9221 43.791C64.7207 43.3212 65.3578 42.6841 65.8276 41.8855L64.9657 41.3785ZM63.4095 42.9324C62.7886 43.3087 62.0899 43.5 61.3006 43.5V44.5C62.2607 44.5 63.1407 44.2646 63.9278 43.7876L63.4095 42.9324ZM61.3006 43.5H43.0286V44.5H61.3006V43.5ZM47.9886 39.508H61.0446V38.508H47.9886V39.508ZM61.5446 39.008V34.784H60.5446V39.008H61.5446ZM61.0446 34.284H47.9886V35.284H61.0446V34.284ZM47.4886 34.784V39.008H48.4886V34.784H47.4886ZM47.9886 30.292H60.1486V29.292H47.9886V30.292ZM60.6486 29.792V25.952H59.6486V29.792H60.6486ZM60.1486 25.452H47.9886V26.452H60.1486V25.452ZM47.4886 25.952V29.792H48.4886V25.952H47.4886ZM71.8616 43.36L72.1151 42.929L71.8616 43.36ZM70.1336 41.632L69.7027 41.8855L70.1336 41.632ZM69.4936 20.96V20.46H68.9936V20.96H69.4936ZM74.4536 20.96H74.9536V20.46H74.4536V20.96ZM74.4536 39.008H73.9536V39.508H74.4536V39.008ZM87.5096 39.008V39.508H88.0096V39.008H87.5096ZM87.5096 20.96V20.46H87.0096V20.96H87.5096ZM92.5336 20.96H93.0336V20.46H92.5336V20.96ZM91.8616 41.632L91.4361 41.3692L91.4307 41.3785L91.8616 41.632ZM90.1336 43.36L89.8801 42.929L89.8745 42.9324L90.1336 43.36ZM74.2296 43.5C73.4641 43.5 72.7625 43.3098 72.1151 42.929L71.6081 43.791C72.4114 44.2635 73.2885 44.5 74.2296 44.5V43.5ZM72.1151 42.929C71.4631 42.5455 70.9482 42.0305 70.5646 41.3785L69.7027 41.8855C70.1724 42.6841 70.8095 43.3212 71.6081 43.791L72.1151 42.929ZM70.5646 41.3785C70.1838 40.7311 69.9936 40.0295 69.9936 39.264H68.9936C68.9936 40.2052 69.2301 41.0822 69.7027 41.8855L70.5646 41.3785ZM69.9936 39.264V20.96H68.9936V39.264H69.9936ZM69.4936 21.46H74.4536V20.46H69.4936V21.46ZM73.9536 20.96V39.008H74.9536V20.96H73.9536ZM74.4536 39.508H87.5096V38.508H74.4536V39.508ZM88.0096 39.008V20.96H87.0096V39.008H88.0096ZM87.5096 21.46H92.5336V20.46H87.5096V21.46ZM92.0336 20.96V39.264H93.0336V20.96H92.0336ZM92.0336 39.264C92.0336 40.0246 91.8354 40.723 91.4362 41.3693L92.287 41.8947C92.7838 41.0904 93.0336 40.21 93.0336 39.264H92.0336ZM91.4307 41.3785C91.0471 42.0305 90.5322 42.5455 89.8801 42.929L90.3871 43.791C91.1857 43.3212 91.8228 42.6841 92.2926 41.8855L91.4307 41.3785ZM89.8745 42.9324C89.2516 43.3099 88.5631 43.5 87.7976 43.5V44.5C88.7388 44.5 89.6077 44.2634 90.3928 43.7876L89.8745 42.9324ZM87.7976 43.5H74.2296V44.5H87.7976V43.5ZM104.634 44H104.134V44.5H104.634V44ZM104.634 35.392H105.134V35.2274L105.036 35.095L104.634 35.392ZM93.9776 20.96V20.46H92.9869L93.5754 21.257L93.9776 20.96ZM99.8976 20.96L100.289 20.6487L100.139 20.46H99.8976V20.96ZM107.13 30.048L106.738 30.3593L107.13 30.8521L107.522 30.3585L107.13 30.048ZM114.33 20.96V20.46H114.088L113.938 20.6495L114.33 20.96ZM120.314 20.96L120.716 21.2571L121.305 20.46H120.314V20.96ZM109.626 35.424L109.224 35.1269L109.126 35.2593V35.424H109.626ZM109.626 44V44.5H110.126V44H109.626ZM105.134 44V35.392H104.134V44H105.134ZM105.036 35.095L94.3799 20.663L93.5754 21.257L104.231 35.689L105.036 35.095ZM93.9776 21.46H99.8976V20.46H93.9776V21.46ZM99.5064 21.2713L106.738 30.3593L107.521 29.7367L100.289 20.6487L99.5064 21.2713ZM107.522 30.3585L114.722 21.2705L113.938 20.6495L106.738 29.7375L107.522 30.3585ZM114.33 21.46H120.314V20.46H114.33V21.46ZM119.911 20.6629L109.224 35.1269L110.028 35.7211L120.716 21.2571L119.911 20.6629ZM109.126 35.424V44H110.126V35.424H109.126ZM109.626 43.5H104.634V44.5H109.626V43.5ZM131.351 44H130.851V44.5H131.351V44ZM131.351 20.96V20.46H130.851V20.96H131.351ZM136.247 20.96H136.747V20.46H136.247V20.96ZM136.247 44V44.5H136.747V44H136.247ZM131.851 44V20.96H130.851V44H131.851ZM131.351 21.46H136.247V20.46H131.351V21.46ZM135.747 20.96V44H136.747V20.96H135.747ZM136.247 43.5H131.351V44.5H136.247V43.5ZM141.331 43.36L141.072 43.7876L141.078 43.791L141.331 43.36ZM139.635 41.664L139.204 41.9175L139.208 41.9232L139.635 41.664ZM139.635 23.328L140.063 23.5872L140.066 23.5815L139.635 23.328ZM141.331 21.6L141.078 21.169L141.072 21.1724L141.331 21.6ZM161.971 20.96H162.471V20.46H161.971V20.96ZM161.971 25.952V26.452H162.471V25.952H161.971ZM144.211 26.208L143.879 25.8343L143.868 25.8441L143.858 25.8544L144.211 26.208ZM144.211 38.752L143.837 39.0842L143.857 39.1062L143.879 39.1257L144.211 38.752ZM161.971 39.008H162.471V38.508H161.971V39.008ZM161.971 44V44.5H162.471V44H161.971ZM143.731 43.5C142.942 43.5 142.23 43.3087 141.585 42.929L141.078 43.791C141.883 44.2647 142.771 44.5 143.731 44.5V43.5ZM141.59 42.9324C140.955 42.5475 140.448 42.0399 140.063 41.4048L139.208 41.9232C139.676 42.6961 140.299 43.3192 141.072 43.7876L141.59 42.9324ZM140.066 41.4105C139.686 40.7651 139.495 40.0532 139.495 39.264H138.495C138.495 40.2241 138.73 41.1122 139.204 41.9175L140.066 41.4105ZM139.495 39.264V25.696H138.495V39.264H139.495ZM139.495 25.696C139.495 24.9068 139.686 24.2081 140.063 23.5871L139.208 23.0688C138.731 23.8559 138.495 24.7359 138.495 25.696H139.495ZM140.066 23.5815C140.452 22.9259 140.959 22.4104 141.59 22.0276L141.072 21.1724C140.296 21.643 139.672 22.2795 139.204 23.0745L140.066 23.5815ZM141.585 22.031C142.23 21.6513 142.942 21.46 143.731 21.46V20.46C142.771 20.46 141.883 20.6953 141.078 21.169L141.585 22.031ZM143.731 21.46H161.971V20.46H143.731V21.46ZM161.471 20.96V25.952H162.471V20.96H161.471ZM161.971 25.452H145.011V26.452H161.971V25.452ZM145.011 25.452C144.588 25.452 144.189 25.5587 143.879 25.8343L144.543 26.5817C144.617 26.516 144.751 26.452 145.011 26.452V25.452ZM143.858 25.8544C143.555 26.1569 143.455 26.5785 143.455 27.008H144.455C144.455 26.7121 144.526 26.6004 144.565 26.5616L143.858 25.8544ZM143.455 27.008V37.952H144.455V27.008H143.455ZM143.455 37.952C143.455 38.3749 143.562 38.7741 143.837 39.0842L144.585 38.4198C144.519 38.3459 144.455 38.2118 144.455 37.952H143.455ZM143.879 39.1257C144.189 39.4013 144.588 39.508 145.011 39.508V38.508C144.751 38.508 144.617 38.444 144.543 38.3783L143.879 39.1257ZM145.011 39.508H161.971V38.508H145.011V39.508ZM161.471 39.008V44H162.471V39.008H161.471ZM161.971 43.5H143.731V44.5H161.971V43.5ZM167.644 43.36L167.384 43.7876L167.39 43.791L167.644 43.36ZM165.948 41.664L165.517 41.9175L165.52 41.9232L165.948 41.664ZM165.948 23.328L166.375 23.5872L166.379 23.5815L165.948 23.328ZM167.644 21.6L167.39 21.169L167.384 21.1724L167.644 21.6ZM188.284 20.96H188.784V20.46H188.284V20.96ZM188.284 25.952V26.452H188.784V25.952H188.284ZM170.524 26.208L170.191 25.8343L170.18 25.8441L170.17 25.8544L170.524 26.208ZM170.524 38.752L170.15 39.0842L170.169 39.1062L170.191 39.1257L170.524 38.752ZM188.284 39.008H188.784V38.508H188.284V39.008ZM188.284 44V44.5H188.784V44H188.284ZM170.044 43.5C169.254 43.5 168.543 43.3087 167.897 42.929L167.39 43.791C168.195 44.2647 169.083 44.5 170.044 44.5V43.5ZM167.903 42.9324C167.268 42.5475 166.76 42.0399 166.375 41.4048L165.52 41.9232C165.988 42.6961 166.612 43.3192 167.384 43.7876L167.903 42.9324ZM166.379 41.4105C165.999 40.7651 165.808 40.0532 165.808 39.264H164.808C164.808 40.2241 165.043 41.1122 165.517 41.9175L166.379 41.4105ZM165.808 39.264V25.696H164.808V39.264H165.808ZM165.808 25.696C165.808 24.9068 165.999 24.2081 166.375 23.5871L165.52 23.0688C165.043 23.8559 164.808 24.7359 164.808 25.696H165.808ZM166.379 23.5815C166.764 22.9259 167.271 22.4104 167.903 22.0276L167.384 21.1724C166.608 21.643 165.984 22.2795 165.517 23.0745L166.379 23.5815ZM167.897 22.031C168.543 21.6513 169.254 21.46 170.044 21.46V20.46C169.083 20.46 168.195 20.6953 167.39 21.169L167.897 22.031ZM170.044 21.46H188.284V20.46H170.044V21.46ZM187.784 20.96V25.952H188.784V20.96H187.784ZM188.284 25.452H171.324V26.452H188.284V25.452ZM171.324 25.452C170.901 25.452 170.502 25.5587 170.191 25.8343L170.856 26.5817C170.93 26.516 171.064 26.452 171.324 26.452V25.452ZM170.17 25.8544C169.868 26.1569 169.768 26.5785 169.768 27.008H170.768C170.768 26.7121 170.838 26.6004 170.877 26.5616L170.17 25.8544ZM169.768 27.008V37.952H170.768V27.008H169.768ZM169.768 37.952C169.768 38.3749 169.874 38.7741 170.15 39.0842L170.897 38.4198C170.832 38.3459 170.768 38.2118 170.768 37.952H169.768ZM170.191 39.1257C170.502 39.4013 170.901 39.508 171.324 39.508V38.508C171.064 38.508 170.93 38.444 170.856 38.3783L170.191 39.1257ZM171.324 39.508H188.284V38.508H171.324V39.508ZM187.784 39.008V44H188.784V39.008H187.784ZM188.284 43.5H170.044V44.5H188.284V43.5ZM201.933 44H201.433V44.5H201.933V44ZM201.933 20.96V20.46H201.433V20.96H201.933ZM207.053 20.96L207.436 20.6385L207.286 20.46H207.053V20.96ZM219.949 36.32L219.566 36.6415L220.449 37.6931V36.32H219.949ZM219.949 20.96V20.46H219.449V20.96H219.949ZM224.973 20.96H225.473V20.46H224.973V20.96ZM224.973 44V44.5H225.473V44H224.973ZM219.853 44L219.47 44.3217L219.62 44.5H219.853V44ZM206.893 28.576L207.275 28.2543L206.393 27.2037V28.576H206.893ZM206.893 44V44.5H207.393V44H206.893ZM202.433 44V20.96H201.433V44H202.433ZM201.933 21.46H207.053V20.46H201.933V21.46ZM206.67 21.2815L219.566 36.6415L220.332 35.9985L207.436 20.6385L206.67 21.2815ZM220.449 36.32V20.96H219.449V36.32H220.449ZM219.949 21.46H224.973V20.46H219.949V21.46ZM224.473 20.96V44H225.473V20.96H224.473ZM224.973 43.5H219.853V44.5H224.973V43.5ZM220.235 43.6783L207.275 28.2543L206.51 28.8977L219.47 44.3217L220.235 43.6783ZM206.393 28.576V44H207.393V28.576H206.393ZM206.893 43.5H201.933V44.5H206.893V43.5ZM230.862 43.36L231.115 42.929L230.862 43.36ZM229.134 41.632L228.703 41.8855L229.134 41.632ZM229.134 23.328L229.561 23.5872L229.565 23.5815L229.134 23.328ZM230.862 21.6L230.608 21.169L230.862 21.6ZM249.134 21.6L248.874 22.0276L248.88 22.031L249.134 21.6ZM250.862 23.328L250.431 23.5815L250.435 23.5891L250.44 23.5964L250.862 23.328ZM250.862 41.632L250.436 41.3692L250.431 41.3785L250.862 41.632ZM249.134 43.36L248.88 42.929L248.874 42.9324L249.134 43.36ZM233.454 39.008H232.954V39.508H233.454V39.008ZM246.51 39.008V39.508H247.01V39.008H246.51ZM246.51 25.952H247.01V25.452H246.51V25.952ZM233.454 25.952V25.452H232.954V25.952H233.454ZM233.23 43.5C232.464 43.5 231.762 43.3098 231.115 42.929L230.608 43.791C231.411 44.2635 232.288 44.5 233.23 44.5V43.5ZM231.115 42.929C230.463 42.5455 229.948 42.0305 229.565 41.3785L228.703 41.8855C229.172 42.6841 229.81 43.3212 230.608 43.791L231.115 42.929ZM229.565 41.3785C229.184 40.7311 228.994 40.0295 228.994 39.264H227.994C227.994 40.2052 228.23 41.0822 228.703 41.8855L229.565 41.3785ZM228.994 39.264V25.696H227.994V39.264H228.994ZM228.994 25.696C228.994 24.9068 229.185 24.2081 229.561 23.5871L228.706 23.0688C228.229 23.8559 227.994 24.7359 227.994 25.696H228.994ZM229.565 23.5815C229.948 22.9295 230.463 22.4145 231.115 22.031L230.608 21.169C229.81 21.6388 229.172 22.2759 228.703 23.0745L229.565 23.5815ZM231.115 22.031C231.762 21.6502 232.464 21.46 233.23 21.46V20.46C232.288 20.46 231.411 20.6965 230.608 21.169L231.115 22.031ZM233.23 21.46H246.798V20.46H233.23V21.46ZM246.798 21.46C247.563 21.46 248.252 21.6501 248.874 22.0276L249.393 21.1724C248.608 20.6966 247.739 20.46 246.798 20.46V21.46ZM248.88 22.031C249.532 22.4145 250.047 22.9295 250.431 23.5815L251.293 23.0745C250.823 22.2759 250.186 21.6388 249.387 21.169L248.88 22.031ZM250.44 23.5964C250.834 24.2162 251.034 24.9116 251.034 25.696H252.034C252.034 24.7311 251.785 23.8478 251.283 23.0596L250.44 23.5964ZM251.034 25.696V39.264H252.034V25.696H251.034ZM251.034 39.264C251.034 40.0246 250.835 40.723 250.436 41.3693L251.287 41.8947C251.784 41.0904 252.034 40.21 252.034 39.264H251.034ZM250.431 41.3785C250.047 42.0305 249.532 42.5455 248.88 42.929L249.387 43.791C250.186 43.3212 250.823 42.6841 251.293 41.8855L250.431 41.3785ZM248.874 42.9324C248.252 43.3099 247.563 43.5 246.798 43.5V44.5C247.739 44.5 248.608 44.2634 249.393 43.7876L248.874 42.9324ZM246.798 43.5H233.23V44.5H246.798V43.5ZM233.454 39.508H246.51V38.508H233.454V39.508ZM247.01 39.008V25.952H246.01V39.008H247.01ZM246.51 25.452H233.454V26.452H246.51V25.452ZM232.954 25.952V39.008H233.954V25.952H232.954ZM261.645 44L261.175 44.171L261.294 44.5H261.645V44ZM253.261 20.96V20.46H252.547L252.791 21.131L253.261 20.96ZM258.541 20.96L259.01 20.7882L258.89 20.46H258.541V20.96ZM263.565 34.688L263.095 34.8598L263.565 36.1429L264.034 34.8598L263.565 34.688ZM268.589 20.96V20.46H268.239L268.119 20.7882L268.589 20.96ZM273.165 20.96L273.634 20.7872L273.513 20.46H273.165V20.96ZM278.221 34.688L277.751 34.8608L278.222 36.1388L278.69 34.8598L278.221 34.688ZM283.245 20.96V20.46H282.895L282.775 20.7882L283.245 20.96ZM288.493 20.96L288.962 21.131L289.207 20.46H288.493V20.96ZM280.109 44V44.5H280.459L280.578 44.171L280.109 44ZM276.301 44L275.831 44.1723L275.952 44.5H276.301V44ZM270.861 29.184L271.33 29.0117L270.859 27.7296L270.391 29.0126L270.861 29.184ZM265.453 44V44.5H265.802L265.922 44.1714L265.453 44ZM262.114 43.829L253.73 20.789L252.791 21.131L261.175 44.171L262.114 43.829ZM253.261 21.46H258.541V20.46H253.261V21.46ZM258.071 21.1318L263.095 34.8598L264.034 34.5162L259.01 20.7882L258.071 21.1318ZM264.034 34.8598L269.058 21.1318L268.119 20.7882L263.095 34.5162L264.034 34.8598ZM268.589 21.46H273.165V20.46H268.589V21.46ZM272.695 21.1328L277.751 34.8608L278.69 34.5152L273.634 20.7872L272.695 21.1328ZM278.69 34.8598L283.714 21.1318L282.775 20.7882L277.751 34.5162L278.69 34.8598ZM283.245 21.46H288.493V20.46H283.245V21.46ZM288.023 20.789L279.639 43.829L280.578 44.171L288.962 21.131L288.023 20.789ZM280.109 43.5H276.301V44.5H280.109V43.5ZM276.77 43.8277L271.33 29.0117L270.391 29.3563L275.831 44.1723L276.77 43.8277ZM270.391 29.0126L264.983 43.8286L265.922 44.1714L271.33 29.3554L270.391 29.0126ZM265.453 43.5H261.645V44.5H265.453V43.5Z" fill="white"/>
<defs>
<linearGradient id="paint0_linear_222_12004" x1="29.4575" y1="52.9216" x2="68.3702" y2="-62.5979" gradientUnits="userSpaceOnUse">
<stop stop-color="#B33DEB"/>
<stop offset="1" stop-color="#DE8FFF"/>
</linearGradient>
<linearGradient id="paint1_linear_222_12004" x1="248.021" y1="4.30819" x2="239.786" y2="77.6465" gradientUnits="userSpaceOnUse">
<stop stop-color="#F3A6FF"/>
<stop offset="1" stop-color="#B380F5"/>
</linearGradient>
</defs>
</svg>
