<svg width="257" height="53" viewBox="0 0 257 53" fill="none" xmlns="http://www.w3.org/2000/svg">
<path d="M237.986 38.7843C230.773 47.4067 220.11 52.3889 208.868 52.3889H15.4214C10.0698 52.3889 5.73145 48.0505 5.73145 42.6989V42.6989C5.73145 40.4015 6.54772 38.1788 8.03461 36.4275L24.5699 16.9513C31.7829 8.45546 42.3648 3.55823 53.5096 3.55823H247.484C252.637 3.55823 256.814 7.73567 256.814 12.8888V12.8888C256.814 15.0776 256.045 17.1968 254.641 18.8756L237.986 38.7843Z" fill="url(#paint0_linear_323_11321)"/>
<path d="M232.44 35.2261C225.227 43.8485 214.563 48.8307 203.322 48.8307H9.87505C4.52341 48.8307 0.185059 44.4923 0.185059 39.1407V39.1407C0.185059 36.8433 1.00133 34.6206 2.48823 32.8693L19.0235 13.3931C26.2365 4.89723 36.8184 0 47.9632 0H241.937C247.091 0 251.268 4.17744 251.268 9.33058V9.33058C251.268 11.5194 250.499 13.6386 249.094 15.3174L232.44 35.2261Z" fill="url(#paint1_linear_323_11321)"/>
<path d="M51.6185 33V15.5067H64.8357C65.4836 15.5067 66.0748 15.6686 66.6094 15.9926C67.1601 16.3165 67.5974 16.7539 67.9214 17.3046C68.2615 17.8391 68.4316 18.4384 68.4316 19.1025V22.3825C68.4316 22.5931 68.4154 22.7956 68.383 22.9899C68.3668 23.1681 68.3263 23.3382 68.2615 23.5001C68.5045 23.8079 68.7069 24.1642 68.8689 24.5692C69.0309 24.9741 69.1119 25.3791 69.1119 25.784V29.4041C69.1119 30.052 68.9418 30.6514 68.6017 31.2021C68.2777 31.7528 67.8404 32.1901 67.2897 32.5141C66.7551 32.838 66.1558 33 65.4917 33H51.6185ZM55.3845 29.2098H65.2974V26.0027H55.3845V29.2098ZM55.3845 22.2124H64.6171V19.2969H55.3845V22.2124ZM75.3082 33C74.6603 33 74.061 32.838 73.5103 32.5141C72.9595 32.1901 72.5222 31.7528 72.1983 31.2021C71.8743 30.6514 71.7123 30.052 71.7123 29.4041V15.5067H75.4783V29.2098H85.3912V15.5067H89.2057V29.4041C89.2057 30.052 89.0356 30.6514 88.6954 31.2021C88.3715 31.7528 87.9342 32.1901 87.3834 32.5141C86.8489 32.838 86.2577 33 85.6098 33H75.3082ZM98.3927 33V26.4643L90.302 15.5067H94.7969L100.288 22.4068L105.754 15.5067H110.298L102.183 26.4886V33H98.3927ZM118.678 33V15.5067H122.396V33H118.678ZM128.078 33C127.414 33 126.806 32.838 126.256 32.5141C125.721 32.1901 125.292 31.7609 124.968 31.2264C124.644 30.6757 124.482 30.0682 124.482 29.4041V19.1025C124.482 18.4384 124.644 17.8391 124.968 17.3046C125.292 16.7539 125.721 16.3165 126.256 15.9926C126.806 15.6686 127.414 15.5067 128.078 15.5067H141.927V19.2969H129.05C128.791 19.2969 128.588 19.3617 128.442 19.4913C128.313 19.6208 128.248 19.8233 128.248 20.0987V28.408C128.248 28.6672 128.313 28.8696 128.442 29.0154C128.588 29.145 128.791 29.2098 129.05 29.2098H141.927V33H128.078ZM148.056 33C147.392 33 146.784 32.838 146.234 32.5141C145.699 32.1901 145.27 31.7609 144.946 31.2264C144.622 30.6757 144.46 30.0682 144.46 29.4041V19.1025C144.46 18.4384 144.622 17.8391 144.946 17.3046C145.27 16.7539 145.699 16.3165 146.234 15.9926C146.784 15.6686 147.392 15.5067 148.056 15.5067H161.905V19.2969H149.028C148.769 19.2969 148.566 19.3617 148.42 19.4913C148.291 19.6208 148.226 19.8233 148.226 20.0987V28.408C148.226 28.6672 148.291 28.8696 148.42 29.0154C148.566 29.145 148.769 29.2098 149.028 29.2098H161.905V33H148.056Z" fill="white"/>
<path d="M51.6185 33H50.6185C50.6185 33.5523 51.0663 34 51.6185 34V33ZM51.6185 15.5067V14.5067C51.0663 14.5067 50.6185 14.9544 50.6185 15.5067H51.6185ZM66.6094 15.9926L66.091 16.8479L66.1023 16.8545L66.6094 15.9926ZM67.9214 17.3046L67.0594 17.8116C67.0653 17.8217 67.0714 17.8316 67.0777 17.8415L67.9214 17.3046ZM68.383 22.9899L67.3966 22.8255C67.3925 22.85 67.3893 22.8747 67.3871 22.8994L68.383 22.9899ZM68.2615 23.5001L67.333 23.1288C67.2001 23.461 67.2549 23.8389 67.4766 24.1198L68.2615 23.5001ZM68.8689 24.5692L67.9404 24.9406V24.9406L68.8689 24.5692ZM68.6017 31.2021L67.7509 30.6766C67.7471 30.6827 67.7434 30.6889 67.7397 30.6951L68.6017 31.2021ZM67.2897 32.5141L66.7826 31.6521L66.7714 31.6589L67.2897 32.5141ZM55.3845 29.2098H54.3845C54.3845 29.7621 54.8322 30.2098 55.3845 30.2098V29.2098ZM65.2974 29.2098V30.2098C65.8496 30.2098 66.2974 29.7621 66.2974 29.2098H65.2974ZM65.2974 26.0027H66.2974C66.2974 25.4504 65.8496 25.0027 65.2974 25.0027V26.0027ZM55.3845 26.0027V25.0027C54.8322 25.0027 54.3845 25.4504 54.3845 26.0027H55.3845ZM55.3845 22.2124H54.3845C54.3845 22.7647 54.8322 23.2124 55.3845 23.2124V22.2124ZM64.6171 22.2124V23.2124C65.1693 23.2124 65.6171 22.7647 65.6171 22.2124H64.6171ZM64.6171 19.2969H65.6171C65.6171 18.7446 65.1693 18.2969 64.6171 18.2969V19.2969ZM55.3845 19.2969V18.2969C54.8322 18.2969 54.3845 18.7446 54.3845 19.2969H55.3845ZM52.6185 33V15.5067H50.6185V33H52.6185ZM51.6185 16.5067H64.8357V14.5067H51.6185V16.5067ZM64.8357 16.5067C65.3079 16.5067 65.7187 16.6221 66.0911 16.8478L67.1277 15.1374C66.431 14.7152 65.6594 14.5067 64.8357 14.5067V16.5067ZM66.1023 16.8545C66.5065 17.0923 66.8217 17.4075 67.0594 17.8116L68.7833 16.7976C68.3731 16.1003 67.8136 15.5408 67.1164 15.1307L66.1023 16.8545ZM67.0777 17.8415C67.3107 18.2076 67.4316 18.619 67.4316 19.1025H69.4316C69.4316 18.2579 69.2123 17.4706 68.765 16.7677L67.0777 17.8415ZM67.4316 19.1025V22.3825H69.4316V19.1025H67.4316ZM67.4316 22.3825C67.4316 22.5417 67.4193 22.689 67.3966 22.8255L69.3694 23.1543C69.4114 22.9021 69.4316 22.6444 69.4316 22.3825H67.4316ZM67.3871 22.8994C67.3794 22.9837 67.361 23.0589 67.333 23.1288L69.19 23.8715C69.2916 23.6174 69.3541 23.3525 69.3789 23.0805L67.3871 22.8994ZM67.4766 24.1198C67.6538 24.3442 67.8102 24.615 67.9404 24.9406L69.7974 24.1978C69.6037 23.7135 69.3552 23.2716 69.0464 22.8805L67.4766 24.1198ZM67.9404 24.9406C68.0588 25.2366 68.1119 25.5158 68.1119 25.784H70.1119C70.1119 25.2423 70.0029 24.7117 69.7974 24.1978L67.9404 24.9406ZM68.1119 25.784V29.4041H70.1119V25.784H68.1119ZM68.1119 29.4041C68.1119 29.8666 67.9934 30.2839 67.7509 30.6766L69.4524 31.7276C69.8902 31.0188 70.1119 30.2375 70.1119 29.4041H68.1119ZM67.7397 30.6951C67.502 31.0992 67.1868 31.4144 66.7826 31.6521L67.7967 33.376C68.4939 32.9658 69.0534 32.4064 69.4636 31.7091L67.7397 30.6951ZM66.7714 31.6589C66.403 31.8821 65.985 32 65.4917 32V34C66.3267 34 67.1073 33.7939 67.808 33.3693L66.7714 31.6589ZM65.4917 32H51.6185V34H65.4917V32ZM55.3845 30.2098H65.2974V28.2098H55.3845V30.2098ZM66.2974 29.2098V26.0027H64.2974V29.2098H66.2974ZM65.2974 25.0027H55.3845V27.0027H65.2974V25.0027ZM54.3845 26.0027V29.2098H56.3845V26.0027H54.3845ZM55.3845 23.2124H64.6171V21.2124H55.3845V23.2124ZM65.6171 22.2124V19.2969H63.6171V22.2124H65.6171ZM64.6171 18.2969H55.3845V20.2969H64.6171V18.2969ZM54.3845 19.2969V22.2124H56.3845V19.2969H54.3845ZM73.5103 32.5141L74.0173 31.6521L73.5103 32.5141ZM72.1983 31.2021L71.3363 31.7091L72.1983 31.2021ZM71.7123 15.5067V14.5067C71.1601 14.5067 70.7123 14.9544 70.7123 15.5067H71.7123ZM75.4783 15.5067H76.4783C76.4783 14.9544 76.0305 14.5067 75.4783 14.5067V15.5067ZM75.4783 29.2098H74.4783C74.4783 29.7621 74.926 30.2098 75.4783 30.2098V29.2098ZM85.3912 29.2098V30.2098C85.9434 30.2098 86.3912 29.7621 86.3912 29.2098H85.3912ZM85.3912 15.5067V14.5067C84.8389 14.5067 84.3912 14.9544 84.3912 15.5067H85.3912ZM89.2057 15.5067H90.2057C90.2057 14.9544 89.758 14.5067 89.2057 14.5067V15.5067ZM88.6954 31.2021L87.8447 30.6766C87.8409 30.6827 87.8372 30.6889 87.8335 30.6951L88.6954 31.2021ZM87.3834 32.5141L86.8764 31.6521L86.8651 31.6589L87.3834 32.5141ZM75.3082 32C74.8359 32 74.4121 31.8844 74.0173 31.6521L73.0032 33.376C73.7099 33.7917 74.4846 34 75.3082 34V32ZM74.0173 31.6521C73.6131 31.4144 73.2979 31.0992 73.0602 30.6951L71.3363 31.7091C71.7465 32.4064 72.306 32.9658 73.0032 33.376L74.0173 31.6521ZM73.0602 30.6951C72.828 30.3003 72.7123 29.8764 72.7123 29.4041H70.7123C70.7123 30.2277 70.9207 31.0024 71.3363 31.7091L73.0602 30.6951ZM72.7123 29.4041V15.5067H70.7123V29.4041H72.7123ZM71.7123 16.5067H75.4783V14.5067H71.7123V16.5067ZM74.4783 15.5067V29.2098H76.4783V15.5067H74.4783ZM75.4783 30.2098H85.3912V28.2098H75.4783V30.2098ZM86.3912 29.2098V15.5067H84.3912V29.2098H86.3912ZM85.3912 16.5067H89.2057V14.5067H85.3912V16.5067ZM88.2057 15.5067V29.4041H90.2057V15.5067H88.2057ZM88.2057 29.4041C88.2057 29.8666 88.0872 30.2839 87.8447 30.6766L89.5462 31.7276C89.984 31.0188 90.2057 30.2375 90.2057 29.4041H88.2057ZM87.8335 30.6951C87.5958 31.0992 87.2806 31.4144 86.8764 31.6521L87.8905 33.376C88.5877 32.9658 89.1472 32.4064 89.5574 31.7091L87.8335 30.6951ZM86.8651 31.6589C86.4928 31.8845 86.082 32 85.6098 32V34C86.4335 34 87.205 33.7915 87.9017 33.3693L86.8651 31.6589ZM85.6098 32H75.3082V34H85.6098V32ZM98.3927 33H97.3927C97.3927 33.5523 97.8404 34 98.3927 34V33ZM98.3927 26.4643H99.3927C99.3927 26.2505 99.3242 26.0423 99.1972 25.8703L98.3927 26.4643ZM90.302 15.5067V14.5067C89.9246 14.5067 89.5793 14.7192 89.4093 15.0561C89.2392 15.393 89.2734 15.797 89.4976 16.1007L90.302 15.5067ZM94.7969 15.5067L95.5793 14.884C95.3896 14.6456 95.1015 14.5067 94.7969 14.5067V15.5067ZM100.288 22.4068L99.5053 23.0295C99.6953 23.2682 99.9838 23.4071 100.289 23.4068C100.594 23.4065 100.882 23.2669 101.072 23.0278L100.288 22.4068ZM105.754 15.5067V14.5067C105.449 14.5067 105.16 14.6463 104.971 14.8857L105.754 15.5067ZM110.298 15.5067L111.102 16.101C111.326 15.7974 111.361 15.3933 111.191 15.0563C111.021 14.7192 110.675 14.5067 110.298 14.5067V15.5067ZM102.183 26.4886L101.379 25.8943C101.252 26.0664 101.183 26.2747 101.183 26.4886H102.183ZM102.183 33V34C102.735 34 103.183 33.5523 103.183 33H102.183ZM99.3927 33V26.4643H97.3927V33H99.3927ZM99.1972 25.8703L91.1065 14.9127L89.4976 16.1007L97.5882 27.0583L99.1972 25.8703ZM90.302 16.5067H94.7969V14.5067H90.302V16.5067ZM94.0144 16.1293L99.5053 23.0295L101.07 21.7841L95.5793 14.884L94.0144 16.1293ZM101.072 23.0278L106.538 16.1277L104.971 14.8857L99.504 21.7858L101.072 23.0278ZM105.754 16.5067H110.298V14.5067H105.754V16.5067ZM109.494 14.9124L101.379 25.8943L102.987 27.0829L111.102 16.101L109.494 14.9124ZM101.183 26.4886V33H103.183V26.4886H101.183ZM102.183 32H98.3927V34H102.183V32ZM118.678 33H117.678C117.678 33.5523 118.126 34 118.678 34V33ZM118.678 15.5067V14.5067C118.126 14.5067 117.678 14.9544 117.678 15.5067H118.678ZM122.396 15.5067H123.396C123.396 14.9544 122.948 14.5067 122.396 14.5067V15.5067ZM122.396 33V34C122.948 34 123.396 33.5523 123.396 33H122.396ZM119.678 33V15.5067H117.678V33H119.678ZM118.678 16.5067H122.396V14.5067H118.678V16.5067ZM121.396 15.5067V33H123.396V15.5067H121.396ZM122.396 32H118.678V34H122.396V32ZM126.256 32.5141L125.737 33.3693L125.749 33.376L126.256 32.5141ZM124.968 31.2264L124.106 31.7334L124.113 31.7447L124.968 31.2264ZM124.968 17.3046L125.823 17.8229L125.83 17.8116L124.968 17.3046ZM126.256 15.9926L125.749 15.1306L125.737 15.1374L126.256 15.9926ZM141.927 15.5067H142.927C142.927 14.9544 142.479 14.5067 141.927 14.5067V15.5067ZM141.927 19.2969V20.2969C142.479 20.2969 142.927 19.8492 142.927 19.2969H141.927ZM128.442 19.4913L127.778 18.7438C127.763 18.7569 127.749 18.7703 127.735 18.7842L128.442 19.4913ZM128.442 29.0154L127.695 29.6798C127.721 29.7091 127.749 29.7368 127.778 29.7628L128.442 29.0154ZM141.927 29.2098H142.927C142.927 28.6575 142.479 28.2098 141.927 28.2098V29.2098ZM141.927 33V34C142.479 34 142.927 33.5523 142.927 33H141.927ZM128.078 32C127.585 32 127.153 31.882 126.763 31.6521L125.749 33.376C126.459 33.794 127.243 34 128.078 34V32ZM126.774 31.6589C126.377 31.4184 126.064 31.1048 125.823 30.7081L124.113 31.7447C124.52 32.417 125.065 32.9618 125.737 33.3693L126.774 31.6589ZM125.83 30.7194C125.6 30.3285 125.482 29.8973 125.482 29.4041H123.482C123.482 30.2392 123.688 31.0228 124.106 31.7334L125.83 30.7194ZM125.482 29.4041V19.1025H123.482V29.4041H125.482ZM125.482 19.1025C125.482 18.6093 125.6 18.1912 125.823 17.8229L124.113 16.7863C123.688 17.487 123.482 18.2676 123.482 19.1025H125.482ZM125.83 17.8116C126.072 17.4003 126.384 17.084 126.774 16.8478L125.737 15.1374C125.058 15.5491 124.512 16.1074 124.106 16.7976L125.83 17.8116ZM126.763 16.8545C127.153 16.6246 127.585 16.5067 128.078 16.5067V14.5067C127.243 14.5067 126.459 14.7127 125.749 15.1307L126.763 16.8545ZM128.078 16.5067H141.927V14.5067H128.078V16.5067ZM140.927 15.5067V19.2969H142.927V15.5067H140.927ZM141.927 18.2969H129.05V20.2969H141.927V18.2969ZM129.05 18.2969C128.627 18.2969 128.16 18.4044 127.778 18.7438L129.107 20.2387C129.088 20.2556 129.068 20.2691 129.05 20.2794C129.031 20.2896 129.017 20.2952 129.008 20.2979C128.992 20.3031 129.002 20.2969 129.05 20.2969V18.2969ZM127.735 18.7842C127.342 19.1774 127.248 19.6897 127.248 20.0987H129.248C129.248 20.0356 129.256 20.0236 129.249 20.0451C129.241 20.0712 129.214 20.1337 129.149 20.1984L127.735 18.7842ZM127.248 20.0987V28.408H129.248V20.0987H127.248ZM127.248 28.408C127.248 28.8302 127.355 29.2978 127.695 29.6798L129.19 28.351C129.207 28.3701 129.22 28.3896 129.23 28.4081C129.241 28.4263 129.246 28.4409 129.249 28.4494C129.254 28.4656 129.248 28.456 129.248 28.408H127.248ZM127.778 29.7628C128.16 30.1023 128.627 30.2098 129.05 30.2098V28.2098C129.002 28.2098 128.992 28.2036 129.008 28.2088C129.017 28.2115 129.031 28.2171 129.05 28.2272C129.068 28.2375 129.088 28.2511 129.107 28.268L127.778 29.7628ZM129.05 30.2098H141.927V28.2098H129.05V30.2098ZM140.927 29.2098V33H142.927V29.2098H140.927ZM141.927 32H128.078V34H141.927V32ZM146.234 32.5141L145.715 33.3693L145.727 33.376L146.234 32.5141ZM144.946 31.2264L144.084 31.7334L144.091 31.7447L144.946 31.2264ZM144.946 17.3046L145.801 17.8229L145.808 17.8116L144.946 17.3046ZM146.234 15.9926L145.727 15.1306L145.715 15.1374L146.234 15.9926ZM161.905 15.5067H162.905C162.905 14.9544 162.457 14.5067 161.905 14.5067V15.5067ZM161.905 19.2969V20.2969C162.457 20.2969 162.905 19.8492 162.905 19.2969H161.905ZM148.42 19.4913L147.756 18.7438C147.741 18.7569 147.727 18.7703 147.713 18.7842L148.42 19.4913ZM148.42 29.0154L147.673 29.6798C147.699 29.7091 147.727 29.7368 147.756 29.7628L148.42 29.0154ZM161.905 29.2098H162.905C162.905 28.6575 162.457 28.2098 161.905 28.2098V29.2098ZM161.905 33V34C162.457 34 162.905 33.5523 162.905 33H161.905ZM148.056 32C147.563 32 147.131 31.882 146.741 31.6521L145.727 33.376C146.437 33.794 147.221 34 148.056 34V32ZM146.752 31.6589C146.355 31.4184 146.042 31.1048 145.801 30.7081L144.091 31.7447C144.498 32.417 145.043 32.9618 145.715 33.3693L146.752 31.6589ZM145.808 30.7194C145.578 30.3285 145.46 29.8973 145.46 29.4041H143.46C143.46 30.2392 143.666 31.0228 144.084 31.7334L145.808 30.7194ZM145.46 29.4041V19.1025H143.46V29.4041H145.46ZM145.46 19.1025C145.46 18.6093 145.578 18.1912 145.801 17.8229L144.091 16.7863C143.666 17.487 143.46 18.2676 143.46 19.1025H145.46ZM145.808 17.8116C146.05 17.4003 146.362 17.084 146.752 16.8478L145.715 15.1374C145.036 15.5491 144.49 16.1074 144.084 16.7976L145.808 17.8116ZM146.741 16.8545C147.131 16.6246 147.563 16.5067 148.056 16.5067V14.5067C147.221 14.5067 146.437 14.7127 145.727 15.1307L146.741 16.8545ZM148.056 16.5067H161.905V14.5067H148.056V16.5067ZM160.905 15.5067V19.2969H162.905V15.5067H160.905ZM161.905 18.2969H149.028V20.2969H161.905V18.2969ZM149.028 18.2969C148.605 18.2969 148.138 18.4044 147.756 18.7438L149.085 20.2387C149.066 20.2556 149.046 20.2691 149.028 20.2794C149.009 20.2896 148.995 20.2952 148.986 20.2979C148.97 20.3031 148.98 20.2969 149.028 20.2969V18.2969ZM147.713 18.7842C147.32 19.1774 147.226 19.6897 147.226 20.0987H149.226C149.226 20.0356 149.234 20.0236 149.227 20.0451C149.219 20.0712 149.192 20.1337 149.127 20.1984L147.713 18.7842ZM147.226 20.0987V28.408H149.226V20.0987H147.226ZM147.226 28.408C147.226 28.8302 147.333 29.2978 147.673 29.6798L149.168 28.351C149.185 28.3701 149.198 28.3896 149.208 28.4081C149.219 28.4263 149.224 28.4409 149.227 28.4494C149.232 28.4656 149.226 28.456 149.226 28.408H147.226ZM147.756 29.7628C148.138 30.1023 148.605 30.2098 149.028 30.2098V28.2098C148.98 28.2098 148.97 28.2036 148.986 28.2088C148.995 28.2115 149.009 28.2171 149.028 28.2272C149.046 28.2375 149.066 28.2511 149.085 28.268L147.756 29.7628ZM149.028 30.2098H161.905V28.2098H149.028V30.2098ZM160.905 29.2098V33H162.905V29.2098H160.905ZM161.905 32H148.056V34H161.905V32Z" fill="white" fill-opacity="0.3"/>
<path d="M174.185 21.75C172.942 21.75 171.935 22.7574 171.935 24C171.935 25.2426 172.942 26.25 174.185 26.25L174.185 21.75ZM205.776 25.591C206.655 24.7123 206.655 23.2877 205.776 22.409L191.457 8.0901C190.578 7.21142 189.154 7.21142 188.275 8.0901C187.396 8.96878 187.396 10.3934 188.275 11.2721L201.003 24L188.275 36.7279C187.396 37.6066 187.396 39.0312 188.275 39.9099C189.154 40.7886 190.578 40.7886 191.457 39.9099L205.776 25.591ZM174.185 26.25L204.185 26.25L204.185 21.75L174.185 21.75L174.185 26.25Z" fill="white"/>
<defs>
<linearGradient id="paint0_linear_323_11321" x1="5.73145" y1="27.9736" x2="256.814" y2="27.9736" gradientUnits="userSpaceOnUse">
<stop offset="0.59" stop-color="#05339C"/>
<stop offset="1" stop-color="#8F05C7"/>
</linearGradient>
<linearGradient id="paint1_linear_323_11321" x1="17.0044" y1="36.623" x2="46.5492" y2="-51.0862" gradientUnits="userSpaceOnUse">
<stop stop-color="#FAD0C4"/>
<stop offset="1" stop-color="#FBC2EB"/>
</linearGradient>
</defs>
</svg>
