<svg width="257" height="53" viewBox="0 0 257 53" fill="none" xmlns="http://www.w3.org/2000/svg">
<path d="M237.986 39.1733C230.773 47.7956 220.11 52.7778 208.868 52.7778H15.4217C10.07 52.7778 5.73169 48.4395 5.73169 43.0878C5.73169 40.7904 6.54796 38.5677 8.03486 36.8164L24.5701 17.3403C31.7831 8.84437 42.365 3.94714 53.5099 3.94714H247.484C252.637 3.94714 256.815 8.12459 256.815 13.2777C256.815 15.4665 256.045 17.5857 254.641 19.2645L237.986 39.1733Z" fill="url(#paint0_linear_222_12022)"/>
<path d="M232.44 35.615C225.227 44.2374 214.563 49.2196 203.322 49.2196H9.87529C4.52365 49.2196 0.185303 44.8812 0.185303 39.5296C0.185303 37.2322 1.00158 35.0095 2.48847 33.2582L19.0237 13.782C26.2368 5.28614 36.8186 0.388916 47.9635 0.388916H241.938C247.091 0.388916 251.268 4.56636 251.268 9.71949C251.268 11.9083 250.499 14.0275 249.094 15.7063L232.44 35.615Z" fill="url(#paint1_linear_222_12022)"/>
<path d="M91.1384 33.5V16.0067H95.0258L104.817 27.6689V16.0067H108.632V33.5H104.744L94.9044 21.7892V33.5H91.1384ZM111.402 33.5V16.0067H127.559V19.7969H115.217V22.8582H125.154V26.6484H115.217V29.7098H127.559V33.5H111.402ZM129.713 33.5V32.2123L135.957 24.7533L129.713 17.2944V16.0067H133.624L138.484 21.7649L143.294 16.0067H147.206V17.2944L140.937 24.7533L147.206 32.188V33.5H143.294L138.435 27.7661L133.624 33.5H129.713ZM155.649 33.5V19.7969H148.798V16.0067H166.291V19.7969H159.44V33.5H155.649Z" fill="white"/>
<path d="M91.1384 33.5H90.7588V33.8796H91.1384V33.5ZM91.1384 16.0067V15.627H90.7588V16.0067H91.1384ZM95.0258 16.0067L95.3166 15.7626L95.2028 15.627H95.0258V16.0067ZM104.817 27.6689L104.526 27.913L105.197 28.7115V27.6689H104.817ZM104.817 16.0067V15.627H104.438V16.0067H104.817ZM108.632 16.0067H109.011V15.627H108.632V16.0067ZM108.632 33.5V33.8796H109.011V33.5H108.632ZM104.744 33.5L104.454 33.7442L104.567 33.8796H104.744V33.5ZM94.9044 21.7892L95.195 21.545L94.5247 20.7473V21.7892H94.9044ZM94.9044 33.5V33.8796H95.284V33.5H94.9044ZM91.5181 33.5V16.0067H90.7588V33.5H91.5181ZM91.1384 16.3863H95.0258V15.627H91.1384V16.3863ZM94.7351 16.2508L104.526 27.913L105.108 27.4248L95.3166 15.7626L94.7351 16.2508ZM105.197 27.6689V16.0067H104.438V27.6689H105.197ZM104.817 16.3863H108.632V15.627H104.817V16.3863ZM108.252 16.0067V33.5H109.011V16.0067H108.252ZM108.632 33.1204H104.744V33.8796H108.632V33.1204ZM105.035 33.2558L95.195 21.545L94.6137 22.0334L104.454 33.7442L105.035 33.2558ZM94.5247 21.7892V33.5H95.284V21.7892H94.5247ZM94.9044 33.1204H91.1384V33.8796H94.9044V33.1204ZM111.402 33.5H111.023V33.8796H111.402V33.5ZM111.402 16.0067V15.627H111.023V16.0067H111.402ZM127.559 16.0067H127.939V15.627H127.559V16.0067ZM127.559 19.7969V20.1765H127.939V19.7969H127.559ZM115.217 19.7969V19.4173H114.837V19.7969H115.217ZM115.217 22.8582H114.837V23.2379H115.217V22.8582ZM125.154 22.8582H125.534V22.4786H125.154V22.8582ZM125.154 26.6484V27.0281H125.534V26.6484H125.154ZM115.217 26.6484V26.2688H114.837V26.6484H115.217ZM115.217 29.7098H114.837V30.0894H115.217V29.7098ZM127.559 29.7098H127.939V29.3301H127.559V29.7098ZM127.559 33.5V33.8796H127.939V33.5H127.559ZM111.782 33.5V16.0067H111.023V33.5H111.782ZM111.402 16.3863H127.559V15.627H111.402V16.3863ZM127.18 16.0067V19.7969H127.939V16.0067H127.18ZM127.559 19.4173H115.217V20.1765H127.559V19.4173ZM114.837 19.7969V22.8582H115.596V19.7969H114.837ZM115.217 23.2379H125.154V22.4786H115.217V23.2379ZM124.774 22.8582V26.6484H125.534V22.8582H124.774ZM125.154 26.2688H115.217V27.0281H125.154V26.2688ZM114.837 26.6484V29.7098H115.596V26.6484H114.837ZM115.217 30.0894H127.559V29.3301H115.217V30.0894ZM127.18 29.7098V33.5H127.939V29.7098H127.18ZM127.559 33.1204H111.402V33.8796H127.559V33.1204ZM129.713 33.5H129.333V33.8796H129.713V33.5ZM129.713 32.2123L129.421 31.9686L129.333 32.0744V32.2123H129.713ZM135.957 24.7533L136.248 24.997L136.452 24.7533L136.248 24.5096L135.957 24.7533ZM129.713 17.2944H129.333V17.4323L129.421 17.5381L129.713 17.2944ZM129.713 16.0067V15.627H129.333V16.0067H129.713ZM133.624 16.0067L133.914 15.7618L133.801 15.627H133.624V16.0067ZM138.484 21.7649L138.193 22.0097L138.485 22.3553L138.775 22.0083L138.484 21.7649ZM143.294 16.0067V15.627H143.117L143.003 15.7633L143.294 16.0067ZM147.206 16.0067H147.586V15.627H147.206V16.0067ZM147.206 17.2944L147.497 17.5386L147.586 17.4327V17.2944H147.206ZM140.937 24.7533L140.647 24.5091L140.441 24.7537L140.647 24.998L140.937 24.7533ZM147.206 32.188H147.586V32.0493L147.496 31.9433L147.206 32.188ZM147.206 33.5V33.8796H147.586V33.5H147.206ZM143.294 33.5L143.005 33.7454L143.118 33.8796H143.294V33.5ZM138.435 27.7661L138.725 27.5206L138.434 27.1772L138.144 27.5221L138.435 27.7661ZM133.624 33.5V33.8796H133.801L133.915 33.744L133.624 33.5ZM130.092 33.5V32.2123H129.333V33.5H130.092ZM130.004 32.456L136.248 24.997L135.666 24.5096L129.421 31.9686L130.004 32.456ZM136.248 24.5096L130.004 17.0507L129.421 17.5381L135.666 24.997L136.248 24.5096ZM130.092 17.2944V16.0067H129.333V17.2944H130.092ZM129.713 16.3863H133.624V15.627H129.713V16.3863ZM133.334 16.2515L138.193 22.0097L138.774 21.5201L133.914 15.7618L133.334 16.2515ZM138.775 22.0083L143.586 16.2501L143.003 15.7633L138.192 21.5215L138.775 22.0083ZM143.294 16.3863H147.206V15.627H143.294V16.3863ZM146.826 16.0067V17.2944H147.586V16.0067H146.826ZM146.915 17.0501L140.647 24.5091L141.228 24.9976L147.497 17.5386L146.915 17.0501ZM140.647 24.998L146.916 32.4327L147.496 31.9433L141.228 24.5086L140.647 24.998ZM146.826 32.188V33.5H147.586V32.188H146.826ZM147.206 33.1204H143.294V33.8796H147.206V33.1204ZM143.584 33.2546L138.725 27.5206L138.145 28.0115L143.005 33.7454L143.584 33.2546ZM138.144 27.5221L133.333 33.256L133.915 33.744L138.726 28.0101L138.144 27.5221ZM133.624 33.1204H129.713V33.8796H133.624V33.1204ZM155.649 33.5H155.27V33.8796H155.649V33.5ZM155.649 19.7969H156.029V19.4173H155.649V19.7969ZM148.798 19.7969H148.418V20.1765H148.798V19.7969ZM148.798 16.0067V15.627H148.418V16.0067H148.798ZM166.291 16.0067H166.671V15.627H166.291V16.0067ZM166.291 19.7969V20.1765H166.671V19.7969H166.291ZM159.44 19.7969V19.4173H159.06V19.7969H159.44ZM159.44 33.5V33.8796H159.819V33.5H159.44ZM156.029 33.5V19.7969H155.27V33.5H156.029ZM155.649 19.4173H148.798V20.1765H155.649V19.4173ZM149.178 19.7969V16.0067H148.418V19.7969H149.178ZM148.798 16.3863H166.291V15.627H148.798V16.3863ZM165.912 16.0067V19.7969H166.671V16.0067H165.912ZM166.291 19.4173H159.44V20.1765H166.291V19.4173ZM159.06 19.7969V33.5H159.819V19.7969H159.06ZM159.44 33.1204H155.649V33.8796H159.44V33.1204Z" fill="white"/>
<defs>
<linearGradient id="paint0_linear_222_12022" x1="5.73169" y1="28.3625" x2="256.815" y2="28.3625" gradientUnits="userSpaceOnUse">
<stop offset="0.59" stop-color="#05339C"/>
<stop offset="1" stop-color="#8F05C7"/>
</linearGradient>
<linearGradient id="paint1_linear_222_12022" x1="17.0047" y1="37.0119" x2="46.5495" y2="-50.6973" gradientUnits="userSpaceOnUse">
<stop stop-color="#FAD0C4"/>
<stop offset="1" stop-color="#FBC2EB"/>
</linearGradient>
</defs>
</svg>
