<svg width="150" height="34" viewBox="0 0 150 34" fill="none" xmlns="http://www.w3.org/2000/svg">
<g filter="url(#filter0_d_223_8965)">
<path d="M43.309 24V9.6H56.609V12.72H46.449V15.24H54.629V18.36H46.449V20.88H56.609V24H43.309ZM58.6215 24V12.56C58.6215 12.0133 58.7548 11.52 59.0215 11.08C59.2881 10.6267 59.6481 10.2667 60.1015 10C60.5548 9.73333 61.0481 9.6 61.5815 9.6H70.0415C70.5881 9.6 71.0815 9.73333 71.5215 10C71.9748 10.2667 72.3348 10.6267 72.6015 11.08C72.8815 11.52 73.0215 12.0133 73.0215 12.56V24H69.8815V19.36H61.7215V24H58.6215ZM61.7215 16.24H69.8815V12.72H61.7215V16.24ZM86.4802 24L82.3002 19.02H86.3602L89.6802 22.94V24H86.4802ZM75.3002 24V9.62H86.7202C87.2669 9.62 87.7602 9.75333 88.2002 10.02C88.6535 10.2867 89.0135 10.6467 89.2802 11.1C89.5602 11.5533 89.7002 12.0467 89.7002 12.58V16.3C89.7002 16.8333 89.5602 17.3267 89.2802 17.78C89.0135 18.2333 88.6535 18.5933 88.2002 18.86C87.7602 19.1267 87.2669 19.26 86.7202 19.26L78.4002 19.28V24H75.3002ZM78.4002 16.14H86.5602V12.72H78.4002V16.14ZM91.8041 24V9.6H95.0041L103.064 19.2V9.6H106.204V24H103.004L94.9041 14.36V24H91.8041Z" fill="white"/>
<path d="M43.309 24H42.809V24.5H43.309V24ZM43.309 9.6V9.1H42.809V9.6H43.309ZM56.609 9.6H57.109V9.1H56.609V9.6ZM56.609 12.72V13.22H57.109V12.72H56.609ZM46.449 12.72V12.22H45.949V12.72H46.449ZM46.449 15.24H45.949V15.74H46.449V15.24ZM54.629 15.24H55.129V14.74H54.629V15.24ZM54.629 18.36V18.86H55.129V18.36H54.629ZM46.449 18.36V17.86H45.949V18.36H46.449ZM46.449 20.88H45.949V21.38H46.449V20.88ZM56.609 20.88H57.109V20.38H56.609V20.88ZM56.609 24V24.5H57.109V24H56.609ZM43.809 24V9.6H42.809V24H43.809ZM43.309 10.1H56.609V9.1H43.309V10.1ZM56.109 9.6V12.72H57.109V9.6H56.109ZM56.609 12.22H46.449V13.22H56.609V12.22ZM45.949 12.72V15.24H46.949V12.72H45.949ZM46.449 15.74H54.629V14.74H46.449V15.74ZM54.129 15.24V18.36H55.129V15.24H54.129ZM54.629 17.86H46.449V18.86H54.629V17.86ZM45.949 18.36V20.88H46.949V18.36H45.949ZM46.449 21.38H56.609V20.38H46.449V21.38ZM56.109 20.88V24H57.109V20.88H56.109ZM56.609 23.5H43.309V24.5H56.609V23.5ZM58.6215 24H58.1215V24.5H58.6215V24ZM59.0215 11.08L59.4491 11.3392L59.4524 11.3335L59.0215 11.08ZM60.1015 10L59.8479 9.56903V9.56903L60.1015 10ZM71.5215 10L71.2623 10.4276L71.2679 10.431L71.5215 10ZM72.6015 11.08L72.1705 11.3335L72.1749 11.3411L72.1796 11.3484L72.6015 11.08ZM73.0215 24V24.5H73.5215V24H73.0215ZM69.8815 24H69.3815V24.5H69.8815V24ZM69.8815 19.36H70.3815V18.86H69.8815V19.36ZM61.7215 19.36V18.86H61.2215V19.36H61.7215ZM61.7215 24V24.5H62.2215V24H61.7215ZM61.7215 16.24H61.2215V16.74H61.7215V16.24ZM69.8815 16.24V16.74H70.3815V16.24H69.8815ZM69.8815 12.72H70.3815V12.22H69.8815V12.72ZM61.7215 12.72V12.22H61.2215V12.72H61.7215ZM59.1215 24V12.56H58.1215V24H59.1215ZM59.1215 12.56C59.1215 12.0988 59.2327 11.6961 59.4491 11.3392L58.5939 10.8208C58.2768 11.3439 58.1215 11.9279 58.1215 12.56H59.1215ZM59.4524 11.3335C59.676 10.9535 59.9749 10.6545 60.355 10.431L59.8479 9.56903C59.3213 9.8788 58.9003 10.2999 58.5905 10.8265L59.4524 11.3335ZM60.355 10.431C60.7303 10.2102 61.136 10.1 61.5815 10.1V9.1C60.9603 9.1 60.3792 9.2565 59.8479 9.56903L60.355 10.431ZM61.5815 10.1H70.0415V9.1H61.5815V10.1ZM70.0415 10.1C70.5027 10.1 70.9054 10.2113 71.2623 10.4276L71.7806 9.5724C71.2575 9.25538 70.6735 9.1 70.0415 9.1V10.1ZM71.2679 10.431C71.648 10.6545 71.9469 10.9535 72.1705 11.3335L73.0324 10.8265C72.7226 10.2999 72.3016 9.8788 71.775 9.56903L71.2679 10.431ZM72.1796 11.3484C72.406 11.7042 72.5215 12.1036 72.5215 12.56H73.5215C73.5215 11.9231 73.3569 11.3358 73.0233 10.8116L72.1796 11.3484ZM72.5215 12.56V24H73.5215V12.56H72.5215ZM73.0215 23.5H69.8815V24.5H73.0215V23.5ZM70.3815 24V19.36H69.3815V24H70.3815ZM69.8815 18.86H61.7215V19.86H69.8815V18.86ZM61.2215 19.36V24H62.2215V19.36H61.2215ZM61.7215 23.5H58.6215V24.5H61.7215V23.5ZM61.7215 16.74H69.8815V15.74H61.7215V16.74ZM70.3815 16.24V12.72H69.3815V16.24H70.3815ZM69.8815 12.22H61.7215V13.22H69.8815V12.22ZM61.2215 12.72V16.24H62.2215V12.72H61.2215ZM86.4802 24L86.0972 24.3215L86.2471 24.5H86.4802V24ZM82.3002 19.02V18.52H81.2277L81.9172 19.3415L82.3002 19.02ZM86.3602 19.02L86.7417 18.6969L86.592 18.52H86.3602V19.02ZM89.6802 22.94H90.1802V22.7567L90.0617 22.6169L89.6802 22.94ZM89.6802 24V24.5H90.1802V24H89.6802ZM75.3002 24H74.8002V24.5H75.3002V24ZM75.3002 9.62V9.12H74.8002V9.62H75.3002ZM88.2002 10.02L87.941 10.4476L87.9467 10.451L88.2002 10.02ZM89.2802 11.1L88.8491 11.3536L88.8548 11.3627L89.2802 11.1ZM89.2802 17.78L88.8547 17.5172L88.8492 17.5265L89.2802 17.78ZM88.2002 18.86L87.9467 18.429L87.9411 18.4324L88.2002 18.86ZM86.7202 19.26V18.76L86.719 18.76L86.7202 19.26ZM78.4002 19.28L78.399 18.78L77.9002 18.7812V19.28H78.4002ZM78.4002 24V24.5H78.9002V24H78.4002ZM78.4002 16.14H77.9002V16.64H78.4002V16.14ZM86.5602 16.14V16.64H87.0602V16.14H86.5602ZM86.5602 12.72H87.0602V12.22H86.5602V12.72ZM78.4002 12.72V12.22H77.9002V12.72H78.4002ZM86.8632 23.6785L82.6832 18.6985L81.9172 19.3415L86.0972 24.3215L86.8632 23.6785ZM82.3002 19.52H86.3602V18.52H82.3002V19.52ZM85.9787 19.3431L89.2987 23.2631L90.0617 22.6169L86.7417 18.6969L85.9787 19.3431ZM89.1802 22.94V24H90.1802V22.94H89.1802ZM89.6802 23.5H86.4802V24.5H89.6802V23.5ZM75.8002 24V9.62H74.8002V24H75.8002ZM75.3002 10.12H86.7202V9.12H75.3002V10.12ZM86.7202 10.12C87.1814 10.12 87.5841 10.2313 87.9411 10.4476L88.4594 9.5924C87.9363 9.27538 87.3523 9.12 86.7202 9.12V10.12ZM87.9467 10.451C88.3267 10.6745 88.6257 10.9735 88.8492 11.3535L89.7112 10.8465C89.4014 10.3199 88.9803 9.8988 88.4537 9.58903L87.9467 10.451ZM88.8548 11.3627C89.086 11.737 89.2002 12.1394 89.2002 12.58H90.2002C90.2002 11.954 90.0344 11.3696 89.7056 10.8373L88.8548 11.3627ZM89.2002 12.58V16.3H90.2002V12.58H89.2002ZM89.2002 16.3C89.2002 16.7406 89.086 17.143 88.8548 17.5173L89.7056 18.0427C90.0344 17.5104 90.2002 16.926 90.2002 16.3H89.2002ZM88.8492 17.5265C88.6257 17.9065 88.3267 18.2055 87.9467 18.429L88.4537 19.291C88.9803 18.9812 89.4014 18.5601 89.7112 18.0335L88.8492 17.5265ZM87.9411 18.4324C87.5841 18.6487 87.1814 18.76 86.7202 18.76V19.76C87.3523 19.76 87.9363 19.6046 88.4594 19.2876L87.9411 18.4324ZM86.719 18.76L78.399 18.78L78.4014 19.78L86.7214 19.76L86.719 18.76ZM77.9002 19.28V24H78.9002V19.28H77.9002ZM78.4002 23.5H75.3002V24.5H78.4002V23.5ZM78.4002 16.64H86.5602V15.64H78.4002V16.64ZM87.0602 16.14V12.72H86.0602V16.14H87.0602ZM86.5602 12.22H78.4002V13.22H86.5602V12.22ZM77.9002 12.72V16.14H78.9002V12.72H77.9002ZM91.8041 24H91.3041V24.5H91.8041V24ZM91.8041 9.6V9.1H91.3041V9.6H91.8041ZM95.0041 9.6L95.387 9.2785L95.2372 9.1H95.0041V9.6ZM103.064 19.2L102.681 19.5215L103.564 20.5731V19.2H103.064ZM103.064 9.6V9.1H102.564V9.6H103.064ZM106.204 9.6H106.704V9.1H106.204V9.6ZM106.204 24V24.5H106.704V24H106.204ZM103.004 24L102.621 24.3217L102.771 24.5H103.004V24ZM94.9041 14.36L95.2869 14.0383L94.4041 12.9877V14.36H94.9041ZM94.9041 24V24.5H95.4041V24H94.9041ZM92.3041 24V9.6H91.3041V24H92.3041ZM91.8041 10.1H95.0041V9.1H91.8041V10.1ZM94.6212 9.9215L102.681 19.5215L103.447 18.8785L95.387 9.2785L94.6212 9.9215ZM103.564 19.2V9.6H102.564V19.2H103.564ZM103.064 10.1H106.204V9.1H103.064V10.1ZM105.704 9.6V24H106.704V9.6H105.704ZM106.204 23.5H103.004V24.5H106.204V23.5ZM103.387 23.6783L95.2869 14.0383L94.5213 14.6817L102.621 24.3217L103.387 23.6783ZM94.4041 14.36V24H95.4041V14.36H94.4041ZM94.9041 23.5H91.8041V24.5H94.9041V23.5Z" fill="white"/>
</g>
<defs>
<filter id="filter0_d_223_8965" x="42.309" y="8.60001" width="68.8951" height="20.4" filterUnits="userSpaceOnUse" color-interpolation-filters="sRGB">
<feFlood flood-opacity="0" result="BackgroundImageFix"/>
<feColorMatrix in="SourceAlpha" type="matrix" values="0 0 0 0 0 0 0 0 0 0 0 0 0 0 0 0 0 0 127 0" result="hardAlpha"/>
<feOffset dx="2" dy="2"/>
<feGaussianBlur stdDeviation="1.5"/>
<feComposite in2="hardAlpha" operator="out"/>
<feColorMatrix type="matrix" values="0 0 0 0 0 0 0 0 0 0 0 0 0 0 0 0 0 0 0.15 0"/>
<feBlend mode="normal" in2="BackgroundImageFix" result="effect1_dropShadow_223_8965"/>
<feBlend mode="normal" in="SourceGraphic" in2="effect1_dropShadow_223_8965" result="shape"/>
</filter>
</defs>
</svg>
