<svg width="156" height="40" viewBox="0 0 156 40" fill="none" xmlns="http://www.w3.org/2000/svg">
<path d="M4.51344 22.6489L23.2549 4.41616C24.1883 3.50808 25.4391 3 26.7414 3H148C150.761 3 153 5.23858 153 8V11.3643C153 12.6116 152.534 13.8138 151.693 14.735L132.859 35.3706C131.912 36.4086 130.571 37 129.166 37H8C5.23858 37 3 34.7614 3 32V26.2327C3 24.8828 3.54585 23.5902 4.51344 22.6489Z" fill="url(#paint0_linear_223_8962)" stroke="white" stroke-opacity="0.2" stroke-width="5" stroke-linejoin="round"/>
<g filter="url(#filter0_d_223_8962)">
<path d="M46.309 27V12.6H59.609V15.72H49.449V18.24H57.629V21.36H49.449V23.88H59.609V27H46.309ZM61.6215 27V15.56C61.6215 15.0133 61.7548 14.52 62.0215 14.08C62.2881 13.6267 62.6481 13.2667 63.1015 13C63.5548 12.7333 64.0481 12.6 64.5815 12.6H73.0415C73.5881 12.6 74.0815 12.7333 74.5215 13C74.9748 13.2667 75.3348 13.6267 75.6015 14.08C75.8815 14.52 76.0215 15.0133 76.0215 15.56V27H72.8815V22.36H64.7215V27H61.6215ZM64.7215 19.24H72.8815V15.72H64.7215V19.24ZM89.4802 27L85.3002 22.02H89.3602L92.6802 25.94V27H89.4802ZM78.3002 27V12.62H89.7202C90.2669 12.62 90.7602 12.7533 91.2002 13.02C91.6535 13.2867 92.0135 13.6467 92.2802 14.1C92.5602 14.5533 92.7002 15.0467 92.7002 15.58V19.3C92.7002 19.8333 92.5602 20.3267 92.2802 20.78C92.0135 21.2333 91.6535 21.5933 91.2002 21.86C90.7602 22.1267 90.2669 22.26 89.7202 22.26L81.4002 22.28V27H78.3002ZM81.4002 19.14H89.5602V15.72H81.4002V19.14ZM94.8041 27V12.6H98.0041L106.064 22.2V12.6H109.204V27H106.004L97.9041 17.36V27H94.8041Z" fill="white"/>
<path d="M46.309 27H45.809V27.5H46.309V27ZM46.309 12.6V12.1H45.809V12.6H46.309ZM59.609 12.6H60.109V12.1H59.609V12.6ZM59.609 15.72V16.22H60.109V15.72H59.609ZM49.449 15.72V15.22H48.949V15.72H49.449ZM49.449 18.24H48.949V18.74H49.449V18.24ZM57.629 18.24H58.129V17.74H57.629V18.24ZM57.629 21.36V21.86H58.129V21.36H57.629ZM49.449 21.36V20.86H48.949V21.36H49.449ZM49.449 23.88H48.949V24.38H49.449V23.88ZM59.609 23.88H60.109V23.38H59.609V23.88ZM59.609 27V27.5H60.109V27H59.609ZM46.809 27V12.6H45.809V27H46.809ZM46.309 13.1H59.609V12.1H46.309V13.1ZM59.109 12.6V15.72H60.109V12.6H59.109ZM59.609 15.22H49.449V16.22H59.609V15.22ZM48.949 15.72V18.24H49.949V15.72H48.949ZM49.449 18.74H57.629V17.74H49.449V18.74ZM57.129 18.24V21.36H58.129V18.24H57.129ZM57.629 20.86H49.449V21.86H57.629V20.86ZM48.949 21.36V23.88H49.949V21.36H48.949ZM49.449 24.38H59.609V23.38H49.449V24.38ZM59.109 23.88V27H60.109V23.88H59.109ZM59.609 26.5H46.309V27.5H59.609V26.5ZM61.6215 27H61.1215V27.5H61.6215V27ZM62.0215 14.08L62.4491 14.3392L62.4524 14.3335L62.0215 14.08ZM63.1015 13L62.8479 12.569V12.569L63.1015 13ZM74.5215 13L74.2623 13.4276L74.2679 13.431L74.5215 13ZM75.6015 14.08L75.1705 14.3335L75.1749 14.3411L75.1796 14.3484L75.6015 14.08ZM76.0215 27V27.5H76.5215V27H76.0215ZM72.8815 27H72.3815V27.5H72.8815V27ZM72.8815 22.36H73.3815V21.86H72.8815V22.36ZM64.7215 22.36V21.86H64.2215V22.36H64.7215ZM64.7215 27V27.5H65.2215V27H64.7215ZM64.7215 19.24H64.2215V19.74H64.7215V19.24ZM72.8815 19.24V19.74H73.3815V19.24H72.8815ZM72.8815 15.72H73.3815V15.22H72.8815V15.72ZM64.7215 15.72V15.22H64.2215V15.72H64.7215ZM62.1215 27V15.56H61.1215V27H62.1215ZM62.1215 15.56C62.1215 15.0988 62.2327 14.6961 62.4491 14.3392L61.5939 13.8208C61.2768 14.3439 61.1215 14.9279 61.1215 15.56H62.1215ZM62.4524 14.3335C62.676 13.9535 62.9749 13.6545 63.355 13.431L62.8479 12.569C62.3213 12.8788 61.9003 13.2999 61.5905 13.8265L62.4524 14.3335ZM63.355 13.431C63.7303 13.2102 64.136 13.1 64.5815 13.1V12.1C63.9603 12.1 63.3792 12.2565 62.8479 12.569L63.355 13.431ZM64.5815 13.1H73.0415V12.1H64.5815V13.1ZM73.0415 13.1C73.5027 13.1 73.9054 13.2113 74.2623 13.4276L74.7806 12.5724C74.2575 12.2554 73.6735 12.1 73.0415 12.1V13.1ZM74.2679 13.431C74.648 13.6545 74.9469 13.9535 75.1705 14.3335L76.0324 13.8265C75.7226 13.2999 75.3016 12.8788 74.775 12.569L74.2679 13.431ZM75.1796 14.3484C75.406 14.7042 75.5215 15.1036 75.5215 15.56H76.5215C76.5215 14.9231 76.3569 14.3358 76.0233 13.8116L75.1796 14.3484ZM75.5215 15.56V27H76.5215V15.56H75.5215ZM76.0215 26.5H72.8815V27.5H76.0215V26.5ZM73.3815 27V22.36H72.3815V27H73.3815ZM72.8815 21.86H64.7215V22.86H72.8815V21.86ZM64.2215 22.36V27H65.2215V22.36H64.2215ZM64.7215 26.5H61.6215V27.5H64.7215V26.5ZM64.7215 19.74H72.8815V18.74H64.7215V19.74ZM73.3815 19.24V15.72H72.3815V19.24H73.3815ZM72.8815 15.22H64.7215V16.22H72.8815V15.22ZM64.2215 15.72V19.24H65.2215V15.72H64.2215ZM89.4802 27L89.0972 27.3215L89.2471 27.5H89.4802V27ZM85.3002 22.02V21.52H84.2277L84.9172 22.3415L85.3002 22.02ZM89.3602 22.02L89.7417 21.6969L89.592 21.52H89.3602V22.02ZM92.6802 25.94H93.1802V25.7567L93.0617 25.6169L92.6802 25.94ZM92.6802 27V27.5H93.1802V27H92.6802ZM78.3002 27H77.8002V27.5H78.3002V27ZM78.3002 12.62V12.12H77.8002V12.62H78.3002ZM91.2002 13.02L90.941 13.4476L90.9467 13.451L91.2002 13.02ZM92.2802 14.1L91.8491 14.3536L91.8548 14.3627L92.2802 14.1ZM92.2802 20.78L91.8547 20.5172L91.8492 20.5265L92.2802 20.78ZM91.2002 21.86L90.9467 21.429L90.9411 21.4324L91.2002 21.86ZM89.7202 22.26V21.76L89.719 21.76L89.7202 22.26ZM81.4002 22.28L81.399 21.78L80.9002 21.7812V22.28H81.4002ZM81.4002 27V27.5H81.9002V27H81.4002ZM81.4002 19.14H80.9002V19.64H81.4002V19.14ZM89.5602 19.14V19.64H90.0602V19.14H89.5602ZM89.5602 15.72H90.0602V15.22H89.5602V15.72ZM81.4002 15.72V15.22H80.9002V15.72H81.4002ZM89.8632 26.6785L85.6832 21.6985L84.9172 22.3415L89.0972 27.3215L89.8632 26.6785ZM85.3002 22.52H89.3602V21.52H85.3002V22.52ZM88.9787 22.3431L92.2987 26.2631L93.0617 25.6169L89.7417 21.6969L88.9787 22.3431ZM92.1802 25.94V27H93.1802V25.94H92.1802ZM92.6802 26.5H89.4802V27.5H92.6802V26.5ZM78.8002 27V12.62H77.8002V27H78.8002ZM78.3002 13.12H89.7202V12.12H78.3002V13.12ZM89.7202 13.12C90.1814 13.12 90.5841 13.2313 90.9411 13.4476L91.4594 12.5924C90.9363 12.2754 90.3523 12.12 89.7202 12.12V13.12ZM90.9467 13.451C91.3267 13.6745 91.6257 13.9735 91.8492 14.3535L92.7112 13.8465C92.4014 13.3199 91.9803 12.8988 91.4537 12.589L90.9467 13.451ZM91.8548 14.3627C92.086 14.737 92.2002 15.1394 92.2002 15.58H93.2002C93.2002 14.954 93.0344 14.3696 92.7056 13.8373L91.8548 14.3627ZM92.2002 15.58V19.3H93.2002V15.58H92.2002ZM92.2002 19.3C92.2002 19.7406 92.086 20.143 91.8548 20.5173L92.7056 21.0427C93.0344 20.5104 93.2002 19.926 93.2002 19.3H92.2002ZM91.8492 20.5265C91.6257 20.9065 91.3267 21.2055 90.9467 21.429L91.4537 22.291C91.9803 21.9812 92.4014 21.5601 92.7112 21.0335L91.8492 20.5265ZM90.9411 21.4324C90.5841 21.6487 90.1814 21.76 89.7202 21.76V22.76C90.3523 22.76 90.9363 22.6046 91.4594 22.2876L90.9411 21.4324ZM89.719 21.76L81.399 21.78L81.4014 22.78L89.7214 22.76L89.719 21.76ZM80.9002 22.28V27H81.9002V22.28H80.9002ZM81.4002 26.5H78.3002V27.5H81.4002V26.5ZM81.4002 19.64H89.5602V18.64H81.4002V19.64ZM90.0602 19.14V15.72H89.0602V19.14H90.0602ZM89.5602 15.22H81.4002V16.22H89.5602V15.22ZM80.9002 15.72V19.14H81.9002V15.72H80.9002ZM94.8041 27H94.3041V27.5H94.8041V27ZM94.8041 12.6V12.1H94.3041V12.6H94.8041ZM98.0041 12.6L98.387 12.2785L98.2372 12.1H98.0041V12.6ZM106.064 22.2L105.681 22.5215L106.564 23.5731V22.2H106.064ZM106.064 12.6V12.1H105.564V12.6H106.064ZM109.204 12.6H109.704V12.1H109.204V12.6ZM109.204 27V27.5H109.704V27H109.204ZM106.004 27L105.621 27.3217L105.771 27.5H106.004V27ZM97.9041 17.36L98.2869 17.0383L97.4041 15.9877V17.36H97.9041ZM97.9041 27V27.5H98.4041V27H97.9041ZM95.3041 27V12.6H94.3041V27H95.3041ZM94.8041 13.1H98.0041V12.1H94.8041V13.1ZM97.6212 12.9215L105.681 22.5215L106.447 21.8785L98.387 12.2785L97.6212 12.9215ZM106.564 22.2V12.6H105.564V22.2H106.564ZM106.064 13.1H109.204V12.1H106.064V13.1ZM108.704 12.6V27H109.704V12.6H108.704ZM109.204 26.5H106.004V27.5H109.204V26.5ZM106.387 26.6783L98.2869 17.0383L97.5213 17.6817L105.621 27.3217L106.387 26.6783ZM97.4041 17.36V27H98.4041V17.36H97.4041ZM97.9041 26.5H94.8041V27.5H97.9041V26.5Z" fill="white"/>
</g>
<defs>
<filter id="filter0_d_223_8962" x="45.309" y="11.6" width="68.8951" height="20.4" filterUnits="userSpaceOnUse" color-interpolation-filters="sRGB">
<feFlood flood-opacity="0" result="BackgroundImageFix"/>
<feColorMatrix in="SourceAlpha" type="matrix" values="0 0 0 0 0 0 0 0 0 0 0 0 0 0 0 0 0 0 127 0" result="hardAlpha"/>
<feOffset dx="2" dy="2"/>
<feGaussianBlur stdDeviation="1.5"/>
<feComposite in2="hardAlpha" operator="out"/>
<feColorMatrix type="matrix" values="0 0 0 0 0 0 0 0 0 0 0 0 0 0 0 0 0 0 0.15 0"/>
<feBlend mode="normal" in2="BackgroundImageFix" result="effect1_dropShadow_223_8962"/>
<feBlend mode="normal" in="SourceGraphic" in2="effect1_dropShadow_223_8962" result="shape"/>
</filter>
<linearGradient id="paint0_linear_223_8962" x1="13.0481" y1="28.5" x2="36.1795" y2="-30.4187" gradientUnits="userSpaceOnUse">
<stop stop-color="#FAD0C4"/>
<stop offset="1" stop-color="#FBC2EB"/>
</linearGradient>
</defs>
</svg>
