<svg width="56" height="67" viewBox="0 0 56 67" fill="none" xmlns="http://www.w3.org/2000/svg">
<g filter="url(#filter0_d_436_11279)">
<path fill-rule="evenodd" clip-rule="evenodd" d="M12.846 30.7889C13.0663 30.6066 13.4021 30.6388 13.5805 30.8746L20.4852 39.8028C20.6636 40.0279 20.6321 40.3708 20.4013 40.5531L18.7538 41.8821C18.5334 42.0643 18.1976 42.0322 18.0192 41.7964L11.1145 32.8682C10.9362 32.6431 10.9676 32.3001 11.1985 32.1179L12.846 30.7889ZM24.5042 11.4427C24.5042 6.22294 28.6491 2 33.749 2C38.8488 2 42.9937 6.22294 42.9937 11.4427C42.9937 16.6624 38.8488 20.8853 33.749 20.8853C28.6386 20.8853 24.5042 16.6517 24.5042 11.4427ZM35.365 10.746L33.2348 9.62058C32.8854 9.43705 32.8874 9.10803 32.8884 8.938C32.8885 8.9293 32.8885 8.92101 32.8885 8.91318C32.92 8.75241 33.0249 8.46302 33.4237 8.42015C33.9588 8.36656 34.473 8.67738 34.6934 9.19185C34.9872 9.87781 35.7532 10.1886 36.4248 9.88853C37.0964 9.59914 37.4007 8.806 37.1069 8.13076C36.7291 7.24116 36.0575 6.56592 35.239 6.15863V5.66559C35.239 4.92604 34.6514 4.32583 33.9274 4.32583C33.2033 4.32583 32.6157 4.92604 32.6157 5.66559V5.86924C31.4404 6.19078 30.559 7.15541 30.3281 8.43087C30.0658 9.88853 30.7478 11.3248 32.028 12.0107L34.1582 13.1361C34.536 13.3398 34.515 13.7149 34.494 13.8328C34.4625 14.0257 34.3576 14.2615 33.9483 14.3258C33.4132 14.3687 32.899 14.0686 32.6786 13.5541C32.3953 12.8789 31.6188 12.5573 30.9577 12.8574C30.2966 13.1468 29.9818 13.94 30.2756 14.6152C30.7269 15.6763 31.5873 16.448 32.6157 16.791V16.9946C32.6157 17.7342 33.2033 18.3344 33.9274 18.3344C34.6514 18.3344 35.239 17.7342 35.239 16.9946V16.7053C36.2149 16.2658 36.9075 15.3762 37.0859 14.2401C37.3168 12.7931 36.6347 11.4105 35.365 10.746ZM43.7493 25.7942C44.8931 24.8832 46.5301 25.0868 47.4325 26.2444C48.3349 27.4019 48.1356 29.0954 47.0233 30.0279L38.0304 37.284C36.9075 38.1951 35.5119 38.6774 34.0743 38.6667L31.7028 38.6452L23.1401 38.5702C22.9827 38.5702 22.8253 38.4952 22.7309 38.3666L15.6583 29.224C15.4694 28.9989 15.5114 28.6559 15.7422 28.4737L19.3834 25.5477C20.4853 24.6581 21.8599 24.1758 23.266 24.1758H23.9586H25.8579H29.2263H34.1688C35.6169 24.1758 36.7921 25.3762 36.7921 26.8553C36.7921 28.3344 35.6169 29.5348 34.1688 29.5348H29.709C28.985 29.5348 28.3973 30.135 28.3973 30.8746C28.3973 31.6141 28.985 32.2144 29.709 32.2144L35.0292 32.2036C35.4909 32.2036 35.9526 32.0429 36.3199 31.7428L43.7493 25.7942Z" fill="white"/>
</g>
<g filter="url(#filter1_d_436_11279)">
<path d="M8.21016 62V53.1168H16.4148V55.0415H10.1472V56.596H15.1933V58.5207H10.1472V60.0753H16.4148V62H8.21016ZM17.6563 62V54.9428C17.6563 54.6055 17.7385 54.3012 17.903 54.0298C18.0675 53.7501 18.2896 53.528 18.5693 53.3635C18.8489 53.199 19.1533 53.1168 19.4823 53.1168H24.7012C25.0384 53.1168 25.3427 53.199 25.6142 53.3635C25.8938 53.528 26.1159 53.7501 26.2804 54.0298C26.4531 54.3012 26.5395 54.6055 26.5395 54.9428V62H24.6025V59.1376H19.5686V62H17.6563ZM19.5686 57.2129H24.6025V55.0415H19.5686V57.2129ZM34.8421 62L32.2635 58.9279H34.768L36.8161 61.3461V62H34.8421ZM27.9452 62V53.1291H34.9901C35.3274 53.1291 35.6317 53.2114 35.9031 53.3759C36.1828 53.5404 36.4049 53.7625 36.5694 54.0421C36.7421 54.3218 36.8284 54.6261 36.8284 54.9551V57.2499C36.8284 57.579 36.7421 57.8833 36.5694 58.1629C36.4049 58.4426 36.1828 58.6647 35.9031 58.8292C35.6317 58.9937 35.3274 59.0759 34.9901 59.0759L29.8576 59.0883V62H27.9452ZM29.8576 57.1512H34.8914V55.0415H29.8576V57.1512ZM38.1263 62V53.1168H40.1004L45.0725 59.0389V53.1168H47.0095V62H45.0355L40.0387 56.0532V62H38.1263Z" fill="white"/>
<path d="M8.21016 62H7.90171V62.3084H8.21016V62ZM8.21016 53.1168V52.8083H7.90171V53.1168H8.21016ZM16.4148 53.1168H16.7232V52.8083H16.4148V53.1168ZM16.4148 55.0415V55.3499H16.7232V55.0415H16.4148ZM10.1472 55.0415V54.733H9.83875V55.0415H10.1472ZM10.1472 56.596H9.83875V56.9045H10.1472V56.596ZM15.1933 56.596H15.5018V56.2876H15.1933V56.596ZM15.1933 58.5207V58.8292H15.5018V58.5207H15.1933ZM10.1472 58.5207V58.2123H9.83875V58.5207H10.1472ZM10.1472 60.0753H9.83875V60.3837H10.1472V60.0753ZM16.4148 60.0753H16.7232V59.7669H16.4148V60.0753ZM16.4148 62V62.3084H16.7232V62H16.4148ZM8.5186 62V53.1168H7.90171V62H8.5186ZM8.21016 53.4252H16.4148V52.8083H8.21016V53.4252ZM16.1063 53.1168V55.0415H16.7232V53.1168H16.1063ZM16.4148 54.733H10.1472V55.3499H16.4148V54.733ZM9.83875 55.0415V56.596H10.4556V55.0415H9.83875ZM10.1472 56.9045H15.1933V56.2876H10.1472V56.9045ZM14.8849 56.596V58.5207H15.5018V56.596H14.8849ZM15.1933 58.2123H10.1472V58.8292H15.1933V58.2123ZM9.83875 58.5207V60.0753H10.4556V58.5207H9.83875ZM10.1472 60.3837H16.4148V59.7669H10.1472V60.3837ZM16.1063 60.0753V62H16.7232V60.0753H16.1063ZM16.4148 61.6916H8.21016V62.3084H16.4148V61.6916ZM17.6563 62H17.3478V62.3084H17.6563V62ZM17.903 54.0298L18.1668 54.1897L18.1689 54.1862L17.903 54.0298ZM18.5693 53.3635L18.4129 53.0977L18.4129 53.0977L18.5693 53.3635ZM25.6142 53.3635L25.4543 53.6273L25.4578 53.6294L25.6142 53.3635ZM26.2804 54.0298L26.0144 54.1863L26.0202 54.1954L26.2804 54.0298ZM26.5395 62V62.3084H26.8479V62H26.5395ZM24.6025 62H24.294V62.3084H24.6025V62ZM24.6025 59.1376H24.9109V58.8292H24.6025V59.1376ZM19.5686 59.1376V58.8292H19.2602V59.1376H19.5686ZM19.5686 62V62.3084H19.8771V62H19.5686ZM19.5686 57.2129H19.2602V57.5214H19.5686V57.2129ZM24.6025 57.2129V57.5214H24.9109V57.2129H24.6025ZM24.6025 55.0415H24.9109V54.733H24.6025V55.0415ZM19.5686 55.0415V54.733H19.2602V55.0415H19.5686ZM17.9647 62V54.9428H17.3478V62H17.9647ZM17.9647 54.9428C17.9647 54.6582 18.0334 54.4098 18.1668 54.1897L17.6393 53.8699C17.4437 54.1926 17.3478 54.5528 17.3478 54.9428H17.9647ZM18.1689 54.1862C18.3068 53.9517 18.4912 53.7673 18.7257 53.6294L18.4129 53.0977C18.088 53.2888 17.8283 53.5485 17.6372 53.8734L18.1689 54.1862ZM18.7257 53.6294C18.9572 53.4932 19.2074 53.4252 19.4823 53.4252V52.8083C19.0991 52.8083 18.7406 52.9049 18.4129 53.0977L18.7257 53.6294ZM19.4823 53.4252H24.7012V52.8083H19.4823V53.4252ZM24.7012 53.4252C24.9857 53.4252 25.2341 53.4939 25.4543 53.6273L25.774 53.0998C25.4513 52.9042 25.0911 52.8083 24.7012 52.8083V53.4252ZM25.4578 53.6294C25.6922 53.7673 25.8766 53.9517 26.0145 54.1862L26.5463 53.8734C26.3552 53.5485 26.0954 53.2888 25.7705 53.0977L25.4578 53.6294ZM26.0202 54.1954C26.1599 54.4149 26.2311 54.6612 26.2311 54.9428H26.8479C26.8479 54.5499 26.7464 54.1876 26.5406 53.8642L26.0202 54.1954ZM26.2311 54.9428V62H26.8479V54.9428H26.2311ZM26.5395 61.6916H24.6025V62.3084H26.5395V61.6916ZM24.9109 62V59.1376H24.294V62H24.9109ZM24.6025 58.8292H19.5686V59.4461H24.6025V58.8292ZM19.2602 59.1376V62H19.8771V59.1376H19.2602ZM19.5686 61.6916H17.6563V62.3084H19.5686V61.6916ZM19.5686 57.5214H24.6025V56.9045H19.5686V57.5214ZM24.9109 57.2129V55.0415H24.294V57.2129H24.9109ZM24.6025 54.733H19.5686V55.3499H24.6025V54.733ZM19.2602 55.0415V57.2129H19.8771V55.0415H19.2602ZM34.8421 62L34.6058 62.1983L34.6983 62.3084H34.8421V62ZM32.2635 58.9279V58.6194H31.6019L32.0272 59.1262L32.2635 58.9279ZM34.768 58.9279L35.0034 58.7285L34.911 58.6194H34.768V58.9279ZM36.8161 61.3461H37.1246V61.233L37.0515 61.1468L36.8161 61.3461ZM36.8161 62V62.3084H37.1246V62H36.8161ZM27.9452 62H27.6368V62.3084H27.9452V62ZM27.9452 53.1291V52.8207H27.6368V53.1291H27.9452ZM35.9031 53.3759L35.7432 53.6397L35.7467 53.6417L35.9031 53.3759ZM36.5694 54.0421L36.3034 54.1985L36.3069 54.2042L36.5694 54.0421ZM36.5694 58.1629L36.3069 58.0008L36.3035 58.0066L36.5694 58.1629ZM35.9031 58.8292L35.7467 58.5633L35.7432 58.5654L35.9031 58.8292ZM34.9901 59.0759V58.7675L34.9894 58.7675L34.9901 59.0759ZM29.8576 59.0883L29.8569 58.7798L29.5491 58.7806V59.0883H29.8576ZM29.8576 62V62.3084H30.166V62H29.8576ZM29.8576 57.1512H29.5491V57.4597H29.8576V57.1512ZM34.8914 57.1512V57.4597H35.1999V57.1512H34.8914ZM34.8914 55.0415H35.1999V54.733H34.8914V55.0415ZM29.8576 55.0415V54.733H29.5491V55.0415H29.8576ZM35.0783 61.8017L32.4997 58.7296L32.0272 59.1262L34.6058 62.1983L35.0783 61.8017ZM32.2635 59.2363H34.768V58.6194H32.2635V59.2363ZM34.5327 59.1272L36.5807 61.5454L37.0515 61.1468L35.0034 58.7285L34.5327 59.1272ZM36.5077 61.3461V62H37.1246V61.3461H36.5077ZM36.8161 61.6916H34.8421V62.3084H36.8161V61.6916ZM28.2537 62V53.1291H27.6368V62H28.2537ZM27.9452 53.4376H34.9901V52.8207H27.9452V53.4376ZM34.9901 53.4376C35.2747 53.4376 35.5231 53.5062 35.7432 53.6397L36.063 53.1121C35.7403 52.9165 35.3801 52.8207 34.9901 52.8207V53.4376ZM35.7467 53.6417C35.9812 53.7797 36.1656 53.9641 36.3035 54.1985L36.8352 53.8857C36.6441 53.5609 36.3844 53.3011 36.0595 53.11L35.7467 53.6417ZM36.3069 54.2042C36.4495 54.4351 36.52 54.6833 36.52 54.9551H37.1369C37.1369 54.5689 37.0346 54.2085 36.8318 53.88L36.3069 54.2042ZM36.52 54.9551V57.2499H37.1369V54.9551H36.52ZM36.52 57.2499C36.52 57.5218 36.4495 57.77 36.3069 58.0009L36.8318 58.325C37.0346 57.9966 37.1369 57.6362 37.1369 57.2499H36.52ZM36.3035 58.0066C36.1656 58.241 35.9812 58.4254 35.7467 58.5633L36.0595 59.095C36.3844 58.904 36.6441 58.6442 36.8352 58.3193L36.3035 58.0066ZM35.7432 58.5654C35.5231 58.6988 35.2747 58.7675 34.9901 58.7675V59.3844C35.3801 59.3844 35.7403 59.2885 36.063 59.093L35.7432 58.5654ZM34.9894 58.7675L29.8569 58.7798L29.8583 59.3967L34.9909 59.3844L34.9894 58.7675ZM29.5491 59.0883V62H30.166V59.0883H29.5491ZM29.8576 61.6916H27.9452V62.3084H29.8576V61.6916ZM29.8576 57.4597H34.8914V56.8428H29.8576V57.4597ZM35.1999 57.1512V55.0415H34.583V57.1512H35.1999ZM34.8914 54.733H29.8576V55.3499H34.8914V54.733ZM29.5491 55.0415V57.1512H30.166V55.0415H29.5491ZM38.1263 62H37.8179V62.3084H38.1263V62ZM38.1263 53.1168V52.8083H37.8179V53.1168H38.1263ZM40.1004 53.1168L40.3366 52.9185L40.2442 52.8083H40.1004V53.1168ZM45.0725 59.0389L44.8363 59.2373L45.381 59.886V59.0389H45.0725ZM45.0725 53.1168V52.8083H44.7641V53.1168H45.0725ZM47.0095 53.1168H47.318V52.8083H47.0095V53.1168ZM47.0095 62V62.3084H47.318V62H47.0095ZM45.0355 62L44.7993 62.1984L44.8918 62.3084H45.0355V62ZM40.0387 56.0532L40.2748 55.8548L39.7302 55.2066V56.0532H40.0387ZM40.0387 62V62.3084H40.3471V62H40.0387ZM38.4348 62V53.1168H37.8179V62H38.4348ZM38.1263 53.4252H40.1004V52.8083H38.1263V53.4252ZM39.8641 53.3151L44.8363 59.2373L45.3087 58.8406L40.3366 52.9185L39.8641 53.3151ZM45.381 59.0389V53.1168H44.7641V59.0389H45.381ZM45.0725 53.4252H47.0095V52.8083H45.0725V53.4252ZM46.7011 53.1168V62H47.318V53.1168H46.7011ZM47.0095 61.6916H45.0355V62.3084H47.0095V61.6916ZM45.2716 61.8016L40.2748 55.8548L39.8025 56.2516L44.7993 62.1984L45.2716 61.8016ZM39.7302 56.0532V62H40.3471V56.0532H39.7302ZM40.0387 61.6916H38.1263V62.3084H40.0387V61.6916Z" fill="white"/>
</g>
<defs>
<filter id="filter0_d_436_11279" x="7" y="0" width="45.0005" height="47.9991" filterUnits="userSpaceOnUse" color-interpolation-filters="sRGB">
<feFlood flood-opacity="0" result="BackgroundImageFix"/>
<feColorMatrix in="SourceAlpha" type="matrix" values="0 0 0 0 0 0 0 0 0 0 0 0 0 0 0 0 0 0 127 0" result="hardAlpha"/>
<feOffset dy="2"/>
<feGaussianBlur stdDeviation="2"/>
<feComposite in2="hardAlpha" operator="out"/>
<feColorMatrix type="matrix" values="0 0 0 0 0 0 0 0 0 0 0 0 0 0 0 0 0 0 0.15 0"/>
<feBlend mode="normal" in2="BackgroundImageFix" result="effect1_dropShadow_436_11279"/>
<feBlend mode="normal" in="SourceGraphic" in2="effect1_dropShadow_436_11279" result="shape"/>
</filter>
<filter id="filter1_d_436_11279" x="7.59332" y="52.4999" width="42.5007" height="12.5846" filterUnits="userSpaceOnUse" color-interpolation-filters="sRGB">
<feFlood flood-opacity="0" result="BackgroundImageFix"/>
<feColorMatrix in="SourceAlpha" type="matrix" values="0 0 0 0 0 0 0 0 0 0 0 0 0 0 0 0 0 0 127 0" result="hardAlpha"/>
<feOffset dx="1.23378" dy="1.23378"/>
<feGaussianBlur stdDeviation="0.925335"/>
<feComposite in2="hardAlpha" operator="out"/>
<feColorMatrix type="matrix" values="0 0 0 0 0 0 0 0 0 0 0 0 0 0 0 0 0 0 0.15 0"/>
<feBlend mode="normal" in2="BackgroundImageFix" result="effect1_dropShadow_436_11279"/>
<feBlend mode="normal" in="SourceGraphic" in2="effect1_dropShadow_436_11279" result="shape"/>
</filter>
</defs>
</svg>
