<svg width="56" height="67" viewBox="0 0 56 67" fill="none" xmlns="http://www.w3.org/2000/svg">
<g filter="url(#filter0_d_436_11284)">
<path fill-rule="evenodd" clip-rule="evenodd" d="M12.8459 30.7889C13.0663 30.6066 13.4021 30.6388 13.5805 30.8746L20.4852 39.8028C20.6636 40.0279 20.6321 40.3708 20.4012 40.5531L18.7538 41.8821C18.5334 42.0643 18.1976 42.0322 18.0192 41.7964L11.1145 32.8682C10.9361 32.6431 10.9676 32.3001 11.1985 32.1179L12.8459 30.7889ZM24.5042 11.4427C24.5042 6.22294 28.6491 2 33.749 2C38.8488 2 42.9937 6.22294 42.9937 11.4427C42.9937 16.6624 38.8488 20.8853 33.749 20.8853C28.6386 20.8853 24.5042 16.6517 24.5042 11.4427ZM35.3649 10.746L33.2348 9.62058C32.8854 9.43705 32.8874 9.10803 32.8884 8.938C32.8884 8.9293 32.8885 8.92101 32.8885 8.91318C32.92 8.75241 33.0249 8.46302 33.4237 8.42015C33.9588 8.36656 34.473 8.67738 34.6934 9.19185C34.9872 9.87781 35.7532 10.1886 36.4248 9.88853C37.0964 9.59914 37.4007 8.806 37.1069 8.13076C36.7291 7.24116 36.0575 6.56592 35.239 6.15863V5.66559C35.239 4.92604 34.6514 4.32583 33.9273 4.32583C33.2033 4.32583 32.6157 4.92604 32.6157 5.66559V5.86924C31.4404 6.19078 30.5589 7.15541 30.3281 8.43087C30.0657 9.88853 30.7478 11.3248 32.028 12.0107L34.1582 13.1361C34.536 13.3398 34.515 13.7149 34.494 13.8328C34.4625 14.0257 34.3576 14.2615 33.9483 14.3258C33.4132 14.3687 32.899 14.0686 32.6786 13.5541C32.3953 12.8789 31.6188 12.5573 30.9577 12.8574C30.2966 13.1468 29.9818 13.94 30.2756 14.6152C30.7268 15.6763 31.5873 16.448 32.6157 16.791V16.9946C32.6157 17.7342 33.2033 18.3344 33.9273 18.3344C34.6514 18.3344 35.239 17.7342 35.239 16.9946V16.7053C36.2149 16.2658 36.9075 15.3762 37.0859 14.2401C37.3167 12.7931 36.6347 11.4105 35.3649 10.746ZM43.7493 25.7942C44.8931 24.8832 46.53 25.0868 47.4325 26.2444C48.3349 27.4019 48.1355 29.0954 47.0232 30.0279L38.0303 37.284C36.9075 38.1951 35.5119 38.6774 34.0743 38.6667L31.7028 38.6452L23.1401 38.5702C22.9827 38.5702 22.8253 38.4952 22.7308 38.3666L15.6582 29.224C15.4694 28.9989 15.5113 28.6559 15.7422 28.4737L19.3834 25.5477C20.4852 24.6581 21.8599 24.1758 23.266 24.1758H23.9586H25.8579H29.2263H34.1687C35.6168 24.1758 36.7921 25.3762 36.7921 26.8553C36.7921 28.3344 35.6168 29.5348 34.1687 29.5348H29.709C28.985 29.5348 28.3973 30.135 28.3973 30.8746C28.3973 31.6141 28.985 32.2144 29.709 32.2144L35.0292 32.2036C35.4909 32.2036 35.9526 32.0429 36.3199 31.7428L43.7493 25.7942Z" fill="url(#paint0_linear_436_11284)"/>
</g>
<g filter="url(#filter1_d_436_11284)">
<path d="M8.21016 62V53.1168H16.4148V55.0415H10.1472V56.596H15.1933V58.5207H10.1472V60.0753H16.4148V62H8.21016ZM17.6563 62V54.9428C17.6563 54.6055 17.7385 54.3012 17.903 54.0298C18.0675 53.7501 18.2896 53.528 18.5693 53.3635C18.8489 53.199 19.1533 53.1168 19.4823 53.1168H24.7012C25.0384 53.1168 25.3427 53.199 25.6142 53.3635C25.8938 53.528 26.1159 53.7501 26.2804 54.0298C26.4531 54.3012 26.5395 54.6055 26.5395 54.9428V62H24.6025V59.1376H19.5686V62H17.6563ZM19.5686 57.2129H24.6025V55.0415H19.5686V57.2129ZM34.8421 62L32.2635 58.9279H34.768L36.8161 61.3461V62H34.8421ZM27.9452 62V53.1291H34.9901C35.3274 53.1291 35.6317 53.2114 35.9031 53.3759C36.1828 53.5404 36.4049 53.7625 36.5694 54.0421C36.7421 54.3218 36.8284 54.6261 36.8284 54.9551V57.2499C36.8284 57.579 36.7421 57.8833 36.5694 58.1629C36.4049 58.4426 36.1828 58.6647 35.9031 58.8292C35.6317 58.9937 35.3274 59.0759 34.9901 59.0759L29.8576 59.0883V62H27.9452ZM29.8576 57.1512H34.8914V55.0415H29.8576V57.1512ZM38.1263 62V53.1168H40.1004L45.0725 59.0389V53.1168H47.0095V62H45.0355L40.0387 56.0532V62H38.1263Z" fill="url(#paint1_linear_436_11284)"/>
</g>
<defs>
<filter id="filter0_d_436_11284" x="7" y="0" width="45.0005" height="47.9991" filterUnits="userSpaceOnUse" color-interpolation-filters="sRGB">
<feFlood flood-opacity="0" result="BackgroundImageFix"/>
<feColorMatrix in="SourceAlpha" type="matrix" values="0 0 0 0 0 0 0 0 0 0 0 0 0 0 0 0 0 0 127 0" result="hardAlpha"/>
<feOffset dy="2"/>
<feGaussianBlur stdDeviation="2"/>
<feComposite in2="hardAlpha" operator="out"/>
<feColorMatrix type="matrix" values="0 0 0 0 0 0 0 0 0 0 0 0 0 0 0 0 0 0 0.15 0"/>
<feBlend mode="normal" in2="BackgroundImageFix" result="effect1_dropShadow_436_11284"/>
<feBlend mode="normal" in="SourceGraphic" in2="effect1_dropShadow_436_11284" result="shape"/>
</filter>
<filter id="filter1_d_436_11284" x="7.59332" y="52.4999" width="42.5007" height="12.5846" filterUnits="userSpaceOnUse" color-interpolation-filters="sRGB">
<feFlood flood-opacity="0" result="BackgroundImageFix"/>
<feColorMatrix in="SourceAlpha" type="matrix" values="0 0 0 0 0 0 0 0 0 0 0 0 0 0 0 0 0 0 127 0" result="hardAlpha"/>
<feOffset dx="1.23378" dy="1.23378"/>
<feGaussianBlur stdDeviation="0.925335"/>
<feComposite in2="hardAlpha" operator="out"/>
<feColorMatrix type="matrix" values="0 0 0 0 0 0 0 0 0 0 0 0 0 0 0 0 0 0 0.15 0"/>
<feBlend mode="normal" in2="BackgroundImageFix" result="effect1_dropShadow_436_11284"/>
<feBlend mode="normal" in="SourceGraphic" in2="effect1_dropShadow_436_11284" result="shape"/>
</filter>
<linearGradient id="paint0_linear_436_11284" x1="20.3541" y1="5.08237" x2="36.2779" y2="41.612" gradientUnits="userSpaceOnUse">
<stop stop-color="#FFE856"/>
<stop offset="1" stop-color="#FBD241"/>
</linearGradient>
<linearGradient id="paint1_linear_436_11284" x1="13.9539" y1="51.236" x2="15.9688" y2="68.4312" gradientUnits="userSpaceOnUse">
<stop stop-color="#FFE856"/>
<stop offset="1" stop-color="#FBD241"/>
</linearGradient>
</defs>
</svg>
