<svg width="156" height="40" viewBox="0 0 156 40" fill="none" xmlns="http://www.w3.org/2000/svg">
<path d="M4.51344 22.6489L23.2549 4.41616C24.1883 3.50808 25.4391 3 26.7414 3H148C150.761 3 153 5.23858 153 8V11.3643C153 12.6116 152.534 13.8138 151.693 14.735L132.859 35.3706C131.912 36.4086 130.571 37 129.166 37H8C5.23858 37 3 34.7614 3 32V26.2327C3 24.8828 3.54585 23.5902 4.51344 22.6489Z" fill="url(#paint0_linear_77_10884)" stroke="white" stroke-opacity="0.2" stroke-width="5" stroke-linejoin="round"/>
<g filter="url(#filter0_d_77_10884)">
<path d="M45.1561 27V12.6H48.2561V18.24H56.7561V12.6H59.8561V27H56.7561V21.36H48.2561V27H45.1561ZM65.0679 27C64.5345 27 64.0412 26.8667 63.5879 26.6C63.1345 26.3333 62.7745 25.9733 62.5079 25.52C62.2412 25.0667 62.1079 24.5733 62.1079 24.04V15.56C62.1079 15.0133 62.2412 14.52 62.5079 14.08C62.7745 13.6267 63.1345 13.2667 63.5879 13C64.0412 12.7333 64.5345 12.6 65.0679 12.6H73.5479C74.0812 12.6 74.5679 12.7333 75.0079 13C75.4612 13.2667 75.8212 13.6267 76.0879 14.08C76.3679 14.52 76.5079 15.0133 76.5079 15.56V24.04C76.5079 24.5733 76.3679 25.0667 76.0879 25.52C75.8212 25.9733 75.4612 26.3333 75.0079 26.6C74.5679 26.8667 74.0812 27 73.5479 27H65.0679ZM65.2079 23.88H73.3679V15.72H65.2079V23.88ZM78.7104 27V12.6H81.9104L86.7904 18.42L91.6504 12.6H94.8704V27H91.7504V17.34L86.7904 23.26L81.8104 17.36V27H78.7104ZM97.305 27V12.6H110.605V15.72H100.445V18.24H108.625V21.36H100.445V23.88H110.605V27H97.305Z" fill="white"/>
<path d="M45.1561 27H44.6561V27.5H45.1561V27ZM45.1561 12.6V12.1H44.6561V12.6H45.1561ZM48.2561 12.6H48.7561V12.1H48.2561V12.6ZM48.2561 18.24H47.7561V18.74H48.2561V18.24ZM56.7561 18.24V18.74H57.2561V18.24H56.7561ZM56.7561 12.6V12.1H56.2561V12.6H56.7561ZM59.8561 12.6H60.3561V12.1H59.8561V12.6ZM59.8561 27V27.5H60.3561V27H59.8561ZM56.7561 27H56.2561V27.5H56.7561V27ZM56.7561 21.36H57.2561V20.86H56.7561V21.36ZM48.2561 21.36V20.86H47.7561V21.36H48.2561ZM48.2561 27V27.5H48.7561V27H48.2561ZM45.6561 27V12.6H44.6561V27H45.6561ZM45.1561 13.1H48.2561V12.1H45.1561V13.1ZM47.7561 12.6V18.24H48.7561V12.6H47.7561ZM48.2561 18.74H56.7561V17.74H48.2561V18.74ZM57.2561 18.24V12.6H56.2561V18.24H57.2561ZM56.7561 13.1H59.8561V12.1H56.7561V13.1ZM59.3561 12.6V27H60.3561V12.6H59.3561ZM59.8561 26.5H56.7561V27.5H59.8561V26.5ZM57.2561 27V21.36H56.2561V27H57.2561ZM56.7561 20.86H48.2561V21.86H56.7561V20.86ZM47.7561 21.36V27H48.7561V21.36H47.7561ZM48.2561 26.5H45.1561V27.5H48.2561V26.5ZM63.5879 26.6L63.8414 26.169L63.5879 26.6ZM62.5079 25.52L62.0769 25.7735L62.5079 25.52ZM62.5079 14.08L62.9355 14.3392L62.9388 14.3335L62.5079 14.08ZM63.5879 13L63.3343 12.569V12.569L63.5879 13ZM75.0079 13L74.7487 13.4276L74.7543 13.431L75.0079 13ZM76.0879 14.08L75.6569 14.3335L75.6613 14.3411L75.666 14.3484L76.0879 14.08ZM76.0879 25.52L75.6624 25.2572L75.6569 25.2665L76.0879 25.52ZM75.0079 26.6L74.7543 26.169L74.7487 26.1724L75.0079 26.6ZM65.2079 23.88H64.7079V24.38H65.2079V23.88ZM73.3679 23.88V24.38H73.8679V23.88H73.3679ZM73.3679 15.72H73.8679V15.22H73.3679V15.72ZM65.2079 15.72V15.22H64.7079V15.72H65.2079ZM65.0679 26.5C64.6224 26.5 64.2167 26.3898 63.8414 26.169L63.3343 27.031C63.8656 27.3435 64.4467 27.5 65.0679 27.5V26.5ZM63.8414 26.169C63.4613 25.9455 63.1624 25.6465 62.9388 25.2665L62.0769 25.7735C62.3867 26.3001 62.8077 26.7212 63.3343 27.031L63.8414 26.169ZM62.9388 25.2665C62.718 24.8911 62.6079 24.4855 62.6079 24.04H61.6079C61.6079 24.6612 61.7644 25.2422 62.0769 25.7735L62.9388 25.2665ZM62.6079 24.04V15.56H61.6079V24.04H62.6079ZM62.6079 15.56C62.6079 15.0988 62.7191 14.6961 62.9355 14.3392L62.0803 13.8208C61.7632 14.3439 61.6079 14.9279 61.6079 15.56H62.6079ZM62.9388 14.3335C63.1624 13.9535 63.4613 13.6545 63.8414 13.431L63.3343 12.569C62.8077 12.8788 62.3867 13.2999 62.0769 13.8265L62.9388 14.3335ZM63.8414 13.431C64.2167 13.2102 64.6224 13.1 65.0679 13.1V12.1C64.4467 12.1 63.8656 12.2565 63.3343 12.569L63.8414 13.431ZM65.0679 13.1H73.5479V12.1H65.0679V13.1ZM73.5479 13.1C73.9933 13.1 74.3898 13.2101 74.7487 13.4276L75.267 12.5724C74.7459 12.2566 74.1691 12.1 73.5479 12.1V13.1ZM74.7543 13.431C75.1344 13.6545 75.4333 13.9535 75.6569 14.3335L76.5188 13.8265C76.2091 13.2999 75.788 12.8788 75.2614 12.569L74.7543 13.431ZM75.666 14.3484C75.8925 14.7042 76.0079 15.1036 76.0079 15.56H77.0079C77.0079 14.9231 76.8433 14.3358 76.5097 13.8116L75.666 14.3484ZM76.0079 15.56V24.04H77.0079V15.56H76.0079ZM76.0079 24.04C76.0079 24.4806 75.8936 24.883 75.6625 25.2573L76.5133 25.7827C76.8421 25.2504 77.0079 24.666 77.0079 24.04H76.0079ZM75.6569 25.2665C75.4333 25.6465 75.1344 25.9455 74.7543 26.169L75.2614 27.031C75.788 26.7212 76.2091 26.3001 76.5188 25.7735L75.6569 25.2665ZM74.7487 26.1724C74.3898 26.3899 73.9933 26.5 73.5479 26.5V27.5C74.1691 27.5 74.7459 27.3434 75.267 27.0276L74.7487 26.1724ZM73.5479 26.5H65.0679V27.5H73.5479V26.5ZM65.2079 24.38H73.3679V23.38H65.2079V24.38ZM73.8679 23.88V15.72H72.8679V23.88H73.8679ZM73.3679 15.22H65.2079V16.22H73.3679V15.22ZM64.7079 15.72V23.88H65.7079V15.72H64.7079ZM78.7104 27H78.2104V27.5H78.7104V27ZM78.7104 12.6V12.1H78.2104V12.6H78.7104ZM81.9104 12.6L82.2935 12.2787L82.1436 12.1H81.9104V12.6ZM86.7904 18.42L86.4072 18.7413L86.7911 19.1991L87.1741 18.7405L86.7904 18.42ZM91.6504 12.6V12.1H91.4165L91.2666 12.2795L91.6504 12.6ZM94.8704 12.6H95.3704V12.1H94.8704V12.6ZM94.8704 27V27.5H95.3704V27H94.8704ZM91.7504 27H91.2504V27.5H91.7504V27ZM91.7504 17.34H92.2504V15.9647L91.3671 17.0189L91.7504 17.34ZM86.7904 23.26L86.4083 23.5825L86.7918 24.0369L87.1736 23.5811L86.7904 23.26ZM81.8104 17.36L82.1924 17.0375L81.3104 15.9925V17.36H81.8104ZM81.8104 27V27.5H82.3104V27H81.8104ZM79.2104 27V12.6H78.2104V27H79.2104ZM78.7104 13.1H81.9104V12.1H78.7104V13.1ZM81.5272 12.9213L86.4072 18.7413L87.1735 18.0987L82.2935 12.2787L81.5272 12.9213ZM87.1741 18.7405L92.0341 12.9205L91.2666 12.2795L86.4066 18.0995L87.1741 18.7405ZM91.6504 13.1H94.8704V12.1H91.6504V13.1ZM94.3704 12.6V27H95.3704V12.6H94.3704ZM94.8704 26.5H91.7504V27.5H94.8704V26.5ZM92.2504 27V17.34H91.2504V27H92.2504ZM91.3671 17.0189L86.4071 22.9389L87.1736 23.5811L92.1336 17.6611L91.3671 17.0189ZM87.1724 22.9375L82.1924 17.0375L81.4283 17.6825L86.4083 23.5825L87.1724 22.9375ZM81.3104 17.36V27H82.3104V17.36H81.3104ZM81.8104 26.5H78.7104V27.5H81.8104V26.5ZM97.305 27H96.805V27.5H97.305V27ZM97.305 12.6V12.1H96.805V12.6H97.305ZM110.605 12.6H111.105V12.1H110.605V12.6ZM110.605 15.72V16.22H111.105V15.72H110.605ZM100.445 15.72V15.22H99.945V15.72H100.445ZM100.445 18.24H99.945V18.74H100.445V18.24ZM108.625 18.24H109.125V17.74H108.625V18.24ZM108.625 21.36V21.86H109.125V21.36H108.625ZM100.445 21.36V20.86H99.945V21.36H100.445ZM100.445 23.88H99.945V24.38H100.445V23.88ZM110.605 23.88H111.105V23.38H110.605V23.88ZM110.605 27V27.5H111.105V27H110.605ZM97.805 27V12.6H96.805V27H97.805ZM97.305 13.1H110.605V12.1H97.305V13.1ZM110.105 12.6V15.72H111.105V12.6H110.105ZM110.605 15.22H100.445V16.22H110.605V15.22ZM99.945 15.72V18.24H100.945V15.72H99.945ZM100.445 18.74H108.625V17.74H100.445V18.74ZM108.125 18.24V21.36H109.125V18.24H108.125ZM108.625 20.86H100.445V21.86H108.625V20.86ZM99.945 21.36V23.88H100.945V21.36H99.945ZM100.445 24.38H110.605V23.38H100.445V24.38ZM110.105 23.88V27H111.105V23.88H110.105ZM110.605 26.5H97.305V27.5H110.605V26.5Z" fill="white"/>
</g>
<defs>
<filter id="filter0_d_77_10884" x="44.1561" y="11.6" width="71.4489" height="20.4" filterUnits="userSpaceOnUse" color-interpolation-filters="sRGB">
<feFlood flood-opacity="0" result="BackgroundImageFix"/>
<feColorMatrix in="SourceAlpha" type="matrix" values="0 0 0 0 0 0 0 0 0 0 0 0 0 0 0 0 0 0 127 0" result="hardAlpha"/>
<feOffset dx="2" dy="2"/>
<feGaussianBlur stdDeviation="1.5"/>
<feComposite in2="hardAlpha" operator="out"/>
<feColorMatrix type="matrix" values="0 0 0 0 0 0 0 0 0 0 0 0 0 0 0 0 0 0 0.15 0"/>
<feBlend mode="normal" in2="BackgroundImageFix" result="effect1_dropShadow_77_10884"/>
<feBlend mode="normal" in="SourceGraphic" in2="effect1_dropShadow_77_10884" result="shape"/>
</filter>
<linearGradient id="paint0_linear_77_10884" x1="13.0481" y1="28.5" x2="36.1795" y2="-30.4187" gradientUnits="userSpaceOnUse">
<stop stop-color="#FAD0C4"/>
<stop offset="1" stop-color="#FBC2EB"/>
</linearGradient>
</defs>
</svg>
