<svg width="56" height="67" viewBox="0 0 56 67" fill="none" xmlns="http://www.w3.org/2000/svg">
<g filter="url(#filter0_d_436_11276)">
<path fill-rule="evenodd" clip-rule="evenodd" d="M25.6535 3.03163C26.4261 2.36594 27.4103 2 28.4281 2C29.4459 2 30.4302 2.36594 31.2028 3.03163L44.7052 14.6573L50.0052 18.9179C50.2237 19.0936 50.4057 19.3108 50.5407 19.5572C50.6757 19.8036 50.7611 20.0743 50.7919 20.3538C50.8228 20.6333 50.7986 20.9162 50.7206 21.1864C50.6427 21.4565 50.5125 21.7085 50.3376 21.9281C50.1627 22.1477 49.9465 22.3305 49.7012 22.4661C49.456 22.6018 49.1866 22.6875 48.9083 22.7186C48.6301 22.7496 48.3485 22.7252 48.0796 22.6469C47.8108 22.5686 47.5599 22.4378 47.3413 22.2621L45.4767 20.7634V37.718C45.4767 38.8537 45.0276 39.9428 44.2283 40.7458C43.429 41.5489 42.3449 42 41.2145 42H32.6903V31.295C32.6903 30.1593 32.2412 29.0702 31.4419 28.2672C30.6426 27.4641 29.5585 27.013 28.4281 27.013C27.2977 27.013 26.2136 27.4641 25.4143 28.2672C24.615 29.0702 24.166 30.1593 24.166 31.295V42H15.6417C14.5113 42 13.4272 41.5489 12.6279 40.7458C11.8286 39.9428 11.3796 38.8537 11.3796 37.718V20.7613L9.51491 22.26C9.29783 22.4462 9.04572 22.5867 8.77354 22.6732C8.50137 22.7596 8.21468 22.7903 7.93049 22.7633C7.6463 22.7363 7.3704 22.6522 7.11918 22.516C6.86795 22.3799 6.64652 22.1944 6.46802 21.9706C6.28953 21.7468 6.1576 21.4892 6.08008 21.2132C6.00256 20.9372 5.98103 20.6483 6.01676 20.3638C6.05249 20.0793 6.14475 19.8049 6.28807 19.5568C6.43139 19.3088 6.62285 19.0923 6.85108 18.92L12.151 14.6594L25.6535 3.03163Z" fill="white"/>
</g>
<g filter="url(#filter1_d_436_11276)">
<path d="M7.499 62V53.1168H9.41136V56.596H14.6549V53.1168H16.5673V62H14.6549V58.5207H9.41136V62H7.499ZM19.7823 62C19.4533 62 19.149 61.9177 18.8693 61.7532C18.5897 61.5887 18.3676 61.3667 18.2031 61.087C18.0386 60.8073 17.9563 60.503 17.9563 60.174V54.9428C17.9563 54.6055 18.0386 54.3012 18.2031 54.0298C18.3676 53.7501 18.5897 53.528 18.8693 53.3635C19.149 53.199 19.4533 53.1168 19.7823 53.1168H25.0136C25.3426 53.1168 25.6428 53.199 25.9142 53.3635C26.1939 53.528 26.416 53.7501 26.5805 54.0298C26.7532 54.3012 26.8396 54.6055 26.8396 54.9428V60.174C26.8396 60.503 26.7532 60.8073 26.5805 61.087C26.416 61.3667 26.1939 61.5887 25.9142 61.7532C25.6428 61.9177 25.3426 62 25.0136 62H19.7823ZM19.8687 60.0753H24.9025V55.0415H19.8687V60.0753ZM28.1983 62V53.1168H30.1723L33.1827 56.7071L36.1808 53.1168H38.1672V62H36.2425V56.0408L33.1827 59.6928L30.1106 56.0532V62H28.1983ZM39.6691 62V53.1168H47.8738V55.0415H41.6062V56.596H46.6523V58.5207H41.6062V60.0753H47.8738V62H39.6691Z" fill="white"/>
<path d="M7.499 62H7.19055V62.3084H7.499V62ZM7.499 53.1168V52.8083H7.19055V53.1168H7.499ZM9.41136 53.1168H9.7198V52.8083H9.41136V53.1168ZM9.41136 56.596H9.10291V56.9045H9.41136V56.596ZM14.6549 56.596V56.9045H14.9634V56.596H14.6549ZM14.6549 53.1168V52.8083H14.3465V53.1168H14.6549ZM16.5673 53.1168H16.8757V52.8083H16.5673V53.1168ZM16.5673 62V62.3084H16.8757V62H16.5673ZM14.6549 62H14.3465V62.3084H14.6549V62ZM14.6549 58.5207H14.9634V58.2123H14.6549V58.5207ZM9.41136 58.5207V58.2123H9.10291V58.5207H9.41136ZM9.41136 62V62.3084H9.7198V62H9.41136ZM7.80744 62V53.1168H7.19055V62H7.80744ZM7.499 53.4252H9.41136V52.8083H7.499V53.4252ZM9.10291 53.1168V56.596H9.7198V53.1168H9.10291ZM9.41136 56.9045H14.6549V56.2876H9.41136V56.9045ZM14.9634 56.596V53.1168H14.3465V56.596H14.9634ZM14.6549 53.4252H16.5673V52.8083H14.6549V53.4252ZM16.2588 53.1168V62H16.8757V53.1168H16.2588ZM16.5673 61.6916H14.6549V62.3084H16.5673V61.6916ZM14.9634 62V58.5207H14.3465V62H14.9634ZM14.6549 58.2123H9.41136V58.8292H14.6549V58.2123ZM9.10291 58.5207V62H9.7198V58.5207H9.10291ZM9.41136 61.6916H7.499V62.3084H9.41136V61.6916ZM18.8693 61.7532L19.0257 61.4874L18.8693 61.7532ZM18.2031 61.087L17.9372 61.2434L18.2031 61.087ZM18.2031 54.0298L18.4669 54.1897L18.469 54.1862L18.2031 54.0298ZM18.8693 53.3635L18.7129 53.0977V53.0977L18.8693 53.3635ZM25.9142 53.3635L25.7543 53.6273L25.7578 53.6294L25.9142 53.3635ZM26.5805 54.0298L26.3144 54.1863L26.3202 54.1954L26.5805 54.0298ZM26.5805 61.087L26.318 60.9249L26.3146 60.9306L26.5805 61.087ZM25.9142 61.7532L25.7578 61.4874L25.7544 61.4895L25.9142 61.7532ZM19.8687 60.0753H19.5603V60.3837H19.8687V60.0753ZM24.9025 60.0753V60.3837H25.211V60.0753H24.9025ZM24.9025 55.0415H25.211V54.733H24.9025V55.0415ZM19.8687 55.0415V54.733H19.5603V55.0415H19.8687ZM19.7823 61.6916C19.5075 61.6916 19.2573 61.6236 19.0257 61.4874L18.7129 62.0191C19.0407 62.2119 19.3991 62.3084 19.7823 62.3084V61.6916ZM19.0257 61.4874C18.7913 61.3495 18.6069 61.1651 18.469 60.9306L17.9372 61.2434C18.1283 61.5683 18.3881 61.828 18.7129 62.0191L19.0257 61.4874ZM18.469 60.9306C18.3327 60.6991 18.2648 60.4488 18.2648 60.174H17.6479C17.6479 60.5572 17.7444 60.9156 17.9372 61.2434L18.469 60.9306ZM18.2648 60.174V54.9428H17.6479V60.174H18.2648ZM18.2648 54.9428C18.2648 54.6582 18.3334 54.4098 18.4669 54.1897L17.9393 53.8699C17.7437 54.1926 17.6479 54.5528 17.6479 54.9428H18.2648ZM18.469 54.1862C18.6069 53.9517 18.7913 53.7673 19.0257 53.6294L18.7129 53.0977C18.3881 53.2888 18.1283 53.5485 17.9372 53.8734L18.469 54.1862ZM19.0257 53.6294C19.2573 53.4932 19.5075 53.4252 19.7823 53.4252V52.8083C19.3991 52.8083 19.0407 52.9049 18.7129 53.0977L19.0257 53.6294ZM19.7823 53.4252H25.0136V52.8083H19.7823V53.4252ZM25.0136 53.4252C25.2884 53.4252 25.5329 53.4931 25.7544 53.6273L26.0741 53.0998C25.7526 52.9049 25.3968 52.8083 25.0136 52.8083V53.4252ZM25.7578 53.6294C25.9923 53.7673 26.1767 53.9517 26.3146 54.1862L26.8463 53.8734C26.6552 53.5485 26.3955 53.2888 26.0706 53.0977L25.7578 53.6294ZM26.3202 54.1954C26.4599 54.4149 26.5311 54.6612 26.5311 54.9428H27.148C27.148 54.5499 27.0465 54.1876 26.8407 53.8642L26.3202 54.1954ZM26.5311 54.9428V60.174H27.148V54.9428H26.5311ZM26.5311 60.174C26.5311 60.4458 26.4607 60.694 26.318 60.9249L26.8429 61.2491C27.0457 60.9207 27.148 60.5602 27.148 60.174H26.5311ZM26.3146 60.9306C26.1767 61.1651 25.9923 61.3495 25.7578 61.4874L26.0706 62.0191C26.3955 61.828 26.6552 61.5683 26.8463 61.2434L26.3146 60.9306ZM25.7544 61.4895C25.5329 61.6236 25.2884 61.6916 25.0136 61.6916V62.3084C25.3968 62.3084 25.7526 62.2118 26.0741 62.017L25.7544 61.4895ZM25.0136 61.6916H19.7823V62.3084H25.0136V61.6916ZM19.8687 60.3837H24.9025V59.7669H19.8687V60.3837ZM25.211 60.0753V55.0415H24.5941V60.0753H25.211ZM24.9025 54.733H19.8687V55.3499H24.9025V54.733ZM19.5603 55.0415V60.0753H20.1771V55.0415H19.5603ZM28.1983 62H27.8898V62.3084H28.1983V62ZM28.1983 53.1168V52.8083H27.8898V53.1168H28.1983ZM30.1723 53.1168L30.4087 52.9186L30.3162 52.8083H30.1723V53.1168ZM33.1827 56.7071L32.9464 56.9053L33.1832 57.1877L33.4195 56.9048L33.1827 56.7071ZM36.1808 53.1168V52.8083H36.0365L35.9441 52.9191L36.1808 53.1168ZM38.1672 53.1168H38.4756V52.8083H38.1672V53.1168ZM38.1672 62V62.3084H38.4756V62H38.1672ZM36.2425 62H35.9341V62.3084H36.2425V62ZM36.2425 56.0408H36.5509V55.1924L36.0061 55.8428L36.2425 56.0408ZM33.1827 59.6928L32.947 59.8918L33.1836 60.1721L33.4192 59.8909L33.1827 59.6928ZM30.1106 56.0532L30.3463 55.8542L29.8022 55.2096V56.0532H30.1106ZM30.1106 62V62.3084H30.4191V62H30.1106ZM28.5067 62V53.1168H27.8898V62H28.5067ZM28.1983 53.4252H30.1723V52.8083H28.1983V53.4252ZM29.9359 53.315L32.9464 56.9053L33.4191 56.5089L30.4087 52.9186L29.9359 53.315ZM33.4195 56.9048L36.4176 53.3145L35.9441 52.9191L32.946 56.5094L33.4195 56.9048ZM36.1808 53.4252H38.1672V52.8083H36.1808V53.4252ZM37.8587 53.1168V62H38.4756V53.1168H37.8587ZM38.1672 61.6916H36.2425V62.3084H38.1672V61.6916ZM36.5509 62V56.0408H35.9341V62H36.5509ZM36.0061 55.8428L32.9463 59.4947L33.4192 59.8909L36.4789 56.2389L36.0061 55.8428ZM33.4184 59.4939L30.3463 55.8542L29.8749 56.2521L32.947 59.8918L33.4184 59.4939ZM29.8022 56.0532V62H30.4191V56.0532H29.8022ZM30.1106 61.6916H28.1983V62.3084H30.1106V61.6916ZM39.6691 62H39.3607V62.3084H39.6691V62ZM39.6691 53.1168V52.8083H39.3607V53.1168H39.6691ZM47.8738 53.1168H48.1822V52.8083H47.8738V53.1168ZM47.8738 55.0415V55.3499H48.1822V55.0415H47.8738ZM41.6062 55.0415V54.733H41.2977V55.0415H41.6062ZM41.6062 56.596H41.2977V56.9045H41.6062V56.596ZM46.6523 56.596H46.9608V56.2876H46.6523V56.596ZM46.6523 58.5207V58.8292H46.9608V58.5207H46.6523ZM41.6062 58.5207V58.2123H41.2977V58.5207H41.6062ZM41.6062 60.0753H41.2977V60.3837H41.6062V60.0753ZM47.8738 60.0753H48.1822V59.7669H47.8738V60.0753ZM47.8738 62V62.3084H48.1822V62H47.8738ZM39.9776 62V53.1168H39.3607V62H39.9776ZM39.6691 53.4252H47.8738V52.8083H39.6691V53.4252ZM47.5653 53.1168V55.0415H48.1822V53.1168H47.5653ZM47.8738 54.733H41.6062V55.3499H47.8738V54.733ZM41.2977 55.0415V56.596H41.9146V55.0415H41.2977ZM41.6062 56.9045H46.6523V56.2876H41.6062V56.9045ZM46.3439 56.596V58.5207H46.9608V56.596H46.3439ZM46.6523 58.2123H41.6062V58.8292H46.6523V58.2123ZM41.2977 58.5207V60.0753H41.9146V58.5207H41.2977ZM41.6062 60.3837H47.8738V59.7669H41.6062V60.3837ZM47.5653 60.0753V62H48.1822V60.0753H47.5653ZM47.8738 61.6916H39.6691V62.3084H47.8738V61.6916Z" fill="white"/>
</g>
<defs>
<filter id="filter0_d_436_11276" x="2" y="0" width="52.8049" height="48" filterUnits="userSpaceOnUse" color-interpolation-filters="sRGB">
<feFlood flood-opacity="0" result="BackgroundImageFix"/>
<feColorMatrix in="SourceAlpha" type="matrix" values="0 0 0 0 0 0 0 0 0 0 0 0 0 0 0 0 0 0 127 0" result="hardAlpha"/>
<feOffset dy="2"/>
<feGaussianBlur stdDeviation="2"/>
<feComposite in2="hardAlpha" operator="out"/>
<feColorMatrix type="matrix" values="0 0 0 0 0 0 0 0 0 0 0 0 0 0 0 0 0 0 0.15 0"/>
<feBlend mode="normal" in2="BackgroundImageFix" result="effect1_dropShadow_436_11276"/>
<feBlend mode="normal" in="SourceGraphic" in2="effect1_dropShadow_436_11276" result="shape"/>
</filter>
<filter id="filter1_d_436_11276" x="6.88213" y="52.4999" width="44.0761" height="12.5846" filterUnits="userSpaceOnUse" color-interpolation-filters="sRGB">
<feFlood flood-opacity="0" result="BackgroundImageFix"/>
<feColorMatrix in="SourceAlpha" type="matrix" values="0 0 0 0 0 0 0 0 0 0 0 0 0 0 0 0 0 0 127 0" result="hardAlpha"/>
<feOffset dx="1.23378" dy="1.23378"/>
<feGaussianBlur stdDeviation="0.925335"/>
<feComposite in2="hardAlpha" operator="out"/>
<feColorMatrix type="matrix" values="0 0 0 0 0 0 0 0 0 0 0 0 0 0 0 0 0 0 0.15 0"/>
<feBlend mode="normal" in2="BackgroundImageFix" result="effect1_dropShadow_436_11276"/>
<feBlend mode="normal" in="SourceGraphic" in2="effect1_dropShadow_436_11276" result="shape"/>
</filter>
</defs>
</svg>
