<svg width="56" height="67" viewBox="0 0 56 67" fill="none" xmlns="http://www.w3.org/2000/svg">
<g filter="url(#filter0_d_436_11286)">
<path fill-rule="evenodd" clip-rule="evenodd" d="M25.6535 3.03163C26.4261 2.36594 27.4103 2 28.4281 2C29.4459 2 30.4302 2.36594 31.2028 3.03163L44.7052 14.6573L50.0052 18.9179C50.2237 19.0936 50.4057 19.3108 50.5407 19.5572C50.6757 19.8036 50.7611 20.0743 50.7919 20.3538C50.8228 20.6333 50.7986 20.9162 50.7206 21.1864C50.6427 21.4565 50.5125 21.7085 50.3376 21.9281C50.1627 22.1477 49.9465 22.3305 49.7012 22.4661C49.456 22.6018 49.1866 22.6875 48.9083 22.7186C48.6301 22.7496 48.3485 22.7252 48.0796 22.6469C47.8108 22.5686 47.5599 22.4378 47.3413 22.2621L45.4767 20.7634V37.718C45.4767 38.8537 45.0276 39.9428 44.2283 40.7458C43.429 41.5489 42.3449 42 41.2145 42H32.6903V31.295C32.6903 30.1593 32.2412 29.0702 31.4419 28.2672C30.6426 27.4641 29.5585 27.013 28.4281 27.013C27.2977 27.013 26.2136 27.4641 25.4143 28.2672C24.615 29.0702 24.166 30.1593 24.166 31.295V42H15.6417C14.5113 42 13.4272 41.5489 12.6279 40.7458C11.8286 39.9428 11.3796 38.8537 11.3796 37.718V20.7613L9.51491 22.26C9.29783 22.4462 9.04572 22.5867 8.77354 22.6732C8.50137 22.7596 8.21468 22.7903 7.93049 22.7633C7.6463 22.7363 7.3704 22.6522 7.11918 22.516C6.86795 22.3799 6.64652 22.1944 6.46802 21.9706C6.28953 21.7468 6.1576 21.4892 6.08008 21.2132C6.00256 20.9372 5.98103 20.6483 6.01676 20.3638C6.05249 20.0793 6.14475 19.8049 6.28807 19.5568C6.43139 19.3088 6.62285 19.0923 6.85108 18.92L12.151 14.6594L25.6535 3.03163Z" fill="url(#paint0_linear_436_11286)"/>
</g>
<g filter="url(#filter1_d_436_11286)">
<path d="M7.499 62V53.1168H9.41136V56.596H14.6549V53.1168H16.5673V62H14.6549V58.5207H9.41136V62H7.499ZM19.7823 62C19.4533 62 19.149 61.9177 18.8693 61.7532C18.5897 61.5887 18.3676 61.3667 18.2031 61.087C18.0386 60.8073 17.9563 60.503 17.9563 60.174V54.9428C17.9563 54.6055 18.0386 54.3012 18.2031 54.0298C18.3676 53.7501 18.5897 53.528 18.8693 53.3635C19.149 53.199 19.4533 53.1168 19.7823 53.1168H25.0136C25.3426 53.1168 25.6428 53.199 25.9142 53.3635C26.1939 53.528 26.416 53.7501 26.5805 54.0298C26.7532 54.3012 26.8396 54.6055 26.8396 54.9428V60.174C26.8396 60.503 26.7532 60.8073 26.5805 61.087C26.416 61.3667 26.1939 61.5887 25.9142 61.7532C25.6428 61.9177 25.3426 62 25.0136 62H19.7823ZM19.8687 60.0753H24.9025V55.0415H19.8687V60.0753ZM28.1983 62V53.1168H30.1723L33.1827 56.7071L36.1808 53.1168H38.1672V62H36.2425V56.0408L33.1827 59.6928L30.1106 56.0532V62H28.1983ZM39.6691 62V53.1168H47.8738V55.0415H41.6062V56.596H46.6523V58.5207H41.6062V60.0753H47.8738V62H39.6691Z" fill="url(#paint1_linear_436_11286)"/>
</g>
<defs>
<filter id="filter0_d_436_11286" x="2" y="0" width="52.8049" height="48" filterUnits="userSpaceOnUse" color-interpolation-filters="sRGB">
<feFlood flood-opacity="0" result="BackgroundImageFix"/>
<feColorMatrix in="SourceAlpha" type="matrix" values="0 0 0 0 0 0 0 0 0 0 0 0 0 0 0 0 0 0 127 0" result="hardAlpha"/>
<feOffset dy="2"/>
<feGaussianBlur stdDeviation="2"/>
<feComposite in2="hardAlpha" operator="out"/>
<feColorMatrix type="matrix" values="0 0 0 0 0 0 0 0 0 0 0 0 0 0 0 0 0 0 0.15 0"/>
<feBlend mode="normal" in2="BackgroundImageFix" result="effect1_dropShadow_436_11286"/>
<feBlend mode="normal" in="SourceGraphic" in2="effect1_dropShadow_436_11286" result="shape"/>
</filter>
<filter id="filter1_d_436_11286" x="6.88213" y="52.4999" width="44.0761" height="12.5846" filterUnits="userSpaceOnUse" color-interpolation-filters="sRGB">
<feFlood flood-opacity="0" result="BackgroundImageFix"/>
<feColorMatrix in="SourceAlpha" type="matrix" values="0 0 0 0 0 0 0 0 0 0 0 0 0 0 0 0 0 0 127 0" result="hardAlpha"/>
<feOffset dx="1.23378" dy="1.23378"/>
<feGaussianBlur stdDeviation="0.925335"/>
<feComposite in2="hardAlpha" operator="out"/>
<feColorMatrix type="matrix" values="0 0 0 0 0 0 0 0 0 0 0 0 0 0 0 0 0 0 0.15 0"/>
<feBlend mode="normal" in2="BackgroundImageFix" result="effect1_dropShadow_436_11286"/>
<feBlend mode="normal" in="SourceGraphic" in2="effect1_dropShadow_436_11286" result="shape"/>
</filter>
<linearGradient id="paint0_linear_436_11286" x1="17.3271" y1="5.08244" x2="31.1813" y2="43.5671" gradientUnits="userSpaceOnUse">
<stop stop-color="#FFE856"/>
<stop offset="1" stop-color="#FBD241"/>
</linearGradient>
<linearGradient id="paint1_linear_436_11286" x1="13.9539" y1="51.236" x2="15.9688" y2="68.4312" gradientUnits="userSpaceOnUse">
<stop stop-color="#FFE856"/>
<stop offset="1" stop-color="#FBD241"/>
</linearGradient>
</defs>
</svg>
