<svg width="150" height="34" viewBox="0 0 150 34" fill="none" xmlns="http://www.w3.org/2000/svg">
<g filter="url(#filter0_d_77_11439)">
<path d="M42.1561 24V9.6H45.2561V15.24H53.7561V9.6H56.8561V24H53.7561V18.36H45.2561V24H42.1561ZM62.0679 24C61.5345 24 61.0412 23.8667 60.5879 23.6C60.1345 23.3333 59.7745 22.9733 59.5079 22.52C59.2412 22.0667 59.1079 21.5733 59.1079 21.04V12.56C59.1079 12.0133 59.2412 11.52 59.5079 11.08C59.7745 10.6267 60.1345 10.2667 60.5879 10C61.0412 9.73333 61.5345 9.6 62.0679 9.6H70.5479C71.0812 9.6 71.5679 9.73333 72.0079 10C72.4612 10.2667 72.8212 10.6267 73.0879 11.08C73.3679 11.52 73.5079 12.0133 73.5079 12.56V21.04C73.5079 21.5733 73.3679 22.0667 73.0879 22.52C72.8212 22.9733 72.4612 23.3333 72.0079 23.6C71.5679 23.8667 71.0812 24 70.5479 24H62.0679ZM62.2079 20.88H70.3679V12.72H62.2079V20.88ZM75.7104 24V9.6H78.9104L83.7904 15.42L88.6504 9.6H91.8704V24H88.7504V14.34L83.7904 20.26L78.8104 14.36V24H75.7104ZM94.305 24V9.6H107.605V12.72H97.445V15.24H105.625V18.36H97.445V20.88H107.605V24H94.305Z" fill="white"/>
<path d="M42.1561 24H41.6561V24.5H42.1561V24ZM42.1561 9.6V9.1H41.6561V9.6H42.1561ZM45.2561 9.6H45.7561V9.1H45.2561V9.6ZM45.2561 15.24H44.7561V15.74H45.2561V15.24ZM53.7561 15.24V15.74H54.2561V15.24H53.7561ZM53.7561 9.6V9.1H53.2561V9.6H53.7561ZM56.8561 9.6H57.3561V9.1H56.8561V9.6ZM56.8561 24V24.5H57.3561V24H56.8561ZM53.7561 24H53.2561V24.5H53.7561V24ZM53.7561 18.36H54.2561V17.86H53.7561V18.36ZM45.2561 18.36V17.86H44.7561V18.36H45.2561ZM45.2561 24V24.5H45.7561V24H45.2561ZM42.6561 24V9.6H41.6561V24H42.6561ZM42.1561 10.1H45.2561V9.1H42.1561V10.1ZM44.7561 9.6V15.24H45.7561V9.6H44.7561ZM45.2561 15.74H53.7561V14.74H45.2561V15.74ZM54.2561 15.24V9.6H53.2561V15.24H54.2561ZM53.7561 10.1H56.8561V9.1H53.7561V10.1ZM56.3561 9.6V24H57.3561V9.6H56.3561ZM56.8561 23.5H53.7561V24.5H56.8561V23.5ZM54.2561 24V18.36H53.2561V24H54.2561ZM53.7561 17.86H45.2561V18.86H53.7561V17.86ZM44.7561 18.36V24H45.7561V18.36H44.7561ZM45.2561 23.5H42.1561V24.5H45.2561V23.5ZM60.5879 23.6L60.8414 23.169L60.5879 23.6ZM59.5079 22.52L59.0769 22.7735L59.5079 22.52ZM59.5079 11.08L59.9355 11.3392L59.9388 11.3335L59.5079 11.08ZM60.5879 10L60.3343 9.56903V9.56903L60.5879 10ZM72.0079 10L71.7487 10.4276L71.7543 10.431L72.0079 10ZM73.0879 11.08L72.6569 11.3335L72.6613 11.3411L72.666 11.3484L73.0879 11.08ZM73.0879 22.52L72.6624 22.2572L72.6569 22.2665L73.0879 22.52ZM72.0079 23.6L71.7543 23.169L71.7487 23.1724L72.0079 23.6ZM62.2079 20.88H61.7079V21.38H62.2079V20.88ZM70.3679 20.88V21.38H70.8679V20.88H70.3679ZM70.3679 12.72H70.8679V12.22H70.3679V12.72ZM62.2079 12.72V12.22H61.7079V12.72H62.2079ZM62.0679 23.5C61.6224 23.5 61.2167 23.3898 60.8414 23.169L60.3343 24.031C60.8656 24.3435 61.4467 24.5 62.0679 24.5V23.5ZM60.8414 23.169C60.4613 22.9455 60.1624 22.6465 59.9388 22.2665L59.0769 22.7735C59.3867 23.3001 59.8077 23.7212 60.3343 24.031L60.8414 23.169ZM59.9388 22.2665C59.718 21.8911 59.6079 21.4855 59.6079 21.04H58.6079C58.6079 21.6612 58.7644 22.2422 59.0769 22.7735L59.9388 22.2665ZM59.6079 21.04V12.56H58.6079V21.04H59.6079ZM59.6079 12.56C59.6079 12.0988 59.7191 11.6961 59.9355 11.3392L59.0803 10.8208C58.7632 11.3439 58.6079 11.9279 58.6079 12.56H59.6079ZM59.9388 11.3335C60.1624 10.9535 60.4613 10.6545 60.8414 10.431L60.3343 9.56903C59.8077 9.8788 59.3867 10.2999 59.0769 10.8265L59.9388 11.3335ZM60.8414 10.431C61.2167 10.2102 61.6224 10.1 62.0679 10.1V9.1C61.4467 9.1 60.8656 9.2565 60.3343 9.56903L60.8414 10.431ZM62.0679 10.1H70.5479V9.1H62.0679V10.1ZM70.5479 10.1C70.9933 10.1 71.3898 10.2101 71.7487 10.4276L72.267 9.5724C71.7459 9.25659 71.1691 9.1 70.5479 9.1V10.1ZM71.7543 10.431C72.1344 10.6545 72.4333 10.9535 72.6569 11.3335L73.5188 10.8265C73.2091 10.2999 72.788 9.8788 72.2614 9.56903L71.7543 10.431ZM72.666 11.3484C72.8925 11.7042 73.0079 12.1036 73.0079 12.56H74.0079C74.0079 11.9231 73.8433 11.3358 73.5097 10.8116L72.666 11.3484ZM73.0079 12.56V21.04H74.0079V12.56H73.0079ZM73.0079 21.04C73.0079 21.4806 72.8936 21.883 72.6625 22.2573L73.5133 22.7827C73.8421 22.2504 74.0079 21.666 74.0079 21.04H73.0079ZM72.6569 22.2665C72.4333 22.6465 72.1344 22.9455 71.7543 23.169L72.2614 24.031C72.788 23.7212 73.2091 23.3001 73.5188 22.7735L72.6569 22.2665ZM71.7487 23.1724C71.3898 23.3899 70.9933 23.5 70.5479 23.5V24.5C71.1691 24.5 71.7459 24.3434 72.267 24.0276L71.7487 23.1724ZM70.5479 23.5H62.0679V24.5H70.5479V23.5ZM62.2079 21.38H70.3679V20.38H62.2079V21.38ZM70.8679 20.88V12.72H69.8679V20.88H70.8679ZM70.3679 12.22H62.2079V13.22H70.3679V12.22ZM61.7079 12.72V20.88H62.7079V12.72H61.7079ZM75.7104 24H75.2104V24.5H75.7104V24ZM75.7104 9.6V9.1H75.2104V9.6H75.7104ZM78.9104 9.6L79.2935 9.27874L79.1436 9.1H78.9104V9.6ZM83.7904 15.42L83.4072 15.7413L83.7911 16.1991L84.1741 15.7405L83.7904 15.42ZM88.6504 9.6V9.1H88.4165L88.2666 9.27952L88.6504 9.6ZM91.8704 9.6H92.3704V9.1H91.8704V9.6ZM91.8704 24V24.5H92.3704V24H91.8704ZM88.7504 24H88.2504V24.5H88.7504V24ZM88.7504 14.34H89.2504V12.9647L88.3671 14.0189L88.7504 14.34ZM83.7904 20.26L83.4083 20.5825L83.7918 21.0369L84.1736 20.5811L83.7904 20.26ZM78.8104 14.36L79.1924 14.0375L78.3104 12.9925V14.36H78.8104ZM78.8104 24V24.5H79.3104V24H78.8104ZM76.2104 24V9.6H75.2104V24H76.2104ZM75.7104 10.1H78.9104V9.1H75.7104V10.1ZM78.5272 9.92126L83.4072 15.7413L84.1735 15.0987L79.2935 9.27874L78.5272 9.92126ZM84.1741 15.7405L89.0341 9.92048L88.2666 9.27952L83.4066 15.0995L84.1741 15.7405ZM88.6504 10.1H91.8704V9.1H88.6504V10.1ZM91.3704 9.6V24H92.3704V9.6H91.3704ZM91.8704 23.5H88.7504V24.5H91.8704V23.5ZM89.2504 24V14.34H88.2504V24H89.2504ZM88.3671 14.0189L83.4071 19.9389L84.1736 20.5811L89.1336 14.6611L88.3671 14.0189ZM84.1724 19.9375L79.1924 14.0375L78.4283 14.6825L83.4083 20.5825L84.1724 19.9375ZM78.3104 14.36V24H79.3104V14.36H78.3104ZM78.8104 23.5H75.7104V24.5H78.8104V23.5ZM94.305 24H93.805V24.5H94.305V24ZM94.305 9.6V9.1H93.805V9.6H94.305ZM107.605 9.6H108.105V9.1H107.605V9.6ZM107.605 12.72V13.22H108.105V12.72H107.605ZM97.445 12.72V12.22H96.945V12.72H97.445ZM97.445 15.24H96.945V15.74H97.445V15.24ZM105.625 15.24H106.125V14.74H105.625V15.24ZM105.625 18.36V18.86H106.125V18.36H105.625ZM97.445 18.36V17.86H96.945V18.36H97.445ZM97.445 20.88H96.945V21.38H97.445V20.88ZM107.605 20.88H108.105V20.38H107.605V20.88ZM107.605 24V24.5H108.105V24H107.605ZM94.805 24V9.6H93.805V24H94.805ZM94.305 10.1H107.605V9.1H94.305V10.1ZM107.105 9.6V12.72H108.105V9.6H107.105ZM107.605 12.22H97.445V13.22H107.605V12.22ZM96.945 12.72V15.24H97.945V12.72H96.945ZM97.445 15.74H105.625V14.74H97.445V15.74ZM105.125 15.24V18.36H106.125V15.24H105.125ZM105.625 17.86H97.445V18.86H105.625V17.86ZM96.945 18.36V20.88H97.945V18.36H96.945ZM97.445 21.38H107.605V20.38H97.445V21.38ZM107.105 20.88V24H108.105V20.88H107.105ZM107.605 23.5H94.305V24.5H107.605V23.5Z" fill="white"/>
</g>
<defs>
<filter id="filter0_d_77_11439" x="41.1561" y="8.60001" width="71.4489" height="20.4" filterUnits="userSpaceOnUse" color-interpolation-filters="sRGB">
<feFlood flood-opacity="0" result="BackgroundImageFix"/>
<feColorMatrix in="SourceAlpha" type="matrix" values="0 0 0 0 0 0 0 0 0 0 0 0 0 0 0 0 0 0 127 0" result="hardAlpha"/>
<feOffset dx="2" dy="2"/>
<feGaussianBlur stdDeviation="1.5"/>
<feComposite in2="hardAlpha" operator="out"/>
<feColorMatrix type="matrix" values="0 0 0 0 0 0 0 0 0 0 0 0 0 0 0 0 0 0 0.15 0"/>
<feBlend mode="normal" in2="BackgroundImageFix" result="effect1_dropShadow_77_11439"/>
<feBlend mode="normal" in="SourceGraphic" in2="effect1_dropShadow_77_11439" result="shape"/>
</filter>
</defs>
</svg>
