<svg width="156" height="40" viewBox="0 0 156 40" fill="none" xmlns="http://www.w3.org/2000/svg">
<path d="M4.51344 22.6489L23.2549 4.41616C24.1883 3.50808 25.4391 3 26.7414 3H148C150.761 3 153 5.23858 153 8V11.3643C153 12.6116 152.534 13.8138 151.693 14.735L132.859 35.3706C131.912 36.4086 130.571 37 129.166 37H8C5.23858 37 3 34.7614 3 32V26.2327C3 24.8828 3.54585 23.5902 4.51344 22.6489Z" fill="url(#paint0_linear_223_8984)" stroke="white" stroke-opacity="0.2" stroke-width="5" stroke-linejoin="round"/>
<g filter="url(#filter0_d_223_8984)">
<path d="M45.1532 27V12.6H48.3532L53.2332 18.42L58.0932 12.6H61.3132V27H58.1932V17.34L53.2332 23.26L48.2532 17.36V27H45.1532ZM66.6279 27C66.0946 27 65.6012 26.8667 65.1479 26.6C64.6946 26.3333 64.3346 25.9733 64.0679 25.52C63.8012 25.0667 63.6679 24.5733 63.6679 24.04V15.56C63.6679 15.0133 63.8012 14.52 64.0679 14.08C64.3346 13.6267 64.6946 13.2667 65.1479 13C65.6012 12.7333 66.0946 12.6 66.6279 12.6H75.1079C75.6412 12.6 76.1279 12.7333 76.5679 13C77.0212 13.2667 77.3812 13.6267 77.6479 14.08C77.9279 14.52 78.0679 15.0133 78.0679 15.56V24.04C78.0679 24.5733 77.9279 25.0667 77.6479 25.52C77.3812 25.9733 77.0212 26.3333 76.5679 26.6C76.1279 26.8667 75.6412 27 75.1079 27H66.6279ZM66.7679 23.88H74.9279V15.72H66.7679V23.88ZM91.4504 27L87.2704 22.02H91.3304L94.6504 25.94V27H91.4504ZM80.2704 27V12.62H91.6904C92.2371 12.62 92.7304 12.7533 93.1704 13.02C93.6237 13.2867 93.9837 13.6467 94.2504 14.1C94.5304 14.5533 94.6704 15.0467 94.6704 15.58V19.3C94.6704 19.8333 94.5304 20.3267 94.2504 20.78C93.9837 21.2333 93.6237 21.5933 93.1704 21.86C92.7304 22.1267 92.2371 22.26 91.6904 22.26L83.3704 22.28V27H80.2704ZM83.3704 19.14H91.5304V15.72H83.3704V19.14ZM96.8143 27V12.6H110.114V15.72H99.9543V18.24H108.134V21.36H99.9543V23.88H110.114V27H96.8143Z" fill="white"/>
<path d="M45.1532 27H44.6532V27.5H45.1532V27ZM45.1532 12.6V12.1H44.6532V12.6H45.1532ZM48.3532 12.6L48.7363 12.2787L48.5865 12.1H48.3532V12.6ZM53.2332 18.42L52.8501 18.7413L53.234 19.1991L53.617 18.7405L53.2332 18.42ZM58.0932 12.6V12.1H57.8593L57.7094 12.2795L58.0932 12.6ZM61.3132 12.6H61.8132V12.1H61.3132V12.6ZM61.3132 27V27.5H61.8132V27H61.3132ZM58.1932 27H57.6932V27.5H58.1932V27ZM58.1932 17.34H58.6932V15.9647L57.8099 17.0189L58.1932 17.34ZM53.2332 23.26L52.8511 23.5825L53.2346 24.0369L53.6165 23.5811L53.2332 23.26ZM48.2532 17.36L48.6353 17.0375L47.7532 15.9925V17.36H48.2532ZM48.2532 27V27.5H48.7532V27H48.2532ZM45.6532 27V12.6H44.6532V27H45.6532ZM45.1532 13.1H48.3532V12.1H45.1532V13.1ZM47.9701 12.9213L52.8501 18.7413L53.6163 18.0987L48.7363 12.2787L47.9701 12.9213ZM53.617 18.7405L58.477 12.9205L57.7094 12.2795L52.8494 18.0995L53.617 18.7405ZM58.0932 13.1H61.3132V12.1H58.0932V13.1ZM60.8132 12.6V27H61.8132V12.6H60.8132ZM61.3132 26.5H58.1932V27.5H61.3132V26.5ZM58.6932 27V17.34H57.6932V27H58.6932ZM57.8099 17.0189L52.8499 22.9389L53.6165 23.5811L58.5765 17.6611L57.8099 17.0189ZM53.6153 22.9375L48.6353 17.0375L47.8711 17.6825L52.8511 23.5825L53.6153 22.9375ZM47.7532 17.36V27H48.7532V17.36H47.7532ZM48.2532 26.5H45.1532V27.5H48.2532V26.5ZM65.1479 26.6L65.4014 26.169L65.1479 26.6ZM64.0679 25.52L63.6369 25.7735L64.0679 25.52ZM64.0679 14.08L64.4955 14.3392L64.4989 14.3335L64.0679 14.08ZM65.1479 13L64.8944 12.569V12.569L65.1479 13ZM76.5679 13L76.3087 13.4276L76.3144 13.431L76.5679 13ZM77.6479 14.08L77.2169 14.3335L77.2214 14.3411L77.2261 14.3484L77.6479 14.08ZM77.6479 25.52L77.2224 25.2572L77.2169 25.2665L77.6479 25.52ZM76.5679 26.6L76.3144 26.169L76.3087 26.1724L76.5679 26.6ZM66.7679 23.88H66.2679V24.38H66.7679V23.88ZM74.9279 23.88V24.38H75.4279V23.88H74.9279ZM74.9279 15.72H75.4279V15.22H74.9279V15.72ZM66.7679 15.72V15.22H66.2679V15.72H66.7679ZM66.6279 26.5C66.1824 26.5 65.7768 26.3898 65.4014 26.169L64.8944 27.031C65.4257 27.3435 66.0067 27.5 66.6279 27.5V26.5ZM65.4014 26.169C65.0213 25.9455 64.7224 25.6465 64.4989 25.2665L63.6369 25.7735C63.9467 26.3001 64.3678 26.7212 64.8944 27.031L65.4014 26.169ZM64.4989 25.2665C64.2781 24.8911 64.1679 24.4855 64.1679 24.04H63.1679C63.1679 24.6612 63.3244 25.2422 63.6369 25.7735L64.4989 25.2665ZM64.1679 24.04V15.56H63.1679V24.04H64.1679ZM64.1679 15.56C64.1679 15.0988 64.2792 14.6961 64.4955 14.3392L63.6403 13.8208C63.3233 14.3439 63.1679 14.9279 63.1679 15.56H64.1679ZM64.4989 14.3335C64.7224 13.9535 65.0213 13.6545 65.4014 13.431L64.8944 12.569C64.3678 12.8788 63.9467 13.2999 63.6369 13.8265L64.4989 14.3335ZM65.4014 13.431C65.7768 13.2102 66.1824 13.1 66.6279 13.1V12.1C66.0067 12.1 65.4257 12.2565 64.8944 12.569L65.4014 13.431ZM66.6279 13.1H75.1079V12.1H66.6279V13.1ZM75.1079 13.1C75.5534 13.1 75.9498 13.2101 76.3087 13.4276L76.827 12.5724C76.306 12.2566 75.7291 12.1 75.1079 12.1V13.1ZM76.3144 13.431C76.6944 13.6545 76.9934 13.9535 77.2169 14.3335L78.0789 13.8265C77.7691 13.2999 77.348 12.8788 76.8214 12.569L76.3144 13.431ZM77.2261 14.3484C77.4525 14.7042 77.5679 15.1036 77.5679 15.56H78.5679C78.5679 14.9231 78.4033 14.3358 78.0697 13.8116L77.2261 14.3484ZM77.5679 15.56V24.04H78.5679V15.56H77.5679ZM77.5679 24.04C77.5679 24.4806 77.4537 24.883 77.2225 25.2573L78.0733 25.7827C78.4021 25.2504 78.5679 24.666 78.5679 24.04H77.5679ZM77.2169 25.2665C76.9934 25.6465 76.6944 25.9455 76.3144 26.169L76.8214 27.031C77.348 26.7212 77.7691 26.3001 78.0789 25.7735L77.2169 25.2665ZM76.3087 26.1724C75.9498 26.3899 75.5534 26.5 75.1079 26.5V27.5C75.7291 27.5 76.306 27.3434 76.827 27.0276L76.3087 26.1724ZM75.1079 26.5H66.6279V27.5H75.1079V26.5ZM66.7679 24.38H74.9279V23.38H66.7679V24.38ZM75.4279 23.88V15.72H74.4279V23.88H75.4279ZM74.9279 15.22H66.7679V16.22H74.9279V15.22ZM66.2679 15.72V23.88H67.2679V15.72H66.2679ZM91.4504 27L91.0674 27.3215L91.2173 27.5H91.4504V27ZM87.2704 22.02V21.52H86.1979L86.8874 22.3415L87.2704 22.02ZM91.3304 22.02L91.7119 21.6969L91.5621 21.52H91.3304V22.02ZM94.6504 25.94H95.1504V25.7567L95.0319 25.6169L94.6504 25.94ZM94.6504 27V27.5H95.1504V27H94.6504ZM80.2704 27H79.7704V27.5H80.2704V27ZM80.2704 12.62V12.12H79.7704V12.62H80.2704ZM93.1704 13.02L92.9112 13.4476L92.9169 13.451L93.1704 13.02ZM94.2504 14.1L93.8193 14.3536L93.825 14.3627L94.2504 14.1ZM94.2504 20.78L93.8249 20.5172L93.8194 20.5265L94.2504 20.78ZM93.1704 21.86L92.9169 21.429L92.9112 21.4324L93.1704 21.86ZM91.6904 22.26V21.76L91.6892 21.76L91.6904 22.26ZM83.3704 22.28L83.3692 21.78L82.8704 21.7812V22.28H83.3704ZM83.3704 27V27.5H83.8704V27H83.3704ZM83.3704 19.14H82.8704V19.64H83.3704V19.14ZM91.5304 19.14V19.64H92.0304V19.14H91.5304ZM91.5304 15.72H92.0304V15.22H91.5304V15.72ZM83.3704 15.72V15.22H82.8704V15.72H83.3704ZM91.8334 26.6785L87.6534 21.6985L86.8874 22.3415L91.0674 27.3215L91.8334 26.6785ZM87.2704 22.52H91.3304V21.52H87.2704V22.52ZM90.9488 22.3431L94.2688 26.2631L95.0319 25.6169L91.7119 21.6969L90.9488 22.3431ZM94.1504 25.94V27H95.1504V25.94H94.1504ZM94.6504 26.5H91.4504V27.5H94.6504V26.5ZM80.7704 27V12.62H79.7704V27H80.7704ZM80.2704 13.12H91.6904V12.12H80.2704V13.12ZM91.6904 13.12C92.1516 13.12 92.5543 13.2313 92.9112 13.4476L93.4295 12.5924C92.9065 12.2754 92.3225 12.12 91.6904 12.12V13.12ZM92.9169 13.451C93.2969 13.6745 93.5959 13.9735 93.8194 14.3535L94.6814 13.8465C94.3716 13.3199 93.9505 12.8988 93.4239 12.589L92.9169 13.451ZM93.825 14.3627C94.0562 14.737 94.1704 15.1394 94.1704 15.58H95.1704C95.1704 14.954 95.0046 14.3696 94.6758 13.8373L93.825 14.3627ZM94.1704 15.58V19.3H95.1704V15.58H94.1704ZM94.1704 19.3C94.1704 19.7406 94.0562 20.143 93.825 20.5173L94.6758 21.0427C95.0046 20.5104 95.1704 19.926 95.1704 19.3H94.1704ZM93.8194 20.5265C93.5959 20.9065 93.2969 21.2055 92.9169 21.429L93.4239 22.291C93.9505 21.9812 94.3716 21.5601 94.6814 21.0335L93.8194 20.5265ZM92.9112 21.4324C92.5543 21.6487 92.1516 21.76 91.6904 21.76V22.76C92.3225 22.76 92.9065 22.6046 93.4295 22.2876L92.9112 21.4324ZM91.6892 21.76L83.3692 21.78L83.3716 22.78L91.6916 22.76L91.6892 21.76ZM82.8704 22.28V27H83.8704V22.28H82.8704ZM83.3704 26.5H80.2704V27.5H83.3704V26.5ZM83.3704 19.64H91.5304V18.64H83.3704V19.64ZM92.0304 19.14V15.72H91.0304V19.14H92.0304ZM91.5304 15.22H83.3704V16.22H91.5304V15.22ZM82.8704 15.72V19.14H83.8704V15.72H82.8704ZM96.8143 27H96.3143V27.5H96.8143V27ZM96.8143 12.6V12.1H96.3143V12.6H96.8143ZM110.114 12.6H110.614V12.1H110.114V12.6ZM110.114 15.72V16.22H110.614V15.72H110.114ZM99.9543 15.72V15.22H99.4543V15.72H99.9543ZM99.9543 18.24H99.4543V18.74H99.9543V18.24ZM108.134 18.24H108.634V17.74H108.134V18.24ZM108.134 21.36V21.86H108.634V21.36H108.134ZM99.9543 21.36V20.86H99.4543V21.36H99.9543ZM99.9543 23.88H99.4543V24.38H99.9543V23.88ZM110.114 23.88H110.614V23.38H110.114V23.88ZM110.114 27V27.5H110.614V27H110.114ZM97.3143 27V12.6H96.3143V27H97.3143ZM96.8143 13.1H110.114V12.1H96.8143V13.1ZM109.614 12.6V15.72H110.614V12.6H109.614ZM110.114 15.22H99.9543V16.22H110.114V15.22ZM99.4543 15.72V18.24H100.454V15.72H99.4543ZM99.9543 18.74H108.134V17.74H99.9543V18.74ZM107.634 18.24V21.36H108.634V18.24H107.634ZM108.134 20.86H99.9543V21.86H108.134V20.86ZM99.4543 21.36V23.88H100.454V21.36H99.4543ZM99.9543 24.38H110.114V23.38H99.9543V24.38ZM109.614 23.88V27H110.614V23.88H109.614ZM110.114 26.5H96.8143V27.5H110.114V26.5Z" fill="white"/>
</g>
<defs>
<filter id="filter0_d_223_8984" x="44.1532" y="11.6" width="70.9611" height="20.4" filterUnits="userSpaceOnUse" color-interpolation-filters="sRGB">
<feFlood flood-opacity="0" result="BackgroundImageFix"/>
<feColorMatrix in="SourceAlpha" type="matrix" values="0 0 0 0 0 0 0 0 0 0 0 0 0 0 0 0 0 0 127 0" result="hardAlpha"/>
<feOffset dx="2" dy="2"/>
<feGaussianBlur stdDeviation="1.5"/>
<feComposite in2="hardAlpha" operator="out"/>
<feColorMatrix type="matrix" values="0 0 0 0 0 0 0 0 0 0 0 0 0 0 0 0 0 0 0.15 0"/>
<feBlend mode="normal" in2="BackgroundImageFix" result="effect1_dropShadow_223_8984"/>
<feBlend mode="normal" in="SourceGraphic" in2="effect1_dropShadow_223_8984" result="shape"/>
</filter>
<linearGradient id="paint0_linear_223_8984" x1="13.0481" y1="28.5" x2="36.1795" y2="-30.4187" gradientUnits="userSpaceOnUse">
<stop stop-color="#FAD0C4"/>
<stop offset="1" stop-color="#FBC2EB"/>
</linearGradient>
</defs>
</svg>
