<svg width="42" height="42" viewBox="0 0 42 42" fill="none" xmlns="http://www.w3.org/2000/svg">
<g filter="url(#filter0_d_395_5722)">
<mask id="path-1-inside-1_395_5722" fill="white">
<path d="M23.1903 36.5586C22.3202 37.3708 20.9704 37.3725 20.0982 36.5626V36.5626C19.1315 35.665 19.1315 34.135 20.0982 33.2374L31.485 22.664C33.6153 20.6858 33.6153 17.3142 31.485 15.336L20.0982 4.76262C19.1315 3.86498 19.1315 2.33502 20.0982 1.43738V1.43738C20.9704 0.627465 22.3202 0.629242 23.1903 1.44145L38.0846 15.345C40.202 17.3216 40.202 20.6784 38.0846 22.655L23.1903 36.5586Z"/>
</mask>
<path d="M23.1903 36.5586C22.3202 37.3708 20.9704 37.3725 20.0982 36.5626V36.5626C19.1315 35.665 19.1315 34.135 20.0982 33.2374L31.485 22.664C33.6153 20.6858 33.6153 17.3142 31.485 15.336L20.0982 4.76262C19.1315 3.86498 19.1315 2.33502 20.0982 1.43738V1.43738C20.9704 0.627465 22.3202 0.629242 23.1903 1.44145L38.0846 15.345C40.202 17.3216 40.202 20.6784 38.0846 22.655L23.1903 36.5586Z" fill="#0BFFF0"/>
<path d="M23.1903 1.44145L44.344 -21.2196L23.1903 1.44145ZM31.485 15.336L52.5789 -7.38057L31.485 15.336ZM20.0982 33.2374L-0.995776 10.5208L20.0982 33.2374ZM23.1903 36.5586L44.344 59.2196L23.1903 36.5586ZM-0.995776 10.5208L10.391 -0.052635L52.5789 45.3806L41.1922 55.954L-0.995776 10.5208ZM10.391 38.0526L-0.995777 27.4792L41.1922 -17.954L52.5789 -7.38057L10.391 38.0526ZM44.344 -21.2196L59.2383 -7.31601L16.9309 38.006L2.03661 24.1025L44.344 -21.2196ZM59.2383 45.316L44.344 59.2196L2.03661 13.8975L16.9309 -0.00600371L59.2383 45.316ZM59.2383 -7.31601C74.4841 6.91577 74.4842 31.0842 59.2383 45.316L16.9309 -0.00600371C5.91992 10.2725 5.91997 27.7275 16.9309 38.006L59.2383 -7.31601ZM-0.995774 -21.2792C11.7936 -33.155 31.586 -33.129 44.344 -21.2196L2.03661 24.1025C13.0545 34.3875 30.1473 34.41 41.1922 24.154L-0.995774 -21.2792ZM-0.995777 27.4792C-15.1705 14.317 -15.1705 -8.11702 -0.995774 -21.2792L41.1922 24.154C53.4335 12.7871 53.4336 -6.58699 41.1922 -17.954L-0.995777 27.4792ZM10.391 -0.052635C-0.686759 10.2338 -0.686679 27.7662 10.391 38.0526L52.5789 -7.38057C67.9172 6.86214 67.9173 31.1378 52.5789 45.3806L10.391 -0.052635ZM-0.995767 59.2792C-15.1705 46.117 -15.1705 23.683 -0.995776 10.5208L41.1922 55.954C53.4335 44.587 53.4335 25.213 41.1922 13.846L-0.995767 59.2792ZM41.1922 13.846C30.1473 3.59002 13.0545 3.61255 2.03661 13.8975L44.344 59.2196C31.586 71.129 11.7936 71.1551 -0.995767 59.2792L41.1922 13.846Z" fill="#0BFFF0" mask="url(#path-1-inside-1_395_5722)"/>
<path d="M19.58 19C19.328 18.743 19.0686 18.4905 18.8019 18.2428C18.491 17.9541 18.1741 17.6757 17.8515 17.4076C16.773 16.5113 15.6317 15.73 14.4437 15.0638C14.2201 14.9384 13.9949 14.8171 13.7681 14.6998C12.9778 14.2913 12.1687 13.9322 11.3453 13.6226C11.3379 13.6198 11.3305 13.617 11.3231 13.6142L11.4315 13.7149L13.1773 15.336C13.6119 15.7395 13.9578 16.201 14.215 16.6968C14.9618 18.1359 14.9618 19.8641 14.215 21.3032C13.9578 21.799 13.6119 22.2605 13.1773 22.664L11.4314 24.2852L11.3231 24.3858C11.3305 24.383 11.3379 24.3802 11.3453 24.3774C12.1687 24.0678 12.9778 23.7087 13.7681 23.3002C13.9949 23.1829 14.2201 23.0616 14.4436 22.9363C15.6317 22.27 16.773 21.4887 17.8515 20.5924C18.1741 20.3243 18.491 20.0459 18.8019 19.7572C19.0686 19.5095 19.328 19.257 19.58 19Z" fill="#0BFFF0" stroke="#0BFFF0" stroke-width="50" stroke-linejoin="round"/>
</g>
<defs>
<filter id="filter0_d_395_5722" x="0" y="0" width="42" height="42" filterUnits="userSpaceOnUse" color-interpolation-filters="sRGB">
<feFlood flood-opacity="0" result="BackgroundImageFix"/>
<feColorMatrix in="SourceAlpha" type="matrix" values="0 0 0 0 0 0 0 0 0 0 0 0 0 0 0 0 0 0 127 0" result="hardAlpha"/>
<feOffset dy="4"/>
<feComposite in2="hardAlpha" operator="out"/>
<feColorMatrix type="matrix" values="0 0 0 0 0.0352941 0 0 0 0 0.47451 0 0 0 0 0.482353 0 0 0 1 0"/>
<feBlend mode="normal" in2="BackgroundImageFix" result="effect1_dropShadow_395_5722"/>
<feBlend mode="normal" in="SourceGraphic" in2="effect1_dropShadow_395_5722" result="shape"/>
</filter>
</defs>
</svg>
