<svg width="56" height="67" viewBox="0 0 56 67" fill="none" xmlns="http://www.w3.org/2000/svg">
<g filter="url(#filter0_d_436_11285)">
<path fill-rule="evenodd" clip-rule="evenodd" d="M17.2446 17.8543H15V25.9056H17.3933V21.636L21.1206 25.9056H23.3651V17.8543H20.9507V22.1029L17.2446 17.8543ZM31.8105 17.8543H24.0267V25.9056H26.4411V23.0368H30.7641V20.7231H26.4411V20.1679H31.8105V17.8543ZM40.9999 17.8543H32.6348V20.1679H35.6155V25.9056H38.0193V20.1679H40.9999V17.8543Z" fill="url(#paint0_linear_436_11285)"/>
<path fill-rule="evenodd" clip-rule="evenodd" d="M46.555 23.9818C46.5505 23.3232 46.546 22.6646 46.546 22.006C46.5472 22.006 46.5484 22.006 46.5494 22.0062C46.5502 22.0064 46.5509 22.0066 46.5514 22.0071C46.5514 21.3697 46.5534 20.7324 46.5554 20.0951C46.5599 18.6862 46.5643 17.2775 46.5471 15.8693C46.5122 12.9682 45.2259 10.732 42.7055 9.28034C38.987 7.13907 35.2445 5.03881 31.4748 2.98711C29.0089 1.6445 26.4667 1.68227 24.0073 3.0346C20.2943 5.0755 16.5976 7.1477 12.9205 9.25228C10.4099 10.6899 9.06363 12.8851 9.03531 15.7711C8.99392 20.0105 8.97867 24.2509 9.04729 28.4892C9.08977 31.1237 10.3227 33.238 12.597 34.5763C15.7126 36.4095 18.8772 38.1616 22.0411 39.9133C22.7384 40.2994 23.4358 40.6855 24.1326 41.0724C25.8383 42.02 27.6735 42.2057 29.5731 41.7923C30.6146 41.5656 31.5235 41.0491 32.4322 40.5327C32.5356 40.474 32.639 40.4152 32.7426 40.3569C33.8078 39.7575 34.8761 39.1638 35.9443 38.5701C38.2844 37.2697 40.624 35.9695 42.9288 34.6098C45.2466 33.2412 46.4577 31.1086 46.534 28.4255C46.5755 26.9454 46.5652 25.4637 46.555 23.9818ZM12.4708 16.1229V22.0157C12.4712 22.6602 12.469 23.3047 12.4669 23.9492C12.4622 25.3501 12.4576 26.7507 12.4784 28.1492C12.4991 29.4908 13.0089 30.6327 14.122 31.4551C14.673 31.8616 15.2756 32.1844 15.8778 32.507C16.1101 32.6315 16.3424 32.7559 16.5716 32.8851C18.1169 33.7569 19.6661 34.6219 21.2154 35.4869C22.6889 36.3096 24.1624 37.1323 25.6326 37.9609C27.0682 38.7704 28.507 38.7725 29.924 37.9846C33.2031 36.1627 36.4709 34.3219 39.7383 32.4814C40.1349 32.258 40.5315 32.0346 40.9281 31.8112C42.3299 31.0212 43.0749 29.7887 43.0902 28.2172C43.1305 24.0879 43.1239 19.9565 43.0923 15.8261C43.0825 14.5029 42.539 13.3805 41.4389 12.5667C41.0039 12.2448 40.5296 11.9881 40.0556 11.7317C39.8876 11.6408 39.7197 11.5499 39.5536 11.4562C36.3622 9.65593 33.1676 7.86002 29.9676 6.07383C28.9797 5.52232 27.9308 5.32697 26.7991 5.60219C26.114 5.76827 25.5221 6.11295 24.9315 6.45686C24.7775 6.54651 24.6237 6.6361 24.4683 6.72247C23.1115 7.47609 21.7597 8.23829 20.4079 9.00044C18.579 10.0316 16.7502 11.0627 14.9095 12.0724C13.2757 12.9693 12.4708 14.2925 12.4708 16.1229Z" fill="url(#paint1_linear_436_11285)"/>
</g>
<g filter="url(#filter1_d_436_11285)">
<path d="M13.9568 62V53.1168H15.9308L20.903 59.0389V53.1168H22.84V62H20.8659L15.8691 56.0532V62H13.9568ZM24.2469 62V53.1168H32.4515V55.0415H26.1839V56.596H31.2301V58.5207H26.1839V62H24.2469ZM36.2938 62V55.0415H32.8145V53.1168H41.6977V55.0415H38.2185V62H36.2938Z" fill="url(#paint2_linear_436_11285)"/>
</g>
<defs>
<filter id="filter0_d_436_11285" x="5" y="0" width="45.5642" height="48" filterUnits="userSpaceOnUse" color-interpolation-filters="sRGB">
<feFlood flood-opacity="0" result="BackgroundImageFix"/>
<feColorMatrix in="SourceAlpha" type="matrix" values="0 0 0 0 0 0 0 0 0 0 0 0 0 0 0 0 0 0 127 0" result="hardAlpha"/>
<feOffset dy="2"/>
<feGaussianBlur stdDeviation="2"/>
<feComposite in2="hardAlpha" operator="out"/>
<feColorMatrix type="matrix" values="0 0 0 0 0 0 0 0 0 0 0 0 0 0 0 0 0 0 0.15 0"/>
<feBlend mode="normal" in2="BackgroundImageFix" result="effect1_dropShadow_436_11285"/>
<feBlend mode="normal" in="SourceGraphic" in2="effect1_dropShadow_436_11285" result="shape"/>
</filter>
<filter id="filter1_d_436_11285" x="13.3399" y="52.4999" width="31.4423" height="12.5846" filterUnits="userSpaceOnUse" color-interpolation-filters="sRGB">
<feFlood flood-opacity="0" result="BackgroundImageFix"/>
<feColorMatrix in="SourceAlpha" type="matrix" values="0 0 0 0 0 0 0 0 0 0 0 0 0 0 0 0 0 0 127 0" result="hardAlpha"/>
<feOffset dx="1.23378" dy="1.23378"/>
<feGaussianBlur stdDeviation="0.925335"/>
<feComposite in2="hardAlpha" operator="out"/>
<feColorMatrix type="matrix" values="0 0 0 0 0 0 0 0 0 0 0 0 0 0 0 0 0 0 0.15 0"/>
<feBlend mode="normal" in2="BackgroundImageFix" result="effect1_dropShadow_436_11285"/>
<feBlend mode="normal" in="SourceGraphic" in2="effect1_dropShadow_436_11285" result="shape"/>
</filter>
<linearGradient id="paint0_linear_436_11285" x1="21.573" y1="18.4747" x2="22.6489" y2="27.0906" gradientUnits="userSpaceOnUse">
<stop stop-color="#FFE856"/>
<stop offset="1" stop-color="#FBD241"/>
</linearGradient>
<linearGradient id="paint1_linear_436_11285" x1="18.4965" y1="5.08244" x2="34.257" y2="41.7872" gradientUnits="userSpaceOnUse">
<stop stop-color="#FFE856"/>
<stop offset="1" stop-color="#FBD241"/>
</linearGradient>
<linearGradient id="paint2_linear_436_11285" x1="13.9539" y1="51.236" x2="15.9688" y2="68.4312" gradientUnits="userSpaceOnUse">
<stop stop-color="#FFE856"/>
<stop offset="1" stop-color="#FBD241"/>
</linearGradient>
</defs>
</svg>
