<svg width="56" height="67" viewBox="0 0 56 67" fill="none" xmlns="http://www.w3.org/2000/svg">
<g filter="url(#filter0_d_436_11277)">
<path fill-rule="evenodd" clip-rule="evenodd" d="M17.2446 17.8543H15V25.9056H17.3933V21.636L21.1206 25.9056H23.3651V17.8543H20.9507V22.1029L17.2446 17.8543ZM31.8105 17.8543H24.0267V25.9056H26.4411V23.0368H30.7641V20.7231H26.4411V20.1679H31.8105V17.8543ZM40.9999 17.8543H32.6348V20.1679H35.6155V25.9056H38.0193V20.1679H40.9999V17.8543Z" fill="white"/>
<path fill-rule="evenodd" clip-rule="evenodd" d="M46.555 23.9818C46.5505 23.3232 46.5459 22.6646 46.5459 22.006C46.5471 22.006 46.5483 22.006 46.5494 22.0062C46.5502 22.0064 46.5509 22.0066 46.5514 22.0071C46.5514 21.3697 46.5534 20.7324 46.5554 20.0951C46.5598 18.6862 46.5643 17.2775 46.547 15.8693C46.5122 12.9682 45.2258 10.732 42.7054 9.28034C38.9869 7.13907 35.2445 5.03881 31.4748 2.98711C29.0089 1.6445 26.4667 1.68227 24.0073 3.0346C20.2942 5.0755 16.5975 7.1477 12.9204 9.25228C10.4098 10.6899 9.06359 12.8851 9.03527 15.7711C8.99388 20.0105 8.97863 24.2509 9.04725 28.4892C9.08973 31.1237 10.3227 33.238 12.5969 34.5763C15.7125 36.4095 18.8771 38.1616 22.041 39.9133C22.7384 40.2994 23.4358 40.6855 24.1326 41.0724C25.8382 42.02 27.6735 42.2057 29.5731 41.7923C30.6145 41.5656 31.5234 41.0491 32.4322 40.5327C32.5356 40.474 32.639 40.4152 32.7426 40.3569C33.8077 39.7575 34.876 39.1638 35.9443 38.5701C38.2843 37.2697 40.624 35.9695 42.9287 34.6098C45.2465 33.2412 46.4577 31.1086 46.5339 28.4255C46.5754 26.9454 46.5652 25.4637 46.555 23.9818ZM12.4708 16.1229V22.0157C12.4711 22.6602 12.469 23.3047 12.4668 23.9492C12.4622 25.3501 12.4575 26.7507 12.4784 28.1492C12.4991 29.4908 13.0088 30.6327 14.122 31.4551C14.673 31.8616 15.2755 32.1844 15.8777 32.507C16.1101 32.6315 16.3423 32.7559 16.5716 32.8851C18.1168 33.7569 19.666 34.6219 21.2153 35.4869C22.6888 36.3096 24.1624 37.1323 25.6326 37.9609C27.0681 38.7704 28.5069 38.7725 29.924 37.9846C33.2031 36.1627 36.4709 34.3219 39.7383 32.4814C40.1349 32.258 40.5315 32.0346 40.9281 31.8112C42.3299 31.0212 43.0749 29.7887 43.0901 28.2172C43.1304 24.0879 43.1239 19.9565 43.0923 15.8261C43.0825 14.5029 42.539 13.3805 41.4389 12.5667C41.0038 12.2448 40.5296 11.9881 40.0555 11.7317C39.8876 11.6408 39.7197 11.5499 39.5535 11.4562C36.3622 9.65593 33.1676 7.86002 29.9675 6.07383C28.9796 5.52232 27.9308 5.32697 26.7991 5.60219C26.114 5.76827 25.522 6.11295 24.9314 6.45686C24.7775 6.54651 24.6236 6.6361 24.4682 6.72247C23.1115 7.47609 21.7596 8.23829 20.4078 9.00044C18.5789 10.0316 16.7501 11.0627 14.9095 12.0724C13.2757 12.9693 12.4708 14.2925 12.4708 16.1229Z" fill="white"/>
</g>
<g filter="url(#filter1_d_436_11277)">
<path d="M13.9568 62V53.1168H15.9308L20.903 59.0389V53.1168H22.84V62H20.8659L15.8691 56.0532V62H13.9568ZM24.2469 62V53.1168H32.4515V55.0415H26.1839V56.596H31.2301V58.5207H26.1839V62H24.2469ZM36.2938 62V55.0415H32.8145V53.1168H41.6977V55.0415H38.2185V62H36.2938Z" fill="white"/>
<path d="M13.9568 62H13.6483V62.3084H13.9568V62ZM13.9568 53.1168V52.8083H13.6483V53.1168H13.9568ZM15.9308 53.1168L16.167 52.9185L16.0746 52.8083H15.9308V53.1168ZM20.903 59.0389L20.6667 59.2373L21.2114 59.886V59.0389H20.903ZM20.903 53.1168V52.8083H20.5945V53.1168H20.903ZM22.84 53.1168H23.1484V52.8083H22.84V53.1168ZM22.84 62V62.3084H23.1484V62H22.84ZM20.8659 62L20.6298 62.1984L20.7222 62.3084H20.8659V62ZM15.8691 56.0532L16.1053 55.8548L15.5607 55.2066V56.0532H15.8691ZM15.8691 62V62.3084H16.1776V62H15.8691ZM14.2652 62V53.1168H13.6483V62H14.2652ZM13.9568 53.4252H15.9308V52.8083H13.9568V53.4252ZM15.6946 53.3151L20.6667 59.2373L21.1392 58.8406L16.167 52.9185L15.6946 53.3151ZM21.2114 59.0389V53.1168H20.5945V59.0389H21.2114ZM20.903 53.4252H22.84V52.8083H20.903V53.4252ZM22.5315 53.1168V62H23.1484V53.1168H22.5315ZM22.84 61.6916H20.8659V62.3084H22.84V61.6916ZM21.1021 61.8016L16.1053 55.8548L15.633 56.2516L20.6298 62.1984L21.1021 61.8016ZM15.5607 56.0532V62H16.1776V56.0532H15.5607ZM15.8691 61.6916H13.9568V62.3084H15.8691V61.6916ZM24.2469 62H23.9384V62.3084H24.2469V62ZM24.2469 53.1168V52.8083H23.9384V53.1168H24.2469ZM32.4515 53.1168H32.76V52.8083H32.4515V53.1168ZM32.4515 55.0415V55.3499H32.76V55.0415H32.4515ZM26.1839 55.0415V54.733H25.8755V55.0415H26.1839ZM26.1839 56.596H25.8755V56.9045H26.1839V56.596ZM31.2301 56.596H31.5385V56.2876H31.2301V56.596ZM31.2301 58.5207V58.8292H31.5385V58.5207H31.2301ZM26.1839 58.5207V58.2123H25.8755V58.5207H26.1839ZM26.1839 62V62.3084H26.4924V62H26.1839ZM24.5553 62V53.1168H23.9384V62H24.5553ZM24.2469 53.4252H32.4515V52.8083H24.2469V53.4252ZM32.1431 53.1168V55.0415H32.76V53.1168H32.1431ZM32.4515 54.733H26.1839V55.3499H32.4515V54.733ZM25.8755 55.0415V56.596H26.4924V55.0415H25.8755ZM26.1839 56.9045H31.2301V56.2876H26.1839V56.9045ZM30.9216 56.596V58.5207H31.5385V56.596H30.9216ZM31.2301 58.2123H26.1839V58.8292H31.2301V58.2123ZM25.8755 58.5207V62H26.4924V58.5207H25.8755ZM26.1839 61.6916H24.2469V62.3084H26.1839V61.6916ZM36.2938 62H35.9853V62.3084H36.2938V62ZM36.2938 55.0415H36.6022V54.733H36.2938V55.0415ZM32.8145 55.0415H32.5061V55.3499H32.8145V55.0415ZM32.8145 53.1168V52.8083H32.5061V53.1168H32.8145ZM41.6977 53.1168H42.0062V52.8083H41.6977V53.1168ZM41.6977 55.0415V55.3499H42.0062V55.0415H41.6977ZM38.2185 55.0415V54.733H37.91V55.0415H38.2185ZM38.2185 62V62.3084H38.5269V62H38.2185ZM36.6022 62V55.0415H35.9853V62H36.6022ZM36.2938 54.733H32.8145V55.3499H36.2938V54.733ZM33.123 55.0415V53.1168H32.5061V55.0415H33.123ZM32.8145 53.4252H41.6977V52.8083H32.8145V53.4252ZM41.3893 53.1168V55.0415H42.0062V53.1168H41.3893ZM41.6977 54.733H38.2185V55.3499H41.6977V54.733ZM37.91 55.0415V62H38.5269V55.0415H37.91ZM38.2185 61.6916H36.2938V62.3084H38.2185V61.6916Z" fill="white"/>
</g>
<defs>
<filter id="filter0_d_436_11277" x="5" y="0" width="45.564" height="48" filterUnits="userSpaceOnUse" color-interpolation-filters="sRGB">
<feFlood flood-opacity="0" result="BackgroundImageFix"/>
<feColorMatrix in="SourceAlpha" type="matrix" values="0 0 0 0 0 0 0 0 0 0 0 0 0 0 0 0 0 0 127 0" result="hardAlpha"/>
<feOffset dy="2"/>
<feGaussianBlur stdDeviation="2"/>
<feComposite in2="hardAlpha" operator="out"/>
<feColorMatrix type="matrix" values="0 0 0 0 0 0 0 0 0 0 0 0 0 0 0 0 0 0 0.15 0"/>
<feBlend mode="normal" in2="BackgroundImageFix" result="effect1_dropShadow_436_11277"/>
<feBlend mode="normal" in="SourceGraphic" in2="effect1_dropShadow_436_11277" result="shape"/>
</filter>
<filter id="filter1_d_436_11277" x="13.3399" y="52.4999" width="31.4423" height="12.5846" filterUnits="userSpaceOnUse" color-interpolation-filters="sRGB">
<feFlood flood-opacity="0" result="BackgroundImageFix"/>
<feColorMatrix in="SourceAlpha" type="matrix" values="0 0 0 0 0 0 0 0 0 0 0 0 0 0 0 0 0 0 127 0" result="hardAlpha"/>
<feOffset dx="1.23378" dy="1.23378"/>
<feGaussianBlur stdDeviation="0.925335"/>
<feComposite in2="hardAlpha" operator="out"/>
<feColorMatrix type="matrix" values="0 0 0 0 0 0 0 0 0 0 0 0 0 0 0 0 0 0 0.15 0"/>
<feBlend mode="normal" in2="BackgroundImageFix" result="effect1_dropShadow_436_11277"/>
<feBlend mode="normal" in="SourceGraphic" in2="effect1_dropShadow_436_11277" result="shape"/>
</filter>
</defs>
</svg>
