<svg width="150" height="34" viewBox="0 0 150 34" fill="none" xmlns="http://www.w3.org/2000/svg">
<g filter="url(#filter0_d_223_8958)">
<path d="M52.6244 24V9.6H55.8244L63.8844 19.2V9.6H67.0244V24H63.8244L55.7244 14.36V24H52.6244ZM69.305 24V9.6H82.605V12.72H72.445V15.24H80.625V18.36H72.445V24H69.305ZM88.8335 24V12.72H83.1935V9.6H97.5935V12.72H91.9535V24H88.8335Z" fill="white"/>
<path d="M52.6244 24H52.1244V24.5H52.6244V24ZM52.6244 9.6V9.1H52.1244V9.6H52.6244ZM55.8244 9.6L56.2074 9.2785L56.0575 9.1H55.8244V9.6ZM63.8844 19.2L63.5015 19.5215L64.3844 20.5731V19.2H63.8844ZM63.8844 9.6V9.1H63.3844V9.6H63.8844ZM67.0244 9.6H67.5244V9.1H67.0244V9.6ZM67.0244 24V24.5H67.5244V24H67.0244ZM63.8244 24L63.4416 24.3217L63.5915 24.5H63.8244V24ZM55.7244 14.36L56.1072 14.0383L55.2244 12.9877V14.36H55.7244ZM55.7244 24V24.5H56.2244V24H55.7244ZM53.1244 24V9.6H52.1244V24H53.1244ZM52.6244 10.1H55.8244V9.1H52.6244V10.1ZM55.4415 9.9215L63.5015 19.5215L64.2674 18.8785L56.2074 9.2785L55.4415 9.9215ZM64.3844 19.2V9.6H63.3844V19.2H64.3844ZM63.8844 10.1H67.0244V9.1H63.8844V10.1ZM66.5244 9.6V24H67.5244V9.6H66.5244ZM67.0244 23.5H63.8244V24.5H67.0244V23.5ZM64.2072 23.6783L56.1072 14.0383L55.3416 14.6817L63.4416 24.3217L64.2072 23.6783ZM55.2244 14.36V24H56.2244V14.36H55.2244ZM55.7244 23.5H52.6244V24.5H55.7244V23.5ZM69.305 24H68.805V24.5H69.305V24ZM69.305 9.6V9.1H68.805V9.6H69.305ZM82.605 9.6H83.105V9.1H82.605V9.6ZM82.605 12.72V13.22H83.105V12.72H82.605ZM72.445 12.72V12.22H71.945V12.72H72.445ZM72.445 15.24H71.945V15.74H72.445V15.24ZM80.625 15.24H81.125V14.74H80.625V15.24ZM80.625 18.36V18.86H81.125V18.36H80.625ZM72.445 18.36V17.86H71.945V18.36H72.445ZM72.445 24V24.5H72.945V24H72.445ZM69.805 24V9.6H68.805V24H69.805ZM69.305 10.1H82.605V9.1H69.305V10.1ZM82.105 9.6V12.72H83.105V9.6H82.105ZM82.605 12.22H72.445V13.22H82.605V12.22ZM71.945 12.72V15.24H72.945V12.72H71.945ZM72.445 15.74H80.625V14.74H72.445V15.74ZM80.125 15.24V18.36H81.125V15.24H80.125ZM80.625 17.86H72.445V18.86H80.625V17.86ZM71.945 18.36V24H72.945V18.36H71.945ZM72.445 23.5H69.305V24.5H72.445V23.5ZM88.8335 24H88.3335V24.5H88.8335V24ZM88.8335 12.72H89.3335V12.22H88.8335V12.72ZM83.1935 12.72H82.6935V13.22H83.1935V12.72ZM83.1935 9.6V9.1H82.6935V9.6H83.1935ZM97.5935 9.6H98.0935V9.1H97.5935V9.6ZM97.5935 12.72V13.22H98.0935V12.72H97.5935ZM91.9535 12.72V12.22H91.4535V12.72H91.9535ZM91.9535 24V24.5H92.4535V24H91.9535ZM89.3335 24V12.72H88.3335V24H89.3335ZM88.8335 12.22H83.1935V13.22H88.8335V12.22ZM83.6935 12.72V9.6H82.6935V12.72H83.6935ZM83.1935 10.1H97.5935V9.1H83.1935V10.1ZM97.0935 9.6V12.72H98.0935V9.6H97.0935ZM97.5935 12.22H91.9535V13.22H97.5935V12.22ZM91.4535 12.72V24H92.4535V12.72H91.4535ZM91.9535 23.5H88.8335V24.5H91.9535V23.5Z" fill="white"/>
</g>
<defs>
<filter id="filter0_d_223_8958" x="51.6245" y="8.60001" width="50.9691" height="20.4" filterUnits="userSpaceOnUse" color-interpolation-filters="sRGB">
<feFlood flood-opacity="0" result="BackgroundImageFix"/>
<feColorMatrix in="SourceAlpha" type="matrix" values="0 0 0 0 0 0 0 0 0 0 0 0 0 0 0 0 0 0 127 0" result="hardAlpha"/>
<feOffset dx="2" dy="2"/>
<feGaussianBlur stdDeviation="1.5"/>
<feComposite in2="hardAlpha" operator="out"/>
<feColorMatrix type="matrix" values="0 0 0 0 0 0 0 0 0 0 0 0 0 0 0 0 0 0 0.15 0"/>
<feBlend mode="normal" in2="BackgroundImageFix" result="effect1_dropShadow_223_8958"/>
<feBlend mode="normal" in="SourceGraphic" in2="effect1_dropShadow_223_8958" result="shape"/>
</filter>
</defs>
</svg>
