<svg width="42" height="42" viewBox="0 0 42 42" fill="none" xmlns="http://www.w3.org/2000/svg">
<g filter="url(#filter0_d_395_5727)">
<mask id="path-1-inside-1_395_5727" fill="white">
<path d="M18.8097 36.5586C19.6798 37.3708 21.0296 37.3725 21.9018 36.5626C22.8685 35.665 22.8685 34.135 21.9018 33.2374L10.515 22.664C8.38471 20.6858 8.38472 17.3142 10.515 15.336L21.9018 4.76262C22.8685 3.86498 22.8685 2.33502 21.9018 1.43738C21.0296 0.627465 19.6798 0.629242 18.8097 1.44145L3.91544 15.345C1.79796 17.3216 1.79795 20.6784 3.91544 22.655L18.8097 36.5586Z"/>
</mask>
<path d="M18.8097 36.5586C19.6798 37.3708 21.0296 37.3725 21.9018 36.5626C22.8685 35.665 22.8685 34.135 21.9018 33.2374L10.515 22.664C8.38471 20.6858 8.38472 17.3142 10.515 15.336L21.9018 4.76262C22.8685 3.86498 22.8685 2.33502 21.9018 1.43738C21.0296 0.627465 19.6798 0.629242 18.8097 1.44145L3.91544 15.345C1.79796 17.3216 1.79795 20.6784 3.91544 22.655L18.8097 36.5586Z" fill="#0BFFF0"/>
<path d="M18.8097 1.44145L-2.34401 -21.2196L18.8097 1.44145ZM10.515 15.336L-10.5789 -7.38057L10.515 15.336ZM21.9018 33.2374L42.9958 10.5208L21.9018 33.2374ZM18.8097 36.5586L-2.34401 59.2196L18.8097 36.5586ZM42.9958 10.5208L31.609 -0.052635L-10.5789 45.3806L0.807806 55.954L42.9958 10.5208ZM31.609 38.0526L42.9958 27.4792L0.80781 -17.954L-10.5789 -7.38057L31.609 38.0526ZM-2.34401 -21.2196L-17.2383 -7.31601L25.0691 38.006L39.9634 24.1024L-2.34401 -21.2196ZM-17.2383 45.316L-2.34401 59.2196L39.9634 13.8975L25.0691 -0.00600371L-17.2383 45.316ZM-17.2383 -7.31601C-32.4841 6.91577 -32.4842 31.0842 -17.2383 45.316L25.0691 -0.00600371C36.0801 10.2725 36.08 27.7275 25.0691 38.006L-17.2383 -7.31601ZM42.9958 -21.2792C30.2064 -33.155 10.414 -33.129 -2.34401 -21.2196L39.9634 24.1024C28.9455 34.3875 11.8527 34.41 0.807807 24.154L42.9958 -21.2792ZM42.9958 27.4792C57.1705 14.317 57.1705 -8.11702 42.9958 -21.2792L0.807807 24.154C-11.4335 12.7871 -11.4336 -6.58699 0.80781 -17.954L42.9958 27.4792ZM31.609 -0.052635C42.6868 10.2338 42.6867 27.7662 31.609 38.0526L-10.5789 -7.38057C-25.9172 6.86214 -25.9173 31.1378 -10.5789 45.3806L31.609 -0.052635ZM42.9958 59.2792C57.1705 46.117 57.1705 23.683 42.9958 10.5208L0.807806 55.954C-11.4335 44.587 -11.4335 25.213 0.807814 13.846L42.9958 59.2792ZM0.807814 13.846C11.8527 3.59002 28.9455 3.61255 39.9634 13.8975L-2.34401 59.2196C10.414 71.129 30.2064 71.1551 42.9958 59.2792L0.807814 13.846Z" fill="#0BFFF0" mask="url(#path-1-inside-1_395_5727)"/>
<mask id="path-3-inside-2_395_5727" fill="white">
<path d="M37.1173 36.5586C37.9874 37.3708 39.3372 37.3725 40.2094 36.5626C41.1761 35.665 41.1761 34.135 40.2094 33.2374L28.8227 22.664C26.6923 20.6858 26.6923 17.3142 28.8227 15.336L40.2094 4.76262C41.1761 3.86498 41.1761 2.33502 40.2094 1.43738C39.3372 0.627465 37.9874 0.629242 37.1173 1.44145L22.2231 15.345C20.1056 17.3216 20.1056 20.6784 22.2231 22.655L37.1173 36.5586Z"/>
</mask>
<path d="M37.1173 36.5586C37.9874 37.3708 39.3372 37.3725 40.2094 36.5626C41.1761 35.665 41.1761 34.135 40.2094 33.2374L28.8227 22.664C26.6923 20.6858 26.6923 17.3142 28.8227 15.336L40.2094 4.76262C41.1761 3.86498 41.1761 2.33502 40.2094 1.43738C39.3372 0.627465 37.9874 0.629242 37.1173 1.44145L22.2231 15.345C20.1056 17.3216 20.1056 20.6784 22.2231 22.655L37.1173 36.5586Z" fill="#0BFFF0"/>
<path d="M37.1173 1.44145L2.99844 -35.1086L37.1173 1.44145ZM28.8227 15.336L-5.19989 -21.3036L28.8227 15.336ZM40.2094 33.2374L74.232 -3.4023L40.2094 33.2374ZM37.1173 36.5586L2.99844 73.1086L37.1173 36.5586ZM74.232 -3.4023L62.8452 -13.9757L-5.1999 59.3036L6.18685 69.8771L74.232 -3.4023ZM62.8452 51.9757L74.232 41.4023L6.18686 -31.8771L-5.19989 -21.3036L62.8452 51.9757ZM2.99844 -35.1086L-11.8958 -21.205L56.3419 51.895L71.2362 37.9915L2.99844 -35.1086ZM-11.8958 59.205L2.99844 73.1086L71.2362 0.00854651L56.3419 -13.895L-11.8958 59.205ZM-11.8958 -21.205C-35.1881 0.53798 -35.1882 37.4619 -11.8958 59.205L56.3419 -13.895C75.3993 3.89478 75.3992 34.1053 56.3419 51.895L-11.8958 -21.205ZM74.232 -35.2023C54.1386 -53.8604 23.0427 -53.8195 2.99844 -35.1086L71.2362 37.9915C52.9321 55.078 24.5358 55.1154 6.18685 38.0771L74.232 -35.2023ZM74.232 41.4023C96.502 20.723 96.5019 -14.5231 74.232 -35.2023L6.18685 38.0771C-14.1497 19.1932 -14.1498 -12.993 6.18686 -31.8771L74.232 41.4023ZM62.8452 -13.9757C82.0182 3.82779 82.0181 34.1723 62.8452 51.9757L-5.19989 -21.3036C-28.6334 0.456051 -28.6336 37.5438 -5.1999 59.3036L62.8452 -13.9757ZM74.2319 73.2023C96.5019 52.5231 96.5019 17.277 74.232 -3.4023L6.18685 69.8771C-14.1497 50.9931 -14.1497 18.8069 6.18686 -0.0770611L74.2319 73.2023ZM6.18686 -0.0770611C24.5359 -17.1154 52.9322 -17.078 71.2362 0.00854651L2.99844 73.1086C23.0426 91.8195 54.1385 91.8605 74.2319 73.2023L6.18686 -0.0770611Z" fill="#0BFFF0" mask="url(#path-3-inside-2_395_5727)"/>
</g>
<defs>
<filter id="filter0_d_395_5727" x="0" y="0" width="42" height="42" filterUnits="userSpaceOnUse" color-interpolation-filters="sRGB">
<feFlood flood-opacity="0" result="BackgroundImageFix"/>
<feColorMatrix in="SourceAlpha" type="matrix" values="0 0 0 0 0 0 0 0 0 0 0 0 0 0 0 0 0 0 127 0" result="hardAlpha"/>
<feOffset dy="4"/>
<feComposite in2="hardAlpha" operator="out"/>
<feColorMatrix type="matrix" values="0 0 0 0 0.0352941 0 0 0 0 0.47451 0 0 0 0 0.482353 0 0 0 1 0"/>
<feBlend mode="normal" in2="BackgroundImageFix" result="effect1_dropShadow_395_5727"/>
<feBlend mode="normal" in="SourceGraphic" in2="effect1_dropShadow_395_5727" result="shape"/>
</filter>
</defs>
</svg>
