<svg width="156" height="40" viewBox="0 0 156 40" fill="none" xmlns="http://www.w3.org/2000/svg">
<path d="M4.51344 22.6489L23.2549 4.41616C24.1883 3.50808 25.4391 3 26.7414 3H148C150.761 3 153 5.23858 153 8V11.3643C153 12.6116 152.534 13.8138 151.693 14.735L132.859 35.3706C131.912 36.4086 130.571 37 129.166 37H8C5.23858 37 3 34.7614 3 32V26.2327C3 24.8828 3.54585 23.5902 4.51344 22.6489Z" fill="url(#paint0_linear_223_8977)" stroke="white" stroke-opacity="0.2" stroke-width="5" stroke-linejoin="round"/>
<g filter="url(#filter0_d_223_8977)">
<path d="M43.3447 27V15.72H37.7047V12.6H52.1047V15.72H46.4647V27H43.3447ZM64.7805 27L60.6005 22.02H64.6605L67.9805 25.94V27H64.7805ZM53.6005 27V12.62H65.0205C65.5671 12.62 66.0605 12.7533 66.5005 13.02C66.9538 13.2867 67.3138 13.6467 67.5805 14.1C67.8605 14.5533 68.0005 15.0467 68.0005 15.58V19.3C68.0005 19.8333 67.8605 20.3267 67.5805 20.78C67.3138 21.2333 66.9538 21.5933 66.5005 21.86C66.0605 22.1267 65.5671 22.26 65.0205 22.26L56.7005 22.28V27H53.6005ZM56.7005 19.14H64.8605V15.72H56.7005V19.14ZM70.1444 27V15.56C70.1444 15.0133 70.2777 14.52 70.5444 14.08C70.811 13.6267 71.171 13.2667 71.6244 13C72.0777 12.7333 72.571 12.6 73.1044 12.6H81.5644C82.111 12.6 82.6044 12.7333 83.0444 13C83.4977 13.2667 83.8577 13.6267 84.1244 14.08C84.4044 14.52 84.5444 15.0133 84.5444 15.56V27H81.4044V22.36H73.2444V27H70.1444ZM73.2444 19.24H81.4044V15.72H73.2444V19.24ZM86.8631 27V12.6H98.2831C98.8298 12.6 99.3231 12.7333 99.7631 13C100.216 13.2667 100.576 13.6267 100.843 14.08C101.123 14.52 101.263 15.0133 101.263 15.56V24.04C101.263 24.5733 101.123 25.0667 100.843 25.52C100.576 25.9733 100.216 26.3333 99.7631 26.6C99.3231 26.8667 98.8298 27 98.2831 27H86.8631ZM89.9431 23.88H98.1231V15.72H89.9431V23.88ZM103.543 27V12.6H116.843V15.72H106.683V18.24H114.863V21.36H106.683V23.88H116.843V27H103.543Z" fill="white"/>
<path d="M43.3447 27H42.8447V27.5H43.3447V27ZM43.3447 15.72H43.8447V15.22H43.3447V15.72ZM37.7047 15.72H37.2047V16.22H37.7047V15.72ZM37.7047 12.6V12.1H37.2047V12.6H37.7047ZM52.1047 12.6H52.6047V12.1H52.1047V12.6ZM52.1047 15.72V16.22H52.6047V15.72H52.1047ZM46.4647 15.72V15.22H45.9647V15.72H46.4647ZM46.4647 27V27.5H46.9647V27H46.4647ZM43.8447 27V15.72H42.8447V27H43.8447ZM43.3447 15.22H37.7047V16.22H43.3447V15.22ZM38.2047 15.72V12.6H37.2047V15.72H38.2047ZM37.7047 13.1H52.1047V12.1H37.7047V13.1ZM51.6047 12.6V15.72H52.6047V12.6H51.6047ZM52.1047 15.22H46.4647V16.22H52.1047V15.22ZM45.9647 15.72V27H46.9647V15.72H45.9647ZM46.4647 26.5H43.3447V27.5H46.4647V26.5ZM64.7805 27L64.3975 27.3215L64.5474 27.5H64.7805V27ZM60.6005 22.02V21.52H59.528L60.2175 22.3415L60.6005 22.02ZM64.6605 22.02L65.042 21.6969L64.8922 21.52H64.6605V22.02ZM67.9805 25.94H68.4805V25.7567L68.362 25.6169L67.9805 25.94ZM67.9805 27V27.5H68.4805V27H67.9805ZM53.6005 27H53.1005V27.5H53.6005V27ZM53.6005 12.62V12.12H53.1005V12.62H53.6005ZM66.5005 13.02L66.2413 13.4476L66.247 13.451L66.5005 13.02ZM67.5805 14.1L67.1494 14.3536L67.1551 14.3627L67.5805 14.1ZM67.5805 20.78L67.155 20.5172L67.1495 20.5265L67.5805 20.78ZM66.5005 21.86L66.2469 21.429L66.2413 21.4324L66.5005 21.86ZM65.0205 22.26V21.76L65.0193 21.76L65.0205 22.26ZM56.7005 22.28L56.6993 21.78L56.2005 21.7812V22.28H56.7005ZM56.7005 27V27.5H57.2005V27H56.7005ZM56.7005 19.14H56.2005V19.64H56.7005V19.14ZM64.8605 19.14V19.64H65.3605V19.14H64.8605ZM64.8605 15.72H65.3605V15.22H64.8605V15.72ZM56.7005 15.72V15.22H56.2005V15.72H56.7005ZM65.1634 26.6785L60.9834 21.6985L60.2175 22.3415L64.3975 27.3215L65.1634 26.6785ZM60.6005 22.52H64.6605V21.52H60.6005V22.52ZM64.2789 22.3431L67.5989 26.2631L68.362 25.6169L65.042 21.6969L64.2789 22.3431ZM67.4805 25.94V27H68.4805V25.94H67.4805ZM67.9805 26.5H64.7805V27.5H67.9805V26.5ZM54.1005 27V12.62H53.1005V27H54.1005ZM53.6005 13.12H65.0205V12.12H53.6005V13.12ZM65.0205 13.12C65.4817 13.12 65.8844 13.2313 66.2413 13.4476L66.7596 12.5924C66.2365 12.2754 65.6526 12.12 65.0205 12.12V13.12ZM66.247 13.451C66.627 13.6745 66.9259 13.9735 67.1495 14.3535L68.0114 13.8465C67.7017 13.3199 67.2806 12.8988 66.754 12.589L66.247 13.451ZM67.1551 14.3627C67.3863 14.737 67.5005 15.1394 67.5005 15.58H68.5005C68.5005 14.954 68.3347 14.3696 68.0059 13.8373L67.1551 14.3627ZM67.5005 15.58V19.3H68.5005V15.58H67.5005ZM67.5005 19.3C67.5005 19.7406 67.3863 20.143 67.1551 20.5173L68.0059 21.0427C68.3347 20.5104 68.5005 19.926 68.5005 19.3H67.5005ZM67.1495 20.5265C66.9259 20.9065 66.627 21.2055 66.247 21.429L66.754 22.291C67.2806 21.9812 67.7017 21.5601 68.0114 21.0335L67.1495 20.5265ZM66.2413 21.4324C65.8844 21.6487 65.4817 21.76 65.0205 21.76V22.76C65.6526 22.76 66.2365 22.6046 66.7596 22.2876L66.2413 21.4324ZM65.0193 21.76L56.6993 21.78L56.7017 22.78L65.0217 22.76L65.0193 21.76ZM56.2005 22.28V27H57.2005V22.28H56.2005ZM56.7005 26.5H53.6005V27.5H56.7005V26.5ZM56.7005 19.64H64.8605V18.64H56.7005V19.64ZM65.3605 19.14V15.72H64.3605V19.14H65.3605ZM64.8605 15.22H56.7005V16.22H64.8605V15.22ZM56.2005 15.72V19.14H57.2005V15.72H56.2005ZM70.1444 27H69.6444V27.5H70.1444V27ZM70.5444 14.08L70.972 14.3392L70.9753 14.3335L70.5444 14.08ZM71.6244 13L71.3709 12.569V12.569L71.6244 13ZM83.0444 13L82.7852 13.4276L82.7909 13.431L83.0444 13ZM84.1244 14.08L83.6934 14.3335L83.6978 14.3411L83.7025 14.3484L84.1244 14.08ZM84.5444 27V27.5H85.0444V27H84.5444ZM81.4044 27H80.9044V27.5H81.4044V27ZM81.4044 22.36H81.9044V21.86H81.4044V22.36ZM73.2444 22.36V21.86H72.7444V22.36H73.2444ZM73.2444 27V27.5H73.7444V27H73.2444ZM73.2444 19.24H72.7444V19.74H73.2444V19.24ZM81.4044 19.24V19.74H81.9044V19.24H81.4044ZM81.4044 15.72H81.9044V15.22H81.4044V15.72ZM73.2444 15.72V15.22H72.7444V15.72H73.2444ZM70.6444 27V15.56H69.6444V27H70.6444ZM70.6444 15.56C70.6444 15.0988 70.7557 14.6961 70.972 14.3392L70.1168 13.8208C69.7998 14.3439 69.6444 14.9279 69.6444 15.56H70.6444ZM70.9753 14.3335C71.1989 13.9535 71.4978 13.6545 71.8779 13.431L71.3709 12.569C70.8443 12.8788 70.4232 13.2999 70.1134 13.8265L70.9753 14.3335ZM71.8779 13.431C72.2533 13.2102 72.6589 13.1 73.1044 13.1V12.1C72.4832 12.1 71.9022 12.2565 71.3709 12.569L71.8779 13.431ZM73.1044 13.1H81.5644V12.1H73.1044V13.1ZM81.5644 13.1C82.0256 13.1 82.4283 13.2113 82.7852 13.4276L83.3035 12.5724C82.7804 12.2554 82.1965 12.1 81.5644 12.1V13.1ZM82.7909 13.431C83.1709 13.6545 83.4698 13.9535 83.6934 14.3335L84.5553 13.8265C84.2456 13.2999 83.8245 12.8788 83.2979 12.569L82.7909 13.431ZM83.7025 14.3484C83.929 14.7042 84.0444 15.1036 84.0444 15.56H85.0444C85.0444 14.9231 84.8798 14.3358 84.5462 13.8116L83.7025 14.3484ZM84.0444 15.56V27H85.0444V15.56H84.0444ZM84.5444 26.5H81.4044V27.5H84.5444V26.5ZM81.9044 27V22.36H80.9044V27H81.9044ZM81.4044 21.86H73.2444V22.86H81.4044V21.86ZM72.7444 22.36V27H73.7444V22.36H72.7444ZM73.2444 26.5H70.1444V27.5H73.2444V26.5ZM73.2444 19.74H81.4044V18.74H73.2444V19.74ZM81.9044 19.24V15.72H80.9044V19.24H81.9044ZM81.4044 15.22H73.2444V16.22H81.4044V15.22ZM72.7444 15.72V19.24H73.7444V15.72H72.7444ZM86.8631 27H86.3631V27.5H86.8631V27ZM86.8631 12.6V12.1H86.3631V12.6H86.8631ZM99.7631 13L99.504 13.4276L99.5096 13.431L99.7631 13ZM100.843 14.08L100.412 14.3335L100.417 14.3411L100.421 14.3484L100.843 14.08ZM100.843 25.52L100.418 25.2572L100.412 25.2665L100.843 25.52ZM99.7631 26.6L99.5096 26.169L99.504 26.1724L99.7631 26.6ZM89.9431 23.88H89.4431V24.38H89.9431V23.88ZM98.1231 23.88V24.38H98.6231V23.88H98.1231ZM98.1231 15.72H98.6231V15.22H98.1231V15.72ZM89.9431 15.72V15.22H89.4431V15.72H89.9431ZM87.3631 27V12.6H86.3631V27H87.3631ZM86.8631 13.1H98.2831V12.1H86.8631V13.1ZM98.2831 13.1C98.7444 13.1 99.1471 13.2113 99.504 13.4276L100.022 12.5724C99.4992 12.2554 98.9152 12.1 98.2831 12.1V13.1ZM99.5096 13.431C99.8897 13.6545 100.189 13.9535 100.412 14.3335L101.274 13.8265C100.964 13.2999 100.543 12.8788 100.017 12.569L99.5096 13.431ZM100.421 14.3484C100.648 14.7042 100.763 15.1036 100.763 15.56H101.763C101.763 14.9231 101.599 14.3358 101.265 13.8116L100.421 14.3484ZM100.763 15.56V24.04H101.763V15.56H100.763ZM100.763 24.04C100.763 24.4806 100.649 24.883 100.418 25.2573L101.269 25.7827C101.597 25.2504 101.763 24.666 101.763 24.04H100.763ZM100.412 25.2665C100.189 25.6465 99.8897 25.9455 99.5096 26.169L100.017 27.031C100.543 26.7212 100.964 26.3001 101.274 25.7735L100.412 25.2665ZM99.504 26.1724C99.1471 26.3887 98.7444 26.5 98.2831 26.5V27.5C98.9152 27.5 99.4992 27.3446 100.022 27.0276L99.504 26.1724ZM98.2831 26.5H86.8631V27.5H98.2831V26.5ZM89.9431 24.38H98.1231V23.38H89.9431V24.38ZM98.6231 23.88V15.72H97.6231V23.88H98.6231ZM98.1231 15.22H89.9431V16.22H98.1231V15.22ZM89.4431 15.72V23.88H90.4431V15.72H89.4431ZM103.543 27H103.043V27.5H103.543V27ZM103.543 12.6V12.1H103.043V12.6H103.543ZM116.843 12.6H117.343V12.1H116.843V12.6ZM116.843 15.72V16.22H117.343V15.72H116.843ZM106.683 15.72V15.22H106.183V15.72H106.683ZM106.683 18.24H106.183V18.74H106.683V18.24ZM114.863 18.24H115.363V17.74H114.863V18.24ZM114.863 21.36V21.86H115.363V21.36H114.863ZM106.683 21.36V20.86H106.183V21.36H106.683ZM106.683 23.88H106.183V24.38H106.683V23.88ZM116.843 23.88H117.343V23.38H116.843V23.88ZM116.843 27V27.5H117.343V27H116.843ZM104.043 27V12.6H103.043V27H104.043ZM103.543 13.1H116.843V12.1H103.543V13.1ZM116.343 12.6V15.72H117.343V12.6H116.343ZM116.843 15.22H106.683V16.22H116.843V15.22ZM106.183 15.72V18.24H107.183V15.72H106.183ZM106.683 18.74H114.863V17.74H106.683V18.74ZM114.363 18.24V21.36H115.363V18.24H114.363ZM114.863 20.86H106.683V21.86H114.863V20.86ZM106.183 21.36V23.88H107.183V21.36H106.183ZM106.683 24.38H116.843V23.38H106.683V24.38ZM116.343 23.88V27H117.343V23.88H116.343ZM116.843 26.5H103.543V27.5H116.843V26.5Z" fill="white"/>
</g>
<defs>
<filter id="filter0_d_223_8977" x="36.7047" y="11.6" width="85.1381" height="20.4" filterUnits="userSpaceOnUse" color-interpolation-filters="sRGB">
<feFlood flood-opacity="0" result="BackgroundImageFix"/>
<feColorMatrix in="SourceAlpha" type="matrix" values="0 0 0 0 0 0 0 0 0 0 0 0 0 0 0 0 0 0 127 0" result="hardAlpha"/>
<feOffset dx="2" dy="2"/>
<feGaussianBlur stdDeviation="1.5"/>
<feComposite in2="hardAlpha" operator="out"/>
<feColorMatrix type="matrix" values="0 0 0 0 0 0 0 0 0 0 0 0 0 0 0 0 0 0 0.15 0"/>
<feBlend mode="normal" in2="BackgroundImageFix" result="effect1_dropShadow_223_8977"/>
<feBlend mode="normal" in="SourceGraphic" in2="effect1_dropShadow_223_8977" result="shape"/>
</filter>
<linearGradient id="paint0_linear_223_8977" x1="13.0481" y1="28.5" x2="36.1795" y2="-30.4187" gradientUnits="userSpaceOnUse">
<stop stop-color="#FAD0C4"/>
<stop offset="1" stop-color="#FBC2EB"/>
</linearGradient>
</defs>
</svg>
