<svg width="274" height="62" viewBox="0 0 274 62" fill="none" xmlns="http://www.w3.org/2000/svg">
<g filter="url(#filter0_d_338_9873)">
<path d="M250.783 41.0594C243.291 50.0156 232.214 55.1908 220.537 55.1908H19.5999C14.041 55.1908 9.53467 50.6844 9.53467 45.1256C9.53467 42.7392 10.3825 40.4304 11.927 38.6113L29.1026 18.3809C36.5949 9.55609 47.5865 4.46924 59.1629 4.46924H260.648C266.001 4.46924 270.34 8.80844 270.34 14.1611C270.34 16.4347 269.541 18.6359 268.082 20.3798L250.783 41.0594Z" fill="url(#paint0_linear_338_9873)"/>
<path d="M245.022 37.3634C237.529 46.3196 226.453 51.4947 214.776 51.4947H13.8387C8.27979 51.4947 3.77344 46.9884 3.77344 41.4295C3.77344 39.0431 4.62132 36.7344 6.16579 34.9152L23.3414 14.6849C30.8337 5.86004 41.8253 0.773193 53.4017 0.773193H254.887C260.24 0.773193 264.579 5.1124 264.579 10.4651C264.579 12.7387 263.78 14.9399 262.321 16.6837L245.022 37.3634Z" fill="url(#paint1_linear_338_9873)"/>
<path d="M61.2573 36.2371V18.0663H65.2952L71.4531 25.4103L77.5857 18.0663H81.6489V36.2371H77.7119V24.0475L71.4531 31.5177L65.169 24.0728V36.2371H61.2573ZM84.0397 36.2371V18.0663H87.901V36.2371H84.0397ZM90.068 36.2371V18.0663H94.106L104.277 30.1802V18.0663H108.239V36.2371H104.201L93.9798 24.0728V36.2371H90.068ZM117.274 36.2371V22.0033H110.158V18.0663H128.328V22.0033H121.211V36.2371H117.274ZM138.349 36.2371V18.0663H142.387L152.557 30.1802V18.0663H156.52V36.2371H152.482L142.261 24.0728V36.2371H138.349ZM163.031 36.2371C162.358 36.2371 161.736 36.0688 161.164 35.7323C160.592 35.3958 160.138 34.9416 159.801 34.3695C159.465 33.7975 159.296 33.175 159.296 32.502V21.8014C159.296 21.1116 159.465 20.4891 159.801 19.9339C160.138 19.3618 160.592 18.9076 161.164 18.5711C161.736 18.2346 162.358 18.0663 163.031 18.0663H173.732C174.405 18.0663 175.019 18.2346 175.574 18.5711C176.146 18.9076 176.601 19.3618 176.937 19.9339C177.29 20.4891 177.467 21.1116 177.467 21.8014V32.502C177.467 33.175 177.29 33.7975 176.937 34.3695C176.601 34.9416 176.146 35.3958 175.574 35.7323C175.019 36.0688 174.405 36.2371 173.732 36.2371H163.031ZM163.208 32.3001H173.505V22.0033H163.208V32.3001ZM185.441 36.2371L178.829 18.0663H182.993L186.955 28.8931L190.918 18.0663H194.527L198.514 28.8931L202.476 18.0663H206.615L200.003 36.2371H197L192.71 24.5523L188.444 36.2371H185.441Z" fill="white"/>
<path d="M61.2573 36.2371H60.863V36.6314H61.2573V36.2371ZM61.2573 18.0663V17.672H60.863V18.0663H61.2573ZM65.2952 18.0663L65.5974 17.813L65.4792 17.672H65.2952V18.0663ZM71.4531 25.4103L71.1509 25.6637L71.4537 26.0248L71.7558 25.6631L71.4531 25.4103ZM77.5857 18.0663V17.672H77.4013L77.283 17.8136L77.5857 18.0663ZM81.6489 18.0663H82.0432V17.672H81.6489V18.0663ZM81.6489 36.2371V36.6314H82.0432V36.2371H81.6489ZM77.7119 36.2371H77.3176V36.6314H77.7119V36.2371ZM77.7119 24.0475H78.1062V22.9629L77.4096 23.7943L77.7119 24.0475ZM71.4531 31.5177L71.1518 31.7721L71.4542 32.1304L71.7554 31.771L71.4531 31.5177ZM65.169 24.0728L65.4704 23.8184L64.7747 22.9942V24.0728H65.169ZM65.169 36.2371V36.6314H65.5634V36.2371H65.169ZM61.6516 36.2371V18.0663H60.863V36.2371H61.6516ZM61.2573 18.4607H65.2952V17.672H61.2573V18.4607ZM64.9931 18.3197L71.1509 25.6637L71.7553 25.157L65.5974 17.813L64.9931 18.3197ZM71.7558 25.6631L77.8884 18.3191L77.283 17.8136L71.1504 25.1576L71.7558 25.6631ZM77.5857 18.4607H81.6489V17.672H77.5857V18.4607ZM81.2546 18.0663V36.2371H82.0432V18.0663H81.2546ZM81.6489 35.8427H77.7119V36.6314H81.6489V35.8427ZM78.1062 36.2371V24.0475H77.3176V36.2371H78.1062ZM77.4096 23.7943L71.1508 31.2645L71.7554 31.771L78.0142 24.3008L77.4096 23.7943ZM71.7544 31.2634L65.4704 23.8184L64.8677 24.3271L71.1518 31.7721L71.7544 31.2634ZM64.7747 24.0728V36.2371H65.5634V24.0728H64.7747ZM65.169 35.8427H61.2573V36.6314H65.169V35.8427ZM84.0397 36.2371H83.6454V36.6314H84.0397V36.2371ZM84.0397 18.0663V17.672H83.6454V18.0663H84.0397ZM87.901 18.0663H88.2953V17.672H87.901V18.0663ZM87.901 36.2371V36.6314H88.2953V36.2371H87.901ZM84.434 36.2371V18.0663H83.6454V36.2371H84.434ZM84.0397 18.4607H87.901V17.672H84.0397V18.4607ZM87.5067 18.0663V36.2371H88.2953V18.0663H87.5067ZM87.901 35.8427H84.0397V36.6314H87.901V35.8427ZM90.068 36.2371H89.6737V36.6314H90.068V36.2371ZM90.068 18.0663V17.672H89.6737V18.0663H90.068ZM94.106 18.0663L94.408 17.8128L94.2898 17.672H94.106V18.0663ZM104.277 30.1802L103.975 30.4337L104.671 31.2631V30.1802H104.277ZM104.277 18.0663V17.672H103.882V18.0663H104.277ZM108.239 18.0663H108.633V17.672H108.239V18.0663ZM108.239 36.2371V36.6314H108.633V36.2371H108.239ZM104.201 36.2371L103.899 36.4907L104.017 36.6314H104.201V36.2371ZM93.9798 24.0728L94.2817 23.8191L93.5854 22.9905V24.0728H93.9798ZM93.9798 36.2371V36.6314H94.3741V36.2371H93.9798ZM90.4624 36.2371V18.0663H89.6737V36.2371H90.4624ZM90.068 18.4607H94.106V17.672H90.068V18.4607ZM93.804 18.3199L103.975 30.4337L104.579 29.9266L94.408 17.8128L93.804 18.3199ZM104.671 30.1802V18.0663H103.882V30.1802H104.671ZM104.277 18.4607H108.239V17.672H104.277V18.4607ZM107.844 18.0663V36.2371H108.633V18.0663H107.844ZM108.239 35.8427H104.201V36.6314H108.239V35.8427ZM104.503 35.9834L94.2817 23.8191L93.6779 24.3264L103.899 36.4907L104.503 35.9834ZM93.5854 24.0728V36.2371H94.3741V24.0728H93.5854ZM93.9798 35.8427H90.068V36.6314H93.9798V35.8427ZM117.274 36.2371H116.88V36.6314H117.274V36.2371ZM117.274 22.0033H117.669V21.609H117.274V22.0033ZM110.158 22.0033H109.763V22.3977H110.158V22.0033ZM110.158 18.0663V17.672H109.763V18.0663H110.158ZM128.328 18.0663H128.723V17.672H128.328V18.0663ZM128.328 22.0033V22.3977H128.723V22.0033H128.328ZM121.211 22.0033V21.609H120.817V22.0033H121.211ZM121.211 36.2371V36.6314H121.606V36.2371H121.211ZM117.669 36.2371V22.0033H116.88V36.2371H117.669ZM117.274 21.609H110.158V22.3977H117.274V21.609ZM110.552 22.0033V18.0663H109.763V22.0033H110.552ZM110.158 18.4607H128.328V17.672H110.158V18.4607ZM127.934 18.0663V22.0033H128.723V18.0663H127.934ZM128.328 21.609H121.211V22.3977H128.328V21.609ZM120.817 22.0033V36.2371H121.606V22.0033H120.817ZM121.211 35.8427H117.274V36.6314H121.211V35.8427ZM138.349 36.2371H137.954V36.6314H138.349V36.2371ZM138.349 18.0663V17.672H137.954V18.0663H138.349ZM142.387 18.0663L142.689 17.8128L142.571 17.672H142.387V18.0663ZM152.557 30.1802L152.255 30.4337L152.952 31.2631V30.1802H152.557ZM152.557 18.0663V17.672H152.163V18.0663H152.557ZM156.52 18.0663H156.914V17.672H156.52V18.0663ZM156.52 36.2371V36.6314H156.914V36.2371H156.52ZM152.482 36.2371L152.18 36.4907L152.298 36.6314H152.482V36.2371ZM142.261 24.0728L142.562 23.8191L141.866 22.9905V24.0728H142.261ZM142.261 36.2371V36.6314H142.655V36.2371H142.261ZM138.743 36.2371V18.0663H137.954V36.2371H138.743ZM138.349 18.4607H142.387V17.672H138.349V18.4607ZM142.085 18.3199L152.255 30.4337L152.859 29.9266L142.689 17.8128L142.085 18.3199ZM152.952 30.1802V18.0663H152.163V30.1802H152.952ZM152.557 18.4607H156.52V17.672H152.557V18.4607ZM156.125 18.0663V36.2371H156.914V18.0663H156.125ZM156.52 35.8427H152.482V36.6314H156.52V35.8427ZM152.783 35.9834L142.562 23.8191L141.959 24.3264L152.18 36.4907L152.783 35.9834ZM141.866 24.0728V36.2371H142.655V24.0728H141.866ZM142.261 35.8427H138.349V36.6314H142.261V35.8427ZM161.164 35.7323L161.364 35.3924L161.164 35.7323ZM159.801 34.3695L159.461 34.5694L159.801 34.3695ZM159.801 19.9339L160.138 20.1383L160.141 20.1338L159.801 19.9339ZM161.164 18.5711L160.964 18.2312V18.2312L161.164 18.5711ZM175.574 18.5711L175.37 18.9083L175.374 18.911L175.574 18.5711ZM176.937 19.9339L176.597 20.1339L176.604 20.1456L176.937 19.9339ZM176.937 34.3695L176.602 34.1622L176.597 34.1696L176.937 34.3695ZM175.574 35.7323L175.374 35.3924L175.37 35.3951L175.574 35.7323ZM163.208 32.3001H162.814V32.6944H163.208V32.3001ZM173.505 32.3001V32.6944H173.899V32.3001H173.505ZM173.505 22.0033H173.899V21.609H173.505V22.0033ZM163.208 22.0033V21.609H162.814V22.0033H163.208ZM163.031 35.8427C162.428 35.8427 161.874 35.6928 161.364 35.3924L160.964 36.0722C161.598 36.4449 162.289 36.6314 163.031 36.6314V35.8427ZM161.364 35.3924C160.85 35.0899 160.444 34.6838 160.141 34.1696L159.461 34.5694C159.832 35.1993 160.334 35.7017 160.964 36.0722L161.364 35.3924ZM160.141 34.1696C159.841 33.659 159.691 33.1057 159.691 32.502H158.902C158.902 33.2442 159.089 33.9359 159.461 34.5694L160.141 34.1696ZM159.691 32.502V21.8014H158.902V32.502H159.691ZM159.691 21.8014C159.691 21.179 159.842 20.628 160.138 20.1383L159.464 19.7295C159.088 20.3502 158.902 21.0442 158.902 21.8014H159.691ZM160.141 20.1338C160.444 19.6196 160.85 19.2135 161.364 18.911L160.964 18.2312C160.334 18.6017 159.832 19.1041 159.461 19.734L160.141 20.1338ZM161.364 18.911C161.874 18.6106 162.428 18.4607 163.031 18.4607V17.672C162.289 17.672 161.598 17.8585 160.964 18.2312L161.364 18.911ZM163.031 18.4607H173.732V17.672H163.031V18.4607ZM173.732 18.4607C174.336 18.4607 174.879 18.6106 175.37 18.9083L175.779 18.2338C175.16 17.8586 174.474 17.672 173.732 17.672V18.4607ZM175.374 18.911C175.889 19.2135 176.295 19.6196 176.597 20.1338L177.277 19.734C176.907 19.1041 176.404 18.6017 175.774 18.2312L175.374 18.911ZM176.604 20.1456C176.916 20.6344 177.073 21.1828 177.073 21.8014H177.861C177.861 21.0404 177.665 20.3438 177.27 19.7222L176.604 20.1456ZM177.073 21.8014V32.502H177.861V21.8014H177.073ZM177.073 32.502C177.073 33.1018 176.916 33.6526 176.602 34.1623L177.273 34.5767C177.664 33.9424 177.861 33.2481 177.861 32.502H177.073ZM176.597 34.1696C176.295 34.6838 175.889 35.0899 175.374 35.3924L175.774 36.0722C176.404 35.7017 176.907 35.1993 177.277 34.5694L176.597 34.1696ZM175.37 35.3951C174.879 35.6928 174.336 35.8427 173.732 35.8427V36.6314C174.474 36.6314 175.16 36.4448 175.779 36.0695L175.37 35.3951ZM173.732 35.8427H163.031V36.6314H173.732V35.8427ZM163.208 32.6944H173.505V31.9057H163.208V32.6944ZM173.899 32.3001V22.0033H173.111V32.3001H173.899ZM173.505 21.609H163.208V22.3977H173.505V21.609ZM162.814 22.0033V32.3001H163.602V22.0033H162.814ZM185.441 36.2371L185.071 36.3719L185.165 36.6314H185.441V36.2371ZM178.829 18.0663V17.672H178.266L178.459 18.2012L178.829 18.0663ZM182.993 18.0663L183.364 17.9308L183.269 17.672H182.993V18.0663ZM186.955 28.8931L186.585 29.0286L186.955 30.0404L187.326 29.0286L186.955 28.8931ZM190.918 18.0663V17.672H190.642L190.547 17.9308L190.918 18.0663ZM194.527 18.0663L194.897 17.9301L194.802 17.672H194.527V18.0663ZM198.514 28.8931L198.144 29.0293L198.515 30.0372L198.884 29.0286L198.514 28.8931ZM202.476 18.0663V17.672H202.201L202.106 17.9308L202.476 18.0663ZM206.615 18.0663L206.986 18.2012L207.178 17.672H206.615V18.0663ZM200.003 36.2371V36.6314H200.279L200.374 36.3719L200.003 36.2371ZM197 36.2371L196.63 36.373L196.725 36.6314H197V36.2371ZM192.71 24.5523L193.08 24.4164L192.708 23.4052L192.339 24.4171L192.71 24.5523ZM188.444 36.2371V36.6314H188.72L188.815 36.3723L188.444 36.2371ZM185.812 36.1022L179.2 17.9315L178.459 18.2012L185.071 36.3719L185.812 36.1022ZM178.829 18.4607H182.993V17.672H178.829V18.4607ZM182.623 18.2019L186.585 29.0286L187.326 28.7575L183.364 17.9308L182.623 18.2019ZM187.326 29.0286L191.288 18.2019L190.547 17.9308L186.585 28.7575L187.326 29.0286ZM190.918 18.4607H194.527V17.672H190.918V18.4607ZM194.157 18.2026L198.144 29.0293L198.884 28.7568L194.897 17.9301L194.157 18.2026ZM198.884 29.0286L202.847 18.2019L202.106 17.9308L198.144 28.7575L198.884 29.0286ZM202.476 18.4607H206.615V17.672H202.476V18.4607ZM206.245 17.9315L199.633 36.1022L200.374 36.3719L206.986 18.2012L206.245 17.9315ZM200.003 35.8427H197V36.6314H200.003V35.8427ZM197.37 36.1011L193.08 24.4164L192.339 24.6882L196.63 36.373L197.37 36.1011ZM192.339 24.4171L188.074 36.1019L188.815 36.3723L193.08 24.6875L192.339 24.4171ZM188.444 35.8427H185.441V36.6314H188.444V35.8427Z" fill="white"/>
</g>
<defs>
<filter id="filter0_d_338_9873" x="0.618798" y="0.773193" width="272.876" height="60.7269" filterUnits="userSpaceOnUse" color-interpolation-filters="sRGB">
<feFlood flood-opacity="0" result="BackgroundImageFix"/>
<feColorMatrix in="SourceAlpha" type="matrix" values="0 0 0 0 0 0 0 0 0 0 0 0 0 0 0 0 0 0 127 0" result="hardAlpha"/>
<feOffset dy="3.15464"/>
<feGaussianBlur stdDeviation="1.57732"/>
<feComposite in2="hardAlpha" operator="out"/>
<feColorMatrix type="matrix" values="0 0 0 0 0 0 0 0 0 0 0 0 0 0 0 0 0 0 0.25 0"/>
<feBlend mode="normal" in2="BackgroundImageFix" result="effect1_dropShadow_338_9873"/>
<feBlend mode="normal" in="SourceGraphic" in2="effect1_dropShadow_338_9873" result="shape"/>
</filter>
<linearGradient id="paint0_linear_338_9873" x1="9.53467" y1="29.83" x2="270.34" y2="29.83" gradientUnits="userSpaceOnUse">
<stop offset="0.59" stop-color="#05339C"/>
<stop offset="1" stop-color="#8F05C7"/>
</linearGradient>
<linearGradient id="paint1_linear_338_9873" x1="21.2441" y1="38.8143" x2="51.933" y2="-52.2912" gradientUnits="userSpaceOnUse">
<stop stop-color="#FAD0C4"/>
<stop offset="1" stop-color="#FBC2EB"/>
</linearGradient>
</defs>
</svg>
