<svg width="56" height="67" viewBox="0 0 56 67" fill="none" xmlns="http://www.w3.org/2000/svg">
<g filter="url(#filter0_d_436_11281)">
<path d="M28 2C16.9543 2 8 10.9543 8 22C8 33.0457 16.9543 42 28 42C39.0457 42 48 33.0457 48 22C48 10.9543 39.0457 2 28 2ZM20.5 22C20.5 23.3808 19.3807 24.5 18 24.5C16.6193 24.5 15.5 23.3808 15.5 22C15.5 20.6193 16.6193 19.5 18 19.5C19.3807 19.5 20.5 20.6193 20.5 22ZM30.5 22C30.5 23.3808 29.3808 24.5 28 24.5C26.6193 24.5 25.5 23.3808 25.5 22C25.5 20.6193 26.6193 19.5 28 19.5C29.3808 19.5 30.5 20.6193 30.5 22ZM40.5 22C40.5 23.3808 39.3808 24.5 38 24.5C36.6192 24.5 35.5 23.3808 35.5 22C35.5 20.6193 36.6192 19.5 38 19.5C39.3808 19.5 40.5 20.6193 40.5 22Z" fill="white"/>
</g>
<g filter="url(#filter1_d_436_11281)">
<path d="M7.64329 62V53.1168H9.61734L12.6278 56.7071L15.6258 53.1168H17.6122V62H15.6875V56.0408L12.6278 59.6928L9.55565 56.0532V62H7.64329ZM20.8908 62C20.5618 62 20.2575 61.9177 19.9778 61.7532C19.6982 61.5887 19.4761 61.3667 19.3116 61.087C19.1471 60.8073 19.0648 60.503 19.0648 60.174V54.9428C19.0648 54.6055 19.1471 54.3012 19.3116 54.0298C19.4761 53.7501 19.6982 53.528 19.9778 53.3635C20.2575 53.199 20.5618 53.1168 20.8908 53.1168H26.122C26.451 53.1168 26.7513 53.199 27.0227 53.3635C27.3023 53.528 27.5244 53.7501 27.6889 54.0298C27.8617 54.3012 27.948 54.6055 27.948 54.9428V60.174C27.948 60.503 27.8617 60.8073 27.6889 61.087C27.5244 61.3667 27.3023 61.5887 27.0227 61.7532C26.7513 61.9177 26.451 62 26.122 62H20.8908ZM20.9772 60.0753H26.011V55.0415H20.9772V60.0753ZM36.2036 62L33.625 58.9279H36.1295L38.1776 61.3461V62H36.2036ZM29.3067 62V53.1291H36.3516C36.6888 53.1291 36.9932 53.2114 37.2646 53.3759C37.5443 53.5404 37.7663 53.7625 37.9308 54.0421C38.1036 54.3218 38.1899 54.6261 38.1899 54.9551V57.2499C38.1899 57.579 38.1036 57.8833 37.9308 58.1629C37.7663 58.4426 37.5443 58.6647 37.2646 58.8292C36.9932 58.9937 36.6888 59.0759 36.3516 59.0759L31.2191 59.0883V62H29.3067ZM31.2191 57.1512H36.2529V55.0415H31.2191V57.1512ZM39.5125 62V53.1168H47.7171V55.0415H41.4495V56.596H46.4957V58.5207H41.4495V60.0753H47.7171V62H39.5125Z" fill="white"/>
<path d="M7.64329 62H7.33485V62.3084H7.64329V62ZM7.64329 53.1168V52.8083H7.33485V53.1168H7.64329ZM9.61734 53.1168L9.85369 52.9186L9.76124 52.8083H9.61734V53.1168ZM12.6278 56.7071L12.3914 56.9053L12.6282 57.1877L12.8645 56.9048L12.6278 56.7071ZM15.6258 53.1168V52.8083H15.4816L15.3891 52.9191L15.6258 53.1168ZM17.6122 53.1168H17.9207V52.8083H17.6122V53.1168ZM17.6122 62V62.3084H17.9207V62H17.6122ZM15.6875 62H15.3791V62.3084H15.6875V62ZM15.6875 56.0408H15.996V55.1924L15.4511 55.8428L15.6875 56.0408ZM12.6278 59.6928L12.3921 59.8918L12.6286 60.1721L12.8642 59.8909L12.6278 59.6928ZM9.55565 56.0532L9.79135 55.8542L9.2472 55.2096V56.0532H9.55565ZM9.55565 62V62.3084H9.86409V62H9.55565ZM7.95174 62V53.1168H7.33485V62H7.95174ZM7.64329 53.4252H9.61734V52.8083H7.64329V53.4252ZM9.38098 53.315L12.3914 56.9053L12.8641 56.5089L9.85369 52.9186L9.38098 53.315ZM12.8645 56.9048L15.8626 53.3145L15.3891 52.9191L12.391 56.5094L12.8645 56.9048ZM15.6258 53.4252H17.6122V52.8083H15.6258V53.4252ZM17.3038 53.1168V62H17.9207V53.1168H17.3038ZM17.6122 61.6916H15.6875V62.3084H17.6122V61.6916ZM15.996 62V56.0408H15.3791V62H15.996ZM15.4511 55.8428L12.3913 59.4947L12.8642 59.8909L15.924 56.2389L15.4511 55.8428ZM12.8635 59.4939L9.79135 55.8542L9.31994 56.2521L12.3921 59.8918L12.8635 59.4939ZM9.2472 56.0532V62H9.86409V56.0532H9.2472ZM9.55565 61.6916H7.64329V62.3084H9.55565V61.6916ZM19.9778 61.7532L20.1342 61.4874L19.9778 61.7532ZM19.3116 61.087L19.0457 61.2434L19.3116 61.087ZM19.3116 54.0298L19.5754 54.1897L19.5774 54.1862L19.3116 54.0298ZM19.9778 53.3635L19.8214 53.0977V53.0977L19.9778 53.3635ZM27.0227 53.3635L26.8628 53.6273L26.8663 53.6294L27.0227 53.3635ZM27.6889 54.0298L27.4229 54.1863L27.4287 54.1954L27.6889 54.0298ZM27.6889 61.087L27.4264 60.9249L27.4231 60.9306L27.6889 61.087ZM27.0227 61.7532L26.8663 61.4874L26.8628 61.4895L27.0227 61.7532ZM20.9772 60.0753H20.6687V60.3837H20.9772V60.0753ZM26.011 60.0753V60.3837H26.3194V60.0753H26.011ZM26.011 55.0415H26.3194V54.733H26.011V55.0415ZM20.9772 55.0415V54.733H20.6687V55.0415H20.9772ZM20.8908 61.6916C20.616 61.6916 20.3658 61.6236 20.1342 61.4874L19.8214 62.0191C20.1492 62.2119 20.5076 62.3084 20.8908 62.3084V61.6916ZM20.1342 61.4874C19.8997 61.3495 19.7153 61.1651 19.5774 60.9306L19.0457 61.2434C19.2368 61.5683 19.4966 61.828 19.8214 62.0191L20.1342 61.4874ZM19.5774 60.9306C19.4412 60.6991 19.3733 60.4488 19.3733 60.174H18.7564C18.7564 60.5572 18.8529 60.9156 19.0457 61.2434L19.5774 60.9306ZM19.3733 60.174V54.9428H18.7564V60.174H19.3733ZM19.3733 54.9428C19.3733 54.6582 19.4419 54.4098 19.5753 54.1897L19.0478 53.8699C18.8522 54.1926 18.7564 54.5528 18.7564 54.9428H19.3733ZM19.5774 54.1862C19.7153 53.9517 19.8997 53.7673 20.1342 53.6294L19.8214 53.0977C19.4966 53.2888 19.2368 53.5485 19.0457 53.8734L19.5774 54.1862ZM20.1342 53.6294C20.3658 53.4932 20.616 53.4252 20.8908 53.4252V52.8083C20.5076 52.8083 20.1492 52.9049 19.8214 53.0977L20.1342 53.6294ZM20.8908 53.4252H26.122V52.8083H20.8908V53.4252ZM26.122 53.4252C26.3968 53.4252 26.6414 53.4931 26.8628 53.6273L27.1826 53.0998C26.8611 52.9049 26.5052 52.8083 26.122 52.8083V53.4252ZM26.8663 53.6294C27.1008 53.7673 27.2852 53.9517 27.4231 54.1862L27.9548 53.8734C27.7637 53.5485 27.5039 53.2888 27.1791 53.0977L26.8663 53.6294ZM27.4287 54.1954C27.5684 54.4149 27.6396 54.6612 27.6396 54.9428H28.2565C28.2565 54.5499 28.1549 54.1876 27.9492 53.8642L27.4287 54.1954ZM27.6396 54.9428V60.174H28.2565V54.9428H27.6396ZM27.6396 60.174C27.6396 60.4458 27.5691 60.694 27.4265 60.9249L27.9514 61.2491C28.1542 60.9207 28.2565 60.5602 28.2565 60.174H27.6396ZM27.4231 60.9306C27.2852 61.1651 27.1008 61.3495 26.8663 61.4874L27.1791 62.0191C27.5039 61.828 27.7637 61.5683 27.9548 61.2434L27.4231 60.9306ZM26.8628 61.4895C26.6414 61.6236 26.3968 61.6916 26.122 61.6916V62.3084C26.5052 62.3084 26.8611 62.2118 27.1826 62.017L26.8628 61.4895ZM26.122 61.6916H20.8908V62.3084H26.122V61.6916ZM20.9772 60.3837H26.011V59.7669H20.9772V60.3837ZM26.3194 60.0753V55.0415H25.7025V60.0753H26.3194ZM26.011 54.733H20.9772V55.3499H26.011V54.733ZM20.6687 55.0415V60.0753H21.2856V55.0415H20.6687ZM36.2036 62L35.9673 62.1983L36.0598 62.3084H36.2036V62ZM33.625 58.9279V58.6194H32.9634L33.3887 59.1262L33.625 58.9279ZM36.1295 58.9279L36.3649 58.7285L36.2725 58.6194H36.1295V58.9279ZM38.1776 61.3461H38.486V61.233L38.413 61.1468L38.1776 61.3461ZM38.1776 62V62.3084H38.486V62H38.1776ZM29.3067 62H28.9983V62.3084H29.3067V62ZM29.3067 53.1291V52.8207H28.9983V53.1291H29.3067ZM37.2646 53.3759L37.1047 53.6397L37.1082 53.6417L37.2646 53.3759ZM37.9308 54.0421L37.6649 54.1985L37.6684 54.2042L37.9308 54.0421ZM37.9308 58.1629L37.6684 58.0008L37.665 58.0066L37.9308 58.1629ZM37.2646 58.8292L37.1082 58.5633L37.1047 58.5654L37.2646 58.8292ZM36.3516 59.0759V58.7675L36.3509 58.7675L36.3516 59.0759ZM31.2191 59.0883L31.2183 58.7798L30.9106 58.7806V59.0883H31.2191ZM31.2191 62V62.3084H31.5275V62H31.2191ZM31.2191 57.1512H30.9106V57.4597H31.2191V57.1512ZM36.2529 57.1512V57.4597H36.5614V57.1512H36.2529ZM36.2529 55.0415H36.5614V54.733H36.2529V55.0415ZM31.2191 55.0415V54.733H30.9106V55.0415H31.2191ZM36.4398 61.8017L33.8612 58.7296L33.3887 59.1262L35.9673 62.1983L36.4398 61.8017ZM33.625 59.2363H36.1295V58.6194H33.625V59.2363ZM35.8942 59.1272L37.9422 61.5454L38.413 61.1468L36.3649 58.7285L35.8942 59.1272ZM37.8692 61.3461V62H38.486V61.3461H37.8692ZM38.1776 61.6916H36.2036V62.3084H38.1776V61.6916ZM29.6152 62V53.1291H28.9983V62H29.6152ZM29.3067 53.4376H36.3516V52.8207H29.3067V53.4376ZM36.3516 53.4376C36.6361 53.4376 36.8846 53.5062 37.1047 53.6397L37.4245 53.1121C37.1018 52.9165 36.7415 52.8207 36.3516 52.8207V53.4376ZM37.1082 53.6417C37.3427 53.7797 37.5271 53.9641 37.665 54.1985L38.1967 53.8857C38.0056 53.5609 37.7459 53.3011 37.421 53.11L37.1082 53.6417ZM37.6684 54.2042C37.811 54.4351 37.8815 54.6833 37.8815 54.9551H38.4984C38.4984 54.5689 38.3961 54.2085 38.1933 53.88L37.6684 54.2042ZM37.8815 54.9551V57.2499H38.4984V54.9551H37.8815ZM37.8815 57.2499C37.8815 57.5218 37.811 57.77 37.6684 58.0009L38.1933 58.325C38.3961 57.9966 38.4984 57.6362 38.4984 57.2499H37.8815ZM37.665 58.0066C37.5271 58.241 37.3427 58.4254 37.1082 58.5633L37.421 59.095C37.7459 58.904 38.0056 58.6442 38.1967 58.3193L37.665 58.0066ZM37.1047 58.5654C36.8846 58.6988 36.6361 58.7675 36.3516 58.7675V59.3844C36.7415 59.3844 37.1018 59.2885 37.4245 59.093L37.1047 58.5654ZM36.3509 58.7675L31.2183 58.7798L31.2198 59.3967L36.3524 59.3844L36.3509 58.7675ZM30.9106 59.0883V62H31.5275V59.0883H30.9106ZM31.2191 61.6916H29.3067V62.3084H31.2191V61.6916ZM31.2191 57.4597H36.2529V56.8428H31.2191V57.4597ZM36.5614 57.1512V55.0415H35.9445V57.1512H36.5614ZM36.2529 54.733H31.2191V55.3499H36.2529V54.733ZM30.9106 55.0415V57.1512H31.5275V55.0415H30.9106ZM39.5125 62H39.204V62.3084H39.5125V62ZM39.5125 53.1168V52.8083H39.204V53.1168H39.5125ZM47.7171 53.1168H48.0256V52.8083H47.7171V53.1168ZM47.7171 55.0415V55.3499H48.0256V55.0415H47.7171ZM41.4495 55.0415V54.733H41.1411V55.0415H41.4495ZM41.4495 56.596H41.1411V56.9045H41.4495V56.596ZM46.4957 56.596H46.8041V56.2876H46.4957V56.596ZM46.4957 58.5207V58.8292H46.8041V58.5207H46.4957ZM41.4495 58.5207V58.2123H41.1411V58.5207H41.4495ZM41.4495 60.0753H41.1411V60.3837H41.4495V60.0753ZM47.7171 60.0753H48.0256V59.7669H47.7171V60.0753ZM47.7171 62V62.3084H48.0256V62H47.7171ZM39.8209 62V53.1168H39.204V62H39.8209ZM39.5125 53.4252H47.7171V52.8083H39.5125V53.4252ZM47.4087 53.1168V55.0415H48.0256V53.1168H47.4087ZM47.7171 54.733H41.4495V55.3499H47.7171V54.733ZM41.1411 55.0415V56.596H41.758V55.0415H41.1411ZM41.4495 56.9045H46.4957V56.2876H41.4495V56.9045ZM46.1872 56.596V58.5207H46.8041V56.596H46.1872ZM46.4957 58.2123H41.4495V58.8292H46.4957V58.2123ZM41.1411 58.5207V60.0753H41.758V58.5207H41.1411ZM41.4495 60.3837H47.7171V59.7669H41.4495V60.3837ZM47.4087 60.0753V62H48.0256V60.0753H47.4087ZM47.7171 61.6916H39.5125V62.3084H47.7171V61.6916Z" fill="white"/>
</g>
<defs>
<filter id="filter0_d_436_11281" x="4" y="0" width="48" height="48" filterUnits="userSpaceOnUse" color-interpolation-filters="sRGB">
<feFlood flood-opacity="0" result="BackgroundImageFix"/>
<feColorMatrix in="SourceAlpha" type="matrix" values="0 0 0 0 0 0 0 0 0 0 0 0 0 0 0 0 0 0 127 0" result="hardAlpha"/>
<feOffset dy="2"/>
<feGaussianBlur stdDeviation="2"/>
<feComposite in2="hardAlpha" operator="out"/>
<feColorMatrix type="matrix" values="0 0 0 0 0 0 0 0 0 0 0 0 0 0 0 0 0 0 0.15 0"/>
<feBlend mode="normal" in2="BackgroundImageFix" result="effect1_dropShadow_436_11281"/>
<feBlend mode="normal" in="SourceGraphic" in2="effect1_dropShadow_436_11281" result="shape"/>
</filter>
<filter id="filter1_d_436_11281" x="7.02642" y="52.4999" width="43.7751" height="12.5846" filterUnits="userSpaceOnUse" color-interpolation-filters="sRGB">
<feFlood flood-opacity="0" result="BackgroundImageFix"/>
<feColorMatrix in="SourceAlpha" type="matrix" values="0 0 0 0 0 0 0 0 0 0 0 0 0 0 0 0 0 0 127 0" result="hardAlpha"/>
<feOffset dx="1.23378" dy="1.23378"/>
<feGaussianBlur stdDeviation="0.925335"/>
<feComposite in2="hardAlpha" operator="out"/>
<feColorMatrix type="matrix" values="0 0 0 0 0 0 0 0 0 0 0 0 0 0 0 0 0 0 0.15 0"/>
<feBlend mode="normal" in2="BackgroundImageFix" result="effect1_dropShadow_436_11281"/>
<feBlend mode="normal" in="SourceGraphic" in2="effect1_dropShadow_436_11281" result="shape"/>
</filter>
</defs>
</svg>
