<svg width="56" height="67" viewBox="0 0 56 67" fill="none" xmlns="http://www.w3.org/2000/svg">
<g filter="url(#filter0_d_436_11282)">
<path d="M28 2.03914C16.9543 2.03914 8 10.9934 8 22.0391C8 33.0849 16.9543 42.0391 28 42.0391C39.0457 42.0391 48 33.0849 48 22.0391C48 10.9934 39.0457 2.03914 28 2.03914ZM20.5 22.0391C20.5 23.4199 19.3807 24.5391 18 24.5391C16.6193 24.5391 15.5 23.4199 15.5 22.0391C15.5 20.6584 16.6193 19.5391 18 19.5391C19.3807 19.5391 20.5 20.6584 20.5 22.0391ZM30.5 22.0391C30.5 23.4199 29.3808 24.5391 28 24.5391C26.6193 24.5391 25.5 23.4199 25.5 22.0391C25.5 20.6584 26.6193 19.5391 28 19.5391C29.3808 19.5391 30.5 20.6584 30.5 22.0391ZM40.5 22.0391C40.5 23.4199 39.3808 24.5391 38 24.5391C36.6192 24.5391 35.5 23.4199 35.5 22.0391C35.5 20.6584 36.6192 19.5391 38 19.5391C39.3808 19.5391 40.5 20.6584 40.5 22.0391Z" fill="url(#paint0_linear_436_11282)"/>
</g>
<g filter="url(#filter1_d_436_11282)">
<path d="M7.64329 62.0391V53.1559H9.61734L12.6278 56.7462L15.6258 53.1559H17.6122V62.0391H15.6875V56.08L12.6278 59.732L9.55565 56.0923V62.0391H7.64329ZM20.8908 62.0391C20.5618 62.0391 20.2575 61.9569 19.9778 61.7924C19.6982 61.6279 19.4761 61.4058 19.3116 61.1261C19.1471 60.8465 19.0648 60.5422 19.0648 60.2131V54.9819C19.0648 54.6447 19.1471 54.3404 19.3116 54.0689C19.4761 53.7893 19.6982 53.5672 19.9778 53.4027C20.2575 53.2382 20.5618 53.1559 20.8908 53.1559H26.122C26.451 53.1559 26.7513 53.2382 27.0227 53.4027C27.3023 53.5672 27.5244 53.7893 27.6889 54.0689C27.8617 54.3404 27.948 54.6447 27.948 54.9819V60.2131C27.948 60.5422 27.8617 60.8465 27.6889 61.1261C27.5244 61.4058 27.3023 61.6279 27.0227 61.7924C26.7513 61.9569 26.451 62.0391 26.122 62.0391H20.8908ZM20.9772 60.1144H26.011V55.0806H20.9772V60.1144ZM36.2036 62.0391L33.625 58.967H36.1295L38.1776 61.3852V62.0391H36.2036ZM29.3067 62.0391V53.1683H36.3516C36.6888 53.1683 36.9932 53.2505 37.2646 53.415C37.5443 53.5795 37.7663 53.8016 37.9308 54.0813C38.1036 54.3609 38.1899 54.6652 38.1899 54.9943V57.2891C38.1899 57.6181 38.1036 57.9224 37.9308 58.2021C37.7663 58.4817 37.5443 58.7038 37.2646 58.8683C36.9932 59.0328 36.6888 59.1151 36.3516 59.1151L31.2191 59.1274V62.0391H29.3067ZM31.2191 57.1904H36.2529V55.0806H31.2191V57.1904ZM39.5125 62.0391V53.1559H47.7171V55.0806H41.4495V56.6352H46.4957V58.5599H41.4495V60.1144H47.7171V62.0391H39.5125Z" fill="url(#paint1_linear_436_11282)"/>
</g>
<defs>
<filter id="filter0_d_436_11282" x="4" y="0.0391388" width="48" height="48" filterUnits="userSpaceOnUse" color-interpolation-filters="sRGB">
<feFlood flood-opacity="0" result="BackgroundImageFix"/>
<feColorMatrix in="SourceAlpha" type="matrix" values="0 0 0 0 0 0 0 0 0 0 0 0 0 0 0 0 0 0 127 0" result="hardAlpha"/>
<feOffset dy="2"/>
<feGaussianBlur stdDeviation="2"/>
<feComposite in2="hardAlpha" operator="out"/>
<feColorMatrix type="matrix" values="0 0 0 0 0 0 0 0 0 0 0 0 0 0 0 0 0 0 0.15 0"/>
<feBlend mode="normal" in2="BackgroundImageFix" result="effect1_dropShadow_436_11282"/>
<feBlend mode="normal" in="SourceGraphic" in2="effect1_dropShadow_436_11282" result="shape"/>
</filter>
<filter id="filter1_d_436_11282" x="7.02642" y="52.539" width="43.7751" height="12.5846" filterUnits="userSpaceOnUse" color-interpolation-filters="sRGB">
<feFlood flood-opacity="0" result="BackgroundImageFix"/>
<feColorMatrix in="SourceAlpha" type="matrix" values="0 0 0 0 0 0 0 0 0 0 0 0 0 0 0 0 0 0 127 0" result="hardAlpha"/>
<feOffset dx="1.23378" dy="1.23378"/>
<feGaussianBlur stdDeviation="0.925335"/>
<feComposite in2="hardAlpha" operator="out"/>
<feColorMatrix type="matrix" values="0 0 0 0 0 0 0 0 0 0 0 0 0 0 0 0 0 0 0.15 0"/>
<feBlend mode="normal" in2="BackgroundImageFix" result="effect1_dropShadow_436_11282"/>
<feBlend mode="normal" in="SourceGraphic" in2="effect1_dropShadow_436_11282" result="shape"/>
</filter>
<linearGradient id="paint0_linear_436_11282" x1="18.1124" y1="5.12158" x2="33.1902" y2="42.5137" gradientUnits="userSpaceOnUse">
<stop stop-color="#FFE856"/>
<stop offset="1" stop-color="#FBD241"/>
</linearGradient>
<linearGradient id="paint1_linear_436_11282" x1="13.9539" y1="51.2751" x2="15.9688" y2="68.4704" gradientUnits="userSpaceOnUse">
<stop stop-color="#FFE856"/>
<stop offset="1" stop-color="#FBD241"/>
</linearGradient>
</defs>
</svg>
