<svg width="257" height="53" viewBox="0 0 257 53" fill="none" xmlns="http://www.w3.org/2000/svg">
<path d="M237.986 38.7843C230.773 47.4067 220.11 52.3889 208.868 52.3889H15.4217C10.07 52.3889 5.73169 48.0505 5.73169 42.6989C5.73169 40.4015 6.54796 38.1788 8.03486 36.4275L24.5701 16.9513C31.7831 8.45546 42.365 3.55823 53.5099 3.55823H247.484C252.637 3.55823 256.815 7.73567 256.815 12.8888C256.815 15.0776 256.045 17.1968 254.641 18.8756L237.986 38.7843Z" fill="url(#paint0_linear_222_12018)"/>
<path d="M232.44 35.2261C225.227 43.8485 214.563 48.8307 203.322 48.8307H9.87529C4.52365 48.8307 0.185303 44.4923 0.185303 39.1407C0.185303 36.8433 1.00158 34.6206 2.48847 32.8693L19.0237 13.3931C26.2368 4.89723 36.8186 0 47.9635 0H241.938C247.091 0 251.268 4.17744 251.268 9.33058C251.268 11.5194 250.499 13.6386 249.094 15.3174L232.44 35.2261Z" fill="url(#paint1_linear_222_12018)"/>
<path d="M91.1535 33.1111V15.6178H95.0409L104.832 27.28V15.6178H108.647V33.1111H104.759L94.9194 21.4003V33.1111H91.1535ZM111.417 33.1111V15.6178H127.574V19.408H115.232V22.4693H125.169V26.2595H115.232V29.3209H127.574V33.1111H111.417ZM129.728 33.1111V31.8234L135.972 24.3644L129.728 16.9055V15.6178H133.639L138.499 21.376L143.309 15.6178H147.221V16.9055L140.953 24.3644L147.221 31.7991V33.1111H143.309L138.45 27.3772L133.639 33.1111H129.728ZM155.665 33.1111V19.408H148.813V15.6178H166.306V19.408H159.455V33.1111H155.665Z" fill="white"/>
<path d="M91.1535 33.1111H90.7738V33.4907H91.1535V33.1111ZM91.1535 15.6178V15.2381H90.7738V15.6178H91.1535ZM95.0409 15.6178L95.3316 15.3736L95.2178 15.2381H95.0409V15.6178ZM104.832 27.28L104.542 27.5241L105.212 28.3225V27.28H104.832ZM104.832 15.6178V15.2381H104.453V15.6178H104.832ZM108.647 15.6178H109.026V15.2381H108.647V15.6178ZM108.647 33.1111V33.4907H109.026V33.1111H108.647ZM104.759 33.1111L104.469 33.3553L104.583 33.4907H104.759V33.1111ZM94.9194 21.4003L95.21 21.1561L94.5398 20.3583V21.4003H94.9194ZM94.9194 33.1111V33.4907H95.299V33.1111H94.9194ZM91.5331 33.1111V15.6178H90.7738V33.1111H91.5331ZM91.1535 15.9974H95.0409V15.2381H91.1535V15.9974ZM94.7501 15.8619L104.542 27.5241L105.123 27.0359L95.3316 15.3736L94.7501 15.8619ZM105.212 27.28V15.6178H104.453V27.28H105.212ZM104.832 15.9974H108.647V15.2381H104.832V15.9974ZM108.267 15.6178V33.1111H109.026V15.6178H108.267ZM108.647 32.7315H104.759V33.4907H108.647V32.7315ZM105.05 32.8669L95.21 21.1561L94.6288 21.6445L104.469 33.3553L105.05 32.8669ZM94.5398 21.4003V33.1111H95.299V21.4003H94.5398ZM94.9194 32.7315H91.1535V33.4907H94.9194V32.7315ZM111.417 33.1111H111.038V33.4907H111.417V33.1111ZM111.417 15.6178V15.2381H111.038V15.6178H111.417ZM127.574 15.6178H127.954V15.2381H127.574V15.6178ZM127.574 19.408V19.7876H127.954V19.408H127.574ZM115.232 19.408V19.0283H114.852V19.408H115.232ZM115.232 22.4693H114.852V22.8489H115.232V22.4693ZM125.169 22.4693H125.549V22.0897H125.169V22.4693ZM125.169 26.2595V26.6392H125.549V26.2595H125.169ZM115.232 26.2595V25.8799H114.852V26.2595H115.232ZM115.232 29.3209H114.852V29.7005H115.232V29.3209ZM127.574 29.3209H127.954V28.9412H127.574V29.3209ZM127.574 33.1111V33.4907H127.954V33.1111H127.574ZM111.797 33.1111V15.6178H111.038V33.1111H111.797ZM111.417 15.9974H127.574V15.2381H111.417V15.9974ZM127.195 15.6178V19.408H127.954V15.6178H127.195ZM127.574 19.0283H115.232V19.7876H127.574V19.0283ZM114.852 19.408V22.4693H115.611V19.408H114.852ZM115.232 22.8489H125.169V22.0897H115.232V22.8489ZM124.789 22.4693V26.2595H125.549V22.4693H124.789ZM125.169 25.8799H115.232V26.6392H125.169V25.8799ZM114.852 26.2595V29.3209H115.611V26.2595H114.852ZM115.232 29.7005H127.574V28.9412H115.232V29.7005ZM127.195 29.3209V33.1111H127.954V29.3209H127.195ZM127.574 32.7315H111.417V33.4907H127.574V32.7315ZM129.728 33.1111H129.348V33.4907H129.728V33.1111ZM129.728 31.8234L129.437 31.5797L129.348 31.6855V31.8234H129.728ZM135.972 24.3644L136.263 24.6081L136.467 24.3644L136.263 24.1207L135.972 24.3644ZM129.728 16.9055H129.348V17.0434L129.437 17.1491L129.728 16.9055ZM129.728 15.6178V15.2381H129.348V15.6178H129.728ZM133.639 15.6178L133.929 15.3729L133.816 15.2381H133.639V15.6178ZM138.499 21.376L138.208 21.6208L138.5 21.9663L138.79 21.6194L138.499 21.376ZM143.309 15.6178V15.2381H143.132L143.018 15.3744L143.309 15.6178ZM147.221 15.6178H147.601V15.2381H147.221V15.6178ZM147.221 16.9055L147.512 17.1497L147.601 17.0438V16.9055H147.221ZM140.953 24.3644L140.662 24.1202L140.456 24.3648L140.662 24.6091L140.953 24.3644ZM147.221 31.7991H147.601V31.6604L147.511 31.5544L147.221 31.7991ZM147.221 33.1111V33.4907H147.601V33.1111H147.221ZM143.309 33.1111L143.02 33.3565L143.133 33.4907H143.309V33.1111ZM138.45 27.3772L138.74 27.1317L138.449 26.7882L138.159 27.1332L138.45 27.3772ZM133.639 33.1111V33.4907H133.816L133.93 33.3551L133.639 33.1111ZM130.107 33.1111V31.8234H129.348V33.1111H130.107ZM130.019 32.0671L136.263 24.6081L135.681 24.1207L129.437 31.5797L130.019 32.0671ZM136.263 24.1207L130.019 16.6618L129.437 17.1491L135.681 24.6081L136.263 24.1207ZM130.107 16.9055V15.6178H129.348V16.9055H130.107ZM129.728 15.9974H133.639V15.2381H129.728V15.9974ZM133.349 15.8626L138.208 21.6208L138.789 21.1311L133.929 15.3729L133.349 15.8626ZM138.79 21.6194L143.601 15.8611L143.018 15.3744L138.207 21.1326L138.79 21.6194ZM143.309 15.9974H147.221V15.2381H143.309V15.9974ZM146.841 15.6178V16.9055H147.601V15.6178H146.841ZM146.93 16.6612L140.662 24.1202L141.243 24.6087L147.512 17.1497L146.93 16.6612ZM140.662 24.6091L146.931 32.0438L147.511 31.5544L141.243 24.1197L140.662 24.6091ZM146.841 31.7991V33.1111H147.601V31.7991H146.841ZM147.221 32.7315H143.309V33.4907H147.221V32.7315ZM143.599 32.8656L138.74 27.1317L138.16 27.6226L143.02 33.3565L143.599 32.8656ZM138.159 27.1332L133.349 32.8671L133.93 33.3551L138.741 27.6212L138.159 27.1332ZM133.639 32.7315H129.728V33.4907H133.639V32.7315ZM155.665 33.1111H155.285V33.4907H155.665V33.1111ZM155.665 19.408H156.044V19.0283H155.665V19.408ZM148.813 19.408H148.433V19.7876H148.813V19.408ZM148.813 15.6178V15.2381H148.433V15.6178H148.813ZM166.306 15.6178H166.686V15.2381H166.306V15.6178ZM166.306 19.408V19.7876H166.686V19.408H166.306ZM159.455 19.408V19.0283H159.075V19.408H159.455ZM159.455 33.1111V33.4907H159.834V33.1111H159.455ZM156.044 33.1111V19.408H155.285V33.1111H156.044ZM155.665 19.0283H148.813V19.7876H155.665V19.0283ZM149.193 19.408V15.6178H148.433V19.408H149.193ZM148.813 15.9974H166.306V15.2381H148.813V15.9974ZM165.927 15.6178V19.408H166.686V15.6178H165.927ZM166.306 19.0283H159.455V19.7876H166.306V19.0283ZM159.075 19.408V33.1111H159.834V19.408H159.075ZM159.455 32.7315H155.665V33.4907H159.455V32.7315Z" fill="white"/>
<defs>
<linearGradient id="paint0_linear_222_12018" x1="22.5511" y1="40.1812" x2="52.0959" y2="-47.528" gradientUnits="userSpaceOnUse">
<stop stop-color="#B33DEB"/>
<stop offset="1" stop-color="#DE8FFF"/>
</linearGradient>
<linearGradient id="paint1_linear_222_12018" x1="188.498" y1="3.27104" x2="182.245" y2="58.9538" gradientUnits="userSpaceOnUse">
<stop stop-color="#F3A6FF"/>
<stop offset="1" stop-color="#B380F5"/>
</linearGradient>
</defs>
</svg>
