<svg width="338" height="69" viewBox="0 0 338 69" fill="none" xmlns="http://www.w3.org/2000/svg">
<path d="M313.201 51.0818C303.701 62.4381 289.657 69 274.851 69H20.0676C13.0191 69 7.30518 63.286 7.30518 56.2375C7.30518 53.2117 8.38027 50.2843 10.3386 47.9776L32.1168 22.3261C41.6168 11.1364 55.554 4.6864 70.2325 4.6864H325.711C332.498 4.6864 338 10.1884 338 16.9755C338 19.8583 336.986 22.6494 335.137 24.8605L313.201 51.0818Z" fill="url(#paint0_linear_222_11972)"/>
<path d="M305.896 46.3954C296.396 57.7517 282.352 64.3136 267.546 64.3136H12.7624C5.71394 64.3136 0 58.5996 0 51.5511C0 48.5253 1.07509 45.5979 3.03344 43.2912L24.8116 17.6397C34.3117 6.45001 48.2488 0 62.9274 0H318.406C325.193 0 330.695 5.502 330.695 12.2891C330.695 15.1719 329.681 17.963 327.831 20.1741L305.896 46.3954Z" fill="url(#paint1_linear_222_11972)"/>
<path d="M66.2139 44V20.992H84.4859C85.3605 20.992 86.1499 21.2053 86.8539 21.632C87.5792 22.0587 88.1552 22.6347 88.5819 23.36C89.0299 24.0853 89.2539 24.8747 89.2539 25.728V31.68C89.2539 32.5333 89.0299 33.3227 88.5819 34.048C88.1552 34.7733 87.5792 35.3493 86.8539 35.776C86.1499 36.2027 85.3605 36.416 84.4859 36.416L71.1739 36.448V44H66.2139ZM71.1739 31.424H84.2299V25.952H71.1739V31.424ZM91.5584 44V20.928H96.5184V39.008H114.598V44H91.5584ZM116.528 44V25.696C116.528 24.8213 116.741 24.032 117.168 23.328C117.595 22.6027 118.171 22.0267 118.896 21.6C119.621 21.1733 120.411 20.96 121.264 20.96H134.8C135.675 20.96 136.464 21.1733 137.168 21.6C137.893 22.0267 138.469 22.6027 138.896 23.328C139.344 24.032 139.568 24.8213 139.568 25.696V44H134.544V36.576H121.488V44H116.528ZM121.488 31.584H134.544V25.952H121.488V31.584ZM151.134 44V35.392L140.478 20.96H146.398L153.63 30.048L160.83 20.96H166.814L156.126 35.424V44H151.134ZM178.651 44V20.96H183.771L196.667 36.32V20.96H201.691V44H196.571L183.611 28.576V44H178.651ZM209.948 44C209.095 44 208.306 43.7867 207.58 43.36C206.855 42.9333 206.279 42.3573 205.852 41.632C205.426 40.9067 205.212 40.1173 205.212 39.264V25.696C205.212 24.8213 205.426 24.032 205.852 23.328C206.279 22.6027 206.855 22.0267 207.58 21.6C208.306 21.1733 209.095 20.96 209.948 20.96H223.516C224.37 20.96 225.148 21.1733 225.852 21.6C226.578 22.0267 227.154 22.6027 227.58 23.328C228.028 24.032 228.252 24.8213 228.252 25.696V39.264C228.252 40.1173 228.028 40.9067 227.58 41.632C227.154 42.3573 226.578 42.9333 225.852 43.36C225.148 43.7867 224.37 44 223.516 44H209.948ZM210.172 39.008H223.228V25.952H210.172V39.008ZM238.363 44L229.979 20.96H235.259L240.283 34.688L245.307 20.96H249.883L254.939 34.688L259.963 20.96H265.211L256.827 44H253.019L247.579 29.184L242.171 44H238.363Z" fill="white"/>
<path d="M66.2139 44H65.7139V44.5H66.2139V44ZM66.2139 20.992V20.492H65.7139V20.992H66.2139ZM86.8539 21.632L86.5947 22.0596L86.6004 22.063L86.8539 21.632ZM88.5819 23.36L88.1508 23.6136L88.1565 23.6227L88.5819 23.36ZM88.5819 34.048L88.1564 33.7852L88.1509 33.7945L88.5819 34.048ZM86.8539 35.776L86.6003 35.345L86.5947 35.3484L86.8539 35.776ZM84.4859 36.416V35.916L84.4847 35.916L84.4859 36.416ZM71.1739 36.448L71.1727 35.948L70.6739 35.9492V36.448H71.1739ZM71.1739 44V44.5H71.6739V44H71.1739ZM71.1739 31.424H70.6739V31.924H71.1739V31.424ZM84.2299 31.424V31.924H84.7299V31.424H84.2299ZM84.2299 25.952H84.7299V25.452H84.2299V25.952ZM71.1739 25.952V25.452H70.6739V25.952H71.1739ZM66.7139 44V20.992H65.7139V44H66.7139ZM66.2139 21.492H84.4859V20.492H66.2139V21.492ZM84.4859 21.492C85.2751 21.492 85.9738 21.6833 86.5947 22.0596L87.113 21.2044C86.3259 20.7274 85.446 20.492 84.4859 20.492V21.492ZM86.6004 22.063C87.2524 22.4465 87.7673 22.9615 88.1509 23.6135L89.0128 23.1065C88.5431 22.3079 87.906 21.6708 87.1074 21.201L86.6004 22.063ZM88.1565 23.6227C88.5557 24.269 88.7539 24.9674 88.7539 25.728H89.7539C89.7539 24.7819 89.5041 23.9016 89.0073 23.0973L88.1565 23.6227ZM88.7539 25.728V31.68H89.7539V25.728H88.7539ZM88.7539 31.68C88.7539 32.4406 88.5557 33.139 88.1565 33.7853L89.0073 34.3107C89.5041 33.5064 89.7539 32.626 89.7539 31.68H88.7539ZM88.1509 33.7945C87.7673 34.4465 87.2524 34.9615 86.6004 35.345L87.1074 36.207C87.906 35.7372 88.5431 35.1001 89.0128 34.3015L88.1509 33.7945ZM86.5947 35.3484C85.9738 35.7247 85.2751 35.916 84.4859 35.916V36.916C85.446 36.916 86.3259 36.6806 87.113 36.2036L86.5947 35.3484ZM84.4847 35.916L71.1727 35.948L71.1751 36.948L84.4871 36.916L84.4847 35.916ZM70.6739 36.448V44H71.6739V36.448H70.6739ZM71.1739 43.5H66.2139V44.5H71.1739V43.5ZM71.1739 31.924H84.2299V30.924H71.1739V31.924ZM84.7299 31.424V25.952H83.7299V31.424H84.7299ZM84.2299 25.452H71.1739V26.452H84.2299V25.452ZM70.6739 25.952V31.424H71.6739V25.952H70.6739ZM91.5584 44H91.0584V44.5H91.5584V44ZM91.5584 20.928V20.428H91.0584V20.928H91.5584ZM96.5184 20.928H97.0184V20.428H96.5184V20.928ZM96.5184 39.008H96.0184V39.508H96.5184V39.008ZM114.598 39.008H115.098V38.508H114.598V39.008ZM114.598 44V44.5H115.098V44H114.598ZM92.0584 44V20.928H91.0584V44H92.0584ZM91.5584 21.428H96.5184V20.428H91.5584V21.428ZM96.0184 20.928V39.008H97.0184V20.928H96.0184ZM96.5184 39.508H114.598V38.508H96.5184V39.508ZM114.098 39.008V44H115.098V39.008H114.098ZM114.598 43.5H91.5584V44.5H114.598V43.5ZM116.528 44H116.028V44.5H116.528V44ZM117.168 23.328L117.596 23.5872L117.599 23.5815L117.168 23.328ZM118.896 21.6L118.642 21.169L118.896 21.6ZM137.168 21.6L136.909 22.0276L136.914 22.031L137.168 21.6ZM138.896 23.328L138.465 23.5815L138.469 23.5891L138.474 23.5964L138.896 23.328ZM139.568 44V44.5H140.068V44H139.568ZM134.544 44H134.044V44.5H134.544V44ZM134.544 36.576H135.044V36.076H134.544V36.576ZM121.488 36.576V36.076H120.988V36.576H121.488ZM121.488 44V44.5H121.988V44H121.488ZM121.488 31.584H120.988V32.084H121.488V31.584ZM134.544 31.584V32.084H135.044V31.584H134.544ZM134.544 25.952H135.044V25.452H134.544V25.952ZM121.488 25.952V25.452H120.988V25.952H121.488ZM117.028 44V25.696H116.028V44H117.028ZM117.028 25.696C117.028 24.9068 117.219 24.2081 117.595 23.5871L116.74 23.0688C116.263 23.8559 116.028 24.7359 116.028 25.696H117.028ZM117.599 23.5815C117.982 22.9295 118.497 22.4145 119.149 22.031L118.642 21.169C117.844 21.6388 117.207 22.2759 116.737 23.0745L117.599 23.5815ZM119.149 22.031C119.797 21.6502 120.498 21.46 121.264 21.46V20.46C120.323 20.46 119.446 20.6965 118.642 21.169L119.149 22.031ZM121.264 21.46H134.8V20.46H121.264V21.46ZM134.8 21.46C135.589 21.46 136.288 21.6513 136.909 22.0276L137.427 21.1724C136.64 20.6954 135.76 20.46 134.8 20.46V21.46ZM136.914 22.031C137.566 22.4145 138.081 22.9295 138.465 23.5815L139.327 23.0745C138.857 22.2759 138.22 21.6388 137.421 21.169L136.914 22.031ZM138.474 23.5964C138.868 24.2162 139.068 24.9116 139.068 25.696H140.068C140.068 24.7311 139.819 23.8478 139.318 23.0596L138.474 23.5964ZM139.068 25.696V44H140.068V25.696H139.068ZM139.568 43.5H134.544V44.5H139.568V43.5ZM135.044 44V36.576H134.044V44H135.044ZM134.544 36.076H121.488V37.076H134.544V36.076ZM120.988 36.576V44H121.988V36.576H120.988ZM121.488 43.5H116.528V44.5H121.488V43.5ZM121.488 32.084H134.544V31.084H121.488V32.084ZM135.044 31.584V25.952H134.044V31.584H135.044ZM134.544 25.452H121.488V26.452H134.544V25.452ZM120.988 25.952V31.584H121.988V25.952H120.988ZM151.134 44H150.634V44.5H151.134V44ZM151.134 35.392H151.634V35.2274L151.536 35.095L151.134 35.392ZM140.478 20.96V20.46H139.487L140.075 21.257L140.478 20.96ZM146.398 20.96L146.789 20.6487L146.639 20.46H146.398V20.96ZM153.63 30.048L153.238 30.3593L153.63 30.8521L154.022 30.3585L153.63 30.048ZM160.83 20.96V20.46H160.588L160.438 20.6495L160.83 20.96ZM166.814 20.96L167.216 21.2571L167.805 20.46H166.814V20.96ZM156.126 35.424L155.724 35.1269L155.626 35.2593V35.424H156.126ZM156.126 44V44.5H156.626V44H156.126ZM151.634 44V35.392H150.634V44H151.634ZM151.536 35.095L140.88 20.663L140.075 21.257L150.731 35.689L151.536 35.095ZM140.478 21.46H146.398V20.46H140.478V21.46ZM146.006 21.2713L153.238 30.3593L154.021 29.7367L146.789 20.6487L146.006 21.2713ZM154.022 30.3585L161.222 21.2705L160.438 20.6495L153.238 29.7375L154.022 30.3585ZM160.83 21.46H166.814V20.46H160.83V21.46ZM166.411 20.6629L155.724 35.1269L156.528 35.7211L167.216 21.2571L166.411 20.6629ZM155.626 35.424V44H156.626V35.424H155.626ZM156.126 43.5H151.134V44.5H156.126V43.5ZM178.651 44H178.151V44.5H178.651V44ZM178.651 20.96V20.46H178.151V20.96H178.651ZM183.771 20.96L184.154 20.6385L184.004 20.46H183.771V20.96ZM196.667 36.32L196.284 36.6415L197.167 37.6931V36.32H196.667ZM196.667 20.96V20.46H196.167V20.96H196.667ZM201.691 20.96H202.191V20.46H201.691V20.96ZM201.691 44V44.5H202.191V44H201.691ZM196.571 44L196.189 44.3217L196.338 44.5H196.571V44ZM183.611 28.576L183.994 28.2543L183.111 27.2037V28.576H183.611ZM183.611 44V44.5H184.111V44H183.611ZM179.151 44V20.96H178.151V44H179.151ZM178.651 21.46H183.771V20.46H178.651V21.46ZM183.388 21.2815L196.284 36.6415L197.05 35.9985L184.154 20.6385L183.388 21.2815ZM197.167 36.32V20.96H196.167V36.32H197.167ZM196.667 21.46H201.691V20.46H196.667V21.46ZM201.191 20.96V44H202.191V20.96H201.191ZM201.691 43.5H196.571V44.5H201.691V43.5ZM196.954 43.6783L183.994 28.2543L183.229 28.8977L196.189 44.3217L196.954 43.6783ZM183.111 28.576V44H184.111V28.576H183.111ZM183.611 43.5H178.651V44.5H183.611V43.5ZM207.58 43.36L207.834 42.929L207.58 43.36ZM205.852 41.632L205.421 41.8855L205.852 41.632ZM205.852 23.328L206.28 23.5872L206.283 23.5815L205.852 23.328ZM207.58 21.6L207.327 21.169L207.58 21.6ZM225.852 21.6L225.593 22.0276L225.599 22.031L225.852 21.6ZM227.58 23.328L227.149 23.5815L227.154 23.5891L227.159 23.5964L227.58 23.328ZM227.58 41.632L227.155 41.3692L227.149 41.3785L227.58 41.632ZM225.852 43.36L225.599 42.929L225.593 42.9324L225.852 43.36ZM210.172 39.008H209.672V39.508H210.172V39.008ZM223.228 39.008V39.508H223.728V39.008H223.228ZM223.228 25.952H223.728V25.452H223.228V25.952ZM210.172 25.952V25.452H209.672V25.952H210.172ZM209.948 43.5C209.183 43.5 208.481 43.3098 207.834 42.929L207.327 43.791C208.13 44.2635 209.007 44.5 209.948 44.5V43.5ZM207.834 42.929C207.182 42.5455 206.667 42.0305 206.283 41.3785L205.421 41.8855C205.891 42.6841 206.528 43.3212 207.327 43.791L207.834 42.929ZM206.283 41.3785C205.903 40.7311 205.712 40.0295 205.712 39.264H204.712C204.712 40.2052 204.949 41.0822 205.421 41.8855L206.283 41.3785ZM205.712 39.264V25.696H204.712V39.264H205.712ZM205.712 25.696C205.712 24.9068 205.904 24.2081 206.28 23.5871L205.425 23.0688C204.948 23.8559 204.712 24.7359 204.712 25.696H205.712ZM206.283 23.5815C206.667 22.9295 207.182 22.4145 207.834 22.031L207.327 21.169C206.528 21.6388 205.891 22.2759 205.421 23.0745L206.283 23.5815ZM207.834 22.031C208.481 21.6502 209.183 21.46 209.948 21.46V20.46C209.007 20.46 208.13 20.6965 207.327 21.169L207.834 22.031ZM209.948 21.46H223.516V20.46H209.948V21.46ZM223.516 21.46C224.282 21.46 224.97 21.6501 225.593 22.0276L226.112 21.1724C225.326 20.6966 224.458 20.46 223.516 20.46V21.46ZM225.599 22.031C226.251 22.4145 226.766 22.9295 227.149 23.5815L228.011 23.0745C227.542 22.2759 226.904 21.6388 226.106 21.169L225.599 22.031ZM227.159 23.5964C227.553 24.2162 227.752 24.9116 227.752 25.696H228.752C228.752 24.7311 228.504 23.8478 228.002 23.0596L227.159 23.5964ZM227.752 25.696V39.264H228.752V25.696H227.752ZM227.752 39.264C227.752 40.0246 227.554 40.723 227.155 41.3693L228.006 41.8947C228.503 41.0904 228.752 40.21 228.752 39.264H227.752ZM227.149 41.3785C226.766 42.0305 226.251 42.5455 225.599 42.929L226.106 43.791C226.904 43.3212 227.542 42.6841 228.011 41.8855L227.149 41.3785ZM225.593 42.9324C224.97 43.3099 224.282 43.5 223.516 43.5V44.5C224.458 44.5 225.326 44.2634 226.112 43.7876L225.593 42.9324ZM223.516 43.5H209.948V44.5H223.516V43.5ZM210.172 39.508H223.228V38.508H210.172V39.508ZM223.728 39.008V25.952H222.728V39.008H223.728ZM223.228 25.452H210.172V26.452H223.228V25.452ZM209.672 25.952V39.008H210.672V25.952H209.672ZM238.363 44L237.894 44.171L238.013 44.5H238.363V44ZM229.979 20.96V20.46H229.265L229.51 21.131L229.979 20.96ZM235.259 20.96L235.729 20.7882L235.609 20.46H235.259V20.96ZM240.283 34.688L239.814 34.8598L240.283 36.1429L240.753 34.8598L240.283 34.688ZM245.307 20.96V20.46H244.958L244.838 20.7882L245.307 20.96ZM249.883 20.96L250.353 20.7872L250.232 20.46H249.883V20.96ZM254.939 34.688L254.47 34.8608L254.941 36.1388L255.409 34.8598L254.939 34.688ZM259.963 20.96V20.46H259.614L259.494 20.7882L259.963 20.96ZM265.211 20.96L265.681 21.131L265.925 20.46H265.211V20.96ZM256.827 44V44.5H257.178L257.297 44.171L256.827 44ZM253.019 44L252.55 44.1723L252.67 44.5H253.019V44ZM247.579 29.184L248.049 29.0117L247.578 27.7296L247.11 29.0126L247.579 29.184ZM242.171 44V44.5H242.521L242.641 44.1714L242.171 44ZM238.833 43.829L230.449 20.789L229.51 21.131L237.894 44.171L238.833 43.829ZM229.979 21.46H235.259V20.46H229.979V21.46ZM234.79 21.1318L239.814 34.8598L240.753 34.5162L235.729 20.7882L234.79 21.1318ZM240.753 34.8598L245.777 21.1318L244.838 20.7882L239.814 34.5162L240.753 34.8598ZM245.307 21.46H249.883V20.46H245.307V21.46ZM249.414 21.1328L254.47 34.8608L255.409 34.5152L250.353 20.7872L249.414 21.1328ZM255.409 34.8598L260.433 21.1318L259.494 20.7882L254.47 34.5162L255.409 34.8598ZM259.963 21.46H265.211V20.46H259.963V21.46ZM264.742 20.789L256.358 43.829L257.297 44.171L265.681 21.131L264.742 20.789ZM256.827 43.5H253.019V44.5H256.827V43.5ZM253.489 43.8277L248.049 29.0117L247.11 29.3563L252.55 44.1723L253.489 43.8277ZM247.11 29.0126L241.702 43.8286L242.641 44.1714L248.049 29.3554L247.11 29.0126ZM242.171 43.5H238.363V44.5H242.171V43.5Z" fill="white"/>
<defs>
<linearGradient id="paint0_linear_222_11972" x1="29.4575" y1="52.9216" x2="68.3702" y2="-62.5979" gradientUnits="userSpaceOnUse">
<stop stop-color="#B33DEB"/>
<stop offset="1" stop-color="#DE8FFF"/>
</linearGradient>
<linearGradient id="paint1_linear_222_11972" x1="248.021" y1="4.30819" x2="239.786" y2="77.6465" gradientUnits="userSpaceOnUse">
<stop stop-color="#F3A6FF"/>
<stop offset="1" stop-color="#B380F5"/>
</linearGradient>
</defs>
</svg>
