<svg width="76" height="18" viewBox="0 0 76 18" fill="none" xmlns="http://www.w3.org/2000/svg">
<path d="M0.138425 17.5V0.00666679H4.02583L13.8172 11.6689V0.00666679H17.6318V17.5H13.7444L3.90435 5.78919V17.5H0.138425ZM20.4023 17.5V0.00666679H36.5593V3.79689H24.2168V6.85822H34.154V10.6484H24.2168V13.7098H36.5593V17.5H20.4023ZM38.7126 17.5V16.2123L44.9567 8.75333L38.7126 1.29437V0.00666679H42.6243L47.4836 5.76489L52.2942 0.00666679H56.2059V1.29437L49.9375 8.75333L56.2059 16.188V17.5H52.2942L47.435 11.7661L42.6243 17.5H38.7126ZM64.6495 17.5V3.79689H57.7979V0.00666679H75.2912V3.79689H68.4397V17.5H64.6495Z" fill="white"/>
<path d="M0.138425 17.5H-0.241205V17.8796H0.138425V17.5ZM0.138425 0.00666666V-0.372963H-0.241205V0.00666666H0.138425ZM4.02583 0.00666666L4.31658 -0.237437L4.20279 -0.372963H4.02583V0.00666666ZM13.8172 11.6689L13.5265 11.913L14.1969 12.7115V11.6689H13.8172ZM13.8172 0.00666666V-0.372963H13.4376V0.00666666H13.8172ZM17.6318 0.00666666H18.0114V-0.372963H17.6318V0.00666666ZM17.6318 17.5V17.8796H18.0114V17.5H17.6318ZM13.7444 17.5L13.4537 17.7442L13.5675 17.8796H13.7444V17.5ZM3.90435 5.78919L4.195 5.54497L3.52472 4.74725V5.78919H3.90435ZM3.90435 17.5V17.8796H4.28398V17.5H3.90435ZM0.518054 17.5V0.00666666H-0.241205V17.5H0.518054ZM0.138425 0.386296H4.02583V-0.372963H0.138425V0.386296ZM3.73509 0.250771L13.5265 11.913L14.108 11.4248L4.31658 -0.237437L3.73509 0.250771ZM14.1969 11.6689V0.00666666H13.4376V11.6689H14.1969ZM13.8172 0.386296H17.6318V-0.372963H13.8172V0.386296ZM17.2521 0.00666666V17.5H18.0114V0.00666666H17.2521ZM17.6318 17.1204H13.7444V17.8796H17.6318V17.1204ZM14.035 17.2558L4.195 5.54497L3.6137 6.0334L13.4537 17.7442L14.035 17.2558ZM3.52472 5.78919V17.5H4.28398V5.78919H3.52472ZM3.90435 17.1204H0.138425V17.8796H3.90435V17.1204ZM20.4023 17.5H20.0227V17.8796H20.4023V17.5ZM20.4023 0.00666666V-0.372963H20.0227V0.00666666H20.4023ZM36.5593 0.00666666H36.939V-0.372963H36.5593V0.00666666ZM36.5593 3.79689V4.17652H36.939V3.79689H36.5593ZM24.2168 3.79689V3.41726H23.8372V3.79689H24.2168ZM24.2168 6.85822H23.8372V7.23785H24.2168V6.85822ZM34.154 6.85822H34.5336V6.47859H34.154V6.85822ZM34.154 10.6484V11.0281H34.5336V10.6484H34.154ZM24.2168 10.6484V10.2688H23.8372V10.6484H24.2168ZM24.2168 13.7098H23.8372V14.0894H24.2168V13.7098ZM36.5593 13.7098H36.939V13.3301H36.5593V13.7098ZM36.5593 17.5V17.8796H36.939V17.5H36.5593ZM20.7819 17.5V0.00666666H20.0227V17.5H20.7819ZM20.4023 0.386296H36.5593V-0.372963H20.4023V0.386296ZM36.1797 0.00666666V3.79689H36.939V0.00666666H36.1797ZM36.5593 3.41726H24.2168V4.17652H36.5593V3.41726ZM23.8372 3.79689V6.85822H24.5964V3.79689H23.8372ZM24.2168 7.23785H34.154V6.47859H24.2168V7.23785ZM33.7744 6.85822V10.6484H34.5336V6.85822H33.7744ZM34.154 10.2688H24.2168V11.0281H34.154V10.2688ZM23.8372 10.6484V13.7098H24.5964V10.6484H23.8372ZM24.2168 14.0894H36.5593V13.3301H24.2168V14.0894ZM36.1797 13.7098V17.5H36.939V13.7098H36.1797ZM36.5593 17.1204H20.4023V17.8796H36.5593V17.1204ZM38.7126 17.5H38.333V17.8796H38.7126V17.5ZM38.7126 16.2123L38.4215 15.9686L38.333 16.0744V16.2123H38.7126ZM44.9567 8.75333L45.2478 8.99702L45.4518 8.75333L45.2478 8.50965L44.9567 8.75333ZM38.7126 1.29437H38.333V1.4323L38.4215 1.53806L38.7126 1.29437ZM38.7126 0.00666666V-0.372963H38.333V0.00666666H38.7126ZM42.6243 0.00666666L42.9144 -0.238168L42.8007 -0.372963H42.6243V0.00666666ZM47.4836 5.76489L47.1934 6.00972L47.485 6.35526L47.7749 6.00828L47.4836 5.76489ZM52.2942 0.00666666V-0.372963H52.1167L52.0029 -0.236729L52.2942 0.00666666ZM56.2059 0.00666666H56.5856V-0.372963H56.2059V0.00666666ZM56.2059 1.29437L56.4966 1.53861L56.5856 1.43271V1.29437H56.2059ZM49.9375 8.75333L49.6469 8.50909L49.4413 8.75373L49.6472 8.99804L49.9375 8.75333ZM56.2059 16.188H56.5856V16.0493L56.4962 15.9433L56.2059 16.188ZM56.2059 17.5V17.8796H56.5856V17.5H56.2059ZM52.2942 17.5L52.0046 17.7454L52.1183 17.8796H52.2942V17.5ZM47.435 11.7661L47.7246 11.5206L47.4335 11.1772L47.1441 11.5221L47.435 11.7661ZM42.6243 17.5V17.8796H42.8013L42.9151 17.744L42.6243 17.5ZM39.0922 17.5V16.2123H38.333V17.5H39.0922ZM39.0037 16.456L45.2478 8.99702L44.6656 8.50965L38.4215 15.9686L39.0037 16.456ZM45.2478 8.50965L39.0037 1.05068L38.4215 1.53806L44.6656 8.99702L45.2478 8.50965ZM39.0922 1.29437V0.00666666H38.333V1.29437H39.0922ZM38.7126 0.386296H42.6243V-0.372963H38.7126V0.386296ZM42.3342 0.251501L47.1934 6.00972L47.7737 5.52005L42.9144 -0.238168L42.3342 0.251501ZM47.7749 6.00828L52.5856 0.250062L52.0029 -0.236729L47.1922 5.52149L47.7749 6.00828ZM52.2942 0.386296H56.2059V-0.372963H52.2942V0.386296ZM55.8263 0.00666666V1.29437H56.5856V0.00666666H55.8263ZM55.9153 1.05013L49.6469 8.50909L50.2281 8.99757L56.4966 1.53861L55.9153 1.05013ZM49.6472 8.99804L55.9157 16.4327L56.4962 15.9433L50.2277 8.50863L49.6472 8.99804ZM55.8263 16.188V17.5H56.5856V16.188H55.8263ZM56.2059 17.1204H52.2942V17.8796H56.2059V17.1204ZM52.5838 17.2546L47.7246 11.5206L47.1453 12.0115L52.0046 17.7454L52.5838 17.2546ZM47.1441 11.5221L42.3335 17.256L42.9151 17.744L47.7258 12.0101L47.1441 11.5221ZM42.6243 17.1204H38.7126V17.8796H42.6243V17.1204ZM64.6495 17.5H64.2698V17.8796H64.6495V17.5ZM64.6495 3.79689H65.0291V3.41726H64.6495V3.79689ZM57.7979 3.79689H57.4183V4.17652H57.7979V3.79689ZM57.7979 0.00666666V-0.372963H57.4183V0.00666666H57.7979ZM75.2912 0.00666666H75.6709V-0.372963H75.2912V0.00666666ZM75.2912 3.79689V4.17652H75.6709V3.79689H75.2912ZM68.4397 3.79689V3.41726H68.0601V3.79689H68.4397ZM68.4397 17.5V17.8796H68.8193V17.5H68.4397ZM65.0291 17.5V3.79689H64.2698V17.5H65.0291ZM64.6495 3.41726H57.7979V4.17652H64.6495V3.41726ZM58.1775 3.79689V0.00666666H57.4183V3.79689H58.1775ZM57.7979 0.386296H75.2912V-0.372963H57.7979V0.386296ZM74.9116 0.00666666V3.79689H75.6709V0.00666666H74.9116ZM75.2912 3.41726H68.4397V4.17652H75.2912V3.41726ZM68.0601 3.79689V17.5H68.8193V3.79689H68.0601ZM68.4397 17.1204H64.6495V17.8796H68.4397V17.1204Z" fill="white"/>
</svg>
