<svg width="730" height="79" viewBox="0 0 730 79" fill="none" xmlns="http://www.w3.org/2000/svg">
<path d="M699.435 61.0818C689.935 72.4381 675.891 79 661.085 79H22.9761C14.906 79 8.36401 72.4579 8.36401 64.3879C8.36401 60.9235 9.59491 57.5718 11.8371 54.9309L38.942 23.0053C48.442 11.8156 62.3791 5.3656 77.0577 5.3656H715.93C723.701 5.3656 730 11.665 730 19.4357C730 22.7363 728.84 25.9319 726.722 28.4635L699.435 61.0818Z" fill="url(#paint0_linear_223_8840)"/>
<path d="M692.989 55.7162C683.489 67.0725 669.445 73.6344 654.639 73.6344H14.6121C6.54205 73.6344 0 67.0923 0 59.0223C0 55.5579 1.2309 52.2062 3.47307 49.5653L30.578 17.6397C40.078 6.44998 54.0151 0 68.6937 0H709.484C717.255 0 723.554 6.29938 723.554 14.0701C723.554 17.3707 722.394 20.5663 720.276 23.0979L692.989 55.7162Z" fill="url(#paint1_linear_223_8840)"/>
<path d="M267.817 47V24.711H285.518C286.365 24.711 287.13 24.9177 287.812 25.331C288.514 25.7443 289.072 26.3023 289.486 27.005C289.92 27.7077 290.137 28.4723 290.137 29.299V35.065C290.137 35.8917 289.92 36.6563 289.486 37.359C289.072 38.0617 288.514 38.6197 287.812 39.033C287.13 39.4463 286.365 39.653 285.518 39.653L272.622 39.684V47H267.817ZM272.622 34.817H285.27V29.516H272.622V34.817ZM292.369 47V24.649H297.174V42.164H314.689V47H292.369ZM316.558 47V29.268C316.558 28.4207 316.765 27.656 317.178 26.974C317.592 26.2713 318.15 25.7133 318.852 25.3C319.555 24.8867 320.32 24.68 321.146 24.68H334.259C335.107 24.68 335.871 24.8867 336.553 25.3C337.256 25.7133 337.814 26.2713 338.227 26.974C338.661 27.656 338.878 28.4207 338.878 29.268V47H334.011V39.808H321.363V47H316.558ZM321.363 34.972H334.011V29.516H321.363V34.972ZM350.083 47V38.661L339.76 24.68H345.495L352.501 33.484L359.476 24.68H365.273L354.919 38.692V47H350.083ZM376.74 47V24.68H381.7L394.193 39.56V24.68H399.06V47H394.1L381.545 32.058V47H376.74ZM407.059 47C406.233 47 405.468 46.7933 404.765 46.38C404.063 45.9667 403.505 45.4087 403.091 44.706C402.678 44.0033 402.471 43.2387 402.471 42.412V29.268C402.471 28.4207 402.678 27.656 403.091 26.974C403.505 26.2713 404.063 25.7133 404.765 25.3C405.468 24.8867 406.233 24.68 407.059 24.68H420.203C421.03 24.68 421.784 24.8867 422.466 25.3C423.169 25.7133 423.727 26.2713 424.14 26.974C424.574 27.656 424.791 28.4207 424.791 29.268V42.412C424.791 43.2387 424.574 44.0033 424.14 44.706C423.727 45.4087 423.169 45.9667 422.466 46.38C421.784 46.7933 421.03 47 420.203 47H407.059ZM407.276 42.164H419.924V29.516H407.276V42.164ZM434.586 47L426.464 24.68H431.579L436.446 37.979L441.313 24.68H445.746L450.644 37.979L455.511 24.68H460.595L452.473 47H448.784L443.514 32.647L438.275 47H434.586Z" fill="white"/>
<path d="M267.817 47H267.317V47.5H267.817V47ZM267.817 24.711V24.211H267.317V24.711H267.817ZM287.812 25.331L287.552 25.7586L287.558 25.762L287.812 25.331ZM289.486 27.005L289.055 27.2586L289.06 27.2677L289.486 27.005ZM289.486 37.359L289.06 37.0962L289.055 37.1055L289.486 37.359ZM287.812 39.033L287.558 38.602L287.552 38.6054L287.812 39.033ZM285.518 39.653V39.153L285.516 39.153L285.518 39.653ZM272.622 39.684L272.62 39.184L272.122 39.1852V39.684H272.622ZM272.622 47V47.5H273.122V47H272.622ZM272.622 34.817H272.122V35.317H272.622V34.817ZM285.27 34.817V35.317H285.77V34.817H285.27ZM285.27 29.516H285.77V29.016H285.27V29.516ZM272.622 29.516V29.016H272.122V29.516H272.622ZM268.317 47V24.711H267.317V47H268.317ZM267.817 25.211H285.518V24.211H267.817V25.211ZM285.518 25.211C286.279 25.211 286.953 25.3956 287.552 25.7586L288.071 24.9034C287.306 24.4397 286.45 24.211 285.518 24.211V25.211ZM287.558 25.762C288.187 26.1322 288.684 26.6291 289.055 27.2585L289.917 26.7515C289.46 25.9755 288.841 25.3565 288.065 24.9L287.558 25.762ZM289.06 27.2677C289.445 27.8914 289.637 28.565 289.637 29.299H290.637C290.637 28.3796 290.394 27.524 289.911 26.7423L289.06 27.2677ZM289.637 29.299V35.065H290.637V29.299H289.637ZM289.637 35.065C289.637 35.799 289.445 36.4726 289.06 37.0963L289.911 37.6217C290.394 36.84 290.637 35.9844 290.637 35.065H289.637ZM289.055 37.1055C288.684 37.7349 288.187 38.2318 287.558 38.602L288.065 39.464C288.841 39.0075 289.46 38.3885 289.917 37.6125L289.055 37.1055ZM287.552 38.6054C286.953 38.9684 286.279 39.153 285.518 39.153V40.153C286.45 40.153 287.306 39.9243 288.071 39.4606L287.552 38.6054ZM285.516 39.153L272.62 39.184L272.623 40.184L285.519 40.153L285.516 39.153ZM272.122 39.684V47H273.122V39.684H272.122ZM272.622 46.5H267.817V47.5H272.622V46.5ZM272.622 35.317H285.27V34.317H272.622V35.317ZM285.77 34.817V29.516H284.77V34.817H285.77ZM285.27 29.016H272.622V30.016H285.27V29.016ZM272.122 29.516V34.817H273.122V29.516H272.122ZM292.369 47H291.869V47.5H292.369V47ZM292.369 24.649V24.149H291.869V24.649H292.369ZM297.174 24.649H297.674V24.149H297.174V24.649ZM297.174 42.164H296.674V42.664H297.174V42.164ZM314.689 42.164H315.189V41.664H314.689V42.164ZM314.689 47V47.5H315.189V47H314.689ZM292.869 47V24.649H291.869V47H292.869ZM292.369 25.149H297.174V24.149H292.369V25.149ZM296.674 24.649V42.164H297.674V24.649H296.674ZM297.174 42.664H314.689V41.664H297.174V42.664ZM314.189 42.164V47H315.189V42.164H314.189ZM314.689 46.5H292.369V47.5H314.689V46.5ZM316.558 47H316.058V47.5H316.558V47ZM317.178 26.974L317.606 27.2332L317.609 27.2275L317.178 26.974ZM318.852 25.3L318.599 24.869L318.852 25.3ZM336.553 25.3L336.294 25.7276L336.3 25.731L336.553 25.3ZM338.227 26.974L337.796 27.2275L337.801 27.2351L337.805 27.2424L338.227 26.974ZM338.878 47V47.5H339.378V47H338.878ZM334.011 47H333.511V47.5H334.011V47ZM334.011 39.808H334.511V39.308H334.011V39.808ZM321.363 39.808V39.308H320.863V39.808H321.363ZM321.363 47V47.5H321.863V47H321.363ZM321.363 34.972H320.863V35.472H321.363V34.972ZM334.011 34.972V35.472H334.511V34.972H334.011ZM334.011 29.516H334.511V29.016H334.011V29.516ZM321.363 29.516V29.016H320.863V29.516H321.363ZM317.058 47V29.268H316.058V47H317.058ZM317.058 29.268C317.058 28.5061 317.243 27.8321 317.606 27.2332L316.751 26.7148C316.287 27.4799 316.058 28.3352 316.058 29.268H317.058ZM317.609 27.2275C317.979 26.5981 318.476 26.1012 319.106 25.731L318.599 24.869C317.823 25.3255 317.204 25.9445 316.747 26.7205L317.609 27.2275ZM319.106 25.731C319.73 25.3635 320.407 25.18 321.146 25.18V24.18C320.232 24.18 319.379 24.4098 318.599 24.869L319.106 25.731ZM321.146 25.18H334.259V24.18H321.146V25.18ZM334.259 25.18C335.021 25.18 335.695 25.3646 336.294 25.7276L336.812 24.8724C336.047 24.4087 335.192 24.18 334.259 24.18V25.18ZM336.3 25.731C336.929 26.1012 337.426 26.5981 337.796 27.2275L338.658 26.7205C338.202 25.9445 337.583 25.3255 336.807 24.869L336.3 25.731ZM337.805 27.2424C338.186 27.8402 338.378 28.5109 338.378 29.268H339.378C339.378 28.3304 339.137 27.4718 338.649 26.7056L337.805 27.2424ZM338.378 29.268V47H339.378V29.268H338.378ZM338.878 46.5H334.011V47.5H338.878V46.5ZM334.511 47V39.808H333.511V47H334.511ZM334.011 39.308H321.363V40.308H334.011V39.308ZM320.863 39.808V47H321.863V39.808H320.863ZM321.363 46.5H316.558V47.5H321.363V46.5ZM321.363 35.472H334.011V34.472H321.363V35.472ZM334.511 34.972V29.516H333.511V34.972H334.511ZM334.011 29.016H321.363V30.016H334.011V29.016ZM320.863 29.516V34.972H321.863V29.516H320.863ZM350.083 47H349.583V47.5H350.083V47ZM350.083 38.661H350.583V38.4964L350.485 38.364L350.083 38.661ZM339.76 24.68V24.18H338.769L339.357 24.977L339.76 24.68ZM345.495 24.68L345.886 24.3687L345.736 24.18H345.495V24.68ZM352.501 33.484L352.109 33.7953L352.501 34.2881L352.892 33.7945L352.501 33.484ZM359.476 24.68V24.18H359.234L359.084 24.3695L359.476 24.68ZM365.273 24.68L365.675 24.9771L366.264 24.18H365.273V24.68ZM354.919 38.692L354.516 38.3949L354.419 38.5273V38.692H354.919ZM354.919 47V47.5H355.419V47H354.919ZM350.583 47V38.661H349.583V47H350.583ZM350.485 38.364L340.162 24.383L339.357 24.977L349.68 38.958L350.485 38.364ZM339.76 25.18H345.495V24.18H339.76V25.18ZM345.103 24.9913L352.109 33.7953L352.892 33.1727L345.886 24.3687L345.103 24.9913ZM352.892 33.7945L359.867 24.9905L359.084 24.3695L352.109 33.1735L352.892 33.7945ZM359.476 25.18H365.273V24.18H359.476V25.18ZM364.87 24.3829L354.516 38.3949L355.321 38.9891L365.675 24.9771L364.87 24.3829ZM354.419 38.692V47H355.419V38.692H354.419ZM354.919 46.5H350.083V47.5H354.919V46.5ZM376.74 47H376.24V47.5H376.74V47ZM376.74 24.68V24.18H376.24V24.68H376.74ZM381.7 24.68L382.083 24.3585L381.933 24.18H381.7V24.68ZM394.193 39.56L393.81 39.8815L394.693 40.9331V39.56H394.193ZM394.193 24.68V24.18H393.693V24.68H394.193ZM399.06 24.68H399.56V24.18H399.06V24.68ZM399.06 47V47.5H399.56V47H399.06ZM394.1 47L393.718 47.3217L393.867 47.5H394.1V47ZM381.545 32.058L381.928 31.7363L381.045 30.6857V32.058H381.545ZM381.545 47V47.5H382.045V47H381.545ZM377.24 47V24.68H376.24V47H377.24ZM376.74 25.18H381.7V24.18H376.74V25.18ZM381.317 25.0015L393.81 39.8815L394.576 39.2385L382.083 24.3585L381.317 25.0015ZM394.693 39.56V24.68H393.693V39.56H394.693ZM394.193 25.18H399.06V24.18H394.193V25.18ZM398.56 24.68V47H399.56V24.68H398.56ZM399.06 46.5H394.1V47.5H399.06V46.5ZM394.483 46.6783L381.928 31.7363L381.163 32.3797L393.718 47.3217L394.483 46.6783ZM381.045 32.058V47H382.045V32.058H381.045ZM381.545 46.5H376.74V47.5H381.545V46.5ZM404.765 46.38L405.019 45.949L404.765 46.38ZM403.091 44.706L402.66 44.9595L403.091 44.706ZM403.091 26.974L403.519 27.2332L403.522 27.2275L403.091 26.974ZM404.765 25.3L404.512 24.869L404.765 25.3ZM422.466 25.3L422.207 25.7276L422.213 25.731L422.466 25.3ZM424.14 26.974L423.709 27.2275L423.714 27.2351L423.719 27.2424L424.14 26.974ZM424.14 44.706L423.715 44.4432L423.709 44.4525L424.14 44.706ZM422.466 46.38L422.213 45.949L422.207 45.9524L422.466 46.38ZM407.276 42.164H406.776V42.664H407.276V42.164ZM419.924 42.164V42.664H420.424V42.164H419.924ZM419.924 29.516H420.424V29.016H419.924V29.516ZM407.276 29.516V29.016H406.776V29.516H407.276ZM407.059 46.5C406.321 46.5 405.644 46.3165 405.019 45.949L404.512 46.811C405.292 47.2702 406.145 47.5 407.059 47.5V46.5ZM405.019 45.949C404.389 45.5788 403.893 45.0819 403.522 44.4525L402.66 44.9595C403.117 45.7355 403.736 46.3545 404.512 46.811L405.019 45.949ZM403.522 44.4525C403.155 43.8278 402.971 43.1508 402.971 42.412H401.971C401.971 43.3265 402.201 44.1789 402.66 44.9595L403.522 44.4525ZM402.971 42.412V29.268H401.971V42.412H402.971ZM402.971 29.268C402.971 28.5061 403.156 27.8321 403.519 27.2332L402.664 26.7148C402.2 27.4799 401.971 28.3352 401.971 29.268H402.971ZM403.522 27.2275C403.893 26.5981 404.389 26.1012 405.019 25.731L404.512 24.869C403.736 25.3255 403.117 25.9445 402.66 26.7205L403.522 27.2275ZM405.019 25.731C405.644 25.3635 406.321 25.18 407.059 25.18V24.18C406.145 24.18 405.292 24.4098 404.512 24.869L405.019 25.731ZM407.059 25.18H420.203V24.18H407.059V25.18ZM420.203 25.18C420.942 25.18 421.606 25.3634 422.207 25.7276L422.726 24.8724C421.962 24.4099 421.118 24.18 420.203 24.18V25.18ZM422.213 25.731C422.842 26.1012 423.339 26.5981 423.709 27.2275L424.571 26.7205C424.115 25.9445 423.496 25.3255 422.72 24.869L422.213 25.731ZM423.719 27.2424C424.099 27.8402 424.291 28.5109 424.291 29.268H425.291C425.291 28.3304 425.05 27.4718 424.562 26.7056L423.719 27.2424ZM424.291 29.268V42.412H425.291V29.268H424.291ZM424.291 42.412C424.291 43.146 424.1 43.8196 423.715 44.4433L424.566 44.9687C425.049 44.187 425.291 43.3314 425.291 42.412H424.291ZM423.709 44.4525C423.339 45.0819 422.842 45.5788 422.213 45.949L422.72 46.811C423.496 46.3545 424.115 45.7355 424.571 44.9595L423.709 44.4525ZM422.207 45.9524C421.606 46.3166 420.942 46.5 420.203 46.5V47.5C421.118 47.5 421.962 47.2701 422.726 46.8076L422.207 45.9524ZM420.203 46.5H407.059V47.5H420.203V46.5ZM407.276 42.664H419.924V41.664H407.276V42.664ZM420.424 42.164V29.516H419.424V42.164H420.424ZM419.924 29.016H407.276V30.016H419.924V29.016ZM406.776 29.516V42.164H407.776V29.516H406.776ZM434.586 47L434.117 47.171L434.236 47.5H434.586V47ZM426.464 24.68V24.18H425.75L425.995 24.851L426.464 24.68ZM431.579 24.68L432.049 24.5082L431.929 24.18H431.579V24.68ZM436.446 37.979L435.977 38.1508L436.446 39.4339L436.916 38.1508L436.446 37.979ZM441.313 24.68V24.18H440.964L440.844 24.5082L441.313 24.68ZM445.746 24.68L446.216 24.5072L446.095 24.18H445.746V24.68ZM450.644 37.979L450.175 38.1518L450.646 39.4298L451.114 38.1508L450.644 37.979ZM455.511 24.68V24.18H455.162L455.042 24.5082L455.511 24.68ZM460.595 24.68L461.065 24.851L461.309 24.18H460.595V24.68ZM452.473 47V47.5H452.824L452.943 47.171L452.473 47ZM448.784 47L448.315 47.1723L448.435 47.5H448.784V47ZM443.514 32.647L443.984 32.4747L443.513 31.1926L443.045 32.4756L443.514 32.647ZM438.275 47V47.5H438.625L438.745 47.1714L438.275 47ZM435.056 46.829L426.934 24.509L425.995 24.851L434.117 47.171L435.056 46.829ZM426.464 25.18H431.579V24.18H426.464V25.18ZM431.11 24.8518L435.977 38.1508L436.916 37.8072L432.049 24.5082L431.11 24.8518ZM436.916 38.1508L441.783 24.8518L440.844 24.5082L435.977 37.8072L436.916 38.1508ZM441.313 25.18H445.746V24.18H441.313V25.18ZM445.277 24.8528L450.175 38.1518L451.114 37.8062L446.216 24.5072L445.277 24.8528ZM451.114 38.1508L455.981 24.8518L455.042 24.5082L450.175 37.8072L451.114 38.1508ZM455.511 25.18H460.595V24.18H455.511V25.18ZM460.126 24.509L452.004 46.829L452.943 47.171L461.065 24.851L460.126 24.509ZM452.473 46.5H448.784V47.5H452.473V46.5ZM449.254 46.8277L443.984 32.4747L443.045 32.8193L448.315 47.1723L449.254 46.8277ZM443.045 32.4756L437.806 46.8286L438.745 47.1714L443.984 32.8184L443.045 32.4756ZM438.275 46.5H434.586V47.5H438.275V46.5Z" fill="white"/>
<defs>
<linearGradient id="paint0_linear_223_8840" x1="56.7045" y1="60.5914" x2="81.9437" y2="-82.2167" gradientUnits="userSpaceOnUse">
<stop stop-color="#B33DEB"/>
<stop offset="1" stop-color="#DE8FFF"/>
</linearGradient>
<linearGradient id="paint1_linear_223_8840" x1="542.666" y1="4.93257" x2="537.687" y2="89.6657" gradientUnits="userSpaceOnUse">
<stop stop-color="#F3A6FF"/>
<stop offset="1" stop-color="#B380F5"/>
</linearGradient>
</defs>
</svg>
