<svg width="257" height="53" viewBox="0 0 257 53" fill="none" xmlns="http://www.w3.org/2000/svg">
<path d="M237.986 38.7843C230.773 47.4067 220.11 52.3889 208.868 52.3889H15.4217C10.07 52.3889 5.73169 48.0505 5.73169 42.6989C5.73169 40.4015 6.54796 38.1788 8.03486 36.4275L24.5701 16.9513C31.7831 8.45546 42.365 3.55823 53.5099 3.55823H247.484C252.637 3.55823 256.815 7.73567 256.815 12.8888C256.815 15.0776 256.045 17.1968 254.641 18.8756L237.986 38.7843Z" fill="url(#paint0_linear_222_12009)"/>
<path d="M232.44 35.2261C225.227 43.8485 214.563 48.8307 203.322 48.8307H9.87529C4.52365 48.8307 0.185303 44.4923 0.185303 39.1407C0.185303 36.8433 1.00158 34.6206 2.48847 32.8693L19.0237 13.3931C26.2368 4.89723 36.8186 0 47.9635 0H241.938C247.091 0 251.268 4.17744 251.268 9.33058C251.268 11.5194 250.499 13.6386 249.094 15.3174L232.44 35.2261Z" fill="url(#paint1_linear_222_12009)"/>
<path d="M52.4163 33.1111V15.642H66.2894C66.9535 15.642 67.5528 15.804 68.0874 16.128C68.6381 16.4519 69.0754 16.8893 69.3994 17.44C69.7395 17.9907 69.9096 18.59 69.9096 19.2379V23.757C69.9096 24.4049 69.7395 25.0042 69.3994 25.5549C69.0754 26.1057 68.6381 26.543 68.0874 26.8669C67.5528 27.1909 66.9535 27.3529 66.2894 27.3529L56.1822 27.3772V33.1111H52.4163ZM56.1822 23.5626H66.0951V19.408H56.1822V23.5626ZM85.2166 33.1111L80.1387 27.0613H85.0709L89.104 31.8234V33.1111H85.2166ZM71.635 33.1111V15.642H85.5082C86.1723 15.642 86.7716 15.804 87.3061 16.128C87.8568 16.4519 88.2942 16.8893 88.6181 17.44C88.9583 17.9907 89.1283 18.59 89.1283 19.2379V23.757C89.1283 24.4049 88.9583 25.0042 88.6181 25.5549C88.2942 26.1057 87.8568 26.543 87.3061 26.8669C86.7716 27.1909 86.1723 27.3529 85.5082 27.3529L75.4009 27.3772V33.1111H71.635ZM75.4009 23.5626H85.3138V19.408H75.4009V23.5626ZM91.7328 33.1111V15.6178H107.89V19.408H95.5473V22.4693H105.484V26.2595H95.5473V29.3209H107.89V33.1111H91.7328ZM119.907 33.1111L109.776 15.6178H114.149L121.487 28.3247L128.824 15.6178H133.173L123.042 33.1111H119.907ZM134.046 33.1111V15.6178H137.763V33.1111H134.046ZM143.397 33.1111C142.749 33.1111 142.15 32.9491 141.599 32.6252C141.048 32.3012 140.611 31.8639 140.287 31.3132C139.963 30.7624 139.801 30.1631 139.801 29.5152V19.2136C139.801 18.5495 139.963 17.9502 140.287 17.4157C140.611 16.865 141.048 16.4276 141.599 16.1037C142.15 15.7797 142.749 15.6178 143.397 15.6178H153.699C154.346 15.6178 154.938 15.7797 155.472 16.1037C156.023 16.4276 156.46 16.865 156.784 17.4157C157.124 17.9502 157.294 18.5495 157.294 19.2136V29.5152C157.294 30.1631 157.124 30.7624 156.784 31.3132C156.46 31.8639 156.023 32.3012 155.472 32.6252C154.938 32.9491 154.346 33.1111 153.699 33.1111H143.397ZM143.567 29.3209H153.48V19.408H143.567V29.3209ZM163.517 33.1111C162.869 33.1111 162.27 32.9491 161.719 32.6252C161.169 32.3012 160.731 31.8639 160.407 31.3132C160.083 30.7624 159.921 30.1631 159.921 29.5152V15.6178H163.687V29.3209H173.6V15.6178H177.415V29.5152C177.415 30.1631 177.245 30.7624 176.905 31.3132C176.581 31.8639 176.143 32.3012 175.593 32.6252C175.058 32.9491 174.467 33.1111 173.819 33.1111H163.517ZM183.638 33.1111C182.99 33.1111 182.39 32.9491 181.84 32.6252C181.289 32.3012 180.852 31.8639 180.528 31.3132C180.204 30.7624 180.042 30.1631 180.042 29.5152V27.8874H183.808V29.3209H193.721V26.2595H183.638C182.99 26.2595 182.39 26.0976 181.84 25.7736C181.289 25.4497 180.852 25.0204 180.528 24.4859C180.204 23.9352 180.042 23.3278 180.042 22.6637V19.2136C180.042 18.5495 180.204 17.9502 180.528 17.4157C180.852 16.865 181.289 16.4276 181.84 16.1037C182.39 15.7797 182.99 15.6178 183.638 15.6178H193.939C194.587 15.6178 195.178 15.7797 195.713 16.1037C196.264 16.4276 196.701 16.865 197.025 17.4157C197.365 17.9502 197.535 18.5495 197.535 19.2136V20.8415H193.721V19.408H183.808V22.4693H193.939C194.587 22.4693 195.178 22.6313 195.713 22.9552C196.264 23.2792 196.701 23.7165 197.025 24.2672C197.365 24.8018 197.535 25.4011 197.535 26.0652V29.5152C197.535 30.1631 197.365 30.7624 197.025 31.3132C196.701 31.8639 196.264 32.3012 195.713 32.6252C195.178 32.9491 194.587 33.1111 193.939 33.1111H183.638Z" fill="white"/>
<path d="M52.4163 33.1111H52.0366V33.4907H52.4163V33.1111ZM52.4163 15.642V15.2624H52.0366V15.642H52.4163ZM68.0874 16.128L67.8906 16.4527L67.8949 16.4552L68.0874 16.128ZM69.3994 17.44L69.0721 17.6325L69.0764 17.6395L69.3994 17.44ZM69.3994 25.5549L69.0763 25.3554L69.0722 25.3625L69.3994 25.5549ZM68.0874 26.8669L67.8949 26.5397L67.8906 26.5423L68.0874 26.8669ZM66.2894 27.3529V26.9732L66.2885 26.9732L66.2894 27.3529ZM56.1822 27.3772L56.1813 26.9975L55.8026 26.9984V27.3772H56.1822ZM56.1822 33.1111V33.4907H56.5618V33.1111H56.1822ZM56.1822 23.5626H55.8026V23.9423H56.1822V23.5626ZM66.0951 23.5626V23.9423H66.4747V23.5626H66.0951ZM66.0951 19.408H66.4747V19.0283H66.0951V19.408ZM56.1822 19.408V19.0283H55.8026V19.408H56.1822ZM52.7959 33.1111V15.642H52.0366V33.1111H52.7959ZM52.4163 16.0217H66.2894V15.2624H52.4163V16.0217ZM66.2894 16.0217C66.8887 16.0217 67.4192 16.1669 67.8906 16.4526L68.2841 15.8033C67.6865 15.4411 67.0184 15.2624 66.2894 15.2624V16.0217ZM67.8949 16.4552C68.39 16.7464 68.7809 17.1374 69.0722 17.6325L69.7266 17.2475C69.3699 16.6411 68.8862 16.1574 68.2798 15.8008L67.8949 16.4552ZM69.0764 17.6395C69.3795 18.1302 69.53 18.6604 69.53 19.2379H70.2892C70.2892 18.5196 70.0996 17.8512 69.7224 17.2405L69.0764 17.6395ZM69.53 19.2379V23.757H70.2892V19.2379H69.53ZM69.53 23.757C69.53 24.3345 69.3795 24.8647 69.0764 25.3554L69.7224 25.7544C70.0996 25.1437 70.2892 24.4753 70.2892 23.757H69.53ZM69.0722 25.3625C68.7809 25.8575 68.39 26.2485 67.8949 26.5397L68.2798 27.1942C68.8862 26.8375 69.3699 26.3538 69.7266 25.7474L69.0722 25.3625ZM67.8906 26.5423C67.4192 26.828 66.8887 26.9732 66.2894 26.9732V27.7325C67.0184 27.7325 67.6865 27.5538 68.2841 27.1916L67.8906 26.5423ZM66.2885 26.9732L56.1813 26.9975L56.1831 27.7568L66.2904 27.7325L66.2885 26.9732ZM55.8026 27.3772V33.1111H56.5618V27.3772H55.8026ZM56.1822 32.7315H52.4163V33.4907H56.1822V32.7315ZM56.1822 23.9423H66.0951V23.183H56.1822V23.9423ZM66.4747 23.5626V19.408H65.7154V23.5626H66.4747ZM66.0951 19.0283H56.1822V19.7876H66.0951V19.0283ZM55.8026 19.408V23.5626H56.5618V19.408H55.8026ZM85.2166 33.1111L84.9259 33.3551L85.0396 33.4907H85.2166V33.1111ZM80.1387 27.0613V26.6817H79.3244L79.8479 27.3054L80.1387 27.0613ZM85.0709 27.0613L85.3605 26.816L85.2468 26.6817H85.0709V27.0613ZM89.104 31.8234H89.4837V31.6842L89.3937 31.578L89.104 31.8234ZM89.104 33.1111V33.4907H89.4837V33.1111H89.104ZM71.635 33.1111H71.2554V33.4907H71.635V33.1111ZM71.635 15.642V15.2624H71.2554V15.642H71.635ZM87.3061 16.128L87.1093 16.4527L87.1136 16.4552L87.3061 16.128ZM88.6181 17.44L88.2908 17.6325L88.2951 17.6395L88.6181 17.44ZM88.6181 25.5549L88.2951 25.3554L88.2909 25.3625L88.6181 25.5549ZM87.3061 26.8669L87.1136 26.5397L87.1094 26.5423L87.3061 26.8669ZM85.5082 27.3529V26.9732L85.5073 26.9732L85.5082 27.3529ZM75.4009 27.3772L75.4 26.9975L75.0213 26.9984V27.3772H75.4009ZM75.4009 33.1111V33.4907H75.7806V33.1111H75.4009ZM75.4009 23.5626H75.0213V23.9423H75.4009V23.5626ZM85.3138 23.5626V23.9423H85.6935V23.5626H85.3138ZM85.3138 19.408H85.6935V19.0283H85.3138V19.408ZM75.4009 19.408V19.0283H75.0213V19.408H75.4009ZM85.5074 32.867L80.4295 26.8172L79.8479 27.3054L84.9259 33.3551L85.5074 32.867ZM80.1387 27.4409H85.0709V26.6817H80.1387V27.4409ZM84.7812 27.3067L88.8144 32.0687L89.3937 31.578L85.3605 26.816L84.7812 27.3067ZM88.7244 31.8234V33.1111H89.4837V31.8234H88.7244ZM89.104 32.7315H85.2166V33.4907H89.104V32.7315ZM72.0146 33.1111V15.642H71.2554V33.1111H72.0146ZM71.635 16.0217H85.5082V15.2624H71.635V16.0217ZM85.5082 16.0217C86.1074 16.0217 86.6379 16.1669 87.1094 16.4526L87.5029 15.8033C86.9053 15.4411 86.2372 15.2624 85.5082 15.2624V16.0217ZM87.1136 16.4552C87.6087 16.7464 87.9997 17.1374 88.2909 17.6325L88.9453 17.2475C88.5887 16.6411 88.1049 16.1574 87.4986 15.8008L87.1136 16.4552ZM88.2951 17.6395C88.5982 18.1302 88.7487 18.6604 88.7487 19.2379H89.508C89.508 18.5196 89.3183 17.8512 88.9411 17.2405L88.2951 17.6395ZM88.7487 19.2379V23.757H89.508V19.2379H88.7487ZM88.7487 23.757C88.7487 24.3345 88.5982 24.8647 88.2951 25.3554L88.9411 25.7544C89.3183 25.1437 89.508 24.4753 89.508 23.757H88.7487ZM88.2909 25.3625C87.9997 25.8575 87.6087 26.2485 87.1136 26.5397L87.4986 27.1942C88.1049 26.8375 88.5887 26.3538 88.9453 25.7474L88.2909 25.3625ZM87.1094 26.5423C86.6379 26.828 86.1074 26.9732 85.5082 26.9732V27.7325C86.2372 27.7325 86.9053 27.5538 87.5029 27.1916L87.1094 26.5423ZM85.5073 26.9732L75.4 26.9975L75.4018 27.7568L85.5091 27.7325L85.5073 26.9732ZM75.0213 27.3772V33.1111H75.7806V27.3772H75.0213ZM75.4009 32.7315H71.635V33.4907H75.4009V32.7315ZM75.4009 23.9423H85.3138V23.183H75.4009V23.9423ZM85.6935 23.5626V19.408H84.9342V23.5626H85.6935ZM85.3138 19.0283H75.4009V19.7876H85.3138V19.0283ZM75.0213 19.408V23.5626H75.7806V19.408H75.0213ZM91.7328 33.1111H91.3532V33.4907H91.7328V33.1111ZM91.7328 15.6178V15.2381H91.3532V15.6178H91.7328ZM107.89 15.6178H108.269V15.2381H107.89V15.6178ZM107.89 19.408V19.7876H108.269V19.408H107.89ZM95.5473 19.408V19.0283H95.1677V19.408H95.5473ZM95.5473 22.4693H95.1677V22.8489H95.5473V22.4693ZM105.484 22.4693H105.864V22.0897H105.484V22.4693ZM105.484 26.2595V26.6392H105.864V26.2595H105.484ZM95.5473 26.2595V25.8799H95.1677V26.2595H95.5473ZM95.5473 29.3209H95.1677V29.7005H95.5473V29.3209ZM107.89 29.3209H108.269V28.9412H107.89V29.3209ZM107.89 33.1111V33.4907H108.269V33.1111H107.89ZM92.1124 33.1111V15.6178H91.3532V33.1111H92.1124ZM91.7328 15.9974H107.89V15.2381H91.7328V15.9974ZM107.51 15.6178V19.408H108.269V15.6178H107.51ZM107.89 19.0283H95.5473V19.7876H107.89V19.0283ZM95.1677 19.408V22.4693H95.9269V19.408H95.1677ZM95.5473 22.8489H105.484V22.0897H95.5473V22.8489ZM105.105 22.4693V26.2595H105.864V22.4693H105.105ZM105.484 25.8799H95.5473V26.6392H105.484V25.8799ZM95.1677 26.2595V29.3209H95.9269V26.2595H95.1677ZM95.5473 29.7005H107.89V28.9412H95.5473V29.7005ZM107.51 29.3209V33.1111H108.269V29.3209H107.51ZM107.89 32.7315H91.7328V33.4907H107.89V32.7315ZM119.907 33.1111L119.579 33.3013L119.689 33.4907H119.907V33.1111ZM109.776 15.6178V15.2381H109.117L109.447 15.808L109.776 15.6178ZM114.149 15.6178L114.478 15.4279L114.368 15.2381H114.149V15.6178ZM121.487 28.3247L121.158 28.5145L121.487 29.0839L121.815 28.5145L121.487 28.3247ZM128.824 15.6178V15.2381H128.605L128.495 15.4279L128.824 15.6178ZM133.173 15.6178L133.502 15.808L133.832 15.2381H133.173V15.6178ZM123.042 33.1111V33.4907H123.26L123.37 33.3013L123.042 33.1111ZM120.236 32.9208L110.104 15.4275L109.447 15.808L119.579 33.3013L120.236 32.9208ZM109.776 15.9974H114.149V15.2381H109.776V15.9974ZM113.82 15.8076L121.158 28.5145L121.815 28.1349L114.478 15.4279L113.82 15.8076ZM121.815 28.5145L129.153 15.8076L128.495 15.4279L121.158 28.1349L121.815 28.5145ZM128.824 15.9974H133.173V15.2381H128.824V15.9974ZM132.845 15.4275L122.713 32.9208L123.37 33.3013L133.502 15.808L132.845 15.4275ZM123.042 32.7315H119.907V33.4907H123.042V32.7315ZM134.046 33.1111H133.666V33.4907H134.046V33.1111ZM134.046 15.6178V15.2381H133.666V15.6178H134.046ZM137.763 15.6178H138.143V15.2381H137.763V15.6178ZM137.763 33.1111V33.4907H138.143V33.1111H137.763ZM134.426 33.1111V15.6178H133.666V33.1111H134.426ZM134.046 15.9974H137.763V15.2381H134.046V15.9974ZM137.384 15.6178V33.1111H138.143V15.6178H137.384ZM137.763 32.7315H134.046V33.4907H137.763V32.7315ZM141.599 32.6252L141.792 32.2979L141.599 32.6252ZM140.287 31.3132L139.96 31.5056L140.287 31.3132ZM140.287 17.4157L140.612 17.6125L140.614 17.6082L140.287 17.4157ZM141.599 16.1037L141.407 15.7765L141.407 15.7765L141.599 16.1037ZM155.472 16.1037L155.275 16.4284L155.28 16.4309L155.472 16.1037ZM156.784 17.4157L156.457 17.6083L156.464 17.6195L156.784 17.4157ZM156.784 31.3132L156.461 31.1136L156.457 31.1207L156.784 31.3132ZM155.472 32.6252L155.28 32.2979L155.275 32.3005L155.472 32.6252ZM143.567 29.3209H143.187V29.7005H143.567V29.3209ZM153.48 29.3209V29.7005H153.86V29.3209H153.48ZM153.48 19.408H153.86V19.0283H153.48V19.408ZM143.567 19.408V19.0283H143.187V19.408H143.567ZM143.397 32.7315C142.816 32.7315 142.283 32.5871 141.792 32.2979L141.407 32.9524C142.016 33.3111 142.682 33.4907 143.397 33.4907V32.7315ZM141.792 32.2979C141.296 32.0067 140.905 31.6158 140.614 31.1207L139.96 31.5056C140.316 32.112 140.8 32.5957 141.407 32.9524L141.792 32.2979ZM140.614 31.1207C140.325 30.6292 140.181 30.0964 140.181 29.5152H139.421C139.421 30.2298 139.601 30.8957 139.96 31.5056L140.614 31.1207ZM140.181 29.5152V19.2136H139.421V29.5152H140.181ZM140.181 19.2136C140.181 18.6144 140.326 18.0839 140.612 17.6124L139.962 17.2189C139.6 17.8165 139.421 18.4846 139.421 19.2136H140.181ZM140.614 17.6082C140.905 17.1131 141.296 16.7221 141.792 16.4309L141.407 15.7765C140.8 16.1331 140.316 16.6168 139.96 17.2232L140.614 17.6082ZM141.792 16.4309C142.283 16.1418 142.816 15.9974 143.397 15.9974V15.2381C142.682 15.2381 142.016 15.4177 141.407 15.7765L141.792 16.4309ZM143.397 15.9974H153.699V15.2381H143.397V15.9974ZM153.699 15.9974C154.28 15.9974 154.803 16.1417 155.275 16.4283L155.669 15.779C155.073 15.4178 154.413 15.2381 153.699 15.2381V15.9974ZM155.28 16.4309C155.775 16.7221 156.166 17.1131 156.457 17.6082L157.111 17.2232C156.755 16.6168 156.271 16.1331 155.665 15.7765L155.28 16.4309ZM156.464 17.6195C156.763 18.0901 156.915 18.618 156.915 19.2136H157.674C157.674 18.481 157.485 17.8103 157.104 17.2119L156.464 17.6195ZM156.915 19.2136V29.5152H157.674V19.2136H156.915ZM156.915 29.5152C156.915 30.0927 156.764 30.623 156.461 31.1137L157.107 31.5127C157.484 30.9019 157.674 30.2335 157.674 29.5152H156.915ZM156.457 31.1207C156.166 31.6158 155.775 32.0067 155.28 32.2979L155.665 32.9524C156.271 32.5957 156.755 32.112 157.111 31.5056L156.457 31.1207ZM155.275 32.3005C154.803 32.5871 154.28 32.7315 153.699 32.7315V33.4907C154.413 33.4907 155.073 33.3111 155.669 32.9498L155.275 32.3005ZM153.699 32.7315H143.397V33.4907H153.699V32.7315ZM143.567 29.7005H153.48V28.9412H143.567V29.7005ZM153.86 29.3209V19.408H153.1V29.3209H153.86ZM153.48 19.0283H143.567V19.7876H153.48V19.0283ZM143.187 19.408V29.3209H143.947V19.408H143.187ZM161.719 32.6252L161.912 32.2979L161.719 32.6252ZM160.407 31.3132L160.08 31.5056L160.407 31.3132ZM159.921 15.6178V15.2381H159.542V15.6178H159.921ZM163.687 15.6178H164.067V15.2381H163.687V15.6178ZM163.687 29.3209H163.308V29.7005H163.687V29.3209ZM173.6 29.3209V29.7005H173.98V29.3209H173.6ZM173.6 15.6178V15.2381H173.221V15.6178H173.6ZM177.415 15.6178H177.794V15.2381H177.415V15.6178ZM176.905 31.3132L176.582 31.1136L176.577 31.1207L176.905 31.3132ZM175.593 32.6252L175.4 32.2979L175.396 32.3005L175.593 32.6252ZM163.517 32.7315C162.936 32.7315 162.403 32.5871 161.912 32.2979L161.527 32.9524C162.137 33.3111 162.803 33.4907 163.517 33.4907V32.7315ZM161.912 32.2979C161.417 32.0067 161.026 31.6158 160.735 31.1207L160.08 31.5056C160.437 32.112 160.921 32.5957 161.527 32.9524L161.912 32.2979ZM160.735 31.1207C160.445 30.6292 160.301 30.0964 160.301 29.5152H159.542C159.542 30.2298 159.721 30.8957 160.08 31.5056L160.735 31.1207ZM160.301 29.5152V15.6178H159.542V29.5152H160.301ZM159.921 15.9974H163.687V15.2381H159.921V15.9974ZM163.308 15.6178V29.3209H164.067V15.6178H163.308ZM163.687 29.7005H173.6V28.9412H163.687V29.7005ZM173.98 29.3209V15.6178H173.221V29.3209H173.98ZM173.6 15.9974H177.415V15.2381H173.6V15.9974ZM177.035 15.6178V29.5152H177.794V15.6178H177.035ZM177.035 29.5152C177.035 30.0927 176.885 30.623 176.582 31.1137L177.228 31.5127C177.605 30.9019 177.794 30.2335 177.794 29.5152H177.035ZM176.577 31.1207C176.286 31.6158 175.895 32.0067 175.4 32.2979L175.785 32.9524C176.391 32.5957 176.875 32.112 177.232 31.5056L176.577 31.1207ZM175.396 32.3005C174.923 32.5871 174.4 32.7315 173.819 32.7315V33.4907C174.534 33.4907 175.193 33.3111 175.789 32.9498L175.396 32.3005ZM173.819 32.7315H163.517V33.4907H173.819V32.7315ZM181.84 32.6252L182.032 32.2979L181.84 32.6252ZM180.528 31.3132L180.201 31.5056L180.528 31.3132ZM180.042 27.8874V27.5078H179.662V27.8874H180.042ZM183.808 27.8874H184.187V27.5078H183.808V27.8874ZM183.808 29.3209H183.428V29.7005H183.808V29.3209ZM193.721 29.3209V29.7005H194.1V29.3209H193.721ZM193.721 26.2595H194.1V25.8799H193.721V26.2595ZM181.84 25.7736L182.032 25.4464L181.84 25.7736ZM180.528 24.4859L180.201 24.6784L180.203 24.6827L180.528 24.4859ZM180.528 17.4157L180.852 17.6125L180.855 17.6082L180.528 17.4157ZM181.84 16.1037L181.647 15.7765V15.7765L181.84 16.1037ZM195.713 16.1037L195.516 16.4284L195.52 16.4309L195.713 16.1037ZM197.025 17.4157L196.698 17.6083L196.705 17.6195L197.025 17.4157ZM197.535 20.8415V21.2211H197.915V20.8415H197.535ZM193.721 20.8415H193.341V21.2211H193.721V20.8415ZM193.721 19.408H194.1V19.0283H193.721V19.408ZM183.808 19.408V19.0283H183.428V19.408H183.808ZM183.808 22.4693H183.428V22.8489H183.808V22.4693ZM195.713 22.9552L195.516 23.2799L195.52 23.2824L195.713 22.9552ZM197.025 24.2672L196.698 24.4598L196.705 24.471L197.025 24.2672ZM197.025 31.3132L196.702 31.1136L196.698 31.1207L197.025 31.3132ZM195.713 32.6252L195.52 32.2979L195.516 32.3005L195.713 32.6252ZM183.638 32.7315C183.056 32.7315 182.524 32.5871 182.032 32.2979L181.647 32.9524C182.257 33.3111 182.923 33.4907 183.638 33.4907V32.7315ZM182.032 32.2979C181.537 32.0067 181.146 31.6158 180.855 31.1207L180.201 31.5056C180.557 32.112 181.041 32.5957 181.647 32.9524L182.032 32.2979ZM180.855 31.1207C180.566 30.6292 180.421 30.0964 180.421 29.5152H179.662C179.662 30.2298 179.842 30.8957 180.201 31.5056L180.855 31.1207ZM180.421 29.5152V27.8874H179.662V29.5152H180.421ZM180.042 28.267H183.808V27.5078H180.042V28.267ZM183.428 27.8874V29.3209H184.187V27.8874H183.428ZM183.808 29.7005H193.721V28.9412H183.808V29.7005ZM194.1 29.3209V26.2595H193.341V29.3209H194.1ZM193.721 25.8799H183.638V26.6392H193.721V25.8799ZM183.638 25.8799C183.056 25.8799 182.524 25.7355 182.032 25.4464L181.647 26.1008C182.257 26.4596 182.923 26.6392 183.638 26.6392V25.8799ZM182.032 25.4464C181.534 25.1536 181.143 24.7687 180.852 24.2891L180.203 24.6827C180.56 25.2722 181.044 25.7457 181.647 26.1008L182.032 25.4464ZM180.855 24.2934C180.567 23.8034 180.421 23.2629 180.421 22.6637H179.662C179.662 23.3927 179.841 24.067 180.201 24.6784L180.855 24.2934ZM180.421 22.6637V19.2136H179.662V22.6637H180.421ZM180.421 19.2136C180.421 18.6144 180.567 18.0839 180.852 17.6124L180.203 17.2189C179.841 17.8165 179.662 18.4846 179.662 19.2136H180.421ZM180.855 17.6082C181.146 17.1131 181.537 16.7221 182.032 16.4309L181.647 15.7765C181.041 16.1331 180.557 16.6168 180.201 17.2232L180.855 17.6082ZM182.032 16.4309C182.524 16.1418 183.056 15.9974 183.638 15.9974V15.2381C182.923 15.2381 182.257 15.4177 181.647 15.7765L182.032 16.4309ZM183.638 15.9974H193.939V15.2381H183.638V15.9974ZM193.939 15.9974C194.521 15.9974 195.043 16.1417 195.516 16.4283L195.91 15.779C195.314 15.4178 194.654 15.2381 193.939 15.2381V15.9974ZM195.52 16.4309C196.016 16.7221 196.407 17.1131 196.698 17.6082L197.352 17.2232C196.995 16.6168 196.512 16.1331 195.905 15.7765L195.52 16.4309ZM196.705 17.6195C197.004 18.0901 197.156 18.618 197.156 19.2136H197.915C197.915 18.481 197.726 17.8103 197.345 17.2119L196.705 17.6195ZM197.156 19.2136V20.8415H197.915V19.2136H197.156ZM197.535 20.4618H193.721V21.2211H197.535V20.4618ZM194.1 20.8415V19.408H193.341V20.8415H194.1ZM193.721 19.0283H183.808V19.7876H193.721V19.0283ZM183.428 19.408V22.4693H184.187V19.408H183.428ZM183.808 22.8489H193.939V22.0897H183.808V22.8489ZM193.939 22.8489C194.521 22.8489 195.043 22.9933 195.516 23.2799L195.91 22.6306C195.314 22.2693 194.654 22.0897 193.939 22.0897V22.8489ZM195.52 23.2824C196.016 23.5737 196.407 23.9646 196.698 24.4597L197.352 24.0748C196.995 23.4684 196.512 22.9847 195.905 22.628L195.52 23.2824ZM196.705 24.471C197.004 24.9416 197.156 25.4696 197.156 26.0652H197.915C197.915 25.3325 197.726 24.6619 197.345 24.0634L196.705 24.471ZM197.156 26.0652V29.5152H197.915V26.0652H197.156ZM197.156 29.5152C197.156 30.0927 197.005 30.623 196.702 31.1137L197.348 31.5127C197.725 30.9019 197.915 30.2335 197.915 29.5152H197.156ZM196.698 31.1207C196.407 31.6158 196.016 32.0067 195.52 32.2979L195.905 32.9524C196.512 32.5957 196.995 32.112 197.352 31.5056L196.698 31.1207ZM195.516 32.3005C195.043 32.5871 194.521 32.7315 193.939 32.7315V33.4907C194.654 33.4907 195.314 33.3111 195.91 32.9498L195.516 32.3005ZM193.939 32.7315H183.638V33.4907H193.939V32.7315Z" fill="white"/>
<defs>
<linearGradient id="paint0_linear_222_12009" x1="5.73169" y1="27.9736" x2="256.815" y2="27.9736" gradientUnits="userSpaceOnUse">
<stop offset="0.59" stop-color="#05339C"/>
<stop offset="1" stop-color="#8F05C7"/>
</linearGradient>
<linearGradient id="paint1_linear_222_12009" x1="17.0047" y1="36.623" x2="46.5495" y2="-51.0862" gradientUnits="userSpaceOnUse">
<stop stop-color="#FAD0C4"/>
<stop offset="1" stop-color="#FBC2EB"/>
</linearGradient>
</defs>
</svg>
