<svg width="90" height="318" viewBox="0 0 90 318" fill="none" xmlns="http://www.w3.org/2000/svg">
<g style="mix-blend-mode:multiply">
<path d="M0 50C0 22.3858 22.3858 0 50 0H90V318H50C22.3858 318 0 295.614 0 268V50Z" fill="url(#paint0_linear_223_8860)"/>
</g>
<path d="M69.7143 146.566L64.8163 147.331L68.0816 143.505L62.3674 145.035C55.0204 137.382 43.5918 145.801 46.8572 152.689C33.7959 152.689 27.2653 143.505 27.2653 143.505C27.2653 143.505 22.3673 150.393 30.5306 155.75L25.6327 154.219C25.6327 158.811 28.898 161.873 34.6122 163.403H28.898C32.1633 169.526 37.8776 169.526 37.8776 169.526C37.8776 169.526 32.9796 173.353 24 173.353C50.9388 185.598 67.2653 162.638 64.8163 150.393L69.7143 146.566Z" fill="url(#paint1_linear_223_8860)"/>
<path d="M28.1778 142.854C27.9675 142.559 27.6276 142.384 27.2653 142.384C26.9026 142.384 26.5623 142.56 26.3521 142.855L27.2653 143.505C26.3521 142.855 26.3517 142.856 26.3513 142.856L26.3504 142.858L26.3482 142.861L26.3426 142.869L26.3263 142.892C26.3133 142.911 26.2959 142.937 26.2747 142.969C26.2325 143.034 26.1751 143.125 26.1071 143.239C25.9715 143.468 25.7924 143.794 25.6074 144.201C25.2395 145.01 24.8361 146.165 24.7202 147.523C24.6036 148.89 24.7792 150.463 25.5712 152.071C25.7642 152.463 25.9918 152.854 26.2574 153.241L25.9669 153.15C25.6267 153.043 25.2561 153.105 24.9689 153.316C24.6817 153.528 24.5121 153.863 24.5121 154.219C24.5121 156.811 25.4456 159.01 27.1872 160.752C27.7499 161.314 28.3911 161.824 29.1038 162.283H28.898C28.5043 162.283 28.1396 162.489 27.9371 162.827C27.7346 163.164 27.724 163.583 27.9092 163.931C29.6813 167.254 32.1426 168.946 34.1812 169.795C34.3796 169.878 34.5738 169.952 34.7627 170.02C34.4915 170.145 34.1982 170.273 33.8831 170.402C31.6533 171.311 28.3272 172.232 24 172.232C23.4725 172.232 23.0165 172.6 22.9048 173.116C22.7932 173.631 23.0561 174.155 23.5363 174.373C37.378 180.665 48.6472 177.944 56.1305 171.93C63.256 166.204 66.9821 157.434 66.0338 150.863L70.4042 147.449C70.8064 147.135 70.9454 146.588 70.7424 146.12C70.5394 145.652 70.0456 145.38 69.5413 145.459L67.6327 145.757L68.9341 144.232C69.2526 143.859 69.2912 143.321 69.0292 142.906C68.7673 142.491 68.2658 142.295 67.7917 142.422L62.6979 143.787C58.6764 140.014 53.6511 140.303 50.0585 142.447C46.8984 144.332 44.5547 147.884 45.2923 151.522C39.8182 151.194 35.6611 149.186 32.8078 147.18C31.2462 146.082 30.0774 144.985 29.303 144.169C28.9161 143.76 28.6288 143.423 28.4411 143.192C28.3472 143.077 28.2784 142.988 28.2347 142.93C28.2128 142.902 28.1971 142.881 28.1878 142.868L28.1785 142.855C28.1777 142.854 28.1773 142.853 28.1773 142.853L28.1776 142.854L28.1778 142.854ZM28.1778 142.854C28.1779 142.854 28.1779 142.854 28.178 142.854C28.178 142.854 28.178 142.854 28.178 142.854L28.1778 142.854ZM28.1809 144.151C28.181 144.15 28.181 144.15 28.181 144.15L28.1809 144.151Z" stroke="white" stroke-opacity="0.2" stroke-width="2.24115" stroke-linejoin="round"/>
<path fill-rule="evenodd" clip-rule="evenodd" d="M35.5788 251.728C36.4248 252.049 37.3581 252.37 38.378 252.667C36.5812 254.477 33.7959 257.011 33.7959 257.011C25.146 256.745 24 249.873 24 249.873C24 237.648 29.636 222.987 29.636 222.987C35.2719 218.886 40.6339 219 40.6339 219L41.1305 222.239C38.5333 222.91 35.8712 224.017 33.0143 225.529L34.5777 228.31C39.2898 225.817 43.1272 224.654 46.8649 224.652C50.6016 224.65 54.4333 225.809 59.1339 228.308L60.7031 225.53C57.707 223.937 54.9245 222.794 52.2052 222.138L53.0801 219.001C53.0801 219.001 58.4421 218.886 64.078 222.987C64.078 222.987 69.7143 237.648 69.7143 249.873C69.7143 249.873 68.5681 256.745 59.9183 257.011C59.9183 257.011 57.3175 254.523 55.5983 252.729C56.5007 252.46 57.4132 252.14 58.3384 251.764C59.8156 251.229 61.4412 250.457 63.1366 249.373L61.3407 246.728C59.8394 247.687 58.4238 248.354 57.1697 248.806L57.149 248.813L57.1328 248.819L57.1054 248.83C55.2555 249.584 53.4966 250.08 51.7886 250.362L51.7618 250.367C48.2414 251.007 45.0062 250.832 42.2301 250.329C40.121 249.934 38.3021 249.359 36.7674 248.778C35.2318 248.195 33.9179 247.579 32.6466 246.715L30.7742 249.31C32.3284 250.366 33.8969 251.09 35.5773 251.728L35.5788 251.728ZM39.8286 232.88C36.5594 232.88 34.2041 235.626 34.2041 238.678C34.2041 241.74 36.6083 244.476 39.8286 244.476C43.0934 244.476 45.4467 241.738 45.4534 238.691C45.4989 235.599 43.0701 232.88 39.8286 232.88ZM53.8236 233.162C52.278 233.162 50.9017 233.734 49.9252 234.781C48.9623 235.814 48.4894 237.198 48.4894 238.678C48.4894 240.152 48.9656 241.619 49.8492 242.751C50.744 243.897 52.1173 244.758 53.8236 244.758C57.0929 244.758 59.4481 242.012 59.4481 238.96C59.4481 235.908 57.0929 233.162 53.8236 233.162Z" fill="url(#paint2_linear_223_8860)"/>
<path d="M61.5477 249.028C60.281 249.758 59.0712 250.307 57.9572 250.71L57.9367 250.717L57.9165 250.726C57.0235 251.088 56.1451 251.397 55.2785 251.655L53.5188 252.179L54.7894 253.505C55.6618 254.415 56.7522 255.495 57.6194 256.344C58.0541 256.769 58.4348 257.138 58.7068 257.4C58.8429 257.532 58.9518 257.636 59.0269 257.709L59.1133 257.791L59.1358 257.813L59.1416 257.819L59.1431 257.82L59.1435 257.82L59.1436 257.821L59.9183 257.011L59.1437 257.821L59.4831 258.145L59.9528 258.131C64.6207 257.987 67.3768 256.037 68.9431 254.032C69.7121 253.047 70.1764 252.074 70.4496 251.344C70.5865 250.978 70.6767 250.669 70.7337 250.447C70.7623 250.335 70.7826 250.245 70.7963 250.179C70.8032 250.146 70.8084 250.119 70.8122 250.099L70.8169 250.073L70.8185 250.064L70.8191 250.06L70.8194 250.059C70.8195 250.058 70.8196 250.057 69.7143 249.873L70.8196 250.057L70.8349 249.966V249.873C70.8349 243.614 69.3962 236.78 67.9776 231.552C67.266 228.929 66.5545 226.693 66.0204 225.11C65.7533 224.319 65.5303 223.691 65.3736 223.259C65.2952 223.043 65.2334 222.876 65.1909 222.762C65.1696 222.705 65.1532 222.662 65.1419 222.632L65.1289 222.598L65.1254 222.589L65.1245 222.586L65.1242 222.585C65.1241 222.585 65.124 222.585 64.078 222.987L65.124 222.585L65.0051 222.276L64.7373 222.081C61.7771 219.927 58.8842 218.877 56.7237 218.366C55.6433 218.11 54.7439 217.988 54.1068 217.931C53.7881 217.902 53.5346 217.889 53.3562 217.884C53.2671 217.881 53.1967 217.88 53.1463 217.88C53.1211 217.88 53.1008 217.88 53.0858 217.88L53.0671 217.88L53.0607 217.88L53.0582 217.88L53.0572 217.88C53.0567 217.88 53.0563 217.88 53.0801 219.001L53.0563 217.88L52.2243 217.898L52.0007 218.7L51.1258 221.837L50.814 222.955L51.9422 223.227C54.2396 223.782 56.6081 224.705 59.156 225.991L58.69 226.816C54.3187 224.607 50.5779 223.529 46.8644 223.531C43.1502 223.533 39.4048 224.614 35.0246 226.818L34.5603 225.992C36.9744 224.78 39.2272 223.888 41.4104 223.324L42.3916 223.071L42.2381 222.07L41.7415 218.831L41.5989 217.9L40.6577 217.88L40.6339 219C40.6577 217.88 40.6573 217.88 40.6568 217.88L40.6557 217.88L40.6533 217.88L40.6469 217.88L40.6282 217.88C40.6131 217.879 40.5929 217.879 40.5677 217.879C40.5173 217.88 40.4469 217.881 40.3577 217.883C40.1794 217.889 39.9259 217.902 39.6072 217.931C38.9701 217.988 38.0707 218.11 36.9903 218.365C34.8298 218.877 31.9369 219.927 28.9767 222.081L28.7089 222.276L28.59 222.585L29.636 222.987C28.59 222.585 28.5899 222.585 28.5898 222.585L28.5895 222.586L28.5885 222.589L28.585 222.598L28.5721 222.632C28.5608 222.662 28.5444 222.705 28.5231 222.762C28.4806 222.876 28.4188 223.042 28.3404 223.258C28.1837 223.69 27.9607 224.319 27.6936 225.11C27.1596 226.693 26.4481 228.929 25.7365 231.552C24.318 236.78 22.8794 243.614 22.8794 249.873V249.966L22.8947 250.057L24 249.873C22.8947 250.057 22.8948 250.058 22.8949 250.059L22.8952 250.06L22.8958 250.064L22.8974 250.073L22.9021 250.099C22.9059 250.119 22.9111 250.146 22.918 250.179C22.9317 250.245 22.952 250.335 22.9806 250.447C23.0375 250.669 23.1277 250.978 23.2647 251.344C23.5379 252.074 24.0021 253.047 24.7711 254.032C26.3374 256.037 29.0935 257.987 33.7615 258.131L34.2147 258.145L34.5501 257.84L33.7959 257.011L34.5501 257.84L34.5502 257.84L34.5507 257.839L34.5523 257.838L34.5586 257.832L34.5827 257.81L34.6752 257.726C34.7556 257.652 34.8722 257.545 35.0176 257.412C35.3084 257.144 35.7149 256.769 36.1779 256.337C37.1013 255.475 38.2594 254.377 39.1732 253.456L40.5024 252.117L38.6908 251.591C37.7037 251.304 36.7986 250.992 35.9757 250.68L61.5477 249.028ZM61.5477 249.028L61.012 248.239C59.7826 248.949 58.6152 249.476 57.5492 249.86L57.5461 249.861L57.5393 249.864L57.5284 249.868C57.5271 249.869 57.5258 249.869 57.5245 249.87C55.6059 250.651 53.77 251.17 51.9777 251.467L51.9623 251.469C51.9615 251.469 51.9607 251.47 51.96 251.47C48.284 252.138 44.9116 251.953 42.0306 251.432L42.0235 251.431C39.835 251.02 37.9514 250.424 36.3707 249.826L36.3696 249.826C35.1389 249.358 34.019 248.86 32.939 248.225L32.3796 249C33.5268 249.675 34.7056 250.198 35.975 250.68L35.9755 250.68L61.5477 249.028ZM44.3329 238.674H44.3328L44.3328 238.689C44.3273 241.191 42.4047 243.356 39.8286 243.356C37.2906 243.356 35.3246 241.187 35.3246 238.678C35.3246 236.172 37.2491 234.001 39.8286 234.001C42.3998 234.001 44.3699 236.162 44.3329 238.674ZM50.7326 242.061L50.7326 242.061C50.0135 241.14 49.61 239.92 49.61 238.678C49.61 237.434 50.0052 236.339 50.7448 235.545C51.4913 234.745 52.5612 234.283 53.8236 234.283C56.4031 234.283 58.3275 236.454 58.3275 238.96C58.3275 241.467 56.4031 243.638 53.8236 243.638C52.5236 243.638 51.4558 242.988 50.7326 242.061Z" stroke="white" stroke-opacity="0.2" stroke-width="2.24115"/>
<path d="M47.1429 51C33.264 51 22 61.9267 22 75.39C22 88.8533 33.264 99.78 47.1429 99.78C61.0217 99.78 72.2857 88.8533 72.2857 75.39C72.2857 61.9267 61.0217 51 47.1429 51ZM34.4206 76.2193L34.5211 76.0729L41.0583 66.1706C41.1589 66.0242 41.36 66.0242 41.4606 66.2194C42.5669 68.6096 43.472 71.5364 43.0697 73.39C42.8686 74.1705 42.3657 75.1949 41.7623 76.1217C41.712 76.268 41.6114 76.4144 41.5109 76.5119C41.4606 76.5607 41.4103 76.6095 41.3097 76.6095H34.5714C34.4206 76.5607 34.32 76.3656 34.4206 76.2193ZM63.536 79.6339C63.536 79.7314 63.4857 79.7802 63.3852 79.829C62.8823 80.0241 61.1223 80.8046 60.4183 81.7802C58.5577 84.268 57.1497 87.8289 54.032 87.8289H40.9577C36.3314 87.8289 32.56 84.1704 32.56 79.6339V79.4875C32.56 79.39 32.6606 79.2924 32.7611 79.2924H40.1029C40.2537 79.2924 40.3543 79.4387 40.3543 79.5363C40.304 79.9753 40.4046 80.4631 40.6057 80.9021C41.0583 81.7802 41.9634 82.268 42.9189 82.268H46.5394V79.5363H42.9691C42.768 79.5363 42.6674 79.3412 42.768 79.1948C42.8183 79.1461 42.8686 79.0973 42.9189 78.9997C43.2709 78.5119 43.7234 77.829 44.2263 76.9997C44.5783 76.4632 44.88 75.829 45.1314 75.2437C45.1817 75.1461 45.232 75.0485 45.2823 74.9022C45.3326 74.7071 45.4331 74.512 45.4834 74.3656C45.5337 74.2193 45.584 74.0729 45.6343 73.9266C45.7349 73.4388 45.7851 72.9022 45.7851 72.3169C45.7851 72.1217 45.7851 71.8778 45.7349 71.6339C45.7349 71.39 45.6846 71.1461 45.6846 70.9022C45.6846 70.7071 45.6343 70.4632 45.584 70.2681C45.5337 69.9266 45.4834 69.634 45.3829 69.2925L45.3326 69.1949C45.2823 68.9998 45.232 68.7559 45.1314 68.5608C44.9303 67.8779 44.6789 67.195 44.4274 66.6096C44.3269 66.3657 44.2263 66.1218 44.1257 65.8779C43.9749 65.5364 43.824 65.195 43.6731 64.9023C43.6229 64.756 43.5223 64.6584 43.472 64.5121C43.4217 64.3657 43.3211 64.2194 43.2709 64.073C43.2206 63.9755 43.1703 63.8779 43.12 63.7804L42.6674 62.9999C42.6171 62.9023 42.7177 62.756 42.8183 62.8048L45.584 63.5365L45.936 63.634L46.3383 63.7316L46.4891 63.7804V62.1706C46.4891 61.3901 47.1429 60.756 47.8971 60.756C48.2994 60.756 48.6514 60.9023 48.9029 61.1462C49.1543 61.3901 49.3051 61.7316 49.3051 62.1218V64.4633L49.6069 64.5608C49.6069 64.5608 49.6572 64.5608 49.6572 64.6096C49.7074 64.6584 49.808 64.756 49.9589 64.8535C50.0594 64.9511 50.16 65.0486 50.3109 65.1462C50.5623 65.3413 50.9143 65.634 51.2663 65.9267C51.3669 66.0242 51.4674 66.073 51.5177 66.1706C51.9703 66.5608 52.4732 67.0486 52.976 67.5852C53.1269 67.7315 53.2274 67.8779 53.3783 68.0242C53.5292 68.1706 53.6297 68.3657 53.7806 68.512C53.9314 68.7071 54.1326 68.951 54.2834 69.1462C54.3337 69.2437 54.4343 69.3413 54.4846 69.4876C54.6857 69.7803 54.8366 70.073 55.0377 70.3657C55.088 70.512 55.1886 70.6583 55.2389 70.8047C55.44 71.1949 55.5909 71.5852 55.6412 72.0242C55.6914 72.1217 55.6914 72.2193 55.6914 72.2681C55.7417 72.3656 55.7417 72.512 55.7417 72.6583C55.792 73.0973 55.7417 73.4876 55.6914 73.9266C55.6412 74.1217 55.5909 74.2681 55.5406 74.4632C55.4903 74.6095 55.44 74.8046 55.3394 74.9998C55.1886 75.3412 54.9874 75.6827 54.7863 76.0241C54.736 76.1217 54.6354 76.268 54.5349 76.4144C54.4343 76.5607 54.3337 76.6583 54.2834 76.8046C54.1829 76.951 54.032 77.0973 53.9314 77.2436C53.8309 77.39 53.7303 77.5363 53.5794 77.6827C53.4286 77.8778 53.2274 78.0729 53.0766 78.268C52.976 78.3656 52.8754 78.5119 52.7246 78.6095C52.624 78.707 52.5234 78.8534 52.3726 78.9509C52.2217 79.0973 52.0709 79.2436 51.92 79.3412L51.6183 79.5851C51.568 79.6339 51.5177 76.1291 51.4674 76.1291H49.2549V82.3655H52.0206C52.624 82.3655 53.2274 82.1704 53.68 81.7802C53.8309 81.6338 54.5349 81.0485 55.3897 80.1704C55.44 80.1217 55.44 80.1217 55.4903 80.1217L63.2846 77.829C63.4354 77.7802 63.5863 77.8778 63.5863 78.0241V79.6339H63.536Z" fill="url(#paint3_linear_223_8860)" stroke="white" stroke-opacity="0.2" stroke-width="4.4823" stroke-linejoin="round"/>
<defs>
<linearGradient id="paint0_linear_223_8860" x1="6.02886" y1="238.5" x2="107.249" y2="221.96" gradientUnits="userSpaceOnUse">
<stop stop-color="#FF9A9E"/>
<stop offset="1" stop-color="#FAD0C4"/>
</linearGradient>
<linearGradient id="paint1_linear_223_8860" x1="27.0623" y1="168.132" x2="60.6031" y2="142.725" gradientUnits="userSpaceOnUse">
<stop stop-color="#F3F3F3"/>
<stop offset="1" stop-color="#FCC9CC"/>
</linearGradient>
<linearGradient id="paint2_linear_223_8860" x1="27.0623" y1="247.508" x2="62.6774" y2="222.779" gradientUnits="userSpaceOnUse">
<stop stop-color="#F3F3F3"/>
<stop offset="1" stop-color="#FCC9CC"/>
</linearGradient>
<linearGradient id="paint3_linear_223_8860" x1="25.3685" y1="87.585" x2="68.2453" y2="62.066" gradientUnits="userSpaceOnUse">
<stop stop-color="#F3F3F3"/>
<stop offset="1" stop-color="#FCC9CC"/>
</linearGradient>
</defs>
</svg>
