<svg width="56" height="67" viewBox="0 0 56 67" fill="none" xmlns="http://www.w3.org/2000/svg">
<g filter="url(#filter0_d_436_11283)">
<path d="M16.483 16.7895C16.6605 16.7893 16.8365 16.8243 17.0013 16.8926C17.257 17.0057 17.4822 17.1817 17.6572 17.4052C17.8323 17.6286 17.9521 17.8929 18.0062 18.175L19.0549 24.1749L33.9758 24.2492L35.802 34.7315L20.8811 34.6614L21.9218 40.6654C21.9649 40.8296 21.9702 41.002 21.9372 41.1687C21.9042 41.3353 21.8339 41.4917 21.732 41.6252C21.63 41.7587 21.4992 41.8657 21.35 41.9375C21.2009 42.0093 21.0376 42.0439 20.8731 42.0386C20.5116 42.0257 20.1665 41.8794 19.9002 41.6262L7.56709 30.3315C7.28867 30.0769 7.09826 29.7352 7.0248 29.3584C6.99108 29.1898 6.99175 29.0158 7.02677 28.8475C7.06179 28.6792 7.13038 28.5204 7.22816 28.3811L15.6616 17.1853C15.7598 17.0584 15.885 16.9566 16.0275 16.888C16.1699 16.8193 16.3258 16.7856 16.483 16.7895Z" fill="url(#paint0_linear_436_11283)"/>
<path d="M34.6857 2.03915C35.0497 2.05123 35.3976 2.19748 35.6666 2.45151L48.3107 13.6349C48.5997 13.8851 48.8002 14.2273 48.8809 14.6081C48.9192 14.7753 48.9233 14.9489 48.8931 15.1179C48.8629 15.2869 48.799 15.4475 48.7055 15.5895L40.599 26.8801C40.5033 27.011 40.379 27.1166 40.2362 27.1883C40.0935 27.26 39.9363 27.2957 39.7776 27.2924C39.6056 27.2927 39.4351 27.2591 39.2752 27.1935C39.0147 27.0831 38.7836 26.9098 38.6011 26.6882C38.4187 26.4665 38.2902 26.2028 38.2265 25.9192L37.0303 19.9193L22.1373 19.9894L20 9.49884L34.897 9.42462L33.7008 3.4247C33.6347 3.1824 33.65 2.92409 33.7441 2.69193C33.8383 2.45977 34.0057 2.26745 34.2192 2.14636C34.365 2.07506 34.5244 2.03843 34.6857 2.03915Z" fill="url(#paint1_linear_436_11283)"/>
</g>
<g filter="url(#filter1_d_436_11283)">
<path d="M6.52764 62.0391V55.0806H3.04838V53.1559H11.9316V55.0806H8.45233V62.0391H6.52764ZM19.7512 62.0391L17.1726 58.967H19.6771L21.7252 61.3852V62.0391H19.7512ZM12.8543 62.0391V53.1683H19.8992C20.2364 53.1683 20.5408 53.2505 20.8122 53.415C21.0919 53.5795 21.3139 53.8016 21.4784 54.0813C21.6512 54.3609 21.7375 54.6652 21.7375 54.9943V57.2891C21.7375 57.6181 21.6512 57.9224 21.4784 58.2021C21.3139 58.4817 21.0919 58.7038 20.8122 58.8683C20.5408 59.0328 20.2364 59.1151 19.8992 59.1151L14.7667 59.1274V62.0391H12.8543ZM14.7667 57.1904H19.8005V55.0806H14.7667V57.1904ZM23.0601 62.0391V54.9819C23.0601 54.6447 23.1423 54.3404 23.3068 54.0689C23.4713 53.7893 23.6934 53.5672 23.9731 53.4027C24.2527 53.2382 24.5571 53.1559 24.8861 53.1559H30.105C30.4422 53.1559 30.7465 53.2382 31.018 53.4027C31.2976 53.5672 31.5197 53.7893 31.6842 54.0689C31.8569 54.3404 31.9433 54.6447 31.9433 54.9819V62.0391H30.0063V59.1768H24.9724V62.0391H23.0601ZM24.9724 57.2521H30.0063V55.0806H24.9724V57.2521ZM33.3737 62.0391V53.1559H40.4186C40.7558 53.1559 41.0602 53.2382 41.3316 53.4027C41.6113 53.5672 41.8333 53.7893 41.9978 54.0689C42.1706 54.3404 42.2569 54.6447 42.2569 54.9819V60.2131C42.2569 60.5422 42.1706 60.8465 41.9978 61.1261C41.8333 61.4058 41.6113 61.6279 41.3316 61.7924C41.0602 61.9569 40.7558 62.0391 40.4186 62.0391H33.3737ZM35.2737 60.1144H40.3199V55.0806H35.2737V60.1144ZM43.6632 62.0391V53.1559H51.8679V55.0806H45.6003V56.6352H50.6464V58.5599H45.6003V60.1144H51.8679V62.0391H43.6632Z" fill="url(#paint2_linear_436_11283)"/>
</g>
<defs>
<filter id="filter0_d_436_11283" x="3" y="0.0391388" width="49.9131" height="48" filterUnits="userSpaceOnUse" color-interpolation-filters="sRGB">
<feFlood flood-opacity="0" result="BackgroundImageFix"/>
<feColorMatrix in="SourceAlpha" type="matrix" values="0 0 0 0 0 0 0 0 0 0 0 0 0 0 0 0 0 0 127 0" result="hardAlpha"/>
<feOffset dy="2"/>
<feGaussianBlur stdDeviation="2"/>
<feComposite in2="hardAlpha" operator="out"/>
<feColorMatrix type="matrix" values="0 0 0 0 0 0 0 0 0 0 0 0 0 0 0 0 0 0 0.15 0"/>
<feBlend mode="normal" in2="BackgroundImageFix" result="effect1_dropShadow_436_11283"/>
<feBlend mode="normal" in="SourceGraphic" in2="effect1_dropShadow_436_11283" result="shape"/>
</filter>
<filter id="filter1_d_436_11283" x="2.43145" y="52.539" width="52.5209" height="12.5846" filterUnits="userSpaceOnUse" color-interpolation-filters="sRGB">
<feFlood flood-opacity="0" result="BackgroundImageFix"/>
<feColorMatrix in="SourceAlpha" type="matrix" values="0 0 0 0 0 0 0 0 0 0 0 0 0 0 0 0 0 0 127 0" result="hardAlpha"/>
<feOffset dx="1.23378" dy="1.23378"/>
<feGaussianBlur stdDeviation="0.925335"/>
<feComposite in2="hardAlpha" operator="out"/>
<feColorMatrix type="matrix" values="0 0 0 0 0 0 0 0 0 0 0 0 0 0 0 0 0 0 0.15 0"/>
<feBlend mode="normal" in2="BackgroundImageFix" result="effect1_dropShadow_436_11283"/>
<feBlend mode="normal" in="SourceGraphic" in2="effect1_dropShadow_436_11283" result="shape"/>
</filter>
<linearGradient id="paint0_linear_436_11283" x1="14.2814" y1="18.7349" x2="22.9046" y2="43.1283" gradientUnits="userSpaceOnUse">
<stop stop-color="#FFE856"/>
<stop offset="1" stop-color="#FBD241"/>
</linearGradient>
<linearGradient id="paint1_linear_436_11283" x1="27.3095" y1="3.9852" x2="35.909" y2="28.402" gradientUnits="userSpaceOnUse">
<stop stop-color="#FFE856"/>
<stop offset="1" stop-color="#FBD241"/>
</linearGradient>
<linearGradient id="paint2_linear_436_11283" x1="13.9539" y1="51.2751" x2="15.9688" y2="68.4704" gradientUnits="userSpaceOnUse">
<stop stop-color="#FFE856"/>
<stop offset="1" stop-color="#FBD241"/>
</linearGradient>
</defs>
</svg>
