<svg width="56" height="67" viewBox="0 0 56 67" fill="none" xmlns="http://www.w3.org/2000/svg">
<g filter="url(#filter0_d_436_11280)">
<path d="M16.483 16.7503C16.6605 16.7502 16.8365 16.7852 17.0013 16.8534C17.257 16.9666 17.4822 17.1426 17.6572 17.366C17.8323 17.5895 17.9521 17.8537 18.0062 18.1359L19.0549 24.1358L33.9758 24.21L35.802 34.6924L20.8811 34.6223L21.9218 40.6263C21.9649 40.7905 21.9702 40.9629 21.9372 41.1295C21.9042 41.2962 21.8339 41.4526 21.732 41.5861C21.63 41.7196 21.4992 41.8266 21.35 41.8983C21.2009 41.9701 21.0376 42.0048 20.8731 41.9995C20.5116 41.9865 20.1665 41.8403 19.9002 41.5871L7.56709 30.2924C7.28867 30.0378 7.09826 29.696 7.0248 29.3192C6.99108 29.1507 6.99175 28.9767 7.02677 28.8084C7.06179 28.6401 7.13038 28.4812 7.22816 28.3419L15.6616 17.1462C15.7598 17.0193 15.885 16.9175 16.0275 16.8488C16.1699 16.7802 16.3258 16.7465 16.483 16.7503Z" fill="white"/>
<path d="M34.6857 2.00001C35.0497 2.01209 35.3976 2.15835 35.6666 2.41238L48.3107 13.5957C48.5997 13.8459 48.8002 14.1882 48.8809 14.5689C48.9192 14.7361 48.9233 14.9098 48.8931 15.0787C48.8629 15.2477 48.799 15.4083 48.7055 15.5503L40.599 26.8409C40.5033 26.9719 40.379 27.0775 40.2362 27.1492C40.0935 27.2208 39.9363 27.2565 39.7776 27.2533C39.6056 27.2536 39.4351 27.22 39.2752 27.1543C39.0147 27.044 38.7836 26.8707 38.6011 26.649C38.4187 26.4273 38.2902 26.1637 38.2265 25.8801L37.0303 19.8802L22.1373 19.9503L20 9.45971L34.897 9.38548L33.7008 3.38556C33.6347 3.14326 33.65 2.88495 33.7441 2.65279C33.8383 2.42063 34.0057 2.22831 34.2192 2.10723C34.365 2.03593 34.5244 1.99929 34.6857 2.00001Z" fill="white"/>
</g>
<g filter="url(#filter1_d_436_11280)">
<path d="M16.483 16.7503C16.6605 16.7502 16.8365 16.7852 17.0013 16.8534C17.257 16.9666 17.4822 17.1426 17.6572 17.366C17.8323 17.5895 17.9521 17.8537 18.0062 18.1359L19.0549 24.1358L33.9758 24.21L35.802 34.6924L20.8811 34.6223L21.9218 40.6263C21.9649 40.7905 21.9702 40.9629 21.9372 41.1295C21.9042 41.2962 21.8339 41.4526 21.732 41.5861C21.63 41.7196 21.4992 41.8266 21.35 41.8983C21.2009 41.9701 21.0376 42.0048 20.8731 41.9995C20.5116 41.9865 20.1665 41.8403 19.9002 41.5871L7.56709 30.2924C7.28867 30.0378 7.09826 29.696 7.0248 29.3192C6.99108 29.1507 6.99175 28.9767 7.02677 28.8084C7.06179 28.6401 7.13038 28.4812 7.22816 28.3419L15.6616 17.1462C15.7598 17.0193 15.885 16.9175 16.0275 16.8488C16.1699 16.7802 16.3258 16.7465 16.483 16.7503Z" fill="white"/>
<path d="M34.6857 2.00001C35.0497 2.01209 35.3976 2.15835 35.6666 2.41238L48.3107 13.5957C48.5997 13.8459 48.8002 14.1882 48.8809 14.5689C48.9192 14.7361 48.9233 14.9098 48.8931 15.0787C48.8629 15.2477 48.799 15.4083 48.7055 15.5503L40.599 26.8409C40.5033 26.9719 40.379 27.0775 40.2362 27.1492C40.0935 27.2208 39.9363 27.2565 39.7776 27.2533C39.6056 27.2536 39.4351 27.22 39.2752 27.1543C39.0147 27.044 38.7836 26.8707 38.6011 26.649C38.4187 26.4273 38.2902 26.1637 38.2265 25.8801L37.0303 19.8802L22.1373 19.9503L20 9.45971L34.897 9.38548L33.7008 3.38556C33.6347 3.14326 33.65 2.88495 33.7441 2.65279C33.8383 2.42063 34.0057 2.22831 34.2192 2.10723C34.365 2.03593 34.5244 1.99929 34.6857 2.00001Z" fill="white"/>
</g>
<g filter="url(#filter2_d_436_11280)">
<path d="M6.52764 62V55.0415H3.04838V53.1168H11.9316V55.0415H8.45233V62H6.52764ZM19.7512 62L17.1726 58.9279H19.6771L21.7252 61.3461V62H19.7512ZM12.8543 62V53.1291H19.8992C20.2364 53.1291 20.5408 53.2114 20.8122 53.3759C21.0919 53.5404 21.3139 53.7625 21.4784 54.0421C21.6512 54.3218 21.7375 54.6261 21.7375 54.9551V57.2499C21.7375 57.579 21.6512 57.8833 21.4784 58.1629C21.3139 58.4426 21.0919 58.6647 20.8122 58.8292C20.5408 58.9937 20.2364 59.0759 19.8992 59.0759L14.7667 59.0883V62H12.8543ZM14.7667 57.1512H19.8005V55.0415H14.7667V57.1512ZM23.0601 62V54.9428C23.0601 54.6055 23.1423 54.3012 23.3068 54.0298C23.4713 53.7501 23.6934 53.528 23.9731 53.3635C24.2527 53.199 24.5571 53.1168 24.8861 53.1168H30.105C30.4422 53.1168 30.7465 53.199 31.018 53.3635C31.2976 53.528 31.5197 53.7501 31.6842 54.0298C31.8569 54.3012 31.9433 54.6055 31.9433 54.9428V62H30.0063V59.1376H24.9724V62H23.0601ZM24.9724 57.2129H30.0063V55.0415H24.9724V57.2129ZM33.3737 62V53.1168H40.4186C40.7558 53.1168 41.0602 53.199 41.3316 53.3635C41.6113 53.528 41.8333 53.7501 41.9978 54.0298C42.1706 54.3012 42.2569 54.6055 42.2569 54.9428V60.174C42.2569 60.503 42.1706 60.8073 41.9978 61.087C41.8333 61.3667 41.6113 61.5887 41.3316 61.7532C41.0602 61.9177 40.7558 62 40.4186 62H33.3737ZM35.2737 60.0753H40.3199V55.0415H35.2737V60.0753ZM43.6632 62V53.1168H51.8679V55.0415H45.6003V56.596H50.6464V58.5207H45.6003V60.0753H51.8679V62H43.6632Z" fill="white"/>
<path d="M6.52764 62H6.21919V62.3084H6.52764V62ZM6.52764 55.0415H6.83608V54.733H6.52764V55.0415ZM3.04838 55.0415H2.73993V55.3499H3.04838V55.0415ZM3.04838 53.1168V52.8083H2.73993V53.1168H3.04838ZM11.9316 53.1168H12.24V52.8083H11.9316V53.1168ZM11.9316 55.0415V55.3499H12.24V55.0415H11.9316ZM8.45233 55.0415V54.733H8.14389V55.0415H8.45233ZM8.45233 62V62.3084H8.76078V62H8.45233ZM6.83608 62V55.0415H6.21919V62H6.83608ZM6.52764 54.733H3.04838V55.3499H6.52764V54.733ZM3.35682 55.0415V53.1168H2.73993V55.0415H3.35682ZM3.04838 53.4252H11.9316V52.8083H3.04838V53.4252ZM11.6231 53.1168V55.0415H12.24V53.1168H11.6231ZM11.9316 54.733H8.45233V55.3499H11.9316V54.733ZM8.14389 55.0415V62H8.76078V55.0415H8.14389ZM8.45233 61.6916H6.52764V62.3084H8.45233V61.6916ZM19.7512 62L19.5149 62.1983L19.6073 62.3084H19.7512V62ZM17.1726 58.9279V58.6194H16.511L16.9363 59.1262L17.1726 58.9279ZM19.6771 58.9279L19.9125 58.7285L19.8201 58.6194H19.6771V58.9279ZM21.7252 61.3461H22.0336V61.233L21.9606 61.1468L21.7252 61.3461ZM21.7252 62V62.3084H22.0336V62H21.7252ZM12.8543 62H12.5459V62.3084H12.8543V62ZM12.8543 53.1291V52.8207H12.5459V53.1291H12.8543ZM20.8122 53.3759L20.6523 53.6397L20.6558 53.6417L20.8122 53.3759ZM21.4784 54.0421L21.2125 54.1985L21.216 54.2042L21.4784 54.0421ZM21.4784 58.1629L21.216 58.0008L21.2126 58.0066L21.4784 58.1629ZM20.8122 58.8292L20.6558 58.5633L20.6523 58.5654L20.8122 58.8292ZM19.8992 59.0759V58.7675L19.8985 58.7675L19.8992 59.0759ZM14.7667 59.0883L14.7659 58.7798L14.4582 58.7806V59.0883H14.7667ZM14.7667 62V62.3084H15.0751V62H14.7667ZM14.7667 57.1512H14.4582V57.4597H14.7667V57.1512ZM19.8005 57.1512V57.4597H20.1089V57.1512H19.8005ZM19.8005 55.0415H20.1089V54.733H19.8005V55.0415ZM14.7667 55.0415V54.733H14.4582V55.0415H14.7667ZM19.9874 61.8017L17.4088 58.7296L16.9363 59.1262L19.5149 62.1983L19.9874 61.8017ZM17.1726 59.2363H19.6771V58.6194H17.1726V59.2363ZM19.4418 59.1272L21.4898 61.5454L21.9606 61.1468L19.9125 58.7285L19.4418 59.1272ZM21.4168 61.3461V62H22.0336V61.3461H21.4168ZM21.7252 61.6916H19.7512V62.3084H21.7252V61.6916ZM13.1628 62V53.1291H12.5459V62H13.1628ZM12.8543 53.4376H19.8992V52.8207H12.8543V53.4376ZM19.8992 53.4376C20.1837 53.4376 20.4322 53.5062 20.6523 53.6397L20.9721 53.1121C20.6494 52.9165 20.2891 52.8207 19.8992 52.8207V53.4376ZM20.6558 53.6417C20.8903 53.7797 21.0747 53.9641 21.2126 54.1985L21.7443 53.8857C21.5532 53.5609 21.2935 53.3011 20.9686 53.11L20.6558 53.6417ZM21.216 54.2042C21.3586 54.4351 21.4291 54.6833 21.4291 54.9551H22.046C22.046 54.5689 21.9437 54.2085 21.7409 53.88L21.216 54.2042ZM21.4291 54.9551V57.2499H22.046V54.9551H21.4291ZM21.4291 57.2499C21.4291 57.5218 21.3586 57.77 21.216 58.0009L21.7409 58.325C21.9437 57.9966 22.046 57.6362 22.046 57.2499H21.4291ZM21.2126 58.0066C21.0747 58.241 20.8903 58.4254 20.6558 58.5633L20.9686 59.095C21.2935 58.904 21.5532 58.6442 21.7443 58.3193L21.2126 58.0066ZM20.6523 58.5654C20.4322 58.6988 20.1837 58.7675 19.8992 58.7675V59.3844C20.2891 59.3844 20.6494 59.2885 20.9721 59.093L20.6523 58.5654ZM19.8985 58.7675L14.7659 58.7798L14.7674 59.3967L19.8999 59.3844L19.8985 58.7675ZM14.4582 59.0883V62H15.0751V59.0883H14.4582ZM14.7667 61.6916H12.8543V62.3084H14.7667V61.6916ZM14.7667 57.4597H19.8005V56.8428H14.7667V57.4597ZM20.1089 57.1512V55.0415H19.4921V57.1512H20.1089ZM19.8005 54.733H14.7667V55.3499H19.8005V54.733ZM14.4582 55.0415V57.1512H15.0751V55.0415H14.4582ZM23.0601 62H22.7516V62.3084H23.0601V62ZM23.3068 54.0298L23.5707 54.1897L23.5727 54.1862L23.3068 54.0298ZM23.9731 53.3635L23.8167 53.0977L23.8167 53.0977L23.9731 53.3635ZM31.018 53.3635L30.8581 53.6273L30.8616 53.6294L31.018 53.3635ZM31.6842 54.0298L31.4182 54.1863L31.424 54.1954L31.6842 54.0298ZM31.9433 62V62.3084H32.2518V62H31.9433ZM30.0063 62H29.6978V62.3084H30.0063V62ZM30.0063 59.1376H30.3147V58.8292H30.0063V59.1376ZM24.9724 59.1376V58.8292H24.664V59.1376H24.9724ZM24.9724 62V62.3084H25.2809V62H24.9724ZM24.9724 57.2129H24.664V57.5214H24.9724V57.2129ZM30.0063 57.2129V57.5214H30.3147V57.2129H30.0063ZM30.0063 55.0415H30.3147V54.733H30.0063V55.0415ZM24.9724 55.0415V54.733H24.664V55.0415H24.9724ZM23.3685 62V54.9428H22.7516V62H23.3685ZM23.3685 54.9428C23.3685 54.6582 23.4372 54.4098 23.5706 54.1897L23.0431 53.8699C22.8475 54.1926 22.7516 54.5528 22.7516 54.9428H23.3685ZM23.5727 54.1862C23.7106 53.9517 23.895 53.7673 24.1295 53.6294L23.8167 53.0977C23.4918 53.2888 23.2321 53.5485 23.041 53.8734L23.5727 54.1862ZM24.1295 53.6294C24.361 53.4932 24.6113 53.4252 24.8861 53.4252V52.8083C24.5029 52.8083 24.1445 52.9049 23.8167 53.0977L24.1295 53.6294ZM24.8861 53.4252H30.105V52.8083H24.8861V53.4252ZM30.105 53.4252C30.3895 53.4252 30.6379 53.4939 30.8581 53.6273L31.1778 53.0998C30.8552 52.9042 30.4949 52.8083 30.105 52.8083V53.4252ZM30.8616 53.6294C31.096 53.7673 31.2804 53.9517 31.4184 54.1862L31.9501 53.8734C31.759 53.5485 31.4992 53.2888 31.1744 53.0977L30.8616 53.6294ZM31.424 54.1954C31.5637 54.4149 31.6349 54.6612 31.6349 54.9428H32.2518C32.2518 54.5499 32.1502 54.1876 31.9444 53.8642L31.424 54.1954ZM31.6349 54.9428V62H32.2518V54.9428H31.6349ZM31.9433 61.6916H30.0063V62.3084H31.9433V61.6916ZM30.3147 62V59.1376H29.6978V62H30.3147ZM30.0063 58.8292H24.9724V59.4461H30.0063V58.8292ZM24.664 59.1376V62H25.2809V59.1376H24.664ZM24.9724 61.6916H23.0601V62.3084H24.9724V61.6916ZM24.9724 57.5214H30.0063V56.9045H24.9724V57.5214ZM30.3147 57.2129V55.0415H29.6978V57.2129H30.3147ZM30.0063 54.733H24.9724V55.3499H30.0063V54.733ZM24.664 55.0415V57.2129H25.2809V55.0415H24.664ZM33.3737 62H33.0653V62.3084H33.3737V62ZM33.3737 53.1168V52.8083H33.0653V53.1168H33.3737ZM41.3316 53.3635L41.1717 53.6273L41.1752 53.6294L41.3316 53.3635ZM41.9978 54.0298L41.7318 54.1863L41.7376 54.1954L41.9978 54.0298ZM41.9978 61.087L41.7354 60.9249L41.732 60.9306L41.9978 61.087ZM41.3316 61.7532L41.1752 61.4874L41.1717 61.4895L41.3316 61.7532ZM35.2737 60.0753H34.9653V60.3837H35.2737V60.0753ZM40.3199 60.0753V60.3837H40.6283V60.0753H40.3199ZM40.3199 55.0415H40.6283V54.733H40.3199V55.0415ZM35.2737 55.0415V54.733H34.9653V55.0415H35.2737ZM33.6822 62V53.1168H33.0653V62H33.6822ZM33.3737 53.4252H40.4186V52.8083H33.3737V53.4252ZM40.4186 53.4252C40.7031 53.4252 40.9516 53.4939 41.1717 53.6273L41.4915 53.0998C41.1688 52.9042 40.8085 52.8083 40.4186 52.8083V53.4252ZM41.1752 53.6294C41.4097 53.7673 41.5941 53.9517 41.732 54.1862L42.2637 53.8734C42.0726 53.5485 41.8128 53.2888 41.488 53.0977L41.1752 53.6294ZM41.7376 54.1954C41.8773 54.4149 41.9485 54.6612 41.9485 54.9428H42.5654C42.5654 54.5499 42.4638 54.1876 42.2581 53.8642L41.7376 54.1954ZM41.9485 54.9428V60.174H42.5654V54.9428H41.9485ZM41.9485 60.174C41.9485 60.4458 41.878 60.694 41.7354 60.9249L42.2603 61.2491C42.4631 60.9207 42.5654 60.5602 42.5654 60.174H41.9485ZM41.732 60.9306C41.5941 61.1651 41.4097 61.3495 41.1752 61.4874L41.488 62.0191C41.8128 61.828 42.0726 61.5683 42.2637 61.2434L41.732 60.9306ZM41.1717 61.4895C40.9516 61.6229 40.7031 61.6916 40.4186 61.6916V62.3084C40.8085 62.3084 41.1688 62.2126 41.4915 62.017L41.1717 61.4895ZM40.4186 61.6916H33.3737V62.3084H40.4186V61.6916ZM35.2737 60.3837H40.3199V59.7669H35.2737V60.3837ZM40.6283 60.0753V55.0415H40.0115V60.0753H40.6283ZM40.3199 54.733H35.2737V55.3499H40.3199V54.733ZM34.9653 55.0415V60.0753H35.5822V55.0415H34.9653ZM43.6632 62H43.3548V62.3084H43.6632V62ZM43.6632 53.1168V52.8083H43.3548V53.1168H43.6632ZM51.8679 53.1168H52.1763V52.8083H51.8679V53.1168ZM51.8679 55.0415V55.3499H52.1763V55.0415H51.8679ZM45.6003 55.0415V54.733H45.2918V55.0415H45.6003ZM45.6003 56.596H45.2918V56.9045H45.6003V56.596ZM50.6464 56.596H50.9549V56.2876H50.6464V56.596ZM50.6464 58.5207V58.8292H50.9549V58.5207H50.6464ZM45.6003 58.5207V58.2123H45.2918V58.5207H45.6003ZM45.6003 60.0753H45.2918V60.3837H45.6003V60.0753ZM51.8679 60.0753H52.1763V59.7669H51.8679V60.0753ZM51.8679 62V62.3084H52.1763V62H51.8679ZM43.9717 62V53.1168H43.3548V62H43.9717ZM43.6632 53.4252H51.8679V52.8083H43.6632V53.4252ZM51.5594 53.1168V55.0415H52.1763V53.1168H51.5594ZM51.8679 54.733H45.6003V55.3499H51.8679V54.733ZM45.2918 55.0415V56.596H45.9087V55.0415H45.2918ZM45.6003 56.9045H50.6464V56.2876H45.6003V56.9045ZM50.338 56.596V58.5207H50.9549V56.596H50.338ZM50.6464 58.2123H45.6003V58.8292H50.6464V58.2123ZM45.2918 58.5207V60.0753H45.9087V58.5207H45.2918ZM45.6003 60.3837H51.8679V59.7669H45.6003V60.3837ZM51.5594 60.0753V62H52.1763V60.0753H51.5594ZM51.8679 61.6916H43.6632V62.3084H51.8679V61.6916Z" fill="white"/>
</g>
<defs>
<filter id="filter0_d_436_11280" x="3" y="0" width="49.9131" height="48" filterUnits="userSpaceOnUse" color-interpolation-filters="sRGB">
<feFlood flood-opacity="0" result="BackgroundImageFix"/>
<feColorMatrix in="SourceAlpha" type="matrix" values="0 0 0 0 0 0 0 0 0 0 0 0 0 0 0 0 0 0 127 0" result="hardAlpha"/>
<feOffset dy="2"/>
<feGaussianBlur stdDeviation="2"/>
<feComposite in2="hardAlpha" operator="out"/>
<feColorMatrix type="matrix" values="0 0 0 0 0 0 0 0 0 0 0 0 0 0 0 0 0 0 0.15 0"/>
<feBlend mode="normal" in2="BackgroundImageFix" result="effect1_dropShadow_436_11280"/>
<feBlend mode="normal" in="SourceGraphic" in2="effect1_dropShadow_436_11280" result="shape"/>
</filter>
<filter id="filter1_d_436_11280" x="3" y="0" width="49.9131" height="48" filterUnits="userSpaceOnUse" color-interpolation-filters="sRGB">
<feFlood flood-opacity="0" result="BackgroundImageFix"/>
<feColorMatrix in="SourceAlpha" type="matrix" values="0 0 0 0 0 0 0 0 0 0 0 0 0 0 0 0 0 0 127 0" result="hardAlpha"/>
<feOffset dy="2"/>
<feGaussianBlur stdDeviation="2"/>
<feComposite in2="hardAlpha" operator="out"/>
<feColorMatrix type="matrix" values="0 0 0 0 0 0 0 0 0 0 0 0 0 0 0 0 0 0 0.15 0"/>
<feBlend mode="normal" in2="BackgroundImageFix" result="effect1_dropShadow_436_11280"/>
<feBlend mode="normal" in="SourceGraphic" in2="effect1_dropShadow_436_11280" result="shape"/>
</filter>
<filter id="filter2_d_436_11280" x="2.43145" y="52.4999" width="52.5209" height="12.5846" filterUnits="userSpaceOnUse" color-interpolation-filters="sRGB">
<feFlood flood-opacity="0" result="BackgroundImageFix"/>
<feColorMatrix in="SourceAlpha" type="matrix" values="0 0 0 0 0 0 0 0 0 0 0 0 0 0 0 0 0 0 127 0" result="hardAlpha"/>
<feOffset dx="1.23378" dy="1.23378"/>
<feGaussianBlur stdDeviation="0.925335"/>
<feComposite in2="hardAlpha" operator="out"/>
<feColorMatrix type="matrix" values="0 0 0 0 0 0 0 0 0 0 0 0 0 0 0 0 0 0 0.15 0"/>
<feBlend mode="normal" in2="BackgroundImageFix" result="effect1_dropShadow_436_11280"/>
<feBlend mode="normal" in="SourceGraphic" in2="effect1_dropShadow_436_11280" result="shape"/>
</filter>
</defs>
</svg>
