<svg width="17" height="21" viewBox="0 0 17 21" fill="none" xmlns="http://www.w3.org/2000/svg">
<path fill-rule="evenodd" clip-rule="evenodd" d="M14.5539 1.00677H5.86954C5.34261 1.00677 4.86127 1.22829 4.51673 1.57858C4.1722 1.92888 3.95433 2.41826 3.95433 2.95401V3.8452H2.43938C1.91245 3.8452 1.43618 4.06671 1.08657 4.42216C0.742038 4.77245 0.52417 5.26184 0.52417 5.79758V18.0476C0.52417 18.5834 0.742038 19.0728 1.08657 19.4282C1.43111 19.7785 1.91245 20 2.43938 20H11.1288C11.6557 20 12.132 19.7836 12.4816 19.4282C12.8261 19.0779 13.044 18.5885 13.044 18.0528V17.1513H14.5539C15.0808 17.1513 15.5571 16.9349 15.9067 16.5795C16.2512 16.2292 16.4691 15.7398 16.4691 15.204V2.95401C16.4691 2.41826 16.2563 1.93403 15.9067 1.57858C15.5622 1.22829 15.0808 1.00677 14.5539 1.00677ZM3.95433 4.44276H2.43938C2.07458 4.44276 1.74018 4.5973 1.49698 4.83942C1.25378 5.08669 1.10684 5.42668 1.10684 5.79758V18.0476C1.10684 18.4185 1.25884 18.7585 1.49698 19.0058C1.74018 19.253 2.07458 19.4024 2.43938 19.4024H11.1237C11.4885 19.4024 11.8229 19.2479 12.0661 19.0058C12.3093 18.7585 12.4563 18.4185 12.4563 18.0476V17.1564H5.86954C5.34261 17.1564 4.86127 16.9349 4.51673 16.5846C4.16713 16.2292 3.95433 15.7449 3.95433 15.2092V15.2054C3.95433 15.205 3.95433 15.2045 3.95433 15.204L3.95433 4.44276ZM4.537 15.2052C4.53731 15.5756 4.68924 15.9152 4.92714 16.1622C5.17034 16.4095 5.50474 16.5589 5.86954 16.5589H14.5539C14.9187 16.5589 15.2531 16.4043 15.4963 16.1622C15.7395 15.9149 15.8864 15.5749 15.8864 15.204V2.95401C15.8864 2.5831 15.7344 2.24311 15.4963 1.99584C15.2531 1.75373 14.9237 1.59919 14.5539 1.59919H5.86954C5.50474 1.59919 5.17034 1.75373 4.92714 1.99584C4.68393 2.24311 4.537 2.5831 4.537 2.95401L4.537 3.8452V4.14398L4.537 15.204C4.537 15.2044 4.537 15.2048 4.537 15.2052Z" fill="white"/>
<path d="M3.95433 3.8452V4.3452H4.45433V3.8452H3.95433ZM1.08657 4.42216L0.730102 4.07155H0.730102L1.08657 4.42216ZM1.08657 19.4282L0.727544 19.7762L0.730102 19.7788L1.08657 19.4282ZM12.4816 19.4282L12.1251 19.0776H12.1251L12.4816 19.4282ZM13.044 17.1513V16.6513H12.544V17.1513H13.044ZM15.9067 16.5795L15.5502 16.2289L15.9067 16.5795ZM15.9067 1.57858L15.5502 1.92919V1.92919L15.9067 1.57858ZM3.95433 4.44276H4.45433V3.94276H3.95433V4.44276ZM1.49698 4.83942L1.1442 4.48506L1.14051 4.48881L1.49698 4.83942ZM1.49698 19.0058L1.13682 19.3526L1.14051 19.3564L1.49698 19.0058ZM12.0661 19.0058L12.4189 19.3601L12.4226 19.3564L12.0661 19.0058ZM12.4563 17.1564H12.9563V16.6564H12.4563V17.1564ZM4.51673 16.5846L4.16026 16.9352H4.16026L4.51673 16.5846ZM3.95433 15.204H3.45433H3.95433ZM4.537 15.2052H4.037L4.037 15.2056L4.537 15.2052ZM4.92714 16.1622L4.56697 16.5091L4.57066 16.5128L4.92714 16.1622ZM15.4963 16.1622L15.8491 16.5166L15.8528 16.5128L15.4963 16.1622ZM15.4963 1.99584L15.8565 1.64893L15.849 1.6415L15.4963 1.99584ZM4.92714 1.99584L4.57436 1.64148L4.57066 1.64523L4.92714 1.99584ZM4.537 2.95401H4.037V2.95401L4.537 2.95401ZM4.537 3.8452H5.037V3.8452L4.537 3.8452ZM4.537 4.14398H5.037H4.537ZM4.537 15.204H4.037H4.537ZM5.86954 1.50677H14.5539V0.506775H5.86954V1.50677ZM4.87321 1.92919C5.12959 1.66852 5.48477 1.50677 5.86954 1.50677V0.506775C5.20044 0.506775 4.59294 0.788055 4.16026 1.22797L4.87321 1.92919ZM4.45433 2.95401C4.45433 2.55495 4.61671 2.18998 4.87321 1.92919L4.16026 1.22797C3.72769 1.66778 3.45433 2.28157 3.45433 2.95401H4.45433ZM4.45433 3.8452V2.95401H3.45433V3.8452H4.45433ZM2.43938 4.3452H3.95433V3.3452H2.43938V4.3452ZM1.44305 4.77277C1.70627 4.50515 2.05697 4.3452 2.43938 4.3452V3.3452C1.76792 3.3452 1.16609 3.62827 0.730102 4.07155L1.44305 4.77277ZM1.02417 5.79758C1.02417 5.39852 1.18655 5.03355 1.44305 4.77277L0.730102 4.07155C0.297527 4.51135 0.0241699 5.12515 0.0241699 5.79758H1.02417ZM1.02417 18.0476V5.79758H0.0241699V18.0476H1.02417ZM1.44559 19.0802C1.18621 18.8126 1.02417 18.4461 1.02417 18.0476H0.0241699C0.0241699 18.7207 0.297871 19.3329 0.727554 19.7762L1.44559 19.0802ZM2.43938 19.5C2.05461 19.5 1.69944 19.3383 1.44305 19.0776L0.730102 19.7788C1.16278 20.2187 1.77029 20.5 2.43938 20.5V19.5ZM11.1288 19.5H2.43938V20.5H11.1288V19.5ZM12.1251 19.0776C11.8644 19.3427 11.5145 19.5 11.1288 19.5V20.5C11.7969 20.5 12.3996 20.2246 12.8381 19.7788L12.1251 19.0776ZM12.544 18.0528C12.544 18.4518 12.3816 18.8168 12.1251 19.0776L12.8381 19.7788C13.2706 19.339 13.544 18.7252 13.544 18.0528H12.544ZM12.544 17.1513V18.0528H13.544V17.1513H12.544ZM14.5539 16.6513H13.044V17.6513H14.5539V16.6513ZM15.5502 16.2289C15.2895 16.494 14.9396 16.6513 14.5539 16.6513V17.6513C15.222 17.6513 15.8247 17.3759 16.2632 16.9301L15.5502 16.2289ZM15.9691 15.204C15.9691 15.6031 15.8067 15.9681 15.5502 16.2289L16.2632 16.9301C16.6957 16.4903 16.9691 15.8765 16.9691 15.204H15.9691ZM15.9691 2.95401V15.204H16.9691V2.95401H15.9691ZM15.5502 1.92919C15.8111 2.19443 15.9691 2.554 15.9691 2.95401H16.9691C16.9691 2.28252 16.7015 1.67362 16.2632 1.22797L15.5502 1.92919ZM14.5539 1.50677C14.9387 1.50677 15.2938 1.66852 15.5502 1.92919L16.2632 1.22797C15.8305 0.788054 15.223 0.506775 14.5539 0.506775V1.50677ZM3.95433 3.94276H2.43938V4.94276H3.95433V3.94276ZM2.43938 3.94276C1.93108 3.94276 1.47281 4.15795 1.14422 4.48508L1.84974 5.19376C2.00755 5.03666 2.21809 4.94276 2.43938 4.94276V3.94276ZM1.14051 4.48881C0.807211 4.82768 0.606841 5.29284 0.606841 5.79758H1.60684C1.60684 5.56052 1.70034 5.3457 1.85345 5.19003L1.14051 4.48881ZM0.606841 5.79758V18.0476H1.60684V5.79758H0.606841ZM0.606841 18.0476C0.606841 18.5566 0.815205 19.0187 1.13684 19.3526L1.85712 18.6589C1.70248 18.4984 1.60684 18.2805 1.60684 18.0476H0.606841ZM1.14051 19.3564C1.47398 19.6954 1.93532 19.9024 2.43938 19.9024V18.9024C2.21385 18.9024 2.00638 18.8107 1.85345 18.6552L1.14051 19.3564ZM2.43938 19.9024H11.1237V18.9024H2.43938V19.9024ZM11.1237 19.9024C11.632 19.9024 12.0903 19.6873 12.4189 19.3601L11.7134 18.6514C11.5556 18.8085 11.345 18.9024 11.1237 18.9024V19.9024ZM12.4226 19.3564C12.7559 19.0175 12.9563 18.5524 12.9563 18.0476H11.9563C11.9563 18.2847 11.8628 18.4995 11.7097 18.6552L12.4226 19.3564ZM12.9563 18.0476V17.1564H11.9563V18.0476H12.9563ZM12.4563 16.6564H5.86954V17.6564H12.4563V16.6564ZM5.86954 16.6564C5.48477 16.6564 5.1296 16.4947 4.87321 16.234L4.16026 16.9352C4.59294 17.3751 5.20044 17.6564 5.86954 17.6564V16.6564ZM4.87321 16.234C4.61233 15.9688 4.45433 15.6092 4.45433 15.2092H3.45433C3.45433 15.8807 3.72193 16.4896 4.16026 16.9352L4.87321 16.234ZM4.45433 15.2092V15.2054H3.45433V15.2092H4.45433ZM4.45433 15.2054C4.45433 15.2051 4.45433 15.2047 4.45433 15.2045C4.45433 15.2042 4.45433 15.2041 4.45433 15.204H3.45433C3.45433 15.2044 3.45433 15.2048 3.45433 15.205C3.45433 15.2053 3.45433 15.2054 3.45433 15.2054H4.45433ZM4.45433 15.204L4.45433 4.44276H3.45433L3.45433 15.204H4.45433ZM4.037 15.2056C4.03743 15.714 4.24569 16.1754 4.56699 16.509L5.28728 15.8154C5.1328 15.655 5.03719 15.4373 5.037 15.2048L4.037 15.2056ZM4.57066 16.5128C4.90414 16.8519 5.36548 17.0589 5.86954 17.0589V16.0589C5.644 16.0589 5.43654 15.9671 5.28361 15.8116L4.57066 16.5128ZM5.86954 17.0589H14.5539V16.0589H5.86954V17.0589ZM14.5539 17.0589C15.0622 17.0589 15.5204 16.8437 15.849 16.5166L15.1435 15.8079C14.9857 15.965 14.7752 16.0589 14.5539 16.0589V17.0589ZM15.8528 16.5128C16.186 16.174 16.3864 15.7088 16.3864 15.204H15.3864C15.3864 15.4411 15.2929 15.6559 15.1398 15.8116L15.8528 16.5128ZM16.3864 15.204V2.95401H15.3864V15.204H16.3864ZM16.3864 2.95401C16.3864 2.44504 16.1781 1.98297 15.8564 1.649L15.1361 2.34268C15.2908 2.50325 15.3864 2.72117 15.3864 2.95401H16.3864ZM15.849 1.6415C15.5212 1.31514 15.0683 1.09919 14.5539 1.09919V2.09919C14.7792 2.09919 14.9849 2.19232 15.1435 2.35019L15.849 1.6415ZM14.5539 1.09919H5.86954V2.09919H14.5539V1.09919ZM5.86954 1.09919C5.36124 1.09919 4.90297 1.31437 4.57437 1.6415L5.2799 2.35019C5.43771 2.19308 5.64824 2.09919 5.86954 2.09919V1.09919ZM4.57066 1.64523C4.23737 1.9841 4.037 2.44926 4.037 2.95401H5.037C5.037 2.71695 5.1305 2.50212 5.28361 2.34646L4.57066 1.64523ZM4.037 2.95401L4.037 3.8452L5.037 3.8452L5.037 2.95401L4.037 2.95401ZM4.037 3.8452V4.14398H5.037V3.8452H4.037ZM4.037 4.14398L4.037 15.204H5.037L5.037 4.14398H4.037ZM4.037 15.204C4.037 15.2044 4.037 15.2048 4.037 15.2049C4.037 15.205 4.037 15.2051 4.037 15.2051C4.037 15.2052 4.037 15.2052 4.037 15.2052H5.037C5.037 15.2048 5.037 15.2045 5.037 15.2043C5.037 15.2042 5.037 15.2041 5.037 15.2041C5.037 15.2041 5.037 15.204 5.037 15.204H4.037Z" fill="white"/>
</svg>
