<svg width="338" height="69" viewBox="0 0 338 69" fill="none" xmlns="http://www.w3.org/2000/svg">
<path d="M313.201 51.0818C303.701 62.4381 289.657 69 274.851 69H20.0676C13.0191 69 7.30518 63.286 7.30518 56.2375C7.30518 53.2117 8.38027 50.2843 10.3386 47.9776L32.1168 22.3261C41.6168 11.1364 55.554 4.6864 70.2325 4.6864H325.711C332.498 4.6864 338 10.1884 338 16.9755C338 19.8583 336.986 22.6494 335.137 24.8605L313.201 51.0818Z" fill="url(#paint0_linear_222_11991)"/>
<path d="M305.896 46.3954C296.396 57.7517 282.352 64.3136 267.546 64.3136H12.7624C5.71394 64.3136 0 58.5996 0 51.5511C0 48.5253 1.07509 45.5979 3.03344 43.2912L24.8116 17.6397C34.3117 6.45001 48.2488 0 62.9274 0H318.406C325.193 0 330.695 5.502 330.695 12.2891C330.695 15.1719 329.681 17.963 327.831 20.1741L305.896 46.3954Z" fill="url(#paint1_linear_222_11991)"/>
<path d="M104.66 44L96.2763 20.96H101.556L106.58 34.688L111.604 20.96H116.18L121.236 34.688L126.26 20.96H131.508L123.124 44H119.316L113.876 29.184L108.468 44H104.66ZM133.137 44V25.696C133.137 24.8213 133.351 24.032 133.777 23.328C134.204 22.6027 134.78 22.0267 135.505 21.6C136.231 21.1733 137.02 20.96 137.873 20.96H151.409C152.284 20.96 153.073 21.1733 153.777 21.6C154.503 22.0267 155.079 22.6027 155.505 23.328C155.953 24.032 156.177 24.8213 156.177 25.696V44H151.153V36.576H138.097V44H133.137ZM138.097 31.584H151.153V25.952H138.097V31.584ZM167.695 44V25.952H158.671V20.96H181.711V25.952H172.687V44H167.695ZM188.841 44C187.966 44 187.166 43.7867 186.441 43.36C185.737 42.9333 185.171 42.368 184.745 41.664C184.318 40.9387 184.105 40.1387 184.105 39.264V25.696C184.105 24.8213 184.318 24.032 184.745 23.328C185.171 22.6027 185.737 22.0267 186.441 21.6C187.166 21.1733 187.966 20.96 188.841 20.96H207.081V25.952H190.121C189.779 25.952 189.513 26.0373 189.321 26.208C189.15 26.3787 189.065 26.6453 189.065 27.008V37.952C189.065 38.2933 189.15 38.56 189.321 38.752C189.513 38.9227 189.779 39.008 190.121 39.008H207.081V44H188.841ZM210.449 44V20.96H215.409V29.984H229.009V20.96H233.969V44H229.009V34.976H215.409V44H210.449Z" fill="white"/>
<path d="M104.66 44L104.19 44.171L104.31 44.5H104.66V44ZM96.2763 20.96V20.46H95.5622L95.8064 21.131L96.2763 20.96ZM101.556 20.96L102.026 20.7882L101.906 20.46H101.556V20.96ZM106.58 34.688L106.111 34.8598L106.58 36.1429L107.05 34.8598L106.58 34.688ZM111.604 20.96V20.46H111.255L111.135 20.7882L111.604 20.96ZM116.18 20.96L116.649 20.7872L116.529 20.46H116.18V20.96ZM121.236 34.688L120.767 34.8608L121.238 36.1388L121.706 34.8598L121.236 34.688ZM126.26 20.96V20.46H125.911L125.791 20.7882L126.26 20.96ZM131.508 20.96L131.978 21.131L132.222 20.46H131.508V20.96ZM123.124 44V44.5H123.474L123.594 44.171L123.124 44ZM119.316 44L118.847 44.1723L118.967 44.5H119.316V44ZM113.876 29.184L114.346 29.0117L113.875 27.7296L113.407 29.0126L113.876 29.184ZM108.468 44V44.5H108.818L108.938 44.1714L108.468 44ZM105.13 43.829L96.7461 20.789L95.8064 21.131L104.19 44.171L105.13 43.829ZM96.2763 21.46H101.556V20.46H96.2763V21.46ZM101.087 21.1318L106.111 34.8598L107.05 34.5162L102.026 20.7882L101.087 21.1318ZM107.05 34.8598L112.074 21.1318L111.135 20.7882L106.111 34.5162L107.05 34.8598ZM111.604 21.46H116.18V20.46H111.604V21.46ZM115.711 21.1328L120.767 34.8608L121.705 34.5152L116.649 20.7872L115.711 21.1328ZM121.706 34.8598L126.73 21.1318L125.791 20.7882L120.767 34.5162L121.706 34.8598ZM126.26 21.46H131.508V20.46H126.26V21.46ZM131.038 20.789L122.654 43.829L123.594 44.171L131.978 21.131L131.038 20.789ZM123.124 43.5H119.316V44.5H123.124V43.5ZM119.786 43.8277L114.346 29.0117L113.407 29.3563L118.847 44.1723L119.786 43.8277ZM113.407 29.0126L107.999 43.8286L108.938 44.1714L114.346 29.3554L113.407 29.0126ZM108.468 43.5H104.66V44.5H108.468V43.5ZM133.137 44H132.637V44.5H133.137V44ZM133.777 23.328L134.205 23.5872L134.208 23.5815L133.777 23.328ZM135.505 21.6L135.252 21.169L135.505 21.6ZM153.777 21.6L153.518 22.0276L153.524 22.031L153.777 21.6ZM155.505 23.328L155.074 23.5815L155.079 23.5891L155.083 23.5964L155.505 23.328ZM156.177 44V44.5H156.677V44H156.177ZM151.153 44H150.653V44.5H151.153V44ZM151.153 36.576H151.653V36.076H151.153V36.576ZM138.097 36.576V36.076H137.597V36.576H138.097ZM138.097 44V44.5H138.597V44H138.097ZM138.097 31.584H137.597V32.084H138.097V31.584ZM151.153 31.584V32.084H151.653V31.584H151.153ZM151.153 25.952H151.653V25.452H151.153V25.952ZM138.097 25.952V25.452H137.597V25.952H138.097ZM133.637 44V25.696H132.637V44H133.637ZM133.637 25.696C133.637 24.9068 133.829 24.2081 134.205 23.5871L133.35 23.0688C132.873 23.8559 132.637 24.7359 132.637 25.696H133.637ZM134.208 23.5815C134.592 22.9295 135.107 22.4145 135.759 22.031L135.252 21.169C134.453 21.6388 133.816 22.2759 133.346 23.0745L134.208 23.5815ZM135.759 22.031C136.406 21.6502 137.108 21.46 137.873 21.46V20.46C136.932 20.46 136.055 20.6965 135.252 21.169L135.759 22.031ZM137.873 21.46H151.409V20.46H137.873V21.46ZM151.409 21.46C152.198 21.46 152.897 21.6513 153.518 22.0276L154.036 21.1724C153.249 20.6954 152.369 20.46 151.409 20.46V21.46ZM153.524 22.031C154.176 22.4145 154.691 22.9295 155.074 23.5815L155.936 23.0745C155.466 22.2759 154.829 21.6388 154.031 21.169L153.524 22.031ZM155.083 23.5964C155.478 24.2162 155.677 24.9116 155.677 25.696H156.677C156.677 24.7311 156.429 23.8478 155.927 23.0596L155.083 23.5964ZM155.677 25.696V44H156.677V25.696H155.677ZM156.177 43.5H151.153V44.5H156.177V43.5ZM151.653 44V36.576H150.653V44H151.653ZM151.153 36.076H138.097V37.076H151.153V36.076ZM137.597 36.576V44H138.597V36.576H137.597ZM138.097 43.5H133.137V44.5H138.097V43.5ZM138.097 32.084H151.153V31.084H138.097V32.084ZM151.653 31.584V25.952H150.653V31.584H151.653ZM151.153 25.452H138.097V26.452H151.153V25.452ZM137.597 25.952V31.584H138.597V25.952H137.597ZM167.695 44H167.195V44.5H167.695V44ZM167.695 25.952H168.195V25.452H167.695V25.952ZM158.671 25.952H158.171V26.452H158.671V25.952ZM158.671 20.96V20.46H158.171V20.96H158.671ZM181.711 20.96H182.211V20.46H181.711V20.96ZM181.711 25.952V26.452H182.211V25.952H181.711ZM172.687 25.952V25.452H172.187V25.952H172.687ZM172.687 44V44.5H173.187V44H172.687ZM168.195 44V25.952H167.195V44H168.195ZM167.695 25.452H158.671V26.452H167.695V25.452ZM159.171 25.952V20.96H158.171V25.952H159.171ZM158.671 21.46H181.711V20.46H158.671V21.46ZM181.211 20.96V25.952H182.211V20.96H181.211ZM181.711 25.452H172.687V26.452H181.711V25.452ZM172.187 25.952V44H173.187V25.952H172.187ZM172.687 43.5H167.695V44.5H172.687V43.5ZM186.44 43.36L186.181 43.7876L186.187 43.791L186.44 43.36ZM184.744 41.664L184.313 41.9175L184.317 41.9232L184.744 41.664ZM184.744 23.328L185.172 23.5872L185.175 23.5815L184.744 23.328ZM186.44 21.6L186.187 21.169L186.181 21.1724L186.44 21.6ZM207.081 20.96H207.581V20.46H207.081V20.96ZM207.081 25.952V26.452H207.581V25.952H207.081ZM189.321 26.208L188.988 25.8343L188.977 25.8441L188.967 25.8544L189.321 26.208ZM189.321 38.752L188.947 39.0842L188.966 39.1062L188.988 39.1257L189.321 38.752ZM207.081 39.008H207.581V38.508H207.081V39.008ZM207.081 44V44.5H207.581V44H207.081ZM188.84 43.5C188.051 43.5 187.339 43.3087 186.694 42.929L186.187 43.791C186.992 44.2647 187.88 44.5 188.84 44.5V43.5ZM186.7 42.9324C186.065 42.5475 185.557 42.0399 185.172 41.4048L184.317 41.9232C184.785 42.6961 185.408 43.3192 186.181 43.7876L186.7 42.9324ZM185.175 41.4105C184.796 40.7651 184.604 40.0532 184.604 39.264H183.604C183.604 40.2241 183.84 41.1122 184.314 41.9175L185.175 41.4105ZM184.604 39.264V25.696H183.604V39.264H184.604ZM184.604 25.696C184.604 24.9068 184.796 24.2081 185.172 23.5871L184.317 23.0688C183.84 23.8559 183.604 24.7359 183.604 25.696H184.604ZM185.175 23.5815C185.561 22.9259 186.068 22.4104 186.7 22.0276L186.181 21.1724C185.405 21.643 184.781 22.2795 184.314 23.0745L185.175 23.5815ZM186.694 22.031C187.339 21.6513 188.051 21.46 188.84 21.46V20.46C187.88 20.46 186.992 20.6953 186.187 21.169L186.694 22.031ZM188.84 21.46H207.081V20.46H188.84V21.46ZM206.581 20.96V25.952H207.581V20.96H206.581ZM207.081 25.452H190.12V26.452H207.081V25.452ZM190.12 25.452C189.698 25.452 189.298 25.5587 188.988 25.8343L189.653 26.5817C189.727 26.516 189.861 26.452 190.12 26.452V25.452ZM188.967 25.8544C188.664 26.1569 188.564 26.5785 188.564 27.008H189.564C189.564 26.7121 189.635 26.6004 189.674 26.5616L188.967 25.8544ZM188.564 27.008V37.952H189.564V27.008H188.564ZM188.564 37.952C188.564 38.3749 188.671 38.7741 188.947 39.0842L189.694 38.4198C189.628 38.3459 189.564 38.2118 189.564 37.952H188.564ZM188.988 39.1257C189.298 39.4013 189.698 39.508 190.12 39.508V38.508C189.861 38.508 189.727 38.444 189.653 38.3783L188.988 39.1257ZM190.12 39.508H207.081V38.508H190.12V39.508ZM206.581 39.008V44H207.581V39.008H206.581ZM207.081 43.5H188.84V44.5H207.081V43.5ZM210.449 44H209.949V44.5H210.449V44ZM210.449 20.96V20.46H209.949V20.96H210.449ZM215.409 20.96H215.909V20.46H215.409V20.96ZM215.409 29.984H214.909V30.484H215.409V29.984ZM229.009 29.984V30.484H229.509V29.984H229.009ZM229.009 20.96V20.46H228.509V20.96H229.009ZM233.969 20.96H234.469V20.46H233.969V20.96ZM233.969 44V44.5H234.469V44H233.969ZM229.009 44H228.509V44.5H229.009V44ZM229.009 34.976H229.509V34.476H229.009V34.976ZM215.409 34.976V34.476H214.909V34.976H215.409ZM215.409 44V44.5H215.909V44H215.409ZM210.949 44V20.96H209.949V44H210.949ZM210.449 21.46H215.409V20.46H210.449V21.46ZM214.909 20.96V29.984H215.909V20.96H214.909ZM215.409 30.484H229.009V29.484H215.409V30.484ZM229.509 29.984V20.96H228.509V29.984H229.509ZM229.009 21.46H233.969V20.46H229.009V21.46ZM233.469 20.96V44H234.469V20.96H233.469ZM233.969 43.5H229.009V44.5H233.969V43.5ZM229.509 44V34.976H228.509V44H229.509ZM229.009 34.476H215.409V35.476H229.009V34.476ZM214.909 34.976V44H215.909V34.976H214.909ZM215.409 43.5H210.449V44.5H215.409V43.5Z" fill="white"/>
<defs>
<linearGradient id="paint0_linear_222_11991" x1="7.30518" y1="36.8432" x2="338" y2="36.8432" gradientUnits="userSpaceOnUse">
<stop offset="0.59" stop-color="#05339C"/>
<stop offset="1" stop-color="#8F05C7"/>
</linearGradient>
<linearGradient id="paint1_linear_222_11991" x1="22.1523" y1="48.2352" x2="61.065" y2="-67.2843" gradientUnits="userSpaceOnUse">
<stop stop-color="#FAD0C4"/>
<stop offset="1" stop-color="#FBC2EB"/>
</linearGradient>
</defs>
</svg>
