<svg width="150" height="34" viewBox="0 0 150 34" fill="none" xmlns="http://www.w3.org/2000/svg">
<g filter="url(#filter0_d_223_8987)">
<path d="M42.1532 24V9.6H45.3532L50.2332 15.42L55.0932 9.6H58.3132V24H55.1932V14.34L50.2332 20.26L45.2532 14.36V24H42.1532ZM63.6279 24C63.0946 24 62.6012 23.8667 62.1479 23.6C61.6946 23.3333 61.3346 22.9733 61.0679 22.52C60.8012 22.0667 60.6679 21.5733 60.6679 21.04V12.56C60.6679 12.0133 60.8012 11.52 61.0679 11.08C61.3346 10.6267 61.6946 10.2667 62.1479 10C62.6012 9.73333 63.0946 9.6 63.6279 9.6H72.1079C72.6412 9.6 73.1279 9.73333 73.5679 10C74.0212 10.2667 74.3812 10.6267 74.6479 11.08C74.9279 11.52 75.0679 12.0133 75.0679 12.56V21.04C75.0679 21.5733 74.9279 22.0667 74.6479 22.52C74.3812 22.9733 74.0212 23.3333 73.5679 23.6C73.1279 23.8667 72.6412 24 72.1079 24H63.6279ZM63.7679 20.88H71.9279V12.72H63.7679V20.88ZM88.4504 24L84.2704 19.02H88.3304L91.6504 22.94V24H88.4504ZM77.2704 24V9.62H88.6904C89.2371 9.62 89.7304 9.75333 90.1704 10.02C90.6237 10.2867 90.9837 10.6467 91.2504 11.1C91.5304 11.5533 91.6704 12.0467 91.6704 12.58V16.3C91.6704 16.8333 91.5304 17.3267 91.2504 17.78C90.9837 18.2333 90.6237 18.5933 90.1704 18.86C89.7304 19.1267 89.2371 19.26 88.6904 19.26L80.3704 19.28V24H77.2704ZM80.3704 16.14H88.5304V12.72H80.3704V16.14ZM93.8143 24V9.6H107.114V12.72H96.9543V15.24H105.134V18.36H96.9543V20.88H107.114V24H93.8143Z" fill="white"/>
<path d="M42.1532 24H41.6532V24.5H42.1532V24ZM42.1532 9.6V9.1H41.6532V9.6H42.1532ZM45.3532 9.6L45.7363 9.27874L45.5865 9.1H45.3532V9.6ZM50.2332 15.42L49.8501 15.7413L50.234 16.1991L50.617 15.7405L50.2332 15.42ZM55.0932 9.6V9.1H54.8593L54.7094 9.27952L55.0932 9.6ZM58.3132 9.6H58.8132V9.1H58.3132V9.6ZM58.3132 24V24.5H58.8132V24H58.3132ZM55.1932 24H54.6932V24.5H55.1932V24ZM55.1932 14.34H55.6932V12.9647L54.8099 14.0189L55.1932 14.34ZM50.2332 20.26L49.8511 20.5825L50.2346 21.0369L50.6165 20.5811L50.2332 20.26ZM45.2532 14.36L45.6353 14.0375L44.7532 12.9925V14.36H45.2532ZM45.2532 24V24.5H45.7532V24H45.2532ZM42.6532 24V9.6H41.6532V24H42.6532ZM42.1532 10.1H45.3532V9.1H42.1532V10.1ZM44.9701 9.92126L49.8501 15.7413L50.6163 15.0987L45.7363 9.27874L44.9701 9.92126ZM50.617 15.7405L55.477 9.92048L54.7094 9.27952L49.8494 15.0995L50.617 15.7405ZM55.0932 10.1H58.3132V9.1H55.0932V10.1ZM57.8132 9.6V24H58.8132V9.6H57.8132ZM58.3132 23.5H55.1932V24.5H58.3132V23.5ZM55.6932 24V14.34H54.6932V24H55.6932ZM54.8099 14.0189L49.8499 19.9389L50.6165 20.5811L55.5765 14.6611L54.8099 14.0189ZM50.6153 19.9375L45.6353 14.0375L44.8711 14.6825L49.8511 20.5825L50.6153 19.9375ZM44.7532 14.36V24H45.7532V14.36H44.7532ZM45.2532 23.5H42.1532V24.5H45.2532V23.5ZM62.1479 23.6L62.4014 23.169L62.1479 23.6ZM61.0679 22.52L60.6369 22.7735L61.0679 22.52ZM61.0679 11.08L61.4955 11.3392L61.4989 11.3335L61.0679 11.08ZM62.1479 10L61.8944 9.56903V9.56903L62.1479 10ZM73.5679 10L73.3087 10.4276L73.3144 10.431L73.5679 10ZM74.6479 11.08L74.2169 11.3335L74.2214 11.3411L74.2261 11.3484L74.6479 11.08ZM74.6479 22.52L74.2224 22.2572L74.2169 22.2665L74.6479 22.52ZM73.5679 23.6L73.3144 23.169L73.3087 23.1724L73.5679 23.6ZM63.7679 20.88H63.2679V21.38H63.7679V20.88ZM71.9279 20.88V21.38H72.4279V20.88H71.9279ZM71.9279 12.72H72.4279V12.22H71.9279V12.72ZM63.7679 12.72V12.22H63.2679V12.72H63.7679ZM63.6279 23.5C63.1824 23.5 62.7768 23.3898 62.4014 23.169L61.8944 24.031C62.4257 24.3435 63.0067 24.5 63.6279 24.5V23.5ZM62.4014 23.169C62.0213 22.9455 61.7224 22.6465 61.4989 22.2665L60.6369 22.7735C60.9467 23.3001 61.3678 23.7212 61.8944 24.031L62.4014 23.169ZM61.4989 22.2665C61.2781 21.8911 61.1679 21.4855 61.1679 21.04H60.1679C60.1679 21.6612 60.3244 22.2422 60.6369 22.7735L61.4989 22.2665ZM61.1679 21.04V12.56H60.1679V21.04H61.1679ZM61.1679 12.56C61.1679 12.0988 61.2792 11.6961 61.4955 11.3392L60.6403 10.8208C60.3233 11.3439 60.1679 11.9279 60.1679 12.56H61.1679ZM61.4989 11.3335C61.7224 10.9535 62.0213 10.6545 62.4014 10.431L61.8944 9.56903C61.3678 9.8788 60.9467 10.2999 60.6369 10.8265L61.4989 11.3335ZM62.4014 10.431C62.7768 10.2102 63.1824 10.1 63.6279 10.1V9.1C63.0067 9.1 62.4257 9.2565 61.8944 9.56903L62.4014 10.431ZM63.6279 10.1H72.1079V9.1H63.6279V10.1ZM72.1079 10.1C72.5534 10.1 72.9498 10.2101 73.3087 10.4276L73.827 9.5724C73.306 9.25659 72.7291 9.1 72.1079 9.1V10.1ZM73.3144 10.431C73.6944 10.6545 73.9934 10.9535 74.2169 11.3335L75.0789 10.8265C74.7691 10.2999 74.348 9.8788 73.8214 9.56903L73.3144 10.431ZM74.2261 11.3484C74.4525 11.7042 74.5679 12.1036 74.5679 12.56H75.5679C75.5679 11.9231 75.4033 11.3358 75.0697 10.8116L74.2261 11.3484ZM74.5679 12.56V21.04H75.5679V12.56H74.5679ZM74.5679 21.04C74.5679 21.4806 74.4537 21.883 74.2225 22.2573L75.0733 22.7827C75.4021 22.2504 75.5679 21.666 75.5679 21.04H74.5679ZM74.2169 22.2665C73.9934 22.6465 73.6944 22.9455 73.3144 23.169L73.8214 24.031C74.348 23.7212 74.7691 23.3001 75.0789 22.7735L74.2169 22.2665ZM73.3087 23.1724C72.9498 23.3899 72.5534 23.5 72.1079 23.5V24.5C72.7291 24.5 73.306 24.3434 73.827 24.0276L73.3087 23.1724ZM72.1079 23.5H63.6279V24.5H72.1079V23.5ZM63.7679 21.38H71.9279V20.38H63.7679V21.38ZM72.4279 20.88V12.72H71.4279V20.88H72.4279ZM71.9279 12.22H63.7679V13.22H71.9279V12.22ZM63.2679 12.72V20.88H64.2679V12.72H63.2679ZM88.4504 24L88.0674 24.3215L88.2173 24.5H88.4504V24ZM84.2704 19.02V18.52H83.1979L83.8874 19.3415L84.2704 19.02ZM88.3304 19.02L88.7119 18.6969L88.5621 18.52H88.3304V19.02ZM91.6504 22.94H92.1504V22.7567L92.0319 22.6169L91.6504 22.94ZM91.6504 24V24.5H92.1504V24H91.6504ZM77.2704 24H76.7704V24.5H77.2704V24ZM77.2704 9.62V9.12H76.7704V9.62H77.2704ZM90.1704 10.02L89.9112 10.4476L89.9169 10.451L90.1704 10.02ZM91.2504 11.1L90.8193 11.3536L90.825 11.3627L91.2504 11.1ZM91.2504 17.78L90.8249 17.5172L90.8194 17.5265L91.2504 17.78ZM90.1704 18.86L89.9169 18.429L89.9112 18.4324L90.1704 18.86ZM88.6904 19.26V18.76L88.6892 18.76L88.6904 19.26ZM80.3704 19.28L80.3692 18.78L79.8704 18.7812V19.28H80.3704ZM80.3704 24V24.5H80.8704V24H80.3704ZM80.3704 16.14H79.8704V16.64H80.3704V16.14ZM88.5304 16.14V16.64H89.0304V16.14H88.5304ZM88.5304 12.72H89.0304V12.22H88.5304V12.72ZM80.3704 12.72V12.22H79.8704V12.72H80.3704ZM88.8334 23.6785L84.6534 18.6985L83.8874 19.3415L88.0674 24.3215L88.8334 23.6785ZM84.2704 19.52H88.3304V18.52H84.2704V19.52ZM87.9488 19.3431L91.2688 23.2631L92.0319 22.6169L88.7119 18.6969L87.9488 19.3431ZM91.1504 22.94V24H92.1504V22.94H91.1504ZM91.6504 23.5H88.4504V24.5H91.6504V23.5ZM77.7704 24V9.62H76.7704V24H77.7704ZM77.2704 10.12H88.6904V9.12H77.2704V10.12ZM88.6904 10.12C89.1516 10.12 89.5543 10.2313 89.9112 10.4476L90.4295 9.5924C89.9065 9.27538 89.3225 9.12 88.6904 9.12V10.12ZM89.9169 10.451C90.2969 10.6745 90.5959 10.9735 90.8194 11.3535L91.6814 10.8465C91.3716 10.3199 90.9505 9.8988 90.4239 9.58903L89.9169 10.451ZM90.825 11.3627C91.0562 11.737 91.1704 12.1394 91.1704 12.58H92.1704C92.1704 11.954 92.0046 11.3696 91.6758 10.8373L90.825 11.3627ZM91.1704 12.58V16.3H92.1704V12.58H91.1704ZM91.1704 16.3C91.1704 16.7406 91.0562 17.143 90.825 17.5173L91.6758 18.0427C92.0046 17.5104 92.1704 16.926 92.1704 16.3H91.1704ZM90.8194 17.5265C90.5959 17.9065 90.2969 18.2055 89.9169 18.429L90.4239 19.291C90.9505 18.9812 91.3716 18.5601 91.6814 18.0335L90.8194 17.5265ZM89.9112 18.4324C89.5543 18.6487 89.1516 18.76 88.6904 18.76V19.76C89.3225 19.76 89.9065 19.6046 90.4295 19.2876L89.9112 18.4324ZM88.6892 18.76L80.3692 18.78L80.3716 19.78L88.6916 19.76L88.6892 18.76ZM79.8704 19.28V24H80.8704V19.28H79.8704ZM80.3704 23.5H77.2704V24.5H80.3704V23.5ZM80.3704 16.64H88.5304V15.64H80.3704V16.64ZM89.0304 16.14V12.72H88.0304V16.14H89.0304ZM88.5304 12.22H80.3704V13.22H88.5304V12.22ZM79.8704 12.72V16.14H80.8704V12.72H79.8704ZM93.8143 24H93.3143V24.5H93.8143V24ZM93.8143 9.6V9.1H93.3143V9.6H93.8143ZM107.114 9.6H107.614V9.1H107.114V9.6ZM107.114 12.72V13.22H107.614V12.72H107.114ZM96.9543 12.72V12.22H96.4543V12.72H96.9543ZM96.9543 15.24H96.4543V15.74H96.9543V15.24ZM105.134 15.24H105.634V14.74H105.134V15.24ZM105.134 18.36V18.86H105.634V18.36H105.134ZM96.9543 18.36V17.86H96.4543V18.36H96.9543ZM96.9543 20.88H96.4543V21.38H96.9543V20.88ZM107.114 20.88H107.614V20.38H107.114V20.88ZM107.114 24V24.5H107.614V24H107.114ZM94.3143 24V9.6H93.3143V24H94.3143ZM93.8143 10.1H107.114V9.1H93.8143V10.1ZM106.614 9.6V12.72H107.614V9.6H106.614ZM107.114 12.22H96.9543V13.22H107.114V12.22ZM96.4543 12.72V15.24H97.4543V12.72H96.4543ZM96.9543 15.74H105.134V14.74H96.9543V15.74ZM104.634 15.24V18.36H105.634V15.24H104.634ZM105.134 17.86H96.9543V18.86H105.134V17.86ZM96.4543 18.36V20.88H97.4543V18.36H96.4543ZM96.9543 21.38H107.114V20.38H96.9543V21.38ZM106.614 20.88V24H107.614V20.88H106.614ZM107.114 23.5H93.8143V24.5H107.114V23.5Z" fill="white"/>
</g>
<defs>
<filter id="filter0_d_223_8987" x="41.1532" y="8.60001" width="70.9611" height="20.4" filterUnits="userSpaceOnUse" color-interpolation-filters="sRGB">
<feFlood flood-opacity="0" result="BackgroundImageFix"/>
<feColorMatrix in="SourceAlpha" type="matrix" values="0 0 0 0 0 0 0 0 0 0 0 0 0 0 0 0 0 0 127 0" result="hardAlpha"/>
<feOffset dx="2" dy="2"/>
<feGaussianBlur stdDeviation="1.5"/>
<feComposite in2="hardAlpha" operator="out"/>
<feColorMatrix type="matrix" values="0 0 0 0 0 0 0 0 0 0 0 0 0 0 0 0 0 0 0.15 0"/>
<feBlend mode="normal" in2="BackgroundImageFix" result="effect1_dropShadow_223_8987"/>
<feBlend mode="normal" in="SourceGraphic" in2="effect1_dropShadow_223_8987" result="shape"/>
</filter>
</defs>
</svg>
