<svg width="156" height="40" viewBox="0 0 156 40" fill="none" xmlns="http://www.w3.org/2000/svg">
<path d="M4.51344 22.6489L23.2549 4.41616C24.1883 3.50808 25.4391 3 26.7414 3H148C150.761 3 153 5.23858 153 8V11.3643C153 12.6116 152.534 13.8138 151.693 14.735L132.859 35.3706C131.912 36.4086 130.571 37 129.166 37H8C5.23858 37 3 34.7614 3 32V26.2327C3 24.8828 3.54585 23.5902 4.51344 22.6489Z" fill="url(#paint0_linear_223_8955)" stroke="white" stroke-opacity="0.2" stroke-width="5" stroke-linejoin="round"/>
<g filter="url(#filter0_d_223_8955)">
<path d="M55.6244 27V12.6H58.8244L66.8844 22.2V12.6H70.0244V27H66.8244L58.7244 17.36V27H55.6244ZM72.305 27V12.6H85.605V15.72H75.445V18.24H83.625V21.36H75.445V27H72.305ZM91.8335 27V15.72H86.1935V12.6H100.593V15.72H94.9535V27H91.8335Z" fill="white"/>
<path d="M55.6244 27H55.1244V27.5H55.6244V27ZM55.6244 12.6V12.1H55.1244V12.6H55.6244ZM58.8244 12.6L59.2074 12.2785L59.0575 12.1H58.8244V12.6ZM66.8844 22.2L66.5015 22.5215L67.3844 23.5731V22.2H66.8844ZM66.8844 12.6V12.1H66.3844V12.6H66.8844ZM70.0244 12.6H70.5244V12.1H70.0244V12.6ZM70.0244 27V27.5H70.5244V27H70.0244ZM66.8244 27L66.4416 27.3217L66.5915 27.5H66.8244V27ZM58.7244 17.36L59.1072 17.0383L58.2244 15.9877V17.36H58.7244ZM58.7244 27V27.5H59.2244V27H58.7244ZM56.1244 27V12.6H55.1244V27H56.1244ZM55.6244 13.1H58.8244V12.1H55.6244V13.1ZM58.4415 12.9215L66.5015 22.5215L67.2674 21.8785L59.2074 12.2785L58.4415 12.9215ZM67.3844 22.2V12.6H66.3844V22.2H67.3844ZM66.8844 13.1H70.0244V12.1H66.8844V13.1ZM69.5244 12.6V27H70.5244V12.6H69.5244ZM70.0244 26.5H66.8244V27.5H70.0244V26.5ZM67.2072 26.6783L59.1072 17.0383L58.3416 17.6817L66.4416 27.3217L67.2072 26.6783ZM58.2244 17.36V27H59.2244V17.36H58.2244ZM58.7244 26.5H55.6244V27.5H58.7244V26.5ZM72.305 27H71.805V27.5H72.305V27ZM72.305 12.6V12.1H71.805V12.6H72.305ZM85.605 12.6H86.105V12.1H85.605V12.6ZM85.605 15.72V16.22H86.105V15.72H85.605ZM75.445 15.72V15.22H74.945V15.72H75.445ZM75.445 18.24H74.945V18.74H75.445V18.24ZM83.625 18.24H84.125V17.74H83.625V18.24ZM83.625 21.36V21.86H84.125V21.36H83.625ZM75.445 21.36V20.86H74.945V21.36H75.445ZM75.445 27V27.5H75.945V27H75.445ZM72.805 27V12.6H71.805V27H72.805ZM72.305 13.1H85.605V12.1H72.305V13.1ZM85.105 12.6V15.72H86.105V12.6H85.105ZM85.605 15.22H75.445V16.22H85.605V15.22ZM74.945 15.72V18.24H75.945V15.72H74.945ZM75.445 18.74H83.625V17.74H75.445V18.74ZM83.125 18.24V21.36H84.125V18.24H83.125ZM83.625 20.86H75.445V21.86H83.625V20.86ZM74.945 21.36V27H75.945V21.36H74.945ZM75.445 26.5H72.305V27.5H75.445V26.5ZM91.8335 27H91.3335V27.5H91.8335V27ZM91.8335 15.72H92.3335V15.22H91.8335V15.72ZM86.1935 15.72H85.6935V16.22H86.1935V15.72ZM86.1935 12.6V12.1H85.6935V12.6H86.1935ZM100.593 12.6H101.093V12.1H100.593V12.6ZM100.593 15.72V16.22H101.093V15.72H100.593ZM94.9535 15.72V15.22H94.4535V15.72H94.9535ZM94.9535 27V27.5H95.4535V27H94.9535ZM92.3335 27V15.72H91.3335V27H92.3335ZM91.8335 15.22H86.1935V16.22H91.8335V15.22ZM86.6935 15.72V12.6H85.6935V15.72H86.6935ZM86.1935 13.1H100.593V12.1H86.1935V13.1ZM100.093 12.6V15.72H101.093V12.6H100.093ZM100.593 15.22H94.9535V16.22H100.593V15.22ZM94.4535 15.72V27H95.4535V15.72H94.4535ZM94.9535 26.5H91.8335V27.5H94.9535V26.5Z" fill="white"/>
</g>
<defs>
<filter id="filter0_d_223_8955" x="54.6245" y="11.6" width="50.9691" height="20.4" filterUnits="userSpaceOnUse" color-interpolation-filters="sRGB">
<feFlood flood-opacity="0" result="BackgroundImageFix"/>
<feColorMatrix in="SourceAlpha" type="matrix" values="0 0 0 0 0 0 0 0 0 0 0 0 0 0 0 0 0 0 127 0" result="hardAlpha"/>
<feOffset dx="2" dy="2"/>
<feGaussianBlur stdDeviation="1.5"/>
<feComposite in2="hardAlpha" operator="out"/>
<feColorMatrix type="matrix" values="0 0 0 0 0 0 0 0 0 0 0 0 0 0 0 0 0 0 0.15 0"/>
<feBlend mode="normal" in2="BackgroundImageFix" result="effect1_dropShadow_223_8955"/>
<feBlend mode="normal" in="SourceGraphic" in2="effect1_dropShadow_223_8955" result="shape"/>
</filter>
<linearGradient id="paint0_linear_223_8955" x1="13.0481" y1="28.5" x2="36.1795" y2="-30.4187" gradientUnits="userSpaceOnUse">
<stop stop-color="#FAD0C4"/>
<stop offset="1" stop-color="#FBC2EB"/>
</linearGradient>
</defs>
</svg>
