<svg width="42" height="42" viewBox="0 0 42 42" fill="none" xmlns="http://www.w3.org/2000/svg">
<g filter="url(#filter0_d_395_5722)">
<mask id="path-1-inside-1_395_5722" fill="white">
<path d="M23.1903 36.5586C22.3202 37.3708 20.9704 37.3725 20.0982 36.5626C19.1315 35.665 19.1315 34.135 20.0982 33.2374L31.485 22.664C33.6153 20.6858 33.6153 17.3142 31.485 15.336L20.0982 4.76262C19.1315 3.86498 19.1315 2.33502 20.0982 1.43738C20.9704 0.627465 22.3202 0.629242 23.1903 1.44145L38.0846 15.345C40.202 17.3216 40.202 20.6784 38.0846 22.655L23.1903 36.5586Z"/>
</mask>
<path d="M23.1903 36.5586C22.3202 37.3708 20.9704 37.3725 20.0982 36.5626C19.1315 35.665 19.1315 34.135 20.0982 33.2374L31.485 22.664C33.6153 20.6858 33.6153 17.3142 31.485 15.336L20.0982 4.76262C19.1315 3.86498 19.1315 2.33502 20.0982 1.43738C20.9704 0.627465 22.3202 0.629242 23.1903 1.44145L38.0846 15.345C40.202 17.3216 40.202 20.6784 38.0846 22.655L23.1903 36.5586Z" fill="#0BFFF0"/>
<path d="M23.1903 1.44145L44.344 -21.2196L23.1903 1.44145ZM31.485 15.336L52.5789 -7.38057L31.485 15.336ZM20.0982 33.2374L-0.995777 10.5208L20.0982 33.2374ZM23.1903 36.5586L44.344 59.2196L23.1903 36.5586ZM-0.995777 10.5208L10.391 -0.052635L52.5789 45.3806L41.1922 55.954L-0.995777 10.5208ZM10.391 38.0526L-0.995777 27.4792L41.1922 -17.954L52.5789 -7.38057L10.391 38.0526ZM44.344 -21.2196L59.2383 -7.31601L16.9309 38.006L2.03661 24.1024L44.344 -21.2196ZM59.2383 45.316L44.344 59.2196L2.03661 13.8975L16.9309 -0.00600371L59.2383 45.316ZM59.2383 -7.31601C74.4841 6.91577 74.4842 31.0842 59.2383 45.316L16.9309 -0.00600371C5.91992 10.2725 5.91997 27.7275 16.9309 38.006L59.2383 -7.31601ZM-0.995773 -21.2792C11.7936 -33.155 31.586 -33.129 44.344 -21.2196L2.03661 24.1024C13.0545 34.3875 30.1473 34.41 41.1922 24.154L-0.995773 -21.2792ZM-0.995777 27.4792C-15.1705 14.317 -15.1705 -8.11702 -0.995773 -21.2792L41.1922 24.154C53.4335 12.7871 53.4336 -6.58699 41.1922 -17.954L-0.995777 27.4792ZM10.391 -0.052635C-0.68676 10.2338 -0.68668 27.7662 10.391 38.0526L52.5789 -7.38057C67.9172 6.86214 67.9173 31.1378 52.5789 45.3806L10.391 -0.052635ZM-0.995766 59.2792C-15.1705 46.117 -15.1705 23.683 -0.995777 10.5208L41.1922 55.954C53.4335 44.587 53.4335 25.213 41.1922 13.846L-0.995766 59.2792ZM41.1922 13.846C30.1473 3.59002 13.0545 3.61255 2.03661 13.8975L44.344 59.2196C31.586 71.129 11.7936 71.1551 -0.995766 59.2792L41.1922 13.846Z" fill="#0BFFF0" mask="url(#path-1-inside-1_395_5722)"/>
<mask id="path-3-inside-2_395_5722" fill="white">
<path d="M4.88269 36.5586C4.01262 37.3708 2.6628 37.3725 1.79059 36.5626C0.8239 35.665 0.823898 34.135 1.79059 33.2374L13.1773 22.664C15.3077 20.6858 15.3077 17.3142 13.1773 15.336L1.79059 4.76262C0.823896 3.86498 0.823898 2.33502 1.79059 1.43738C2.6628 0.627465 4.01262 0.629242 4.88269 1.44145L19.7769 15.345C21.8944 17.3216 21.8944 20.6784 19.7769 22.655L4.88269 36.5586Z"/>
</mask>
<path d="M4.88269 36.5586C4.01262 37.3708 2.6628 37.3725 1.79059 36.5626C0.8239 35.665 0.823898 34.135 1.79059 33.2374L13.1773 22.664C15.3077 20.6858 15.3077 17.3142 13.1773 15.336L1.79059 4.76262C0.823896 3.86498 0.823898 2.33502 1.79059 1.43738C2.6628 0.627465 4.01262 0.629242 4.88269 1.44145L19.7769 15.345C21.8944 17.3216 21.8944 20.6784 19.7769 22.655L4.88269 36.5586Z" fill="#0BFFF0"/>
<path d="M4.88269 1.44145L39.0016 -35.1086L4.88269 1.44145ZM13.1773 15.336L47.1999 -21.3036L13.1773 15.336ZM1.79059 33.2374L-32.232 -3.4023L1.79059 33.2374ZM4.88269 36.5586L39.0016 73.1086L4.88269 36.5586ZM-32.232 -3.4023L-20.8452 -13.9757L47.1999 59.3036L35.8131 69.8771L-32.232 -3.4023ZM-20.8452 51.9757L-32.232 41.4023L35.8131 -31.8771L47.1999 -21.3036L-20.8452 51.9757ZM39.0016 -35.1086L53.8958 -21.205L-14.3419 51.895L-29.2362 37.9915L39.0016 -35.1086ZM53.8958 59.205L39.0016 73.1086L-29.2362 0.00854651L-14.3419 -13.895L53.8958 59.205ZM53.8958 -21.205C77.1881 0.53798 77.1882 37.4619 53.8958 59.205L-14.3419 -13.895C-33.3993 3.89478 -33.3992 34.1053 -14.3419 51.895L53.8958 -21.205ZM-32.232 -35.2023C-12.1386 -53.8604 18.9573 -53.8195 39.0016 -35.1086L-29.2362 37.9915C-10.9321 55.078 17.4642 55.1154 35.8131 38.0771L-32.232 -35.2023ZM-32.232 41.4023C-54.502 20.723 -54.5019 -14.5231 -32.232 -35.2023L35.8131 38.0771C56.1497 19.1932 56.1498 -12.993 35.8131 -31.8771L-32.232 41.4023ZM-20.8452 -13.9757C-40.0182 3.82779 -40.0181 34.1723 -20.8452 51.9757L47.1999 -21.3036C70.6334 0.456051 70.6336 37.5438 47.1999 59.3036L-20.8452 -13.9757ZM-32.2319 73.2023C-54.5019 52.5231 -54.5019 17.277 -32.232 -3.4023L35.8131 69.8771C56.1497 50.9931 56.1497 18.8069 35.8131 -0.0770611L-32.2319 73.2023ZM35.8131 -0.0770611C17.4641 -17.1154 -10.9322 -17.078 -29.2362 0.00854651L39.0016 73.1086C18.9574 91.8195 -12.1385 91.8605 -32.2319 73.2023L35.8131 -0.0770611Z" fill="#0BFFF0" mask="url(#path-3-inside-2_395_5722)"/>
</g>
<defs>
<filter id="filter0_d_395_5722" x="0" y="0" width="42" height="42" filterUnits="userSpaceOnUse" color-interpolation-filters="sRGB">
<feFlood flood-opacity="0" result="BackgroundImageFix"/>
<feColorMatrix in="SourceAlpha" type="matrix" values="0 0 0 0 0 0 0 0 0 0 0 0 0 0 0 0 0 0 127 0" result="hardAlpha"/>
<feOffset dy="4"/>
<feComposite in2="hardAlpha" operator="out"/>
<feColorMatrix type="matrix" values="0 0 0 0 0.0352941 0 0 0 0 0.47451 0 0 0 0 0.482353 0 0 0 1 0"/>
<feBlend mode="normal" in2="BackgroundImageFix" result="effect1_dropShadow_395_5722"/>
<feBlend mode="normal" in="SourceGraphic" in2="effect1_dropShadow_395_5722" result="shape"/>
</filter>
</defs>
</svg>
