<svg width="150" height="34" viewBox="0 0 150 34" fill="none" xmlns="http://www.w3.org/2000/svg">
<g filter="url(#filter0_d_223_8980)">
<path d="M40.3447 24V12.72H34.7047V9.6H49.1047V12.72H43.4647V24H40.3447ZM61.7805 24L57.6005 19.02H61.6605L64.9805 22.94V24H61.7805ZM50.6005 24V9.62H62.0205C62.5671 9.62 63.0605 9.75333 63.5005 10.02C63.9538 10.2867 64.3138 10.6467 64.5805 11.1C64.8605 11.5533 65.0005 12.0467 65.0005 12.58V16.3C65.0005 16.8333 64.8605 17.3267 64.5805 17.78C64.3138 18.2333 63.9538 18.5933 63.5005 18.86C63.0605 19.1267 62.5671 19.26 62.0205 19.26L53.7005 19.28V24H50.6005ZM53.7005 16.14H61.8605V12.72H53.7005V16.14ZM67.1444 24V12.56C67.1444 12.0133 67.2777 11.52 67.5444 11.08C67.811 10.6267 68.171 10.2667 68.6244 10C69.0777 9.73333 69.571 9.6 70.1044 9.6H78.5644C79.111 9.6 79.6044 9.73333 80.0444 10C80.4977 10.2667 80.8577 10.6267 81.1244 11.08C81.4044 11.52 81.5444 12.0133 81.5444 12.56V24H78.4044V19.36H70.2444V24H67.1444ZM70.2444 16.24H78.4044V12.72H70.2444V16.24ZM83.8631 24V9.6H95.2831C95.8298 9.6 96.3231 9.73333 96.7631 10C97.2165 10.2667 97.5765 10.6267 97.8431 11.08C98.1231 11.52 98.2631 12.0133 98.2631 12.56V21.04C98.2631 21.5733 98.1231 22.0667 97.8431 22.52C97.5765 22.9733 97.2165 23.3333 96.7631 23.6C96.3231 23.8667 95.8298 24 95.2831 24H83.8631ZM86.9431 20.88H95.1231V12.72H86.9431V20.88ZM100.543 24V9.6H113.843V12.72H103.683V15.24H111.863V18.36H103.683V20.88H113.843V24H100.543Z" fill="white"/>
<path d="M40.3447 24H39.8447V24.5H40.3447V24ZM40.3447 12.72H40.8447V12.22H40.3447V12.72ZM34.7047 12.72H34.2047V13.22H34.7047V12.72ZM34.7047 9.6V9.1H34.2047V9.6H34.7047ZM49.1047 9.6H49.6047V9.1H49.1047V9.6ZM49.1047 12.72V13.22H49.6047V12.72H49.1047ZM43.4647 12.72V12.22H42.9647V12.72H43.4647ZM43.4647 24V24.5H43.9647V24H43.4647ZM40.8447 24V12.72H39.8447V24H40.8447ZM40.3447 12.22H34.7047V13.22H40.3447V12.22ZM35.2047 12.72V9.6H34.2047V12.72H35.2047ZM34.7047 10.1H49.1047V9.1H34.7047V10.1ZM48.6047 9.6V12.72H49.6047V9.6H48.6047ZM49.1047 12.22H43.4647V13.22H49.1047V12.22ZM42.9647 12.72V24H43.9647V12.72H42.9647ZM43.4647 23.5H40.3447V24.5H43.4647V23.5ZM61.7805 24L61.3975 24.3215L61.5474 24.5H61.7805V24ZM57.6005 19.02V18.52H56.528L57.2175 19.3415L57.6005 19.02ZM61.6605 19.02L62.042 18.6969L61.8922 18.52H61.6605V19.02ZM64.9805 22.94H65.4805V22.7567L65.362 22.6169L64.9805 22.94ZM64.9805 24V24.5H65.4805V24H64.9805ZM50.6005 24H50.1005V24.5H50.6005V24ZM50.6005 9.62V9.12H50.1005V9.62H50.6005ZM63.5005 10.02L63.2413 10.4476L63.247 10.451L63.5005 10.02ZM64.5805 11.1L64.1494 11.3536L64.1551 11.3627L64.5805 11.1ZM64.5805 17.78L64.155 17.5172L64.1495 17.5265L64.5805 17.78ZM63.5005 18.86L63.2469 18.429L63.2413 18.4324L63.5005 18.86ZM62.0205 19.26V18.76L62.0193 18.76L62.0205 19.26ZM53.7005 19.28L53.6993 18.78L53.2005 18.7812V19.28H53.7005ZM53.7005 24V24.5H54.2005V24H53.7005ZM53.7005 16.14H53.2005V16.64H53.7005V16.14ZM61.8605 16.14V16.64H62.3605V16.14H61.8605ZM61.8605 12.72H62.3605V12.22H61.8605V12.72ZM53.7005 12.72V12.22H53.2005V12.72H53.7005ZM62.1634 23.6785L57.9834 18.6985L57.2175 19.3415L61.3975 24.3215L62.1634 23.6785ZM57.6005 19.52H61.6605V18.52H57.6005V19.52ZM61.2789 19.3431L64.5989 23.2631L65.362 22.6169L62.042 18.6969L61.2789 19.3431ZM64.4805 22.94V24H65.4805V22.94H64.4805ZM64.9805 23.5H61.7805V24.5H64.9805V23.5ZM51.1005 24V9.62H50.1005V24H51.1005ZM50.6005 10.12H62.0205V9.12H50.6005V10.12ZM62.0205 10.12C62.4817 10.12 62.8844 10.2313 63.2413 10.4476L63.7596 9.5924C63.2365 9.27538 62.6526 9.12 62.0205 9.12V10.12ZM63.247 10.451C63.627 10.6745 63.9259 10.9735 64.1495 11.3535L65.0114 10.8465C64.7017 10.3199 64.2806 9.8988 63.754 9.58903L63.247 10.451ZM64.1551 11.3627C64.3863 11.737 64.5005 12.1394 64.5005 12.58H65.5005C65.5005 11.954 65.3347 11.3696 65.0059 10.8373L64.1551 11.3627ZM64.5005 12.58V16.3H65.5005V12.58H64.5005ZM64.5005 16.3C64.5005 16.7406 64.3863 17.143 64.1551 17.5173L65.0059 18.0427C65.3347 17.5104 65.5005 16.926 65.5005 16.3H64.5005ZM64.1495 17.5265C63.9259 17.9065 63.627 18.2055 63.247 18.429L63.754 19.291C64.2806 18.9812 64.7017 18.5601 65.0114 18.0335L64.1495 17.5265ZM63.2413 18.4324C62.8844 18.6487 62.4817 18.76 62.0205 18.76V19.76C62.6526 19.76 63.2365 19.6046 63.7596 19.2876L63.2413 18.4324ZM62.0193 18.76L53.6993 18.78L53.7017 19.78L62.0217 19.76L62.0193 18.76ZM53.2005 19.28V24H54.2005V19.28H53.2005ZM53.7005 23.5H50.6005V24.5H53.7005V23.5ZM53.7005 16.64H61.8605V15.64H53.7005V16.64ZM62.3605 16.14V12.72H61.3605V16.14H62.3605ZM61.8605 12.22H53.7005V13.22H61.8605V12.22ZM53.2005 12.72V16.14H54.2005V12.72H53.2005ZM67.1444 24H66.6444V24.5H67.1444V24ZM67.5444 11.08L67.972 11.3392L67.9753 11.3335L67.5444 11.08ZM68.6244 10L68.3709 9.56903V9.56903L68.6244 10ZM80.0444 10L79.7852 10.4276L79.7909 10.431L80.0444 10ZM81.1244 11.08L80.6934 11.3335L80.6978 11.3411L80.7025 11.3484L81.1244 11.08ZM81.5444 24V24.5H82.0444V24H81.5444ZM78.4044 24H77.9044V24.5H78.4044V24ZM78.4044 19.36H78.9044V18.86H78.4044V19.36ZM70.2444 19.36V18.86H69.7444V19.36H70.2444ZM70.2444 24V24.5H70.7444V24H70.2444ZM70.2444 16.24H69.7444V16.74H70.2444V16.24ZM78.4044 16.24V16.74H78.9044V16.24H78.4044ZM78.4044 12.72H78.9044V12.22H78.4044V12.72ZM70.2444 12.72V12.22H69.7444V12.72H70.2444ZM67.6444 24V12.56H66.6444V24H67.6444ZM67.6444 12.56C67.6444 12.0988 67.7557 11.6961 67.972 11.3392L67.1168 10.8208C66.7998 11.3439 66.6444 11.9279 66.6444 12.56H67.6444ZM67.9753 11.3335C68.1989 10.9535 68.4978 10.6545 68.8779 10.431L68.3709 9.56903C67.8443 9.8788 67.4232 10.2999 67.1134 10.8265L67.9753 11.3335ZM68.8779 10.431C69.2533 10.2102 69.6589 10.1 70.1044 10.1V9.1C69.4832 9.1 68.9022 9.2565 68.3709 9.56903L68.8779 10.431ZM70.1044 10.1H78.5644V9.1H70.1044V10.1ZM78.5644 10.1C79.0256 10.1 79.4283 10.2113 79.7852 10.4276L80.3035 9.5724C79.7804 9.25538 79.1965 9.1 78.5644 9.1V10.1ZM79.7909 10.431C80.1709 10.6545 80.4698 10.9535 80.6934 11.3335L81.5553 10.8265C81.2456 10.2999 80.8245 9.8788 80.2979 9.56903L79.7909 10.431ZM80.7025 11.3484C80.929 11.7042 81.0444 12.1036 81.0444 12.56H82.0444C82.0444 11.9231 81.8798 11.3358 81.5462 10.8116L80.7025 11.3484ZM81.0444 12.56V24H82.0444V12.56H81.0444ZM81.5444 23.5H78.4044V24.5H81.5444V23.5ZM78.9044 24V19.36H77.9044V24H78.9044ZM78.4044 18.86H70.2444V19.86H78.4044V18.86ZM69.7444 19.36V24H70.7444V19.36H69.7444ZM70.2444 23.5H67.1444V24.5H70.2444V23.5ZM70.2444 16.74H78.4044V15.74H70.2444V16.74ZM78.9044 16.24V12.72H77.9044V16.24H78.9044ZM78.4044 12.22H70.2444V13.22H78.4044V12.22ZM69.7444 12.72V16.24H70.7444V12.72H69.7444ZM83.8631 24H83.3631V24.5H83.8631V24ZM83.8631 9.6V9.1H83.3631V9.6H83.8631ZM96.7631 10L96.504 10.4276L96.5096 10.431L96.7631 10ZM97.8431 11.08L97.4122 11.3335L97.4166 11.3411L97.4213 11.3484L97.8431 11.08ZM97.8431 22.52L97.4176 22.2572L97.4122 22.2665L97.8431 22.52ZM96.7631 23.6L96.5096 23.169L96.504 23.1724L96.7631 23.6ZM86.9431 20.88H86.4431V21.38H86.9431V20.88ZM95.1231 20.88V21.38H95.6231V20.88H95.1231ZM95.1231 12.72H95.6231V12.22H95.1231V12.72ZM86.9431 12.72V12.22H86.4431V12.72H86.9431ZM84.3631 24V9.6H83.3631V24H84.3631ZM83.8631 10.1H95.2831V9.1H83.8631V10.1ZM95.2831 10.1C95.7444 10.1 96.1471 10.2113 96.504 10.4276L97.0223 9.5724C96.4992 9.25538 95.9152 9.1 95.2831 9.1V10.1ZM96.5096 10.431C96.8897 10.6545 97.1886 10.9535 97.4122 11.3335L98.2741 10.8265C97.9643 10.2999 97.5432 9.8788 97.0166 9.56903L96.5096 10.431ZM97.4213 11.3484C97.6477 11.7042 97.7631 12.1036 97.7631 12.56H98.7631C98.7631 11.9231 98.5985 11.3358 98.265 10.8116L97.4213 11.3484ZM97.7631 12.56V21.04H98.7631V12.56H97.7631ZM97.7631 21.04C97.7631 21.4806 97.6489 21.883 97.4177 22.2573L98.2685 22.7827C98.5973 22.2504 98.7631 21.666 98.7631 21.04H97.7631ZM97.4122 22.2665C97.1886 22.6465 96.8897 22.9455 96.5096 23.169L97.0166 24.031C97.5432 23.7212 97.9643 23.3001 98.2741 22.7735L97.4122 22.2665ZM96.504 23.1724C96.1471 23.3887 95.7444 23.5 95.2831 23.5V24.5C95.9152 24.5 96.4992 24.3446 97.0223 24.0276L96.504 23.1724ZM95.2831 23.5H83.8631V24.5H95.2831V23.5ZM86.9431 21.38H95.1231V20.38H86.9431V21.38ZM95.6231 20.88V12.72H94.6231V20.88H95.6231ZM95.1231 12.22H86.9431V13.22H95.1231V12.22ZM86.4431 12.72V20.88H87.4431V12.72H86.4431ZM100.543 24H100.043V24.5H100.543V24ZM100.543 9.6V9.1H100.043V9.6H100.543ZM113.843 9.6H114.343V9.1H113.843V9.6ZM113.843 12.72V13.22H114.343V12.72H113.843ZM103.683 12.72V12.22H103.183V12.72H103.683ZM103.683 15.24H103.183V15.74H103.683V15.24ZM111.863 15.24H112.363V14.74H111.863V15.24ZM111.863 18.36V18.86H112.363V18.36H111.863ZM103.683 18.36V17.86H103.183V18.36H103.683ZM103.683 20.88H103.183V21.38H103.683V20.88ZM113.843 20.88H114.343V20.38H113.843V20.88ZM113.843 24V24.5H114.343V24H113.843ZM101.043 24V9.6H100.043V24H101.043ZM100.543 10.1H113.843V9.1H100.543V10.1ZM113.343 9.6V12.72H114.343V9.6H113.343ZM113.843 12.22H103.683V13.22H113.843V12.22ZM103.183 12.72V15.24H104.183V12.72H103.183ZM103.683 15.74H111.863V14.74H103.683V15.74ZM111.363 15.24V18.36H112.363V15.24H111.363ZM111.863 17.86H103.683V18.86H111.863V17.86ZM103.183 18.36V20.88H104.183V18.36H103.183ZM103.683 21.38H113.843V20.38H103.683V21.38ZM113.343 20.88V24H114.343V20.88H113.343ZM113.843 23.5H100.543V24.5H113.843V23.5Z" fill="white"/>
</g>
<defs>
<filter id="filter0_d_223_8980" x="33.7047" y="8.60001" width="85.1381" height="20.4" filterUnits="userSpaceOnUse" color-interpolation-filters="sRGB">
<feFlood flood-opacity="0" result="BackgroundImageFix"/>
<feColorMatrix in="SourceAlpha" type="matrix" values="0 0 0 0 0 0 0 0 0 0 0 0 0 0 0 0 0 0 127 0" result="hardAlpha"/>
<feOffset dx="2" dy="2"/>
<feGaussianBlur stdDeviation="1.5"/>
<feComposite in2="hardAlpha" operator="out"/>
<feColorMatrix type="matrix" values="0 0 0 0 0 0 0 0 0 0 0 0 0 0 0 0 0 0 0.15 0"/>
<feBlend mode="normal" in2="BackgroundImageFix" result="effect1_dropShadow_223_8980"/>
<feBlend mode="normal" in="SourceGraphic" in2="effect1_dropShadow_223_8980" result="shape"/>
</filter>
</defs>
</svg>
