<svg width="268" height="56" viewBox="0 0 268 56" fill="none" xmlns="http://www.w3.org/2000/svg">
<path d="M247.783 41.0954C240.291 50.0517 229.214 55.2268 217.537 55.2268H16.5999C11.041 55.2268 6.53467 50.7204 6.53467 45.1616C6.53467 42.7752 7.38255 40.4664 8.92702 38.6473L26.1026 18.417C33.5949 9.5921 44.5865 4.50525 56.1629 4.50525H257.648C263.001 4.50525 267.34 8.84445 267.34 14.1971C267.34 16.4707 266.541 18.6719 265.082 20.4158L247.783 41.0954Z" fill="url(#paint0_linear_338_9869)"/>
<path d="M242.022 37.3994C234.529 46.3556 223.453 51.5307 211.776 51.5307H10.8387C5.27979 51.5307 0.773438 47.0244 0.773438 41.4655C0.773438 39.0791 1.62132 36.7704 3.16579 34.9512L20.3414 14.7209C27.8337 5.89605 38.8253 0.809204 50.4017 0.809204H251.887C257.24 0.809204 261.579 5.14841 261.579 10.5011C261.579 12.7747 260.78 14.9759 259.321 16.7197L242.022 37.3994Z" fill="url(#paint1_linear_338_9869)"/>
<path d="M58.2573 36.2732V18.1025H62.2952L68.4531 25.4465L74.5857 18.1025H78.6489V36.2732H74.7119V24.0837L68.4531 31.5539L62.169 24.1089V36.2732H58.2573ZM81.0397 36.2732V18.1025H84.901V36.2732H81.0397ZM87.068 36.2732V18.1025H91.106L101.277 30.2163V18.1025H105.239V36.2732H101.201L90.9798 24.1089V36.2732H87.068ZM114.274 36.2732V22.0395H107.158V18.1025H125.328V22.0395H118.211V36.2732H114.274ZM135.349 36.2732V18.1025H139.387L149.557 30.2163V18.1025H153.52V36.2732H149.482L139.261 24.1089V36.2732H135.349ZM160.031 36.2732C159.358 36.2732 158.736 36.1049 158.164 35.7685C157.592 35.432 157.138 34.9777 156.801 34.4056C156.465 33.8336 156.296 33.2111 156.296 32.5381V21.8376C156.296 21.1477 156.465 20.5252 156.801 19.97C157.138 19.398 157.592 18.9437 158.164 18.6072C158.736 18.2707 159.358 18.1025 160.031 18.1025H170.732C171.405 18.1025 172.019 18.2707 172.574 18.6072C173.146 18.9437 173.601 19.398 173.937 19.97C174.29 20.5252 174.467 21.1477 174.467 21.8376V32.5381C174.467 33.2111 174.29 33.8336 173.937 34.4056C173.601 34.9777 173.146 35.432 172.574 35.7685C172.019 36.1049 171.405 36.2732 170.732 36.2732H160.031ZM160.208 32.3362H170.505V22.0395H160.208V32.3362ZM182.441 36.2732L175.829 18.1025H179.993L183.955 28.9292L187.918 18.1025H191.527L195.514 28.9292L199.476 18.1025H203.615L197.003 36.2732H194L189.71 24.5884L185.444 36.2732H182.441Z" fill="white"/>
<path d="M58.2573 36.2732H57.863V36.6675H58.2573V36.2732ZM58.2573 18.1025V17.7081H57.863V18.1025H58.2573ZM62.2952 18.1025L62.5974 17.8491L62.4792 17.7081H62.2952V18.1025ZM68.4531 25.4465L68.1509 25.6998L68.4537 26.0609L68.7558 25.6992L68.4531 25.4465ZM74.5857 18.1025V17.7081H74.4013L74.283 17.8497L74.5857 18.1025ZM78.6489 18.1025H79.0432V17.7081H78.6489V18.1025ZM78.6489 36.2732V36.6675H79.0432V36.2732H78.6489ZM74.7119 36.2732H74.3176V36.6675H74.7119V36.2732ZM74.7119 24.0837H75.1062V22.999L74.4096 23.8304L74.7119 24.0837ZM68.4531 31.5539L68.1518 31.8082L68.4542 32.1665L68.7554 31.8071L68.4531 31.5539ZM62.169 24.1089L62.4704 23.8546L61.7747 23.0304V24.1089H62.169ZM62.169 36.2732V36.6675H62.5634V36.2732H62.169ZM58.6516 36.2732V18.1025H57.863V36.2732H58.6516ZM58.2573 18.4968H62.2952V17.7081H58.2573V18.4968ZM61.9931 18.3558L68.1509 25.6998L68.7553 25.1931L62.5974 17.8491L61.9931 18.3558ZM68.7558 25.6992L74.8884 18.3552L74.283 17.8497L68.1504 25.1937L68.7558 25.6992ZM74.5857 18.4968H78.6489V17.7081H74.5857V18.4968ZM78.2546 18.1025V36.2732H79.0432V18.1025H78.2546ZM78.6489 35.8789H74.7119V36.6675H78.6489V35.8789ZM75.1062 36.2732V24.0837H74.3176V36.2732H75.1062ZM74.4096 23.8304L68.1508 31.3006L68.7554 31.8071L75.0142 24.3369L74.4096 23.8304ZM68.7544 31.2995L62.4704 23.8546L61.8677 24.3633L68.1518 31.8082L68.7544 31.2995ZM61.7747 24.1089V36.2732H62.5634V24.1089H61.7747ZM62.169 35.8789H58.2573V36.6675H62.169V35.8789ZM81.0397 36.2732H80.6454V36.6675H81.0397V36.2732ZM81.0397 18.1025V17.7081H80.6454V18.1025H81.0397ZM84.901 18.1025H85.2953V17.7081H84.901V18.1025ZM84.901 36.2732V36.6675H85.2953V36.2732H84.901ZM81.434 36.2732V18.1025H80.6454V36.2732H81.434ZM81.0397 18.4968H84.901V17.7081H81.0397V18.4968ZM84.5067 18.1025V36.2732H85.2953V18.1025H84.5067ZM84.901 35.8789H81.0397V36.6675H84.901V35.8789ZM87.068 36.2732H86.6737V36.6675H87.068V36.2732ZM87.068 18.1025V17.7081H86.6737V18.1025H87.068ZM91.106 18.1025L91.408 17.8489L91.2898 17.7081H91.106V18.1025ZM101.277 30.2163L100.975 30.4698L101.671 31.2992V30.2163H101.277ZM101.277 18.1025V17.7081H100.882V18.1025H101.277ZM105.239 18.1025H105.633V17.7081H105.239V18.1025ZM105.239 36.2732V36.6675H105.633V36.2732H105.239ZM101.201 36.2732L100.899 36.5269L101.017 36.6675H101.201V36.2732ZM90.9798 24.1089L91.2817 23.8552L90.5854 23.0266V24.1089H90.9798ZM90.9798 36.2732V36.6675H91.3741V36.2732H90.9798ZM87.4624 36.2732V18.1025H86.6737V36.2732H87.4624ZM87.068 18.4968H91.106V17.7081H87.068V18.4968ZM90.804 18.356L100.975 30.4698L101.579 29.9627L91.408 17.8489L90.804 18.356ZM101.671 30.2163V18.1025H100.882V30.2163H101.671ZM101.277 18.4968H105.239V17.7081H101.277V18.4968ZM104.844 18.1025V36.2732H105.633V18.1025H104.844ZM105.239 35.8789H101.201V36.6675H105.239V35.8789ZM101.503 36.0195L91.2817 23.8552L90.6779 24.3626L100.899 36.5269L101.503 36.0195ZM90.5854 24.1089V36.2732H91.3741V24.1089H90.5854ZM90.9798 35.8789H87.068V36.6675H90.9798V35.8789ZM114.274 36.2732H113.88V36.6675H114.274V36.2732ZM114.274 22.0395H114.669V21.6451H114.274V22.0395ZM107.158 22.0395H106.763V22.4338H107.158V22.0395ZM107.158 18.1025V17.7081H106.763V18.1025H107.158ZM125.328 18.1025H125.723V17.7081H125.328V18.1025ZM125.328 22.0395V22.4338H125.723V22.0395H125.328ZM118.211 22.0395V21.6451H117.817V22.0395H118.211ZM118.211 36.2732V36.6675H118.606V36.2732H118.211ZM114.669 36.2732V22.0395H113.88V36.2732H114.669ZM114.274 21.6451H107.158V22.4338H114.274V21.6451ZM107.552 22.0395V18.1025H106.763V22.0395H107.552ZM107.158 18.4968H125.328V17.7081H107.158V18.4968ZM124.934 18.1025V22.0395H125.723V18.1025H124.934ZM125.328 21.6451H118.211V22.4338H125.328V21.6451ZM117.817 22.0395V36.2732H118.606V22.0395H117.817ZM118.211 35.8789H114.274V36.6675H118.211V35.8789ZM135.349 36.2732H134.954V36.6675H135.349V36.2732ZM135.349 18.1025V17.7081H134.954V18.1025H135.349ZM139.387 18.1025L139.689 17.8489L139.571 17.7081H139.387V18.1025ZM149.557 30.2163L149.255 30.4698L149.952 31.2992V30.2163H149.557ZM149.557 18.1025V17.7081H149.163V18.1025H149.557ZM153.52 18.1025H153.914V17.7081H153.52V18.1025ZM153.52 36.2732V36.6675H153.914V36.2732H153.52ZM149.482 36.2732L149.18 36.5269L149.298 36.6675H149.482V36.2732ZM139.261 24.1089L139.562 23.8552L138.866 23.0266V24.1089H139.261ZM139.261 36.2732V36.6675H139.655V36.2732H139.261ZM135.743 36.2732V18.1025H134.954V36.2732H135.743ZM135.349 18.4968H139.387V17.7081H135.349V18.4968ZM139.085 18.356L149.255 30.4698L149.859 29.9627L139.689 17.8489L139.085 18.356ZM149.952 30.2163V18.1025H149.163V30.2163H149.952ZM149.557 18.4968H153.52V17.7081H149.557V18.4968ZM153.125 18.1025V36.2732H153.914V18.1025H153.125ZM153.52 35.8789H149.482V36.6675H153.52V35.8789ZM149.783 36.0195L139.562 23.8552L138.959 24.3626L149.18 36.5269L149.783 36.0195ZM138.866 24.1089V36.2732H139.655V24.1089H138.866ZM139.261 35.8789H135.349V36.6675H139.261V35.8789ZM158.164 35.7685L158.364 35.4286L158.164 35.7685ZM156.801 34.4056L156.461 34.6056L156.801 34.4056ZM156.801 19.97L157.138 20.1744L157.141 20.17L156.801 19.97ZM158.164 18.6072L157.964 18.2673V18.2673L158.164 18.6072ZM172.574 18.6072L172.37 18.9445L172.374 18.9471L172.574 18.6072ZM173.937 19.97L173.597 20.1701L173.604 20.1817L173.937 19.97ZM173.937 34.4056L173.602 34.1984L173.597 34.2057L173.937 34.4056ZM172.574 35.7685L172.374 35.4285L172.37 35.4312L172.574 35.7685ZM160.208 32.3362H159.814V32.7305H160.208V32.3362ZM170.505 32.3362V32.7305H170.899V32.3362H170.505ZM170.505 22.0395H170.899V21.6451H170.505V22.0395ZM160.208 22.0395V21.6451H159.814V22.0395H160.208ZM160.031 35.8789C159.428 35.8789 158.874 35.7289 158.364 35.4286L157.964 36.1083C158.598 36.481 159.289 36.6675 160.031 36.6675V35.8789ZM158.364 35.4286C157.85 35.1261 157.444 34.72 157.141 34.2057L156.461 34.6056C156.832 35.2354 157.334 35.7378 157.964 36.1083L158.364 35.4286ZM157.141 34.2057C156.841 33.6952 156.691 33.1418 156.691 32.5381H155.902C155.902 33.2804 156.089 33.9721 156.461 34.6056L157.141 34.2057ZM156.691 32.5381V21.8376H155.902V32.5381H156.691ZM156.691 21.8376C156.691 21.2151 156.842 20.6641 157.138 20.1744L156.464 19.7656C156.088 20.3864 155.902 21.0804 155.902 21.8376H156.691ZM157.141 20.17C157.444 19.6557 157.85 19.2496 158.364 18.9471L157.964 18.2673C157.334 18.6378 156.832 19.1403 156.461 19.7701L157.141 20.17ZM158.364 18.9471C158.874 18.6468 159.428 18.4968 160.031 18.4968V17.7081C159.289 17.7081 158.598 17.8947 157.964 18.2673L158.364 18.9471ZM160.031 18.4968H170.732V17.7081H160.031V18.4968ZM170.732 18.4968C171.336 18.4968 171.879 18.6467 172.37 18.9444L172.779 18.27C172.16 17.8947 171.474 17.7081 170.732 17.7081V18.4968ZM172.374 18.9471C172.889 19.2496 173.295 19.6557 173.597 20.17L174.277 19.7701C173.907 19.1403 173.404 18.6378 172.774 18.2673L172.374 18.9471ZM173.604 20.1817C173.916 20.6705 174.073 21.2189 174.073 21.8376H174.861C174.861 21.0765 174.665 20.3799 174.27 19.7583L173.604 20.1817ZM174.073 21.8376V32.5381H174.861V21.8376H174.073ZM174.073 32.5381C174.073 33.138 173.916 33.6887 173.602 34.1984L174.273 34.6129C174.664 33.9785 174.861 33.2842 174.861 32.5381H174.073ZM173.597 34.2057C173.295 34.72 172.889 35.1261 172.374 35.4286L172.774 36.1083C173.404 35.7378 173.907 35.2354 174.277 34.6056L173.597 34.2057ZM172.37 35.4312C171.879 35.729 171.336 35.8789 170.732 35.8789V36.6675C171.474 36.6675 172.16 36.4809 172.779 36.1057L172.37 35.4312ZM170.732 35.8789H160.031V36.6675H170.732V35.8789ZM160.208 32.7305H170.505V31.9419H160.208V32.7305ZM170.899 32.3362V22.0395H170.111V32.3362H170.899ZM170.505 21.6451H160.208V22.4338H170.505V21.6451ZM159.814 22.0395V32.3362H160.602V22.0395H159.814ZM182.441 36.2732L182.071 36.408L182.165 36.6675H182.441V36.2732ZM175.829 18.1025V17.7081H175.266L175.459 18.2373L175.829 18.1025ZM179.993 18.1025L180.364 17.9669L180.269 17.7081H179.993V18.1025ZM183.955 28.9292L183.585 29.0647L183.955 30.0766L184.326 29.0647L183.955 28.9292ZM187.918 18.1025V17.7081H187.642L187.547 17.9669L187.918 18.1025ZM191.527 18.1025L191.897 17.9662L191.802 17.7081H191.527V18.1025ZM195.514 28.9292L195.144 29.0655L195.515 30.0734L195.884 29.0647L195.514 28.9292ZM199.476 18.1025V17.7081H199.201L199.106 17.9669L199.476 18.1025ZM203.615 18.1025L203.986 18.2373L204.178 17.7081H203.615V18.1025ZM197.003 36.2732V36.6675H197.279L197.374 36.408L197.003 36.2732ZM194 36.2732L193.63 36.4091L193.725 36.6675H194V36.2732ZM189.71 24.5884L190.08 24.4525L189.708 23.4414L189.339 24.4532L189.71 24.5884ZM185.444 36.2732V36.6675H185.72L185.815 36.4084L185.444 36.2732ZM182.812 36.1384L176.2 17.9676L175.459 18.2373L182.071 36.408L182.812 36.1384ZM175.829 18.4968H179.993V17.7081H175.829V18.4968ZM179.623 18.238L183.585 29.0647L184.326 28.7937L180.364 17.9669L179.623 18.238ZM184.326 29.0647L188.288 18.238L187.547 17.9669L183.585 28.7937L184.326 29.0647ZM187.918 18.4968H191.527V17.7081H187.918V18.4968ZM191.157 18.2388L195.144 29.0655L195.884 28.7929L191.897 17.9662L191.157 18.2388ZM195.884 29.0647L199.847 18.238L199.106 17.9669L195.144 28.7937L195.884 29.0647ZM199.476 18.4968H203.615V17.7081H199.476V18.4968ZM203.245 17.9676L196.633 36.1384L197.374 36.408L203.986 18.2373L203.245 17.9676ZM197.003 35.8789H194V36.6675H197.003V35.8789ZM194.37 36.1373L190.08 24.4525L189.339 24.7243L193.63 36.4091L194.37 36.1373ZM189.339 24.4532L185.074 36.138L185.815 36.4084L190.08 24.7236L189.339 24.4532ZM185.444 35.8789H182.441V36.6675H185.444V35.8789Z" fill="white"/>
<defs>
<linearGradient id="paint0_linear_338_9869" x1="24.0053" y1="42.5464" x2="54.6942" y2="-48.5591" gradientUnits="userSpaceOnUse">
<stop stop-color="#B33DEB"/>
<stop offset="1" stop-color="#DE8FFF"/>
</linearGradient>
<linearGradient id="paint1_linear_338_9869" x1="196.378" y1="4.2069" x2="189.883" y2="62.0459" gradientUnits="userSpaceOnUse">
<stop stop-color="#F3A6FF"/>
<stop offset="1" stop-color="#B380F5"/>
</linearGradient>
</defs>
</svg>
